<svg width="834" height="530" viewBox="0 0 834 530" fill="none" xmlns="http://www.w3.org/2000/svg">
<path d="M786.076 319.933H48.5427V325.752H786.076V319.933Z" fill="#76B7F3"/>
<path d="M710.552 248.867C711.667 249.362 714.39 249.238 714.39 249.238C714.39 249.238 713.771 247.505 713.771 247.381C713.152 246.143 711.295 244.038 709.809 244.286C708.695 244.41 708.076 245.524 708.324 246.638C708.448 247.629 709.562 248.495 710.552 248.867Z" fill="#C4E8FF"/>
<path d="M746.085 239.581C744.6 239.457 742.743 241.562 742.124 242.8C742.124 242.924 741.505 244.657 741.505 244.657C741.257 245.029 740.885 245.4 740.514 245.771C739.895 246.514 739.276 247.381 738.533 248.371C737.914 249.362 737.171 250.352 736.552 251.59C735.933 252.829 735.314 254.067 734.819 255.429C734.819 254.933 734.819 253.695 734.819 253.571C734.695 252.21 733.457 249.61 731.971 249.362C730.857 249.114 729.99 249.981 729.866 251.095C729.743 252.21 730.609 253.324 731.352 253.943C732.219 254.686 734.571 255.429 734.819 255.552C734.447 256.914 734.076 258.276 733.828 259.762C733.705 260.629 733.581 261.371 733.457 262.238C733.457 261.867 733.457 261.495 733.457 261.495C733.333 260.133 732.095 257.533 730.609 257.286C729.495 257.038 728.628 257.905 728.505 259.019C728.381 260.133 729.247 261.248 729.99 261.867C730.733 262.61 732.838 263.229 733.333 263.476C733.333 263.848 733.209 264.095 733.209 264.467C732.962 266.076 732.838 267.562 732.59 269.048C732.466 269.543 732.466 270.162 732.343 270.657C732.343 270.286 732.343 270.038 732.343 269.914C732.219 268.552 730.981 265.952 729.495 265.705C728.381 265.457 727.514 266.324 727.39 267.438C727.266 268.552 728.133 269.667 728.876 270.286C729.619 270.905 731.476 271.648 732.095 271.771C731.971 272.267 731.847 272.886 731.724 273.381C731.6 273.752 731.6 274.124 731.476 274.371C731.352 274.743 731.228 275.114 731.105 275.362C730.857 275.981 730.609 276.724 730.362 277.219C730.238 277.59 729.99 278.086 729.866 278.457C729.99 277.962 730.114 276.848 730.114 276.848C730.114 275.981 729.866 274.495 729.124 273.381C729.124 273.257 729.124 273.133 729.124 273.01C729 271.895 728.009 271.152 726.895 271.4C725.409 271.771 724.419 274.371 724.419 275.857C724.419 275.981 724.419 276.848 724.543 277.343C724.419 276.971 724.419 276.724 724.295 276.352C724.171 275.733 723.924 274.99 723.8 274.371C723.676 274 723.552 273.752 723.428 273.381C723.305 273.01 723.181 272.638 723.057 272.39C722.809 271.524 722.438 270.781 722.066 269.914C722.686 269.79 724.666 269.295 725.533 268.676C726.4 268.057 727.266 267.067 727.266 265.952C727.266 264.838 726.4 263.971 725.285 264.095C723.8 264.219 722.438 266.695 722.19 268.057C722.19 268.181 722.066 269.171 722.066 269.667C721.819 269.171 721.571 268.676 721.447 268.181C720.705 266.819 719.962 265.457 719.343 263.971C719.095 263.6 718.847 263.105 718.724 262.733C718.971 262.733 721.324 262.114 722.314 261.371C723.181 260.752 724.047 259.762 724.047 258.648C724.047 257.533 723.181 256.667 722.066 256.79C720.581 256.914 719.219 259.39 718.971 260.752C718.971 260.876 718.847 262.238 718.847 262.61C718.352 261.619 717.857 260.752 717.486 259.762C716.866 258.524 716.371 257.162 716 255.8C716.124 255.8 718.6 255.181 719.59 254.438C720.457 253.819 721.324 252.829 721.324 251.714C721.324 250.6 720.457 249.733 719.343 249.857C717.857 249.981 716.495 252.457 716.247 253.819C716.247 253.943 716.124 255.429 716.124 255.8C716.124 255.676 716.124 255.676 716 255.552C715.628 254.19 715.381 252.705 715.257 251.467C715.133 250.724 715.133 249.981 715.133 249.238C715.628 249.238 717.857 248.867 718.724 248.371C719.59 247.876 720.581 246.886 720.705 245.771C720.828 244.657 720.086 243.667 718.971 243.667C717.362 243.667 715.876 245.895 715.381 247.257C715.381 247.381 715.257 248.124 715.133 248.619C715.133 248.248 715.133 248 715.133 247.629C715.133 246.514 715.257 245.4 715.257 244.41C715.257 243.914 715.381 243.419 715.381 242.924C715.876 242.676 717.609 241.314 718.228 240.448C718.724 239.581 719.219 238.343 718.847 237.229C718.476 236.238 717.362 235.619 716.371 236.238C715.009 236.981 714.638 239.705 714.885 241.067C714.885 241.19 715.381 243.048 715.505 242.924C715.505 243.419 715.381 243.79 715.381 244.286C715.257 245.276 715.133 246.267 715.133 247.505C715.133 248.619 715.133 249.981 715.257 251.343C715.381 252.705 715.628 254.067 716 255.552C715.752 255.181 715.009 254.067 715.009 254.067C714.143 253.076 711.79 251.59 710.305 252.086C709.314 252.581 708.943 253.695 709.438 254.686C709.933 255.676 711.171 256.171 712.285 256.295C713.4 256.419 715.876 255.8 716 255.676C716.371 257.038 716.866 258.4 717.486 259.762C717.857 260.505 718.228 261.248 718.6 262.114C718.352 261.743 718.228 261.495 718.105 261.495C717.238 260.505 714.886 259.019 713.4 259.514C712.409 260.01 712.038 261.124 712.533 262.114C713.028 263.105 714.266 263.6 715.381 263.724C716.371 263.848 718.476 263.352 719.095 263.105C719.219 263.352 719.343 263.724 719.59 263.971C720.333 265.333 720.952 266.819 721.695 268.181C721.943 268.676 722.19 269.171 722.314 269.667C722.066 269.419 721.943 269.171 721.943 269.048C721.076 268.057 718.724 266.571 717.238 267.067C716.247 267.562 715.876 268.676 716.371 269.667C716.866 270.657 718.105 271.152 719.219 271.276C720.209 271.4 722.19 270.905 722.809 270.781C723.057 271.276 723.181 271.771 723.428 272.267C723.552 272.638 723.676 272.886 723.8 273.257C723.924 273.629 724.047 274 724.047 274.248C724.171 274.867 724.419 275.61 724.543 276.229C724.666 276.724 724.79 277.095 724.79 277.59C724.543 277.095 724.171 276.105 724.047 276.105C723.305 274.99 721.2 273.133 719.714 273.505C718.6 273.752 718.105 274.99 718.476 275.981C718.847 276.971 720.085 277.714 720.952 277.962C722.066 278.333 724.419 277.962 724.79 277.962C724.914 278.705 725.038 279.324 725.162 280.067C725.533 282.419 725.781 284.276 726.028 285.638C726.028 285.886 726.028 286.133 726.152 286.257H721.447L723.181 319.438H731.105L732.838 286.257H728.505C728.505 286.133 728.628 286.133 728.628 286.01C729.247 284.771 729.99 283.038 730.981 280.81C731.228 280.067 731.6 279.324 731.847 278.581C732.095 278.581 734.571 279.076 735.686 278.829C736.676 278.581 737.914 278.086 738.409 277.095C738.905 276.105 738.409 274.867 737.419 274.619C735.933 274.124 733.705 275.733 732.838 276.848C732.838 276.971 732.343 277.714 732.095 278.21C732.219 277.838 732.343 277.59 732.466 277.219C732.714 276.6 732.962 275.981 733.209 275.238C733.333 274.867 733.457 274.619 733.457 274.248C733.581 273.876 733.581 273.505 733.705 273.133C733.952 272.267 734.076 271.4 734.2 270.533C734.819 270.781 736.8 271.4 737.79 271.4C738.781 271.276 740.143 270.905 740.762 270.038C741.381 269.171 741.133 267.933 740.143 267.438C738.781 266.695 736.305 268.057 735.314 269.048C735.314 269.048 734.571 269.914 734.324 270.286C734.447 269.79 734.447 269.295 734.571 268.676C734.819 267.19 734.943 265.581 735.066 263.971C735.066 263.476 735.19 262.981 735.19 262.486C735.438 262.61 737.79 263.476 738.905 263.352C739.895 263.229 741.257 262.857 741.876 261.99C742.495 261.124 742.247 259.886 741.257 259.39C739.895 258.648 737.419 260.01 736.428 261C736.305 261.124 735.438 262.238 735.19 262.486C735.314 261.495 735.438 260.381 735.562 259.39C735.809 258.029 736.057 256.667 736.428 255.305C736.552 255.305 739.028 256.295 740.143 256.171C741.133 256.048 742.495 255.676 743.114 254.81C743.733 253.943 743.486 252.705 742.495 252.21C741.133 251.467 738.657 252.829 737.666 253.819C737.543 253.943 736.676 255.057 736.428 255.305C736.428 255.181 736.428 255.181 736.428 255.057C736.8 253.695 737.419 252.333 738.038 251.219C738.409 250.476 738.781 249.857 739.152 249.238C739.647 249.486 741.628 250.476 742.743 250.476C743.733 250.476 745.095 250.229 745.838 249.486C746.457 248.619 746.457 247.381 745.466 246.762C744.228 245.895 741.628 246.886 740.514 247.752C740.514 247.752 739.895 248.371 739.524 248.743C739.647 248.495 739.895 248.124 740.019 247.876C740.638 246.886 741.381 246.019 741.876 245.276C742.247 244.905 742.495 244.533 742.866 244.162C743.362 244.162 745.59 244.038 746.581 243.667C747.571 243.171 748.562 242.429 748.809 241.314C747.943 240.819 747.2 239.705 746.085 239.581ZM729.124 280.933C728.133 283.038 727.39 284.771 726.771 286.01C726.647 286.257 726.524 286.505 726.4 286.629H726.276C726.276 286.381 726.152 286.133 726.152 285.886C725.905 284.524 725.657 282.543 725.162 280.314C725.038 279.571 724.79 278.829 724.666 277.962C724.79 277.838 725.905 277.467 726.771 276.971C727.514 277.838 729.619 278.829 729.866 278.952C729.619 279.695 729.371 280.314 729.124 280.933Z" fill="#C4E8FF"/>
<path d="M738.038 249.486C738.038 249.486 738.533 247.629 738.533 247.505C738.781 246.143 738.286 243.419 736.924 242.676C735.933 242.181 734.819 242.8 734.448 243.79C734.076 244.781 734.571 246.019 735.067 246.886C735.686 248 738.038 249.486 738.038 249.486Z" fill="#C4E8FF"/>
<path d="M538.333 323.4V1" stroke="#E2E5FC" stroke-miterlimit="10" stroke-linecap="round" stroke-linejoin="round"/>
<path d="M249.981 323.4V2.98095" stroke="#E2E5FC" stroke-miterlimit="10" stroke-linecap="round" stroke-linejoin="round"/>
<path d="M65.876 165.171H763.047" stroke="#E2E5FC" stroke-miterlimit="10" stroke-linecap="round" stroke-linejoin="round"/>
<path d="M129.143 252.333C130.257 252.829 132.733 252.705 132.733 252.705C132.733 252.705 132.238 250.971 132.114 250.971C131.495 249.733 129.762 247.876 128.276 248C127.286 248.124 126.667 249.238 126.914 250.229C127.162 251.219 128.152 251.962 129.143 252.333Z" fill="#C4E8FF"/>
<path d="M155.267 252.952C155.267 252.952 155.762 251.219 155.762 251.095C155.886 249.733 155.514 247.133 154.152 246.514C153.162 246.019 152.171 246.638 151.8 247.505C151.428 248.495 151.924 249.733 152.419 250.476C153.038 251.59 155.267 252.952 155.267 252.952Z" fill="#C4E8FF"/>
<path d="M162.943 243.543C161.457 243.419 159.724 245.4 159.229 246.638C159.229 246.762 158.609 248.495 158.733 248.495C158.486 248.867 158.114 249.114 157.867 249.486C157.248 250.229 156.629 250.971 156.009 251.962C155.39 252.829 154.648 253.943 154.029 255.057C153.409 256.171 152.79 257.41 152.419 258.771C152.419 258.4 152.419 257.162 152.419 257.038C152.295 255.676 151.181 253.324 149.695 253.076C148.705 252.829 147.714 253.695 147.714 254.686C147.59 255.676 148.333 256.79 149.076 257.41C149.943 258.152 152.171 258.895 152.419 258.895C152.048 260.133 151.676 261.495 151.429 262.857C151.305 263.6 151.181 264.467 151.057 265.21C151.057 264.838 151.057 264.467 151.057 264.467C150.933 263.105 149.819 260.752 148.333 260.505C147.343 260.257 146.352 261.124 146.352 262.114C146.229 263.105 146.971 264.219 147.714 264.838C148.457 265.457 150.438 266.2 150.933 266.324C150.933 266.571 150.809 266.943 150.809 267.19C150.686 268.676 150.438 270.162 150.19 271.524C150.067 272.019 150.067 272.514 149.943 273.01C149.943 272.638 149.943 272.39 149.943 272.39C149.819 271.029 148.705 268.676 147.219 268.429C146.229 268.181 145.238 269.048 145.238 270.038C145.114 271.029 145.857 272.143 146.6 272.762C147.343 273.381 149.076 274 149.695 274.248C149.571 274.743 149.448 275.238 149.324 275.733C149.2 276.105 149.2 276.352 149.076 276.724C148.952 277.095 148.829 277.343 148.705 277.714C148.457 278.333 148.209 278.952 148.086 279.571C147.962 279.943 147.714 280.314 147.59 280.81C147.714 280.314 147.838 279.324 147.838 279.2C147.838 278.333 147.59 276.848 146.971 275.857C146.971 275.733 146.971 275.61 146.971 275.486C146.848 274.495 145.857 273.752 144.867 274C143.505 274.371 142.514 276.848 142.514 278.21C142.514 278.333 142.514 279.076 142.638 279.695C142.514 279.448 142.514 279.076 142.39 278.829C142.267 278.21 142.019 277.59 141.895 276.848C141.771 276.476 141.648 276.229 141.648 275.857C141.524 275.486 141.4 275.238 141.276 274.867C141.029 274.124 140.657 273.381 140.286 272.514C140.781 272.39 142.762 271.895 143.629 271.276C144.371 270.657 145.238 269.667 145.238 268.676C145.238 267.686 144.371 266.819 143.381 266.943C141.895 267.067 140.657 269.419 140.409 270.781C140.409 270.905 140.286 271.771 140.286 272.267C140.038 271.771 139.914 271.4 139.667 270.905C139.048 269.543 138.305 268.305 137.562 266.943C137.314 266.571 137.19 266.076 136.943 265.705C137.19 265.705 139.419 265.086 140.286 264.467C141.029 263.848 141.895 262.857 141.895 261.867C141.895 260.876 141.029 260.01 140.038 260.133C138.552 260.257 137.314 262.61 137.067 263.971C137.067 264.095 136.943 265.457 136.943 265.829C136.448 264.962 136.076 264.095 135.581 263.105C134.962 261.867 134.467 260.629 134.095 259.39C134.219 259.39 136.571 258.771 137.562 258.152C138.305 257.533 139.171 256.543 139.171 255.552C139.171 254.562 138.305 253.695 137.314 253.819C135.829 253.943 134.59 256.295 134.343 257.657C134.343 257.781 134.219 259.267 134.219 259.514C134.219 259.39 134.219 259.39 134.095 259.267C133.724 257.905 133.476 256.667 133.352 255.305C133.229 254.562 133.229 253.819 133.229 253.2C133.724 253.2 135.829 252.829 136.695 252.333C137.562 251.838 138.429 250.971 138.552 249.857C138.676 248.867 137.933 247.876 136.819 247.876C135.333 247.876 133.848 250.105 133.476 251.343C133.476 251.467 133.352 252.086 133.229 252.705C133.229 252.457 133.229 252.086 133.229 251.838C133.229 250.724 133.352 249.733 133.352 248.743C133.352 248.248 133.476 247.752 133.476 247.381C133.848 247.133 135.581 245.895 136.076 245.029C136.571 244.162 137.067 242.924 136.571 242.057C136.2 241.067 135.086 240.571 134.219 241.067C132.857 241.686 132.609 244.41 132.733 245.648C132.733 245.771 133.229 247.505 133.229 247.505C133.229 247.876 133.105 248.371 133.105 248.867C132.981 249.733 132.981 250.848 132.857 251.962C132.857 253.076 132.857 254.314 132.981 255.552C133.105 256.79 133.229 258.152 133.6 259.514C133.352 259.143 132.733 258.152 132.609 258.029C131.743 257.038 129.514 255.676 128.152 256.171C127.162 256.543 126.914 257.781 127.409 258.648C127.905 259.514 129.143 260.01 130.133 260.133C131.248 260.257 133.476 259.638 133.724 259.514C134.095 260.752 134.59 262.114 135.086 263.352C135.457 264.095 135.705 264.838 136.076 265.581C135.829 265.333 135.705 264.962 135.705 264.962C134.838 263.971 132.609 262.61 131.248 263.105C130.257 263.476 130.009 264.714 130.505 265.581C131 266.448 132.238 266.943 133.229 267.067C134.219 267.19 136.2 266.695 136.695 266.571C136.819 266.819 136.943 267.067 137.067 267.438C137.686 268.8 138.429 270.038 139.048 271.4C139.295 271.895 139.419 272.39 139.667 272.762C139.419 272.514 139.295 272.267 139.295 272.267C138.429 271.276 136.2 269.914 134.838 270.41C133.848 270.781 133.6 272.019 134.095 272.886C134.59 273.752 135.829 274.248 136.819 274.371C137.809 274.495 139.543 274 140.162 273.876C140.409 274.371 140.533 274.867 140.657 275.362C140.781 275.733 140.905 275.981 141.029 276.352C141.152 276.724 141.152 276.971 141.276 277.343C141.4 277.962 141.648 278.581 141.771 279.2C141.895 279.571 141.895 280.067 142.019 280.438C141.771 279.943 141.4 279.076 141.276 278.952C140.533 277.838 138.552 276.105 137.19 276.476C136.2 276.724 135.705 277.838 136.076 278.829C136.448 279.819 137.562 280.438 138.429 280.686C139.419 281.057 141.771 280.686 142.019 280.686C142.143 281.429 142.267 282.048 142.39 282.667C142.762 284.895 143.009 286.629 143.133 287.99C143.133 288.238 143.133 288.362 143.257 288.61H138.8L140.409 320.181H147.962L149.571 288.61H145.238C145.238 288.486 145.238 288.486 145.362 288.362C145.981 287.124 146.724 285.514 147.59 283.41C147.838 282.79 148.086 282.048 148.457 281.305C148.705 281.305 151.057 281.8 152.048 281.552C153.038 281.305 154.152 280.81 154.648 279.819C155.019 278.952 154.648 277.714 153.657 277.467C152.295 276.971 150.19 278.581 149.324 279.695C149.324 279.819 148.829 280.438 148.581 280.933C148.705 280.686 148.829 280.314 148.952 280.067C149.2 279.448 149.324 278.829 149.571 278.21C149.695 277.838 149.819 277.59 149.819 277.219C149.943 276.848 149.943 276.6 150.067 276.229C150.314 275.486 150.438 274.619 150.562 273.752C151.057 274 153.038 274.619 154.029 274.495C155.019 274.371 156.257 274.124 156.752 273.257C157.248 272.39 157.124 271.276 156.133 270.781C154.771 270.162 152.419 271.4 151.552 272.267C151.552 272.267 150.933 273.01 150.562 273.505C150.686 273.01 150.686 272.514 150.809 272.019C150.933 270.533 151.181 269.048 151.305 267.562C151.305 267.067 151.429 266.695 151.429 266.2C151.676 266.324 153.905 267.067 155.019 267.067C156.009 266.943 157.248 266.695 157.743 265.829C158.238 264.962 158.114 263.848 157.124 263.352C155.762 262.733 153.409 263.971 152.543 264.838C152.419 264.962 151.676 265.952 151.429 266.2C151.552 265.21 151.676 264.219 151.8 263.229C152.048 261.867 152.295 260.629 152.667 259.39C152.79 259.39 155.143 260.257 156.257 260.257C157.248 260.133 158.486 259.886 158.981 259.019C159.476 258.152 159.352 257.038 158.362 256.543C157 255.924 154.648 257.162 153.781 258.029C153.657 258.152 152.79 259.267 152.667 259.514C152.667 259.39 152.667 259.39 152.667 259.267C153.038 257.905 153.657 256.667 154.152 255.552C154.524 254.933 154.895 254.314 155.143 253.695C155.514 253.943 157.495 254.81 158.486 254.933C159.476 254.933 160.714 254.81 161.333 253.943C161.952 253.2 161.952 251.962 161.086 251.343C159.848 250.476 157.371 251.467 156.381 252.333C156.381 252.333 155.762 252.952 155.39 253.324C155.514 253.076 155.762 252.829 155.886 252.581C156.505 251.714 157.124 250.848 157.619 250.105C157.99 249.733 158.238 249.362 158.486 248.99C158.981 248.99 161.086 248.867 161.952 248.495C162.819 248.124 163.809 247.257 164.057 246.267C164.676 244.657 164.057 243.667 162.943 243.543ZM146.724 282.914C145.857 284.895 144.99 286.629 144.495 287.743C144.371 287.99 144.248 288.238 144.124 288.362H144C144 288.114 144 287.867 143.876 287.619C143.752 286.381 143.381 284.524 143.009 282.295C142.886 281.552 142.762 280.81 142.514 280.067C142.638 279.943 143.629 279.571 144.495 279.076C145.238 279.943 147.219 280.81 147.467 280.933C147.219 281.676 146.971 282.295 146.724 282.914Z" fill="#C4E8FF"/>
<path d="M57.0856 278.952L50.3999 283.162" stroke="#263238" stroke-width="0.5" stroke-miterlimit="10" stroke-linecap="round" stroke-linejoin="round"/>
<path d="M169.752 209.619L66.1235 273.505" stroke="white" stroke-width="0.5" stroke-miterlimit="10" stroke-linecap="round" stroke-linejoin="round"/>
<path d="M183.371 213.952L100.419 265.086" stroke="white" stroke-width="0.5" stroke-miterlimit="10" stroke-linecap="round" stroke-linejoin="round"/>
<path d="M219.647 191.543L194.514 207.019" stroke="white" stroke-width="0.5" stroke-miterlimit="10" stroke-linecap="round" stroke-linejoin="round"/>
<path d="M569.038 275.486L561.609 280.067" stroke="#263238" stroke-width="0.5" stroke-miterlimit="10" stroke-linecap="round" stroke-linejoin="round"/>
<path d="M694.829 197.981L579.067 269.295" stroke="white" stroke-width="0.5" stroke-miterlimit="10" stroke-linecap="round" stroke-linejoin="round"/>
<path d="M710.057 202.81L617.323 260.01" stroke="white" stroke-width="0.5" stroke-miterlimit="10" stroke-linecap="round" stroke-linejoin="round"/>
<path d="M750.543 177.924L722.562 195.133" stroke="white" stroke-width="0.5" stroke-miterlimit="10" stroke-linecap="round" stroke-linejoin="round"/>
<path d="M517.198 350.612H568.95V290.812H517.198V350.612Z" fill="#93D9FB" stroke="#263238" stroke-miterlimit="10" stroke-linecap="round" stroke-linejoin="round"/>
<path d="M573 353.238H514.562V299.257H542.171L573 353.238Z" fill="#76B7F3" stroke="#263238" stroke-miterlimit="10" stroke-linecap="round" stroke-linejoin="round"/>
<path d="M501.933 356.333H535.362C536.724 356.333 537.838 355.219 537.838 353.857C537.838 352.495 536.724 351.381 535.362 351.381H501.933C500.324 351.381 498.838 350.638 497.724 349.524C496.362 348.038 495.866 346.057 496.485 344.2L508.371 301.733C508.743 300.495 508 299.133 506.638 298.762C505.4 298.39 504.038 299.133 503.666 300.495L491.781 342.962C490.79 346.429 491.657 350.143 494.133 352.867C496.114 355.095 498.962 356.333 501.933 356.333Z" fill="#76B7F3" stroke="#263238" stroke-miterlimit="10" stroke-linecap="round" stroke-linejoin="round"/>
<path d="M517.779 343.645L525.4 342.731L513.673 244.878L506.051 245.792L517.779 343.645Z" fill="#93D9FB" stroke="#263238" stroke-miterlimit="10" stroke-linecap="round" stroke-linejoin="round"/>
<path d="M506.143 245.771C506.143 245.771 492.647 293.809 517.905 343.705L506.143 245.771Z" fill="#76B7F3" stroke="#263238" stroke-miterlimit="10" stroke-linecap="round" stroke-linejoin="round"/>
<path d="M779.267 356.086H473.457V528.552H779.267V356.086Z" fill="#263238"/>
<mask id="mask0_862_553" style="mask-type:luminance" maskUnits="userSpaceOnUse" x="473" y="356" width="307" height="173">
<path d="M779.267 356.086H473.457V528.552H779.267V356.086Z" fill="white"/>
</mask>
<g mask="url(#mask0_862_553)">
<path d="M779.267 356.086H473.457V528.552H779.267V356.086Z" fill="#C4E8FF" stroke="#263238" stroke-miterlimit="10" stroke-linecap="round" stroke-linejoin="round"/>
</g>
<path d="M779.267 356.086H473.457V528.552H779.267V356.086Z" stroke="#263238" stroke-miterlimit="10" stroke-linecap="round" stroke-linejoin="round"/>
<path d="M779.019 360.171H473.581V365H779.019V360.171Z" fill="#263238"/>
<path d="M781.495 353.238H466.771V360.79H781.495V353.238Z" fill="#C4E8FF" stroke="#263238" stroke-miterlimit="10" stroke-linecap="round" stroke-linejoin="round"/>
<path d="M56.838 217.914L100.543 218.286C100.543 218.286 103.39 217.914 104.133 220.143C104.133 220.143 111.686 239.209 112.057 246.143C112.429 252.952 110.571 251.962 113.543 260.876C116.39 269.914 124.686 291.209 129.39 308.543C135.705 331.819 137.314 356.581 137.686 380.6C137.809 384.438 140.038 417.619 134.095 417.619C129.143 417.619 83.2095 423.686 82.5904 414.895C80.3618 379.609 86.7999 345.067 74.5428 310.771C69.838 297.4 64.2666 283.409 60.3047 269.419C56.219 255.428 55.5999 240.943 52.8761 226.705C51.1428 216.8 56.838 217.914 56.838 217.914Z" fill="#93D9FB" stroke="#263238" stroke-miterlimit="10" stroke-linecap="round" stroke-linejoin="round"/>
<path d="M52.6284 222.248C52.9998 217.171 56.9618 217.914 56.9618 217.914L100.667 218.286C100.667 218.286 103.514 217.914 104.257 220.143C104.257 220.143 111.809 239.21 112.181 246.143C112.305 248.743 112.181 250.229 112.057 251.59L111.19 252.952C111.19 252.952 109.705 265.581 92.3713 266.324C75.0379 267.067 65.257 259.143 61.6665 251.59C58.076 244.038 56.5903 231.781 53.7427 224.476C53.3713 223.733 52.9998 222.99 52.6284 222.248Z" fill="#76B7F3" stroke="#263238" stroke-miterlimit="10" stroke-linecap="round" stroke-linejoin="round"/>
<path d="M62.7807 236.362C65.7521 246.886 63.895 249.857 66.8664 267.933C69.8378 286.133 80.3616 306.562 84.4474 325.257C88.5331 343.952 86.7997 410.19 86.1807 413.038C85.9331 414.152 85.9331 416.01 85.9331 417.743C83.9521 417 82.8378 416.01 82.714 414.648C80.4854 379.362 86.9235 344.819 74.6664 310.524C69.9616 297.152 64.3902 283.162 60.4283 269.171C56.3426 255.181 55.7235 240.695 52.9997 226.457C51.8854 220.514 53.6188 218.533 55.1045 218.038C55.1045 218.162 59.8093 225.838 62.7807 236.362Z" fill="#76B7F3" stroke="#263238" stroke-miterlimit="10" stroke-linecap="round" stroke-linejoin="round"/>
<path d="M147.095 502.8L147.343 502.552V461.819H141.524V436.067H163.19V461.819H157.371V503.295L209.247 519.762V523.848C209.247 526.448 207.143 528.552 204.543 528.552C201.943 528.552 199.838 526.448 199.838 523.848V523.229L156.505 518.152V524.343C156.505 526.572 154.647 528.429 152.419 528.429C150.19 528.429 148.333 526.572 148.333 524.343V517.905L103.143 523.229V523.848C103.143 526.448 101.038 528.552 98.4379 528.552C95.8379 528.552 93.7332 526.448 93.7332 523.848V519.762L147.095 502.8Z" fill="#263238" stroke="#263238" stroke-miterlimit="10" stroke-linecap="round" stroke-linejoin="round"/>
<path d="M84.3235 440.772H214.943C217.666 440.772 219.895 438.543 219.895 435.819V415.886C219.895 413.162 217.666 410.933 214.943 410.933H84.3235C81.5997 410.933 79.3711 413.162 79.3711 415.886V435.819C79.3711 438.543 81.5997 440.772 84.3235 440.772Z" fill="#263238" stroke="#263238" stroke-miterlimit="10" stroke-linecap="round" stroke-linejoin="round"/>
<path d="M306.314 290.838H254.562V350.638H306.314V290.838Z" fill="#93D9FB" stroke="#263238" stroke-miterlimit="10" stroke-linecap="round" stroke-linejoin="round"/>
<path d="M250.6 353.238H309.038V299.257H281.429L250.6 353.238Z" fill="#76B7F3" stroke="#263238" stroke-miterlimit="10" stroke-linecap="round" stroke-linejoin="round"/>
<path d="M321.543 356.333H288.114C286.752 356.333 285.638 355.219 285.638 353.857C285.638 352.495 286.752 351.381 288.114 351.381H321.543C323.152 351.381 324.638 350.638 325.752 349.524C327.114 348.038 327.61 346.057 326.991 344.2L315.105 301.733C314.733 300.495 315.476 299.133 316.838 298.762C318.076 298.39 319.438 299.133 319.81 300.495L331.695 342.962C332.686 346.429 331.819 350.143 329.343 352.867C327.362 355.095 324.514 356.333 321.543 356.333Z" fill="#76B7F3" stroke="#263238" stroke-miterlimit="10" stroke-linecap="round" stroke-linejoin="round"/>
<path d="M317.475 245.839L309.854 244.926L298.126 342.779L305.748 343.692L317.475 245.839Z" fill="#93D9FB" stroke="#263238" stroke-miterlimit="10" stroke-linecap="round" stroke-linejoin="round"/>
<path d="M317.457 245.771C317.457 245.771 330.952 293.809 305.695 343.705L317.457 245.771Z" fill="#76B7F3" stroke="#263238" stroke-miterlimit="10" stroke-linecap="round" stroke-linejoin="round"/>
<path d="M44.2808 528.522H350.09V356.056H44.2808V528.522Z" fill="#263238"/>
<mask id="mask1_862_553" style="mask-type:luminance" maskUnits="userSpaceOnUse" x="44" y="356" width="307" height="173">
<path d="M350.019 356.086L44.2097 356.086L44.2097 528.552L350.019 528.552L350.019 356.086Z" fill="white"/>
</mask>
<g mask="url(#mask1_862_553)">
<path d="M44.2808 528.522H350.09V356.056H44.2808V528.522Z" fill="#C4E8FF" stroke="#263238" stroke-miterlimit="10" stroke-linecap="round" stroke-linejoin="round"/>
</g>
<path d="M44.2808 528.522H350.09V356.056H44.2808V528.522Z" stroke="#263238" stroke-miterlimit="10" stroke-linecap="round" stroke-linejoin="round"/>
<path d="M44.4972 365.045L349.935 365.045V360.216L44.4972 360.216V365.045Z" fill="#263238"/>
<path d="M42.0487 360.812L356.772 360.812V353.26L42.0487 353.26V360.812Z" fill="#C4E8FF" stroke="#263238" stroke-miterlimit="10" stroke-linecap="round" stroke-linejoin="round"/>
<path d="M693.838 217.914L650.133 218.286C650.133 218.286 647.286 217.914 646.543 220.143C646.543 220.143 638.991 239.209 638.619 246.143C638.248 252.952 640.105 251.962 637.133 260.876C634.286 269.914 625.991 291.209 621.286 308.543C614.971 331.819 613.362 356.581 612.991 380.6C612.867 384.438 610.638 417.619 616.581 417.619C621.533 417.619 667.467 423.686 668.086 414.895C670.314 379.609 663.876 345.067 676.133 310.771C680.838 297.4 686.41 283.409 690.371 269.419C694.457 255.428 695.076 240.943 697.8 226.705C699.657 216.8 693.838 217.914 693.838 217.914Z" fill="#93D9FB" stroke="#263238" stroke-miterlimit="10" stroke-linecap="round" stroke-linejoin="round"/>
<path d="M698.171 222.248C697.8 217.171 693.838 217.914 693.838 217.914L650.133 218.286C650.133 218.286 647.286 217.914 646.543 220.143C646.543 220.143 638.99 239.21 638.619 246.143C638.495 248.743 638.619 250.229 638.743 251.59L639.609 252.952C639.609 252.952 641.095 265.581 658.428 266.324C675.762 267.067 685.543 259.143 689.133 251.59C692.724 244.038 694.209 231.781 697.057 224.476C697.428 223.733 697.8 222.99 698.171 222.248Z" fill="#76B7F3" stroke="#263238" stroke-miterlimit="10" stroke-linecap="round" stroke-linejoin="round"/>
<path d="M688.019 236.362C685.048 246.886 686.905 249.857 683.934 267.933C680.962 286.133 670.438 306.562 666.353 325.257C662.267 343.952 664 410.19 664.619 413.038C664.867 414.152 664.867 416.01 664.867 417.743C666.848 417 667.962 416.01 668.086 414.648C670.315 379.362 663.876 344.819 676.134 310.524C680.838 297.152 686.41 283.162 690.372 269.171C694.457 255.181 695.076 240.695 697.8 226.457C698.915 220.514 697.181 218.533 695.695 218.038C695.572 218.162 690.991 225.838 688.019 236.362Z" fill="#76B7F3" stroke="#263238" stroke-miterlimit="10" stroke-linecap="round" stroke-linejoin="round"/>
<path d="M603.705 502.8L603.457 502.552V461.819H609.276V436.067H587.61V461.819H593.429V503.295L541.552 519.762V523.848C541.552 526.448 543.657 528.552 546.257 528.552C548.857 528.552 550.962 526.448 550.962 523.848V523.229L594.295 518.152V524.343C594.295 526.572 596.152 528.429 598.381 528.429C600.61 528.429 602.467 526.572 602.467 524.343V517.905L647.533 523.105V523.724C647.533 526.324 649.638 528.429 652.238 528.429C654.838 528.429 656.943 526.324 656.943 523.724V519.638L603.705 502.8Z" fill="#76B7F3" stroke="#263238" stroke-miterlimit="10" stroke-linecap="round" stroke-linejoin="round"/>
<path d="M666.476 440.772H535.857C533.133 440.772 530.905 438.543 530.905 435.819V415.886C530.905 413.162 533.133 410.933 535.857 410.933H666.476C669.2 410.933 671.429 413.162 671.429 415.886V435.819C671.429 438.543 669.2 440.772 666.476 440.772Z" fill="#93D9FB" stroke="#263238" stroke-miterlimit="10" stroke-linecap="round" stroke-linejoin="round"/>
<path d="M520.505 378.124C520.505 378.124 498.962 379.114 496.981 391.371C495 403.629 548.486 477.667 552.695 479.895C556.905 482.124 558.514 494.752 558.514 499.829C558.514 505.029 557.524 506.886 554.305 511.095C551.086 515.305 555.295 513.943 558.762 513.076C562.352 512.086 563.962 513.448 568.048 505.4C572.257 497.352 571.638 496.733 573.867 492.524C576.095 488.314 577.705 482.495 574.238 479.648C570.648 476.8 559.381 471.971 557.771 470.609C556.162 469.371 534.248 399.79 534.248 399.79C534.248 399.79 553.562 410.438 565.448 413.905C577.333 417.495 585.752 420.343 597.39 419.352C609.029 418.362 598.629 395.209 581.667 387.409C564.705 379.857 520.505 378.124 520.505 378.124Z" fill="white" stroke="#263238" stroke-miterlimit="10"/>
<path d="M581.791 387.533C571.638 382.952 552.076 380.476 537.838 379.362L542.419 404C549.105 407.343 558.638 411.924 565.695 414.029C577.581 417.619 586 420.467 597.638 419.476C609.152 418.486 598.876 395.21 581.791 387.533Z" fill="#002B7B" stroke="#263238" stroke-miterlimit="10" stroke-linecap="round" stroke-linejoin="round"/>
<path d="M574.362 479.648C573.248 478.781 571.391 477.667 569.41 476.552C569.41 477.419 569.41 478.409 569.41 479.276C569.41 484.229 563.591 499.086 563.591 499.086L558.514 501.438C558.267 505.524 557.276 507.505 554.305 511.219C551.086 515.429 555.295 514.067 558.762 513.2C562.353 512.21 563.962 513.571 568.048 505.524C572.257 497.476 571.638 496.857 573.867 492.648C576.343 488.314 577.953 482.495 574.362 479.648Z" fill="#666666" stroke="#263238" stroke-miterlimit="10" stroke-linecap="round" stroke-linejoin="round"/>
<path d="M598.257 281.676C598.257 281.676 593.676 279.571 585.505 287.867C577.209 296.162 559.133 349.771 560.371 353.486C561.609 357.2 567.8 358.067 570.276 355.962C572.752 353.857 586 321.667 586 321.667L601.724 288.609" fill="white"/>
<path d="M598.257 281.676C598.257 281.676 593.676 279.571 585.505 287.867C577.209 296.162 559.133 349.771 560.371 353.486C561.609 357.2 567.8 358.067 570.276 355.962C572.752 353.857 586 321.667 586 321.667L601.724 288.609" stroke="#263238" stroke-miterlimit="10" stroke-linecap="round" stroke-linejoin="round"/>
<path d="M601.6 288.609L598.257 281.552C598.257 281.552 593.676 279.448 585.505 287.743C583.276 289.971 580.305 295.048 577.209 301.238L590.581 311.762L601.6 288.609Z" fill="#FF2D70" stroke="#263238" stroke-miterlimit="10" stroke-linecap="round" stroke-linejoin="round"/>
<path d="M590.209 300.124C589.343 302.352 588.6 304.333 587.981 305.943C585.133 313.371 582.657 317.457 583.895 322.905C585.133 328.229 590.086 336.895 590.086 336.895L575.229 363.762L641.219 378.619L642.829 339C642.829 339 662.638 297.771 663.009 291.086C663.381 284.524 652.238 281.552 642.333 277.838C632.429 274.124 627.476 272.886 627.476 272.886L618.809 274.124C618.809 274.124 599.867 279.448 598.133 281.552C597.886 281.924 597.514 282.419 597.143 283.286" fill="#FF2D70"/>
<path d="M590.209 300.124C589.343 302.352 588.6 304.333 587.981 305.943C585.133 313.371 582.657 317.457 583.895 322.905C585.133 328.229 590.086 336.895 590.086 336.895L575.229 363.762L641.219 378.619L642.829 339C642.829 339 662.638 297.771 663.01 291.086C663.381 284.524 652.238 281.552 642.333 277.838C632.429 274.124 627.476 272.886 627.476 272.886L618.809 274.124C618.809 274.124 599.867 279.448 598.133 281.552C597.886 281.924 597.514 282.419 597.143 283.286" stroke="#263238" stroke-miterlimit="10" stroke-linecap="round" stroke-linejoin="round"/>
<path d="M616.457 339.495L618.81 340.857" stroke="#263238" stroke-miterlimit="10" stroke-linecap="round" stroke-linejoin="round"/>
<path d="M606.677 333.552L612.991 337.39" stroke="#263238" stroke-miterlimit="10" stroke-linecap="round" stroke-linejoin="round"/>
<path d="M577.952 368.714C577.952 368.714 570.276 361.286 566.686 361.286C563.095 361.286 555.667 365.124 555.667 365.124C555.667 365.124 567.676 366.733 570.524 366.981C573.495 367.229 577.086 370.571 579.81 368.59L577.952 368.714Z" fill="white" stroke="#263238" stroke-miterlimit="10" stroke-linecap="round" stroke-linejoin="round"/>
<path d="M645.676 303.095L631.19 353.486L577.828 361.657L578.324 367.971C578.324 367.971 628.59 373.048 632.428 372.8C646.047 371.933 644.19 366.733 649.762 355.467C651.99 351.009 668.705 297.152 667.962 293.933C665.486 284.029 653.476 281.924 653.476 281.924" fill="white"/>
<path d="M645.676 303.095L631.19 353.486L577.828 361.657L578.324 367.971C578.324 367.971 628.59 373.048 632.428 372.8C646.047 371.933 644.19 366.733 649.762 355.467C651.99 351.009 668.705 297.152 667.962 293.933C665.486 284.029 653.476 281.924 653.476 281.924" stroke="#263238" stroke-miterlimit="10" stroke-linecap="round" stroke-linejoin="round"/>
<path d="M645.676 303.095L641.343 318.076C645.552 316.219 653.105 313.99 662.762 315.105C665.857 304.333 668.209 295.419 667.962 294.057C665.486 284.152 653.476 282.048 653.476 282.048" fill="#FF2D70"/>
<path d="M645.676 303.095L641.343 318.076C645.552 316.219 653.105 313.99 662.762 315.105C665.857 304.333 668.209 295.419 667.962 294.057C665.486 284.152 653.476 282.048 653.476 282.048" stroke="#263238" stroke-miterlimit="10" stroke-linecap="round" stroke-linejoin="round"/>
<path d="M613.114 273.009C613.114 273.009 613.609 278.209 612.619 282.667C611.628 287.124 606.924 299.876 608.905 299.876C610.886 299.876 630.324 281.924 632.8 279.448C635.276 276.971 638.247 259.019 638.247 259.019C638.247 259.019 619.552 272.019 613.114 273.009Z" fill="white" stroke="#263238" stroke-miterlimit="10" stroke-linecap="round" stroke-linejoin="round"/>
<path d="M612.99 280.933L628.095 270.657L618.562 270.905C616.457 271.895 614.476 272.638 613.238 272.886C613.114 273.01 613.486 276.971 612.99 280.933Z" fill="#263238" stroke="#263238" stroke-miterlimit="10" stroke-linecap="round" stroke-linejoin="round"/>
<path d="M640.105 378.867C640.105 378.867 557.648 362.771 538.952 361.533C520.257 360.295 509.609 358.686 510.228 367.352C510.848 376.019 546.257 478.162 548.857 483.609C548.857 483.609 547.248 498.467 545.638 503.543C544.028 508.743 537.59 516.79 536.971 518.648C536.352 520.629 553.438 516.419 557.648 512.581C561.857 508.743 562.476 500.943 568.295 493.514C574.114 486.086 571.514 482.867 567.924 480.638C564.333 478.409 559.876 472.59 559.876 472.59C559.876 472.59 557.895 467.39 556.038 457.486C554.057 447.457 549.228 399.543 549.228 399.543C549.228 399.543 569.162 416.876 592.067 419.229C614.971 421.457 628.095 416.629 638.743 405.733C649.39 394.59 640.105 378.867 640.105 378.867Z" fill="white" stroke="#263238" stroke-miterlimit="10"/>
<path d="M549.228 399.419C549.228 399.419 548.981 387.781 543.781 380.971" stroke="#263238" stroke-miterlimit="10" stroke-linecap="round" stroke-linejoin="round"/>
<path d="M567.924 480.638C567.676 480.514 567.305 480.267 567.057 480.019C566.686 481.381 566.067 482.743 565.2 483.857C562.476 487.076 559.009 502.429 555.667 504.905C552.943 506.886 546.628 506.514 544.4 506.267C541.924 511.219 537.343 517.038 536.847 518.648C536.228 520.629 553.314 516.419 557.524 512.581C561.733 508.743 562.352 500.943 568.171 493.514C573.99 486.086 571.39 482.867 567.924 480.638Z" fill="#666666" stroke="#263238" stroke-miterlimit="10" stroke-linecap="round" stroke-linejoin="round"/>
<path d="M549.228 399.419C549.228 399.419 569.162 416.752 592.066 419.105C614.971 421.333 628.095 416.505 638.743 405.609C649.39 394.714 639.981 378.867 639.981 378.867C639.981 378.867 557.524 362.771 538.828 361.533C538.952 361.409 555.047 375.648 549.228 399.419Z" fill="#002B7B" stroke="#263238" stroke-miterlimit="10" stroke-linecap="round" stroke-linejoin="round"/>
<path d="M563.219 346.057C563.219 346.057 559.133 352.248 558.638 356.829C558.267 361.41 564.581 365.867 570.895 368.219C577.952 370.819 590.21 373.543 590.21 373.543C590.21 373.543 588.848 376.514 589.467 381.343C590.086 386.295 593.8 386.79 593.8 386.79C593.8 386.79 592.191 388.524 592.314 389.39C592.438 390.257 594.048 392.114 595.41 392.362C598.133 392.857 600.981 391.743 602.838 389.762C603.829 388.648 606.429 385.305 606.305 383.819C606.181 380.476 602.343 375.524 602.343 375.524C602.343 375.524 599.372 370.2 593.181 367.229C586.991 364.257 570.152 350.886 570.152 350.886L569.162 350.143" fill="white"/>
<path d="M563.219 346.057C563.219 346.057 559.133 352.248 558.638 356.829C558.267 361.41 564.581 365.867 570.895 368.219C577.952 370.819 590.21 373.543 590.21 373.543C590.21 373.543 588.848 376.514 589.467 381.343C590.086 386.295 593.8 386.79 593.8 386.79C593.8 386.79 592.191 388.524 592.314 389.39C592.438 390.257 594.048 392.114 595.41 392.362C598.133 392.857 600.981 391.743 602.838 389.762C603.829 388.648 606.429 385.305 606.305 383.819C606.181 380.476 602.343 375.524 602.343 375.524C602.343 375.524 599.372 370.2 593.181 367.229C586.991 364.257 570.152 350.886 570.152 350.886L569.162 350.143" stroke="#263238" stroke-miterlimit="10" stroke-linecap="round" stroke-linejoin="round"/>
<path d="M593.8 386.914C593.8 386.914 595.038 389.143 596.895 389.143" stroke="#263238" stroke-miterlimit="10" stroke-linecap="round" stroke-linejoin="round"/>
<path d="M604.943 242.552C604.943 242.552 593.552 231.162 598.629 224.476C603.705 217.79 632.676 213.952 645.676 215.686C658.676 217.419 660.781 260.629 659.171 265.333C657.438 269.914 642.333 273.381 638.124 272.514C633.914 271.648 607.048 274.248 600.733 270.781C594.419 267.438 590.209 260.257 590.209 260.257C590.209 260.257 594.419 262.733 600.362 257.781C606.181 252.581 604.943 242.552 604.943 242.552Z" fill="#263238" stroke="#263238" stroke-miterlimit="10" stroke-linecap="round" stroke-linejoin="round"/>
<path d="M619.676 233.267C619.676 233.267 604.943 236.61 604.571 240.448C604.2 244.286 598.257 270.286 603.705 272.886C609.152 275.362 626.857 273.752 632.305 269.048C637.752 264.467 641.095 258.895 641.095 258.895C641.095 258.895 642.333 260.133 644.067 256.79C645.8 253.448 645.305 248.371 645.305 248.371C645.305 248.371 640.724 255.057 634.409 249.238C628.095 243.419 619.676 233.267 619.676 233.267Z" fill="white" stroke="#263238" stroke-miterlimit="10" stroke-linecap="round" stroke-linejoin="round"/>
<path d="M608.533 246.267C608.533 247.381 607.914 248.124 607.295 248.124C606.676 248.124 606.057 247.257 606.057 246.267C606.057 245.276 606.676 244.41 607.295 244.41C607.914 244.41 608.533 245.152 608.533 246.267Z" fill="#263238"/>
<path d="M620.047 248.371C620.047 249.486 619.428 250.229 618.809 250.229C618.066 250.229 617.571 249.362 617.571 248.371C617.571 247.381 618.19 246.514 618.809 246.514C619.428 246.514 620.047 247.381 620.047 248.371Z" fill="#263238"/>
<path d="M612.247 244.533C612.247 244.533 611.628 248.371 610.39 249.362C609.152 250.352 605.562 252.581 605.314 254.438C604.943 256.295 612 257.657 612 257.657" stroke="#263238" stroke-miterlimit="10" stroke-linecap="round" stroke-linejoin="round"/>
<path d="M606.924 261.248C606.924 261.248 610.762 264.095 614.6 261.619" stroke="#263238" stroke-miterlimit="10" stroke-linecap="round" stroke-linejoin="round"/>
<path d="M616.333 244.533C616.333 244.533 620.543 243.295 623.39 246.762" stroke="#263238" stroke-miterlimit="10" stroke-linecap="round" stroke-linejoin="round"/>
<path d="M610.885 243.048C610.885 243.048 609.276 240.819 606.057 243.048" stroke="#263238" stroke-miterlimit="10" stroke-linecap="round" stroke-linejoin="round"/>
<path d="M639.733 264.714C639.733 264.714 633.171 268.8 630.447 269.543C627.724 270.286 626.609 270.286 626.609 270.286C626.609 270.286 626.609 272.39 636.886 273.381C647.162 274.371 654.714 272.019 657.19 266.819" fill="#263238"/>
<path d="M639.733 264.714C639.733 264.714 633.171 268.8 630.447 269.543C627.724 270.286 626.609 270.286 626.609 270.286C626.609 270.286 626.609 272.39 636.886 273.381C647.162 274.371 654.714 272.019 657.19 266.819" stroke="#263238" stroke-miterlimit="10" stroke-linecap="round" stroke-linejoin="round"/>
<path d="M434.829 501.933C434.829 501.933 437.181 511.095 439.533 513.2C441.267 514.81 444.857 518.648 449.314 521.371C450.676 522.238 456.372 523.724 456.743 524.714C457.486 526.571 456.124 528.676 454.019 528.676H413.41L413.657 503.914L434.829 501.933Z" fill="#666666" stroke="#263238" stroke-miterlimit="10" stroke-linecap="round" stroke-linejoin="round"/>
<path d="M367.972 294.181L367.6 324.514L366.61 410.438C366.61 410.438 367.105 437.181 368.095 441.514C369.086 445.848 367.105 501.81 367.105 501.81L387.533 503.79L394.962 423.067L406.476 342.962L412.419 424.552L413.657 504.533L434.829 501.933L436.314 438.171C436.314 438.171 443.743 379.362 443.743 359.924C443.743 340.486 443.743 312.381 443.743 312.381L445.229 295.295L367.972 294.181Z" fill="#236CFF" stroke="#0047D4" stroke-miterlimit="10" stroke-linecap="round" stroke-linejoin="round"/>
<path d="M367.105 501.933C367.105 501.933 364.753 511.095 362.4 513.2C360.667 514.81 357.076 518.648 352.619 521.371C351.257 522.238 345.562 523.724 345.191 524.714C344.448 526.571 345.81 528.676 347.915 528.676H387.905L387.657 503.914L367.105 501.933Z" fill="#666666" stroke="#263238" stroke-miterlimit="10" stroke-linecap="round" stroke-linejoin="round"/>
<path d="M517.533 168.39C516.543 167.524 514.933 167.648 514.067 168.762L508.495 176.067L511.714 169.505C512.333 168.143 512.086 166.41 510.724 165.667C510.352 165.419 509.857 165.171 509.238 165.171C506.886 165.171 503.667 173.59 503.667 173.59L496.857 184.362L494.876 182.381C494.876 182.381 498.095 175.571 496.857 173.59C495.619 171.61 492.029 170.743 492.029 173.59C492.029 176.438 489.181 179.162 488.438 181.143C487.695 183.124 492.4 198.724 492.4 198.724L467.143 228.562C467.143 228.562 456.743 190.181 454.391 188.943C452.038 187.705 422.324 182.133 422.324 182.133H410.686H392.238C392.238 182.133 362.648 187.705 360.172 188.943C357.819 190.181 347.419 228.562 347.419 228.562L322.286 198.971C322.286 198.971 327.114 183.371 326.248 181.39C325.505 179.41 322.657 176.562 322.657 173.838C322.657 171.114 319.067 171.857 317.829 173.838C316.591 175.819 319.81 182.629 319.81 182.629L317.829 184.61L311.019 173.838C311.019 173.838 307.8 165.419 305.448 165.419C304.829 165.419 304.333 165.543 303.962 165.914C302.724 166.781 302.352 168.391 302.972 169.752L306.191 176.314L300.619 169.01C299.752 167.895 298.143 167.771 297.152 168.638C296.533 169.133 296.038 170 296.286 171.114C296.657 173.962 299.629 179.286 299.629 179.286C299.629 179.286 295.914 185.105 297.029 187.086C298.267 189.067 300.991 192.286 300.991 192.286C300.991 192.286 299.01 193.895 303.838 199.467C308.667 205.038 311.886 206.276 311.886 206.276C311.886 206.276 325.505 236.733 331.076 245.152C336.648 253.571 351.133 262.362 353.114 262.362C354.972 262.362 366.114 245.524 368.343 242.181C368.591 249.114 365.867 287.619 366.61 291.086C366.733 291.457 366.733 291.705 366.857 292.076L366.981 296.286C366.981 296.286 366.981 298.514 370.076 299.381C371.686 299.876 389.886 299.876 407.219 299.629C424.552 299.752 442.752 299.752 444.362 299.381C447.457 298.514 447.457 296.286 447.457 296.286L447.581 292.076C447.705 291.705 447.829 291.333 447.829 291.086C448.572 287.619 445.848 248.991 446.095 242.181C448.324 245.524 459.467 262.362 461.324 262.362C463.305 262.362 477.791 253.571 483.362 245.152C488.933 236.733 502.552 206.276 502.552 206.276C502.552 206.276 505.772 205.038 510.6 199.467C515.429 193.895 513.448 192.286 513.448 192.286C513.448 192.286 516.295 189.067 517.41 187.086C518.648 185.105 514.81 179.286 514.81 179.286C514.81 179.286 517.781 173.838 518.152 171.114C518.524 169.752 518.152 169.01 517.533 168.39Z" fill="white" stroke="#263238" stroke-miterlimit="10" stroke-linecap="round" stroke-linejoin="round"/>
<path d="M488.314 203.8L467.267 228.562C467.267 228.562 456.867 190.181 454.514 188.943C452.162 187.705 422.448 182.133 422.448 182.133H410.81H392.362C392.362 182.133 362.772 187.705 360.295 188.943C357.943 190.181 347.543 228.562 347.543 228.562L326.372 203.676C322.533 207.514 316.962 208.876 313.372 209.371C317.086 217.419 326.619 238.219 331.076 244.905C336.648 253.324 351.133 262.114 353.114 262.114C354.972 262.114 366.114 245.276 368.343 241.933C368.591 248.867 365.867 287.371 366.61 290.838C366.733 291.21 366.733 291.457 366.857 291.829L366.981 296.038C366.981 296.038 366.981 298.267 370.076 299.133C371.686 299.629 389.886 299.629 407.219 299.381C424.553 299.505 442.753 299.505 444.362 299.133C447.457 298.267 447.457 296.038 447.457 296.038L447.581 291.829C447.705 291.457 447.829 291.086 447.829 290.838C448.572 287.371 445.848 248.743 446.095 241.933C448.324 245.276 459.467 262.114 461.324 262.114C463.305 262.114 477.791 253.324 483.362 244.905C487.2 239.086 495 222.743 499.333 213.21C493.019 211.476 489.181 205.41 488.314 203.8Z" fill="#76B7F3" stroke="#76B7F3" stroke-miterlimit="10" stroke-linecap="round" stroke-linejoin="round"/>
<path opacity="0.5" d="M368.343 241.933L366.857 217.295L363.019 249.114L368.343 241.933Z" fill="#0046D4" stroke="#0046D4" stroke-miterlimit="10" stroke-linecap="round" stroke-linejoin="round"/>
<path opacity="0.5" d="M446.343 241.933L446.219 218.781L450.924 247.876L446.343 241.933Z" fill="#0046D4" stroke="#0046D4" stroke-miterlimit="10" stroke-linecap="round" stroke-linejoin="round"/>
<path d="M488.314 203.8L482.619 210.486C483.733 214.571 486.705 220.39 495.495 222C496.981 218.781 498.343 215.81 499.581 213.333C493.019 211.476 489.181 205.41 488.314 203.8Z" fill="white" stroke="#263238" stroke-miterlimit="10" stroke-linecap="round" stroke-linejoin="round"/>
<path d="M298.267 180.895C298.267 180.895 304.705 174.457 307.057 177.676C309.41 180.895 303.467 185.724 303.467 185.724L305.819 188.571" fill="white"/>
<path d="M298.267 180.895C298.267 180.895 304.705 174.457 307.057 177.676C309.41 180.895 303.467 185.724 303.467 185.724L305.819 188.571" stroke="#263238" stroke-miterlimit="10" stroke-linecap="round" stroke-linejoin="round"/>
<path d="M300.99 192.162C300.99 192.162 305.819 186.591 309.038 187.333C312.257 188.076 307.429 194.514 307.429 194.514C307.429 194.514 312.629 194.143 316.219 198.971" fill="white"/>
<path d="M300.99 192.162C300.99 192.162 305.819 186.591 309.038 187.333C312.257 188.076 307.429 194.514 307.429 194.514C307.429 194.514 312.629 194.143 316.219 198.971" stroke="#263238" stroke-miterlimit="10" stroke-linecap="round" stroke-linejoin="round"/>
<path d="M516.419 180.895C516.419 180.895 509.981 174.457 507.629 177.676C505.276 180.895 511.219 185.724 511.219 185.724L508.867 188.571" fill="white"/>
<path d="M516.419 180.895C516.419 180.895 509.981 174.457 507.629 177.676C505.276 180.895 511.219 185.724 511.219 185.724L508.867 188.571" stroke="#263238" stroke-miterlimit="10" stroke-linecap="round" stroke-linejoin="round"/>
<path d="M513.572 192.162C513.572 192.162 508.743 186.591 505.524 187.333C502.305 188.076 507.133 194.514 507.133 194.514C507.133 194.514 501.933 194.143 498.343 198.971" fill="white"/>
<path d="M513.572 192.162C513.572 192.162 508.743 186.591 505.524 187.333C502.305 188.076 507.133 194.514 507.133 194.514C507.133 194.514 501.933 194.143 498.343 198.971" stroke="#263238" stroke-miterlimit="10" stroke-linecap="round" stroke-linejoin="round"/>
<path d="M316.467 216.305C320.305 215.933 325.381 214.2 330.953 209.248L326.248 203.676C322.41 207.514 316.838 208.876 313.248 209.371C314.114 211.229 315.229 213.581 316.467 216.305Z" fill="white" stroke="#263238" stroke-miterlimit="10" stroke-linecap="round" stroke-linejoin="round"/>
<path d="M404 201.448L412.914 212.714L404.124 285.019L416.381 296.781L426.286 285.514L416.629 213.086L425.543 197.238L411.057 187.829L404 201.448Z" fill="#0046D4" stroke="#0046D4" stroke-miterlimit="10" stroke-linecap="round" stroke-linejoin="round"/>
<path d="M398.924 172.848L394.095 175.2L388.648 184.238L398.305 209.495L414.772 198.971L432.476 210.362C432.476 210.362 432.476 184.486 430.991 181.514C429.505 178.543 423.438 172.229 423.438 172.229L398.924 172.848Z" fill="#187DDA" stroke="#263238" stroke-miterlimit="10" stroke-linecap="round" stroke-linejoin="round"/>
<path d="M396.943 161.333L398.676 179.781C398.676 179.781 409.448 198.724 413.41 200.457C417.371 202.314 423.562 184.857 424.8 182.133C426.038 179.41 426.657 170.371 426.657 170.371C426.657 170.371 415.886 170.124 410.438 166.41C404.991 162.695 397.562 158.857 397.562 158.857L396.943 161.333Z" fill="white" stroke="#263238" stroke-miterlimit="10" stroke-linecap="round" stroke-linejoin="round"/>
<path d="M397.438 159.105L396.943 161.457L398.676 179.905C398.676 179.905 399.171 180.895 400.038 182.381C410.933 181.267 421.21 177.429 426.038 175.448C426.286 172.848 426.533 170.619 426.533 170.619C426.533 170.619 415.762 170.371 410.314 166.657C404.867 162.943 397.438 159.105 397.438 159.105Z" fill="#263238" stroke="#263238" stroke-miterlimit="10" stroke-linecap="round" stroke-linejoin="round"/>
<path d="M395.829 142.391C395.829 142.391 394.095 137.562 389.762 140.162C385.429 142.762 386.667 148.333 388.524 150.933C390.257 153.533 393.352 155.638 395.21 156.01C396.943 156.257 395.829 142.391 395.829 142.391Z" fill="white" stroke="#263238" stroke-miterlimit="10" stroke-linecap="round" stroke-linejoin="round"/>
<path d="M400.286 110.2C400.286 110.2 390.257 111.686 389.514 120.971C388.771 130.257 393.971 154.524 396.943 161.333C399.914 168.019 402.514 169.876 408.457 174.457C414.4 179.038 426.038 176.686 429.009 174.086C431.981 171.486 435.324 164.429 436.067 152.048C436.809 139.667 436.809 134.095 436.438 126.667C436.067 119.238 430.867 113.171 430.867 113.171C430.867 113.171 432.352 108.343 423.809 106.486C415.267 104.629 405.114 108.343 400.286 110.2Z" fill="white" stroke="#263238" stroke-miterlimit="10" stroke-linecap="round" stroke-linejoin="round"/>
<path d="M433.219 161.333C433.219 161.333 433.219 161.333 433.219 160.219C433.219 159.105 428.39 155.39 423.933 154.648C419.476 153.905 412.79 155.762 410.067 157.248C407.467 158.733 406.724 162.448 406.724 162.448C406.724 162.448 403.381 162.448 401.524 159.848C399.667 157.248 397.067 140.781 397.809 139.667C398.552 138.552 402.638 133.352 402.267 131.495C401.895 129.638 400.038 128.895 399.667 125.924C399.295 122.952 404.495 119.981 404.495 119.981C407.838 117.381 416.009 120.724 421.333 120.352C426.533 119.981 429.505 117.629 429.505 117.629L431.857 120.105L433.095 123.819C433.095 123.819 433.714 124.933 435.2 126.419C436.314 127.533 435.943 127.038 436.562 128.029C436.562 127.533 436.562 127.038 436.438 126.667C436.067 119.238 430.867 113.171 430.867 113.171C430.867 113.171 432.352 108.343 423.809 106.486C415.267 104.629 405.114 108.343 400.286 110.2C400.286 110.2 390.257 111.686 389.514 120.971C388.771 130.257 393.971 154.524 396.943 161.333C399.914 168.019 402.514 169.876 408.457 174.457C414.4 179.038 426.038 176.686 429.009 174.086C431.238 172.105 433.714 167.648 435.076 160.219L433.219 161.333Z" fill="#D1D1D1" stroke="#263238" stroke-miterlimit="10" stroke-linecap="round" stroke-linejoin="round"/>
<path d="M425.667 137.438L427.4 135.952C427.4 135.952 430.372 133.6 435.2 137.19" stroke="#263238" stroke-width="2" stroke-miterlimit="10" stroke-linecap="round" stroke-linejoin="round"/>
<path d="M416.752 151.676C416.752 151.676 417.867 154.276 420.095 154.276C422.324 154.276 426.038 153.162 426.038 153.162L425.295 139.667L425.667 137.438" stroke="#263238" stroke-miterlimit="10" stroke-linecap="round" stroke-linejoin="round"/>
<path d="M414.895 158.981C414.895 158.981 416.752 163.314 419.229 163.686C421.705 164.057 423.314 160.467 423.314 160.467C423.314 160.467 418.362 160.467 414.895 158.981Z" fill="#263238" stroke="#263238" stroke-miterlimit="10" stroke-linecap="round" stroke-linejoin="round"/>
<path d="M425.295 160.219C425.295 160.219 418.362 160.838 413.533 157.867" stroke="#263238" stroke-miterlimit="10" stroke-linecap="round" stroke-linejoin="round"/>
<path d="M417.248 141.029C417.248 142.39 416.505 143.629 415.638 143.629C414.772 143.629 414.029 142.514 414.029 141.029C414.029 139.667 414.772 138.429 415.638 138.429C416.505 138.429 417.248 139.543 417.248 141.029Z" fill="#263238"/>
<path d="M433.095 141.029C433.095 142.39 432.352 143.629 431.486 143.629C430.619 143.629 429.876 142.514 429.876 141.029C429.876 139.667 430.619 138.429 431.486 138.429C432.352 138.429 433.095 139.543 433.095 141.029Z" fill="#263238"/>
<path d="M407.962 137.19C407.962 137.19 411.924 134.838 417.619 135.952" stroke="#263238" stroke-width="2" stroke-miterlimit="10" stroke-linecap="round" stroke-linejoin="round"/>
<path d="M221.257 459.714C221.257 459.714 214.819 509.733 213.705 514.438C212.467 519.267 213.333 527.314 213.333 527.314C213.333 527.314 220.514 528.924 223.733 528.924C226.952 528.924 231.781 528.924 231.781 528.924C231.781 528.924 236.733 527.686 237.971 527.314C239.209 526.943 243.171 527.686 248 527.686C252.828 527.686 269.171 528.057 271.152 526.943C273.133 525.705 273.009 521 268.181 516.914C263.352 512.829 251.343 510.971 249.733 508.99C248.124 507.01 248.124 507.01 248.124 507.01L244.905 501.438C244.905 501.438 248.99 493.39 248.124 488.933C247.381 484.476 245.771 476.924 245.771 475.314C245.771 473.705 248.619 461.324 249.733 459.343C250.971 457.362 248.124 439.41 238.095 438.543C227.943 437.8 221.628 446.962 221.257 459.714Z" fill="#236CFF" stroke="#0047D5" stroke-miterlimit="10" stroke-linecap="round" stroke-linejoin="round"/>
<path d="M263.6 510.105C263.6 510.105 270.781 514.933 273.133 515.676C275.486 516.419 287.867 520.505 289.476 522.486C291.086 524.467 291.457 528.429 291.457 528.429H233.514C233.514 528.429 230.667 527.686 231.533 521.248C232.4 514.933 257.162 506.514 263.6 510.105Z" fill="#666666" stroke="#263238" stroke-miterlimit="10" stroke-linecap="round" stroke-linejoin="round"/>
<path d="M210.857 298.267C210.857 298.267 206.895 324.267 210.114 334.295C213.333 344.324 219.276 350.267 219.276 350.267C219.276 350.267 224.847 410.686 224.847 419.848C224.847 429.01 219.276 441.886 220.019 455.381C220.762 469 228.809 508.99 228.809 514.19C228.809 519.39 228.809 522.238 228.809 522.238L232.4 525.457C232.4 525.457 253.943 514.314 255.552 513.076C257.162 511.838 262.362 510.229 263.6 510.229C264.838 510.229 264.343 508.99 263.6 505.771C262.857 502.552 258.028 499.333 257.162 495.371C256.295 491.41 257.162 476.924 257.533 473.333C257.905 469.743 264.714 441.762 265.952 426.533C267.19 411.305 271.895 380.971 271.895 366.114C271.895 351.381 271.895 322.162 271.895 322.162L272.267 301.733L210.857 298.267Z" fill="#236CFF" stroke="#0047D5" stroke-miterlimit="10" stroke-linecap="round" stroke-linejoin="round"/>
<path d="M219.524 181.267C219.524 181.267 205.162 199.095 202.067 211.724C198.971 224.352 203.429 250.848 204.171 253.324C204.914 255.8 207.267 276.724 207.267 286.876C207.267 297.029 208.009 301.61 212.219 302.6C216.429 303.59 256.295 308.914 263.6 308.543C270.905 308.171 277.59 304.705 279.324 301.238C281.057 297.771 277.59 268.8 274.743 252.333C271.895 235.867 265.952 214.2 264.59 207.638C263.228 200.952 252.333 191.543 250.971 189.81C249.609 188.076 221.628 179.286 221.628 179.286L219.524 181.267Z" fill="#76B7F3" stroke="#263238" stroke-miterlimit="10" stroke-linecap="round" stroke-linejoin="round"/>
<path d="M258.647 111.19C264.466 114.286 269.543 118.99 273.257 124.933C278.457 133.352 273.257 142.019 272.885 145.61C272.514 149.076 275.362 152.543 277.466 154.4C279.571 156.133 278.209 158.61 276.105 159.6C274 160.59 273.009 160.59 273.009 160.59C273.009 160.59 270.162 173.467 268.8 175.943C267.438 178.419 263.228 179.41 260.381 179.41C257.533 179.41 251.59 178.667 251.59 178.667L249.485 191.295L223.609 178.419L224.6 167.648C224.6 167.648 214.076 150.562 212.714 135.457C210.733 112.676 241.314 102.152 258.647 111.19Z" fill="white" stroke="#263238" stroke-miterlimit="10" stroke-linecap="round" stroke-linejoin="round"/>
<path d="M251.59 178.914L245.895 175.2L250.228 184.238L251.59 178.914Z" fill="#263238" stroke="#263238" stroke-miterlimit="10" stroke-linecap="round" stroke-linejoin="round"/>
<path d="M269.543 164.429C269.543 164.429 265.952 163.562 264.59 161.705" stroke="#263238" stroke-miterlimit="10" stroke-linecap="round" stroke-linejoin="round"/>
<path d="M266.695 117.01C264.219 114.781 261.619 112.8 258.648 111.314C241.314 102.152 210.733 112.8 212.838 135.581C213.952 147.838 221.133 161.457 223.733 166.038C225.343 166.286 227.448 165.79 231.038 164.924C236.61 163.562 238.714 156.876 238.714 156.876L241.19 150.562C241.19 150.562 244.657 150.562 245.771 147.714C246.762 144.867 244.038 140.41 247.505 137.933C250.971 135.457 256.543 137.19 255.552 131C254.562 125.8 256.914 117.876 266.695 117.01Z" fill="#263238" stroke="#263238" stroke-miterlimit="10" stroke-linecap="round" stroke-linejoin="round"/>
<path d="M244.657 151.552C244.657 151.552 242.552 144.867 236.981 147.714C231.409 150.562 235.247 157.124 237.723 161.705C240.2 166.286 245.771 164.552 245.771 164.552" fill="white"/>
<path d="M244.657 151.552C244.657 151.552 242.552 144.867 236.981 147.714C231.409 150.562 235.247 157.124 237.723 161.705C240.2 166.286 245.771 164.552 245.771 164.552" stroke="#263238" stroke-miterlimit="10" stroke-linecap="round" stroke-linejoin="round"/>
<path d="M269.419 146.352C269.419 147.714 268.924 148.829 268.428 148.829C267.933 148.829 267.438 147.714 267.438 146.352C267.438 144.99 267.933 143.876 268.428 143.876C268.924 143.876 269.419 144.99 269.419 146.352Z" fill="#263238"/>
<path d="M263.847 140.781C263.847 140.781 267.314 136.571 271.524 138.676" stroke="#263238" stroke-miterlimit="10" stroke-linecap="round" stroke-linejoin="round"/>
<path d="M262.733 207.762L271.4 294.429L283.657 299.876L282.914 288.362L266.324 209.619C266.324 209.495 262.486 201.695 262.733 207.762Z" fill="#0046D4" stroke="#0047D4" stroke-miterlimit="10" stroke-linecap="round" stroke-linejoin="round"/>
<path d="M247.01 194.762L262.857 207.638C262.857 207.638 264.714 201.943 263.229 197.981C261.743 194.019 250.971 189.562 250.971 189.562L247.01 194.762Z" fill="#187DDA" stroke="#263238" stroke-miterlimit="10" stroke-linecap="round" stroke-linejoin="round"/>
<path d="M222 174.333L253.448 188.695L248.743 201.943L219.524 181.267L222 174.333Z" fill="#187DDA" stroke="#263238" stroke-miterlimit="10" stroke-linecap="round" stroke-linejoin="round"/>
<path d="M282.419 225.219C282.419 225.219 291.457 225.095 295.914 229.924C300.371 234.752 302.228 238.343 300.99 242.8C299.752 247.257 296.533 248.248 294.428 248.743C292.324 249.362 289.352 249.61 282.419 239.705C275.609 230.048 276.971 225.59 282.419 225.219Z" fill="white" stroke="#263238" stroke-miterlimit="10" stroke-linecap="round" stroke-linejoin="round"/>
<path d="M216.676 200.457C216.676 200.457 211.476 208.133 211.105 218.286C210.733 228.438 213.209 232.276 216.305 233.267C219.4 234.257 247.381 254.933 255.428 258.771C263.476 262.61 281.924 272.886 287.124 269.79C292.324 266.695 299.009 263.848 299.009 254.81C299.009 245.771 293.809 240.076 290.59 236.61C287.495 233.143 268.305 221.752 262.362 215.81C256.419 209.867 244.162 200.086 242.057 199.714" fill="#76B7F3"/>
<path d="M216.676 200.457C216.676 200.457 211.476 208.133 211.105 218.286C210.733 228.438 213.209 232.276 216.305 233.267C219.4 234.257 247.381 254.933 255.428 258.771C263.476 262.61 281.924 272.886 287.124 269.79C292.324 266.695 299.009 263.848 299.009 254.81C299.009 245.771 293.809 240.076 290.59 236.61C287.495 233.143 268.305 221.752 262.362 215.81C256.419 209.867 244.162 200.086 242.057 199.714" stroke="#263238" stroke-miterlimit="10" stroke-linecap="round" stroke-linejoin="round"/>
<path d="M282.419 225.219C282.419 225.219 279.943 222.371 278.333 222.495C276.848 222.743 274.867 230.171 276.6 232.4C278.333 234.629 280.438 234.505 280.809 232.648C281.305 230.667 282.79 228.19 282.419 225.219Z" fill="white" stroke="#263238" stroke-miterlimit="10" stroke-linecap="round" stroke-linejoin="round"/>
<path d="M286.133 227.943C286.133 227.943 284.4 225.962 283.41 226.086C282.419 226.21 281.057 231.286 282.295 232.648C283.41 234.01 284.895 234.01 285.143 232.771C285.391 231.533 286.381 229.924 286.133 227.943Z" fill="white" stroke="#263238" stroke-miterlimit="10" stroke-linecap="round" stroke-linejoin="round"/>
<path d="M277.219 221.257C277.219 221.257 274.743 218.41 273.133 218.533C271.648 218.781 269.667 226.21 271.4 228.438C273.133 230.543 275.238 230.543 275.61 228.686C276.105 226.581 277.59 224.105 277.219 221.257Z" fill="white" stroke="#263238" stroke-miterlimit="10" stroke-linecap="round" stroke-linejoin="round"/>
<path d="M272.143 216.8C272.143 216.8 269.667 213.952 268.057 214.076C266.571 214.324 264.59 221.752 266.324 223.981C268.057 226.086 270.162 226.086 270.533 224.229C271.029 222.124 272.638 219.648 272.143 216.8Z" fill="white" stroke="#263238" stroke-miterlimit="10" stroke-linecap="round" stroke-linejoin="round"/>
<path d="M227.943 241.067C227.943 241.067 216.8 241.067 211.105 238.219L227.943 241.067Z" fill="#76B7F3"/>
<path d="M227.943 241.067C227.943 241.067 216.8 241.067 211.105 238.219" stroke="#263238" stroke-miterlimit="10" stroke-linecap="round" stroke-linejoin="round"/>
<path d="M208.009 88.9048V108.467H104.133V31.2096H112.181" stroke="#E2E5FC" stroke-miterlimit="10" stroke-linecap="round" stroke-linejoin="round"/>
<path d="M120.848 31.2096H208.01V83.0858" stroke="#E2E5FC" stroke-miterlimit="10" stroke-linecap="round" stroke-linejoin="round"/>
<path d="M208.009 92.8667H104.133V108.467H208.009V92.8667Z" stroke="#E2E5FC" stroke-miterlimit="10" stroke-linecap="round" stroke-linejoin="round"/>
<path d="M200.705 97.8191H111.562V103.391H200.705V97.8191Z" stroke="#E2E5FC" stroke-miterlimit="10" stroke-linecap="round" stroke-linejoin="round"/>
<path d="M175.943 63.7715L142.267 44.3334V83.2096L175.943 63.7715Z" stroke="#E2E5FC" stroke-miterlimit="10" stroke-linecap="round" stroke-linejoin="round"/>
<path d="M644.686 29.4762C652.238 33.9334 658.429 40.3715 662.762 48.0477" stroke="#E2E5FC" stroke-miterlimit="10" stroke-linecap="round" stroke-linejoin="round"/>
<path d="M579.191 103.019C572.752 94.6001 568.791 83.9524 568.791 72.562C568.791 44.9524 591.2 22.4191 618.933 22.4191C625.991 22.4191 632.676 23.9048 638.743 26.5048" stroke="#E2E5FC" stroke-miterlimit="10" stroke-linecap="round" stroke-linejoin="round"/>
<path d="M590.581 113.791C588.6 112.429 586.743 110.943 585.01 109.333" stroke="#E2E5FC" stroke-miterlimit="10" stroke-linecap="round" stroke-linejoin="round"/>
<path d="M668.952 70.581C668.952 71.2001 668.952 71.8191 668.952 72.4382C668.952 100.048 646.543 122.581 618.81 122.581C610.514 122.581 602.591 120.476 595.657 116.886" stroke="#E2E5FC" stroke-miterlimit="10" stroke-linecap="round" stroke-linejoin="round"/>
<path d="M583.029 70.3334C583.4 63.7715 585.629 57.581 589.095 52.381" stroke="#E2E5FC" stroke-miterlimit="10" stroke-linecap="round" stroke-linejoin="round"/>
<path d="M593.553 47.0572C600.114 40.4953 609.029 36.5334 618.934 36.5334C638.743 36.5334 654.838 52.6286 654.838 72.4382C654.838 92.2477 638.743 108.343 618.934 108.343C600.114 108.343 584.762 93.981 583.153 75.6572" stroke="#E2E5FC" stroke-miterlimit="10" stroke-linecap="round" stroke-linejoin="round"/>
<path d="M633.419 87.0477C629.705 90.762 624.505 93.1143 618.933 93.1143C607.543 93.1143 598.381 83.9524 598.381 72.562C598.381 61.1715 607.543 52.0096 618.933 52.0096C630.324 52.0096 639.486 61.1715 639.486 72.562C639.486 75.781 638.743 78.7524 637.381 81.4762" stroke="#E2E5FC" stroke-miterlimit="10" stroke-linecap="round" stroke-linejoin="round"/>
<path d="M618.933 81.4763C623.925 81.4763 627.971 77.4298 627.971 72.4382C627.971 67.4466 623.925 63.4001 618.933 63.4001C613.942 63.4001 609.895 67.4466 609.895 72.4382C609.895 77.4298 613.942 81.4763 618.933 81.4763Z" stroke="#E2E5FC" stroke-miterlimit="10" stroke-linecap="round" stroke-linejoin="round"/>
<path d="M659.172 60.0572L670.067 67.2381L692.229 60.8L689.381 51.3905L659.172 60.0572Z" stroke="#E2E5FC" stroke-miterlimit="10" stroke-linecap="round" stroke-linejoin="round"/>
<path d="M659.048 59.4382L664.371 47.6762L686.533 41.2382L689.257 50.6477L659.048 59.4382Z" stroke="#E2E5FC" stroke-miterlimit="10" stroke-linecap="round" stroke-linejoin="round"/>
<path d="M689.629 50.8953L621.286 70.7048" stroke="#E2E5FC" stroke-width="2" stroke-miterlimit="10" stroke-linecap="round" stroke-linejoin="round"/>
<path d="M358.933 60.0571H344.943V90.8857H358.933V60.0571Z" stroke="#E2E5FC" stroke-miterlimit="10" stroke-linecap="round" stroke-linejoin="round"/>
<path d="M378.124 42.3524H364.133V90.8857H378.124V42.3524Z" stroke="#E2E5FC" stroke-miterlimit="10" stroke-linecap="round" stroke-linejoin="round"/>
<path d="M397.191 50.4H383.2V90.7619H397.191V50.4Z" stroke="#E2E5FC" stroke-miterlimit="10" stroke-linecap="round" stroke-linejoin="round"/>
<path d="M416.257 31.3333H402.267V90.8857H416.257V31.3333Z" stroke="#E2E5FC" stroke-miterlimit="10" stroke-linecap="round" stroke-linejoin="round"/>
<path d="M435.448 23.2857H421.457V90.8857H435.448V23.2857Z" stroke="#E2E5FC" stroke-miterlimit="10" stroke-linecap="round" stroke-linejoin="round"/>
<path d="M342.467 90.7619H336.895" stroke="#E2E5FC" stroke-miterlimit="10" stroke-linecap="round" stroke-linejoin="round"/>
<path d="M444.362 90.7619H438.791" stroke="#E2E5FC" stroke-miterlimit="10" stroke-linecap="round" stroke-linejoin="round"/>
<path d="M342.467 84.0762H336.895" stroke="#E2E5FC" stroke-miterlimit="10" stroke-linecap="round" stroke-linejoin="round"/>
<path d="M444.362 84.0762H438.791" stroke="#E2E5FC" stroke-miterlimit="10" stroke-linecap="round" stroke-linejoin="round"/>
<path d="M342.467 77.5143H336.895" stroke="#E2E5FC" stroke-miterlimit="10" stroke-linecap="round" stroke-linejoin="round"/>
<path d="M444.362 77.5143H438.791" stroke="#E2E5FC" stroke-miterlimit="10" stroke-linecap="round" stroke-linejoin="round"/>
<path d="M342.467 70.8285H336.895" stroke="#E2E5FC" stroke-miterlimit="10" stroke-linecap="round" stroke-linejoin="round"/>
<path d="M444.362 70.8285H438.791" stroke="#E2E5FC" stroke-miterlimit="10" stroke-linecap="round" stroke-linejoin="round"/>
<path d="M342.467 64.2666H336.895" stroke="#E2E5FC" stroke-miterlimit="10" stroke-linecap="round" stroke-linejoin="round"/>
<path d="M444.362 64.2666H438.791" stroke="#E2E5FC" stroke-miterlimit="10" stroke-linecap="round" stroke-linejoin="round"/>
<path d="M342.467 57.5809H336.895" stroke="#E2E5FC" stroke-miterlimit="10" stroke-linecap="round" stroke-linejoin="round"/>
<path d="M444.362 57.5809H438.791" stroke="#E2E5FC" stroke-miterlimit="10" stroke-linecap="round" stroke-linejoin="round"/>
<path d="M342.467 50.8952H336.895" stroke="#E2E5FC" stroke-miterlimit="10" stroke-linecap="round" stroke-linejoin="round"/>
<path d="M444.362 50.8952H438.791" stroke="#E2E5FC" stroke-miterlimit="10" stroke-linecap="round" stroke-linejoin="round"/>
<path d="M342.467 44.3333H336.895" stroke="#E2E5FC" stroke-miterlimit="10" stroke-linecap="round" stroke-linejoin="round"/>
<path d="M444.362 44.3333H438.791" stroke="#E2E5FC" stroke-miterlimit="10" stroke-linecap="round" stroke-linejoin="round"/>
<path d="M342.467 37.6476H336.895" stroke="#E2E5FC" stroke-miterlimit="10" stroke-linecap="round" stroke-linejoin="round"/>
<path d="M444.362 37.6476H438.791" stroke="#E2E5FC" stroke-miterlimit="10" stroke-linecap="round" stroke-linejoin="round"/>
<path d="M342.467 31.0857H336.895" stroke="#E2E5FC" stroke-miterlimit="10" stroke-linecap="round" stroke-linejoin="round"/>
<path d="M444.362 31.0857H438.791" stroke="#E2E5FC" stroke-miterlimit="10" stroke-linecap="round" stroke-linejoin="round"/>
<path d="M350.391 48.7904L370.2 27.1238L390.01 43.8381L407.962 19.6952L420.714 11.2762" stroke="#E2E5FC" stroke-width="2" stroke-linecap="round" stroke-linejoin="round"/>
<path d="M415.79 6.772L428.799 6.00681L423.005 17.7032L415.79 6.772Z" fill="#D1D1D1" stroke="#E2E5FC"/>
<path d="M1 528.552H833" stroke="#263238" stroke-miterlimit="10" stroke-linecap="round" stroke-linejoin="round"/>
</svg>
