<svg width="102" height="80" viewBox="0 0 102 80" fill="none" xmlns="http://www.w3.org/2000/svg">
<g clip-path="url(#clip0_1061_4719)">
<g style="mix-blend-mode:overlay" opacity="0.5">
<path d="M93.4676 28.4809C93.4676 28.0525 93.3335 27.6417 93.0947 27.3388C92.856 27.0359 92.5321 26.8657 92.1945 26.8657H52.1623C51.8246 26.8657 51.5008 27.0359 51.2621 27.3388C51.0233 27.6417 50.8892 28.0525 50.8892 28.4809C50.8892 28.9093 51.0233 29.3201 51.2621 29.6231C51.5008 29.926 51.8246 30.0961 52.1623 30.0961H81.6201C81.9578 30.0961 82.2816 30.2663 82.5203 30.5692C82.7591 30.8721 82.8932 31.283 82.8932 31.7113C82.8928 32.1394 82.7585 32.5496 82.5198 32.8521C82.2811 33.1545 81.9575 33.3244 81.6201 33.3244H62.2592C61.9219 33.325 61.5985 33.4954 61.3601 33.7982C61.1217 34.1011 60.9878 34.5116 60.9878 34.9396C60.9878 35.3676 61.1217 35.7781 61.3601 36.081C61.5985 36.3838 61.9219 36.5542 62.2592 36.5548H72.903C73.0702 36.5545 73.2359 36.5961 73.3904 36.6772C73.545 36.7583 73.6854 36.8772 73.8037 37.0273C73.922 37.1773 74.0157 37.3555 74.0796 37.5516C74.1435 37.7477 74.1763 37.9578 74.1761 38.17C74.1761 38.382 74.1432 38.592 74.0792 38.7878C74.0152 38.9837 73.9213 39.1616 73.8031 39.3114C73.6849 39.4612 73.5445 39.58 73.39 39.6609C73.2356 39.7418 73.0701 39.7834 72.903 39.7831H69.0091C68.6715 39.7831 68.3476 39.9533 68.1089 40.2562C67.8701 40.5591 67.736 40.9699 67.736 41.3983C67.736 41.6104 67.7689 41.8204 67.8329 42.0164C67.8969 42.2124 67.9907 42.3904 68.1089 42.5404C68.2271 42.6904 68.3675 42.8094 68.5219 42.8905C68.6764 42.9717 68.8419 43.0135 69.0091 43.0135H90.1104C90.4481 43.0135 90.7719 42.8433 91.0106 42.5404C91.2494 42.2375 91.3835 41.8267 91.3835 41.3983C91.3835 40.9699 91.2494 40.5591 91.0106 40.2562C90.7719 39.9533 90.4481 39.7831 90.1104 39.7831H83.1895C82.8522 39.7831 82.5286 39.6132 82.2899 39.3108C82.0512 39.0083 81.9168 38.598 81.9164 38.17C81.9164 37.7416 82.0505 37.3308 82.2893 37.0279C82.528 36.725 82.8519 36.5548 83.1895 36.5548H100.385C100.722 36.5542 101.046 36.3838 101.284 36.081C101.523 35.7781 101.657 35.3676 101.657 34.9396C101.657 34.5116 101.523 34.1011 101.284 33.7982C101.046 33.4954 100.722 33.325 100.385 33.3244H88.1466C87.8092 33.3244 87.4856 33.1545 87.2469 32.8521C87.0082 32.5496 86.8739 32.1394 86.8734 31.7113C86.8734 31.283 87.0076 30.8721 87.2463 30.5692C87.4851 30.2663 87.8089 30.0961 88.1466 30.0961H92.1911C92.3586 30.0967 92.5245 30.0553 92.6793 29.9744C92.8342 29.8935 92.9749 29.7746 93.0935 29.6246C93.2121 29.4745 93.3062 29.2963 93.3704 29.1C93.4345 28.9038 93.4676 28.6934 93.4676 28.4809Z" fill="white"/>
</g>
<g style="mix-blend-mode:overlay" opacity="0.5">
<path d="M42.1315 48.1018C42.131 47.6738 41.9967 47.2635 41.758 46.9611C41.5193 46.6587 41.1957 46.4888 40.8583 46.4888H13.2882C12.9508 46.4888 12.6273 46.6587 12.3886 46.9611C12.1498 47.2635 12.0155 47.6738 12.0151 48.1018C12.0151 48.5302 12.1492 48.941 12.388 49.244C12.6267 49.5469 12.9505 49.717 13.2882 49.717H22.4929C22.8303 49.7176 23.1537 49.888 23.392 50.1909C23.6304 50.4937 23.7643 50.9042 23.7643 51.3322C23.7643 51.7602 23.6304 52.1708 23.392 52.4736C23.1537 52.7765 22.8303 52.9469 22.4929 52.9475H1.27311C0.935754 52.9475 0.612188 53.1173 0.37348 53.4198C0.134773 53.7222 0.000448616 54.1325 0 54.5605C0 54.9889 0.134125 55.3997 0.372881 55.7026C0.611637 56.0055 0.935461 56.1757 1.27311 56.1757H16.6572C16.9949 56.1757 17.3187 56.3459 17.5575 56.6488C17.7962 56.9517 17.9303 57.3625 17.9303 57.7909C17.9303 58.2193 17.7962 58.6301 17.5575 58.933C17.3187 59.236 16.9949 59.4061 16.6572 59.4061H12.7634C12.426 59.4061 12.1024 59.576 11.8637 59.8785C11.625 60.1809 11.4907 60.5912 11.4902 61.0192C11.4902 61.4476 11.6244 61.8584 11.8631 62.1613C12.1019 62.4642 12.4257 62.6344 12.7634 62.6344H34.5452C34.8829 62.6344 35.2067 62.4642 35.4455 62.1613C35.6842 61.8584 35.8184 61.4476 35.8184 61.0192C35.8179 60.5912 35.6836 60.1809 35.4449 59.8785C35.2062 59.576 34.8826 59.4061 34.5452 59.4061H27.6243C27.2867 59.4061 26.9629 59.236 26.7241 58.933C26.4853 58.6301 26.3512 58.2193 26.3512 57.7909C26.3512 57.3625 26.4853 56.9517 26.7241 56.6488C26.9629 56.3459 27.2867 56.1757 27.6243 56.1757H51.2515C51.5892 56.1757 51.913 56.0055 52.1518 55.7026C52.3905 55.3997 52.5247 54.9889 52.5247 54.5605C52.5247 54.3485 52.4917 54.1386 52.4277 53.9427C52.3637 53.7469 52.2699 53.569 52.1517 53.4191C52.0334 53.2693 51.8931 53.1506 51.7386 53.0696C51.5842 52.9887 51.4187 52.9472 51.2515 52.9475H28.8568C28.5192 52.9475 28.1953 52.7773 27.9566 52.4744C27.7178 52.1715 27.5837 51.7606 27.5837 51.3322C27.5837 50.9039 27.7178 50.493 27.9566 50.1901C28.1953 49.8872 28.5192 49.717 28.8568 49.717H40.8583C41.196 49.717 41.5198 49.5469 41.7586 49.244C41.9973 48.941 42.1315 48.5302 42.1315 48.1018Z" fill="white"/>
</g>
<g style="mix-blend-mode:multiply" opacity="0.56">
<path d="M94.7831 66.2428V64.3226L92.1404 63.6181C92.0394 62.7352 91.8575 61.8702 91.5986 61.0407L93.6082 58.7553L92.8514 57.0928L90.2832 58.1668C89.8471 57.4685 89.3489 56.8364 88.7985 56.2831L89.645 53.0248L88.3346 52.0668L86.5282 54.612C85.8747 54.2817 85.1928 54.0503 84.4966 53.9226L83.9481 50.5654H82.4244L81.8674 53.9183C81.1712 54.046 80.4893 54.2774 79.8358 54.6077L78.0328 52.0582L76.7225 53.0162L77.5689 56.2745C77.0181 56.8278 76.5193 57.4599 76.0825 58.1582L73.5143 57.0843L72.7592 58.7467L74.7688 61.0321C74.5093 61.8615 74.3269 62.7265 74.2253 63.6095L71.5894 64.3226V66.2428L74.2321 66.9473C74.3337 67.8303 74.5161 68.6953 74.7755 69.5248L72.766 71.8101L73.521 73.4726L76.0893 72.3987C76.5261 73.0969 77.0248 73.729 77.5757 74.2824L76.7292 77.5407L78.0396 78.4986L79.8426 75.9491C80.4961 76.2794 81.178 76.5108 81.8742 76.6386L82.4244 80H83.9481L84.5051 76.6472C85.2013 76.5194 85.8832 76.288 86.5367 75.9577L88.338 78.5072L89.6483 77.5493L88.8019 74.2909C89.3523 73.7376 89.8505 73.1055 90.2866 72.4072L92.8548 73.4812L93.6116 71.8187L91.602 69.5334C91.8609 68.7038 92.0427 67.8389 92.1438 66.9559L94.7831 66.2428ZM89.7787 65.2827C89.7787 66.9395 89.3915 68.559 88.666 69.9366C87.9405 71.3141 86.9093 72.3878 85.7028 73.0218C84.4963 73.6558 83.1688 73.8217 81.888 73.4985C80.6072 73.1753 79.4307 72.3775 78.5073 71.206C77.5839 70.0345 76.9551 68.5419 76.7003 66.9169C76.4456 65.292 76.5763 63.6077 77.0761 62.0771C77.5758 60.5464 78.4221 59.2382 79.5079 58.3177C80.5937 57.3973 81.8702 56.906 83.1761 56.906C84.0433 56.9057 84.902 57.1222 85.7033 57.543C86.5046 57.9639 87.2327 58.5808 87.8459 59.3587C88.4592 60.1366 88.9457 61.0601 89.2776 62.0766C89.6096 63.093 89.7804 64.1825 89.7804 65.2827H89.7787Z" fill="#C5CAE9"/>
<path d="M85.9842 66.1224C86.3527 64.157 85.3956 62.1849 83.8465 61.7174C82.2974 61.2499 80.7429 62.4641 80.3745 64.4295C80.006 66.3948 80.9631 68.367 82.5122 68.8345C84.0612 69.302 85.6158 68.0877 85.9842 66.1224Z" fill="#C5CAE9"/>
</g>
<path d="M35.8591 50.8662H19.1985V71.0434H35.8591V50.8662Z" fill="#242B5B"/>
<path d="M37.9329 52.5824H17.1262C17.1262 51.6709 17.4116 50.7968 17.9196 50.1523C18.4276 49.5078 19.1166 49.1458 19.835 49.1458H35.2309C35.9493 49.1458 36.6383 49.5078 37.1463 50.1523C37.6543 50.7968 37.9397 51.6709 37.9397 52.5824H37.9329Z" fill="url(#paint0_linear_1061_4719)"/>
<path d="M37.9329 54.1934H17.1262V57.6257H37.9329V54.1934Z" fill="url(#paint1_linear_1061_4719)"/>
<path d="M37.9329 59.2385H17.1262V62.6708H37.9329V59.2385Z" fill="url(#paint2_linear_1061_4719)"/>
<path d="M37.9329 64.282H17.1262V67.7143H37.9329V64.282Z" fill="url(#paint3_linear_1061_4719)"/>
<path d="M35.2275 72.7594H19.8316C19.1132 72.7594 18.4242 72.3973 17.9162 71.7528C17.4082 71.1083 17.1228 70.2342 17.1228 69.3228H37.9329C37.9329 70.2335 37.648 71.1069 37.1407 71.7513C36.6335 72.3957 35.9454 72.7582 35.2275 72.7594Z" fill="url(#paint4_linear_1061_4719)"/>
<path d="M35.2275 72.7594H19.8316C19.1132 72.7594 18.4242 72.3973 17.9162 71.7528C17.4082 71.1083 17.1228 70.2342 17.1228 69.3228H37.9329C37.9329 70.2335 37.648 71.1069 37.1407 71.7513C36.6335 72.3957 35.9454 72.7582 35.2275 72.7594Z" fill="url(#paint5_linear_1061_4719)"/>
<path d="M21.1471 50.8663C21.1474 50.9752 21.1223 51.0817 21.0749 51.1724C21.0274 51.2631 20.9599 51.3339 20.8807 51.3758C20.8015 51.4178 20.7143 51.429 20.6302 51.408C20.546 51.387 20.4686 51.3348 20.4078 51.258C20.347 51.1812 20.3056 51.0832 20.2887 50.9765C20.2719 50.8698 20.2803 50.7591 20.3131 50.6585C20.3459 50.5579 20.4014 50.4719 20.4727 50.4114C20.544 50.3509 20.6279 50.3186 20.7137 50.3186C20.8283 50.3186 20.9383 50.3762 21.0195 50.4789C21.1008 50.5815 21.1466 50.7209 21.1471 50.8663Z" fill="#242B5B"/>
<path d="M23.0939 50.8663C23.0939 50.9751 23.0684 51.0815 23.0207 51.172C22.973 51.2624 22.9052 51.3329 22.8259 51.3745C22.7466 51.416 22.6594 51.4268 22.5753 51.4054C22.4912 51.384 22.4139 51.3314 22.3534 51.2543C22.2928 51.1772 22.2517 51.079 22.2352 50.9722C22.2186 50.8654 22.2275 50.7548 22.2605 50.6544C22.2936 50.5539 22.3494 50.4682 22.4209 50.408C22.4924 50.3479 22.5764 50.316 22.6621 50.3164C22.7768 50.317 22.8866 50.3752 22.9675 50.4782C23.0484 50.5813 23.0939 50.7208 23.0939 50.8663Z" fill="#242B5B"/>
<path d="M25.0409 50.8663C25.0409 50.9751 25.0154 51.0815 24.9677 51.172C24.92 51.2624 24.8522 51.3329 24.7729 51.3745C24.6936 51.416 24.6064 51.4268 24.5223 51.4054C24.4382 51.384 24.361 51.3314 24.3004 51.2543C24.2399 51.1772 24.1987 51.079 24.1822 50.9722C24.1657 50.8654 24.1745 50.7548 24.2076 50.6544C24.2406 50.5539 24.2964 50.4682 24.3679 50.408C24.4394 50.3479 24.5234 50.316 24.6092 50.3164C24.7238 50.317 24.8336 50.3752 24.9145 50.4782C24.9954 50.5813 25.0409 50.7208 25.0409 50.8663Z" fill="#242B5B"/>
<g style="mix-blend-mode:screen" opacity="0.35">
<path d="M37.9329 52.5824C37.9329 51.6709 37.6475 50.7968 37.1395 50.1523C36.6315 49.5078 35.9425 49.1458 35.2241 49.1458H24.4297L27.1385 52.5824H37.9329Z" fill="url(#paint6_linear_1061_4719)"/>
<path d="M37.9329 54.1934H28.4048L31.1102 57.6257H37.9329V54.1934Z" fill="url(#paint7_linear_1061_4719)"/>
<path d="M37.9329 59.2388H32.3816L35.0853 62.6689H37.9329V59.2388Z" fill="url(#paint8_linear_1061_4719)"/>
<path d="M37.9329 64.282H36.3567L37.9329 66.2817V64.282Z" fill="url(#paint9_linear_1061_4719)"/>
</g>
<path d="M59.9686 76.3079H44.7402L46.8802 63.0254H57.827L59.9686 76.3079Z" fill="#7986CB"/>
<g style="mix-blend-mode:multiply" opacity="0.6">
<path d="M58.8208 69.091H45.8865L46.8803 63.0254H57.827L58.8208 69.091Z" fill="#7986CB"/>
</g>
<path d="M65.4099 78.2387H39.2991C39.2991 77.4412 39.5488 76.6764 39.9933 76.1124C40.4378 75.5485 41.0406 75.2317 41.6692 75.2317H63.0295C63.6582 75.2317 64.261 75.5485 64.7055 76.1124C65.15 76.6764 65.3997 77.4412 65.3997 78.2387H65.4099Z" fill="url(#paint10_linear_1061_4719)"/>
<path d="M75.5831 25.1497H29.1261C27.7769 25.1497 26.6831 26.5373 26.6831 28.2491V64.6213C26.6831 66.333 27.7769 67.7207 29.1261 67.7207H75.5831C76.9323 67.7207 78.026 66.333 78.026 64.6213V28.2491C78.026 26.5373 76.9323 25.1497 75.5831 25.1497Z" fill="url(#paint11_linear_1061_4719)"/>
<path d="M76.6377 28.1909H28.0696V60.6798H76.6377V28.1909Z" fill="#0078C0"/>
<path d="M76.6377 28.1909H28.0696V60.6798H76.6377V28.1909Z" fill="url(#paint12_linear_1061_4719)"/>
<g style="mix-blend-mode:multiply" opacity="0.6">
<path d="M76.6377 28.1909H28.0696V30.3796H76.6377V28.1909Z" fill="#7986CB"/>
</g>
<path d="M52.3536 65.5705C52.9501 65.5705 53.4337 64.957 53.4337 64.2002C53.4337 63.4434 52.9501 62.8298 52.3536 62.8298C51.757 62.8298 51.2734 63.4434 51.2734 64.2002C51.2734 64.957 51.757 65.5705 52.3536 65.5705Z" fill="#EAEEF1"/>
<g style="mix-blend-mode:overlay" opacity="0.2">
<path d="M76.6377 28.1909H42.6326L68.2406 60.6776H76.6377V28.1909Z" fill="white"/>
</g>
<path d="M47.7673 20.6069H16.2728C15.7651 20.6069 15.3535 21.1291 15.3535 21.7732V39.4739C15.3535 40.1181 15.7651 40.6402 16.2728 40.6402H47.7673C48.275 40.6402 48.6865 40.1181 48.6865 39.4739V21.7732C48.6865 21.1291 48.275 20.6069 47.7673 20.6069Z" fill="url(#paint13_linear_1061_4719)"/>
<path d="M46.4723 24.7564H17.5697C17.2869 24.7564 17.0156 24.6139 16.8156 24.3601C16.6155 24.1063 16.5032 23.7621 16.5032 23.4033C16.5036 23.0448 16.6162 22.7011 16.8162 22.4478C17.0161 22.1945 17.2872 22.0522 17.5697 22.0522H46.4723C46.7549 22.0522 47.0259 22.1945 47.2259 22.4478C47.4258 22.7011 47.5384 23.0448 47.5389 23.4033C47.5389 23.7621 47.4265 24.1063 47.2265 24.3601C47.0265 24.6139 46.7552 24.7564 46.4723 24.7564Z" fill="url(#paint14_linear_1061_4719)"/>
<g style="mix-blend-mode:multiply" opacity="0.57">
<path d="M17.5697 22.5678H46.4723C46.7199 22.5677 46.9597 22.6769 47.1507 22.8768C47.3416 23.0768 47.4717 23.3548 47.5185 23.6633C47.5314 23.579 47.5382 23.4935 47.5389 23.4077C47.5384 23.0492 47.4258 22.7055 47.2259 22.4522C47.0259 22.1989 46.7549 22.0566 46.4723 22.0566H17.5697C17.2872 22.0566 17.0161 22.1989 16.8162 22.4522C16.6162 22.7055 16.5036 23.0492 16.5032 23.4077C16.5038 23.4935 16.5106 23.579 16.5235 23.6633C16.5703 23.3548 16.7004 23.0768 16.8913 22.8768C17.0823 22.6769 17.3222 22.5677 17.5697 22.5678Z" fill="#FB8C00"/>
</g>
<path d="M17.629 23.7942C17.7973 23.7942 17.9337 23.6211 17.9337 23.4076C17.9337 23.1941 17.7973 23.021 17.629 23.021C17.4607 23.021 17.3242 23.1941 17.3242 23.4076C17.3242 23.6211 17.4607 23.7942 17.629 23.7942Z" fill="white"/>
<path d="M19.117 23.7942C19.2853 23.7942 19.4217 23.6211 19.4217 23.4076C19.4217 23.1941 19.2853 23.021 19.117 23.021C18.9487 23.021 18.8123 23.1941 18.8123 23.4076C18.8123 23.6211 18.9487 23.7942 19.117 23.7942Z" fill="white"/>
<path d="M20.6053 23.7942C20.7736 23.7942 20.91 23.6211 20.91 23.4076C20.91 23.1941 20.7736 23.021 20.6053 23.021C20.437 23.021 20.3005 23.1941 20.3005 23.4076C20.3005 23.6211 20.437 23.7942 20.6053 23.7942Z" fill="white"/>
<path d="M21.0862 35.2576L18.5298 33.3309L21.0862 31.4043" stroke="#5C6BC0" stroke-width="2" stroke-linecap="round" stroke-linejoin="round"/>
<path d="M26.1462 31.4043L28.7026 33.3309L26.1462 35.2576" stroke="#5C6BC0" stroke-width="2" stroke-linecap="round" stroke-linejoin="round"/>
<path d="M25.5808 29.9158L21.6514 36.746" stroke="#5C6BC0" stroke-width="2" stroke-linecap="round" stroke-linejoin="round"/>
<path d="M45.7393 31.43H30.9663C30.8577 31.43 30.7535 31.3752 30.6766 31.2777C30.5998 31.1802 30.5566 31.048 30.5566 30.9102C30.5566 30.7723 30.5998 30.6401 30.6766 30.5426C30.7535 30.4451 30.8577 30.3904 30.9663 30.3904H45.7393C45.8479 30.3904 45.9521 30.4451 46.029 30.5426C46.1058 30.6401 46.149 30.7723 46.149 30.9102C46.149 31.048 46.1058 31.1802 46.029 31.2777C45.9521 31.3752 45.8479 31.43 45.7393 31.43Z" fill="#C5CAE9"/>
<path d="M45.7393 33.8528H30.9663C30.8577 33.8528 30.7535 33.798 30.6766 33.7006C30.5998 33.6031 30.5566 33.4709 30.5566 33.333C30.5566 33.1952 30.5998 33.063 30.6766 32.9655C30.7535 32.868 30.8577 32.8132 30.9663 32.8132H45.7393C45.8479 32.8132 45.9521 32.868 46.029 32.9655C46.1058 33.063 46.149 33.1952 46.149 33.333C46.149 33.4709 46.1058 33.6031 46.029 33.7006C45.9521 33.798 45.8479 33.8528 45.7393 33.8528Z" fill="#C5CAE9"/>
<path d="M45.7393 36.2735H30.9663C30.8577 36.2735 30.7535 36.2187 30.6766 36.1212C30.5998 36.0237 30.5566 35.8915 30.5566 35.7537C30.5566 35.6158 30.5998 35.4836 30.6766 35.3861C30.7535 35.2886 30.8577 35.2339 30.9663 35.2339H45.7393C45.8479 35.2339 45.9521 35.2886 46.029 35.3861C46.1058 35.4836 46.149 35.6158 46.149 35.7537C46.149 35.8915 46.1058 36.0237 46.029 36.1212C45.9521 36.2187 45.8479 36.2735 45.7393 36.2735Z" fill="#C5CAE9"/>
<path d="M52.2656 9.9876V8.76546L50.5727 8.31655C50.5102 7.75478 50.3966 7.20411 50.2341 6.67557L51.514 5.21931L51.0332 4.1604L49.396 4.83913C49.118 4.39406 48.8005 3.99117 48.4497 3.63846L48.9847 1.56361L48.1517 0.951468L47.0022 2.57527C46.5856 2.36908 46.1515 2.22492 45.7087 2.14569L45.3549 0.00854492H44.3916L44.0361 2.14569C43.5933 2.22492 43.1592 2.36908 42.7426 2.57527L41.5948 0.951468L40.7619 1.55932L41.2968 3.63417C40.946 3.98688 40.6285 4.38977 40.3505 4.83484L38.7151 4.1561L38.2376 5.21072L39.5192 6.66698C39.3559 7.1952 39.2423 7.746 39.1806 8.30796L37.4978 8.75687V9.97902L39.1806 10.4301C39.2423 10.992 39.3559 11.5428 39.5192 12.0711L38.2376 13.5359L38.7201 14.5948L40.3556 13.9161C40.6336 14.3612 40.9511 14.764 41.3019 15.1167L40.7669 17.1916L41.6016 17.8037L42.7494 16.18C43.166 16.3861 43.6001 16.5303 44.0429 16.6095L44.3984 18.7445H45.3617L45.7155 16.6095C46.1583 16.5303 46.5924 16.3861 47.009 16.18L48.1585 17.8037L48.9914 17.1916L48.4564 15.1167C48.8073 14.764 49.1248 14.3612 49.4028 13.9161L51.0399 14.5948L51.5207 13.5359L50.2358 12.0839C50.3983 11.5554 50.5119 11.0047 50.5744 10.443L52.2656 9.9876ZM49.0727 9.37761C49.0727 10.432 48.8263 11.4627 48.3645 12.3394C47.9028 13.2161 47.2466 13.8994 46.4788 14.3028C45.7109 14.7063 44.8661 14.8119 44.051 14.6062C43.2359 14.4005 42.4871 13.8928 41.8995 13.1472C41.3118 12.4017 40.9116 11.4518 40.7495 10.4176C40.5874 9.38352 40.6706 8.31162 40.9886 7.3375C41.3066 6.36338 41.8452 5.53079 42.5362 4.94501C43.2272 4.35923 44.0396 4.04656 44.8707 4.04656C45.9852 4.04656 47.0539 4.60823 47.842 5.60799C48.63 6.60775 49.0727 7.96372 49.0727 9.37761Z" fill="url(#paint15_linear_1061_4719)"/>
<path d="M59.0309 19.0648V18.444L58.1844 18.2163C58.1536 17.9312 58.0967 17.6515 58.0151 17.383L58.6652 16.6441L58.4214 16.1071L57.5902 16.4508C57.4492 16.2251 57.2885 16.0204 57.1111 15.8408L57.3819 14.7883L56.9587 14.4769L56.3763 15.3017C56.1649 15.1971 55.9444 15.125 55.7195 15.0869L55.54 14.0022H55.0507L54.8696 15.0869C54.6452 15.1253 54.4253 15.1974 54.2144 15.3017L53.6303 14.4769L53.2071 14.7883L53.4796 15.8408C53.3017 16.0204 53.1404 16.225 52.9988 16.4508L52.1693 16.1071L51.9238 16.6441L52.5739 17.383C52.4923 17.6515 52.4355 17.9312 52.4046 18.2163L51.5581 18.444V19.0648L52.4046 19.2924C52.4355 19.5776 52.4923 19.8573 52.5739 20.1258L51.9238 20.8647L52.1693 21.4017L52.9988 21.058C53.1404 21.2838 53.3017 21.4884 53.4796 21.668L53.2071 22.7204L53.6303 23.0297L54.2144 22.2071C54.4253 22.3114 54.6452 22.3835 54.8696 22.4219L55.0507 23.4958H55.54L55.7195 22.4219C55.9444 22.3838 56.1649 22.3117 56.3763 22.2071L56.9587 23.0297L57.3819 22.7204L57.1111 21.668C57.2885 21.4884 57.4492 21.2837 57.5902 21.058L58.4214 21.4017L58.6652 20.8647L58.0151 20.1258C58.0967 19.8573 58.1536 19.5776 58.1844 19.2924L59.0309 19.0648ZM57.4124 18.7533C57.4128 19.2887 57.2879 19.8121 57.0537 20.2575C56.8196 20.7028 56.4865 21.05 56.0968 21.2552C55.707 21.4603 55.2781 21.5142 54.8642 21.41C54.4503 21.3059 54.07 21.0483 53.7715 20.6699C53.473 20.2915 53.2697 19.8093 53.1872 19.2842C53.1048 18.7592 53.1469 18.2149 53.3083 17.7203C53.4697 17.2256 53.7431 16.8028 54.094 16.5054C54.4448 16.2079 54.8573 16.0491 55.2793 16.0491C55.8447 16.0491 56.3871 16.334 56.787 16.841C57.187 17.3481 57.412 18.0359 57.4124 18.7533Z" fill="url(#paint16_linear_1061_4719)"/>
<path d="M72.3665 12.1592H61.4434V32.8282H72.3665V12.1592Z" fill="url(#paint17_linear_1061_4719)"/>
<path d="M62.3542 9.97485H71.4556C71.6972 9.97485 71.9289 10.0966 72.0997 10.3133C72.2705 10.53 72.3665 10.8239 72.3665 11.1304V12.1571H61.4434V11.1326C61.4431 10.9806 61.4665 10.8301 61.5122 10.6897C61.5579 10.5492 61.6249 10.4216 61.7095 10.3141C61.7941 10.2065 61.8946 10.1212 62.0052 10.063C62.1159 10.0048 62.2344 9.97485 62.3542 9.97485Z" fill="url(#paint18_linear_1061_4719)"/>
<path d="M61.4434 32.7058H72.3665V33.7325C72.3665 34.039 72.2705 34.3329 72.0997 34.5496C71.9289 34.7663 71.6972 34.8881 71.4556 34.8881H62.3542C62.1126 34.8881 61.8809 34.7663 61.7101 34.5496C61.5393 34.3329 61.4434 34.039 61.4434 33.7325V32.7058Z" fill="url(#paint19_linear_1061_4719)"/>
<g style="mix-blend-mode:overlay" opacity="0.24">
<path d="M72.3665 12.1592H61.4434V15.744L72.3665 29.6021V12.1592Z" fill="white"/>
</g>
<path d="M66.9064 24.4107C66.1295 24.4112 65.37 24.1193 64.7239 23.572C64.0777 23.0247 63.5741 22.2466 63.2765 21.3361C62.979 20.4256 62.901 19.4236 63.0523 18.4568C63.2037 17.4901 63.5776 16.602 64.1269 15.9049C64.6761 15.2077 65.3759 14.7329 66.1379 14.5405C66.8998 14.348 67.6896 14.4466 68.4074 14.8237C69.1252 15.2008 69.7388 15.8395 70.1704 16.659C70.6021 17.4785 70.8325 18.442 70.8325 19.4277C70.8311 20.7484 70.4171 22.0145 69.6812 22.9486C68.9453 23.8827 67.9474 24.4085 66.9064 24.4107ZM66.9064 14.7453C66.1775 14.7453 65.4649 15.0195 64.8588 15.5333C64.2527 16.0471 63.7803 16.7774 63.5014 17.6318C63.2224 18.4862 63.1494 19.4264 63.2917 20.3334C63.4339 21.2405 63.7849 22.0737 64.3003 22.7276C64.8158 23.3815 65.4725 23.8269 66.1874 24.0073C66.9024 24.1877 67.6434 24.0951 68.3169 23.7412C68.9903 23.3873 69.5659 22.788 69.9709 22.019C70.3759 21.2501 70.5921 20.346 70.5921 19.4212C70.5898 18.1826 70.2006 16.9955 69.5098 16.1203C68.819 15.245 67.8828 14.7529 66.9064 14.7517V14.7453Z" fill="white"/>
<path d="M66.9065 24.4108C65.7485 24.4108 64.8428 22.2221 64.8428 19.4277C64.8428 16.6333 65.7485 14.4468 66.9065 14.4468C68.0645 14.4468 68.9703 16.6355 68.9703 19.4277C68.9703 22.22 68.0628 24.4108 66.9065 24.4108ZM66.9065 14.7453C65.9009 14.7453 65.0832 16.8438 65.0832 19.4213C65.0832 21.9987 65.9009 24.1122 66.9065 24.1122C67.9121 24.1122 68.7282 22.0159 68.7282 19.4363C68.7282 16.8567 67.9104 14.7518 66.9065 14.7518V14.7453Z" fill="white"/>
<path d="M66.9066 24.3012C66.8388 24.3012 66.7847 24.342 66.7847 24.2561V14.5906C66.7847 14.5069 66.8388 14.5455 66.9066 14.5455C66.9743 14.5455 67.0268 14.5069 67.0268 14.5906V24.2561C67.0268 24.342 66.9726 24.3012 66.9066 24.3012Z" fill="white"/>
<path d="M70.7122 19.5801H63.0938C63.0619 19.5801 63.0314 19.5641 63.0088 19.5355C62.9863 19.5069 62.9736 19.4681 62.9736 19.4276C62.9736 19.3872 62.9863 19.3484 63.0088 19.3198C63.0314 19.2912 63.0619 19.2751 63.0938 19.2751H70.7122C70.7441 19.2751 70.7747 19.2912 70.7972 19.3198C70.8198 19.3484 70.8325 19.3872 70.8325 19.4276C70.8325 19.4681 70.8198 19.5069 70.7972 19.5355C70.7747 19.5641 70.7441 19.5801 70.7122 19.5801Z" fill="white"/>
<path d="M66.9064 24.4108C65.9496 24.4096 65.0261 23.965 64.3094 23.1608C64.2859 23.134 64.2715 23.0967 64.2689 23.0568C64.2664 23.0169 64.2761 22.9772 64.2959 22.946C64.6006 22.4336 64.9949 22.0179 65.4478 21.7316C65.9006 21.4454 66.3996 21.2964 66.9056 21.2964C67.4115 21.2964 67.9106 21.4454 68.3634 21.7316C68.8163 22.0179 69.2106 22.4336 69.5153 22.946C69.5351 22.9772 69.5448 23.0169 69.5422 23.0568C69.5397 23.0967 69.5253 23.134 69.5018 23.1608C68.7856 23.9647 67.8627 24.4093 66.9064 24.4108ZM64.5583 23.0383C65.2177 23.7338 66.0481 24.1145 66.9056 24.1145C67.7631 24.1145 68.5935 23.7338 69.2529 23.0383C68.9703 22.5936 68.6128 22.2349 68.2066 21.9884C67.8004 21.7419 67.3559 21.614 66.9056 21.614C66.4553 21.614 66.0108 21.7419 65.6046 21.9884C65.1984 22.2349 64.8409 22.5936 64.5583 23.0383Z" fill="white"/>
<path d="M66.9065 17.5589C66.4017 17.5491 65.905 17.3956 65.4532 17.1097C65.0014 16.8238 64.6059 16.4129 64.296 15.9072C64.2753 15.8764 64.2652 15.8365 64.2677 15.7963C64.2703 15.756 64.2853 15.7186 64.3095 15.6924C65.0253 14.8869 65.9489 14.4421 66.9057 14.4421C67.8625 14.4421 68.7861 14.8869 69.5019 15.6924C69.5261 15.7186 69.5411 15.756 69.5437 15.7963C69.5462 15.8365 69.536 15.8764 69.5154 15.9072C69.2057 16.4127 68.8105 16.8236 68.359 17.1095C67.9075 17.3953 67.4111 17.5489 66.9065 17.5589ZM64.5584 15.8299C64.8413 16.2739 65.199 16.632 65.6051 16.878C66.0113 17.124 66.4556 17.2517 66.9057 17.2517C67.3557 17.2517 67.8001 17.124 68.2062 16.878C68.6124 16.632 68.97 16.2739 69.253 15.8299C68.594 15.1333 67.7634 14.7518 66.9057 14.7518C66.0479 14.7518 65.2173 15.1333 64.5584 15.8299Z" fill="white"/>
<path d="M70.4143 27.8882L67.5244 25.7446L67.7801 29.9781L68.5724 28.7581L69.1548 29.9416L69.7862 29.4411L69.2022 28.2576L70.4143 27.8882Z" fill="white"/>
</g>
<defs>
<linearGradient id="paint0_linear_1061_4719" x1="17.1262" y1="50.8662" x2="37.9329" y2="50.8662" gradientUnits="userSpaceOnUse">
<stop stop-color="#FF9100"/>
<stop offset="1" stop-color="#FFC46E"/>
</linearGradient>
<linearGradient id="paint1_linear_1061_4719" x1="17.1262" y1="55.9095" x2="37.9329" y2="55.9095" gradientUnits="userSpaceOnUse">
<stop stop-color="#FF9100"/>
<stop offset="1" stop-color="#FFC46E"/>
</linearGradient>
<linearGradient id="paint2_linear_1061_4719" x1="17.1262" y1="60.9547" x2="37.9329" y2="60.9547" gradientUnits="userSpaceOnUse">
<stop stop-color="#FF9100"/>
<stop offset="1" stop-color="#FFC46E"/>
</linearGradient>
<linearGradient id="paint3_linear_1061_4719" x1="17.1262" y1="65.9981" x2="37.9329" y2="65.9981" gradientUnits="userSpaceOnUse">
<stop stop-color="#FF9100"/>
<stop offset="1" stop-color="#FFC46E"/>
</linearGradient>
<linearGradient id="paint4_linear_1061_4719" x1="17.1262" y1="71.0432" x2="37.9329" y2="71.0432" gradientUnits="userSpaceOnUse">
<stop stop-color="#FF9100"/>
<stop offset="1" stop-color="#FFC46E"/>
</linearGradient>
<linearGradient id="paint5_linear_1061_4719" x1="17.1262" y1="71.0432" x2="37.9329" y2="71.0432" gradientUnits="userSpaceOnUse">
<stop stop-color="#FF9100"/>
<stop offset="1" stop-color="#FFC46E"/>
</linearGradient>
<linearGradient id="paint6_linear_1061_4719" x1="17.1262" y1="50.8662" x2="37.9329" y2="50.8662" gradientUnits="userSpaceOnUse">
<stop stop-color="#FF9100"/>
<stop offset="1" stop-color="#FFC46E"/>
</linearGradient>
<linearGradient id="paint7_linear_1061_4719" x1="17.1262" y1="55.9095" x2="37.9329" y2="55.9095" gradientUnits="userSpaceOnUse">
<stop stop-color="#FF9100"/>
<stop offset="1" stop-color="#FFC46E"/>
</linearGradient>
<linearGradient id="paint8_linear_1061_4719" x1="17.1262" y1="60.9549" x2="37.9329" y2="60.9549" gradientUnits="userSpaceOnUse">
<stop stop-color="#FF9100"/>
<stop offset="1" stop-color="#FFC46E"/>
</linearGradient>
<linearGradient id="paint9_linear_1061_4719" x1="17.1262" y1="65.2807" x2="37.9329" y2="65.2807" gradientUnits="userSpaceOnUse">
<stop stop-color="#FF9100"/>
<stop offset="1" stop-color="#FFC46E"/>
</linearGradient>
<linearGradient id="paint10_linear_1061_4719" x1="39.2991" y1="76.7309" x2="65.4099" y2="76.7309" gradientUnits="userSpaceOnUse">
<stop stop-color="#CCD1EC"/>
<stop offset="1" stop-color="white"/>
</linearGradient>
<linearGradient id="paint11_linear_1061_4719" x1="52.3537" y1="67.7207" x2="52.3537" y2="25.1497" gradientUnits="userSpaceOnUse">
<stop stop-color="#CCD1EC"/>
<stop offset="1" stop-color="white"/>
</linearGradient>
<linearGradient id="paint12_linear_1061_4719" x1="52.3537" y1="60.6776" x2="52.3537" y2="28.1909" gradientUnits="userSpaceOnUse">
<stop stop-color="#3949AB"/>
<stop offset="1" stop-color="#5C6BC0"/>
</linearGradient>
<linearGradient id="paint13_linear_1061_4719" x1="32.0209" y1="46.5942" x2="32.0209" y2="20.3921" gradientUnits="userSpaceOnUse">
<stop stop-color="#CCD1EC"/>
<stop offset="1" stop-color="white"/>
</linearGradient>
<linearGradient id="paint14_linear_1061_4719" x1="16.5032" y1="23.4076" x2="47.5389" y2="23.4076" gradientUnits="userSpaceOnUse">
<stop stop-color="#FF9100"/>
<stop offset="1" stop-color="#FFC46E"/>
</linearGradient>
<linearGradient id="paint15_linear_1061_4719" x1="57.9253" y1="25.9356" x2="33.7389" y2="6.87171" gradientUnits="userSpaceOnUse">
<stop stop-color="white"/>
<stop offset="1" stop-color="#DFE2F3"/>
</linearGradient>
<linearGradient id="paint16_linear_1061_4719" x1="59.4321" y1="24.0242" x2="35.2452" y2="4.95827" gradientUnits="userSpaceOnUse">
<stop stop-color="white"/>
<stop offset="1" stop-color="#DFE2F3"/>
</linearGradient>
<linearGradient id="paint17_linear_1061_4719" x1="66.9049" y1="32.3364" x2="66.9049" y2="11.5578" gradientUnits="userSpaceOnUse">
<stop stop-color="#C445C0"/>
<stop offset="1" stop-color="#FF3EFF"/>
</linearGradient>
<linearGradient id="paint18_linear_1061_4719" x1="74.6537" y1="13.5833" x2="74.2629" y2="9.25336" gradientUnits="userSpaceOnUse">
<stop stop-color="#CCD1EC"/>
<stop offset="1" stop-color="white"/>
</linearGradient>
<linearGradient id="paint19_linear_1061_4719" x1="10.1478" y1="21.3607" x2="9.757" y2="17.0307" gradientUnits="userSpaceOnUse">
<stop stop-color="#CCD1EC"/>
<stop offset="1" stop-color="white"/>
</linearGradient>
<clipPath id="clip0_1061_4719">
<rect width="101.66" height="80" fill="white"/>
</clipPath>
</defs>
</svg>
