<svg width="30" height="18" viewBox="0 0 30 18" fill="none" xmlns="http://www.w3.org/2000/svg">
<path d="M19.5872 1.19067H27.0732V2.92648H19.5872V1.19067ZM12.0863 8.05858C13.7411 7.30185 14.6079 6.15063 14.6079 4.37179C14.6079 0.853556 11.8687 0 8.70544 0H0V17.6593H8.94934C12.3039 17.6593 15.4522 16.1172 15.4522 12.5308C15.4522 10.3144 14.3565 8.67543 12.0863 8.05858ZM4.06004 3.01255H7.86867C9.33584 3.01255 10.6529 3.40347 10.6529 5.03168C10.6529 6.53078 9.62852 7.13329 8.17636 7.13329H4.06004V3.01255ZM8.394 14.6611H4.05629V9.79797H8.4803C10.2664 9.79797 11.3959 10.5117 11.3959 12.3192C11.3959 14.098 10.0488 14.6611 8.394 14.6611ZM30 11.4513C30 7.66766 27.6848 4.51524 23.4972 4.51524C19.4259 4.51524 16.6567 7.44531 16.6567 11.2863C16.6567 15.2672 19.2796 18 23.4972 18C26.6904 18 28.758 16.6264 29.7523 13.6964H26.5141C26.1613 14.7902 24.728 15.364 23.6135 15.364C21.4597 15.364 20.334 14.159 20.334 12.1112H29.9737C29.985 11.8996 30 11.6772 30 11.4513ZM20.334 9.8948C20.4503 8.21279 21.6248 7.16198 23.3809 7.16198C25.227 7.16198 26.1501 8.19845 26.3114 9.8948H20.334Z" fill="#A5A8BA"/>
</svg>
