<svg width="70" height="70" viewBox="0 0 70 70" fill="none" xmlns="http://www.w3.org/2000/svg">
<path d="M28.3726 33.163C27.8328 32.628 26.9332 32.628 26.3934 33.2225L19.856 40.0589C19.3162 40.5939 19.3162 41.4261 19.856 41.9611L26.3934 48.7975C26.6933 49.0947 27.0531 49.2136 27.413 49.2136C27.7728 49.2136 28.1327 49.0947 28.3726 48.8569C28.9124 48.3219 28.9723 47.4302 28.4326 46.8952L22.8548 41.01L28.4326 35.1248C28.9723 34.5898 28.9124 33.6981 28.3726 33.163Z" fill="black"/>
<path d="M28.3726 33.163C27.8328 32.628 26.9332 32.628 26.3934 33.2225L19.856 40.0589C19.3162 40.5939 19.3162 41.4261 19.856 41.9611L26.3934 48.7975C26.6933 49.0947 27.0531 49.2136 27.413 49.2136C27.7728 49.2136 28.1327 49.0947 28.3726 48.8569C28.9124 48.3219 28.9723 47.4302 28.4326 46.8952L22.8548 41.01L28.4326 35.1248C28.9723 34.5898 28.9124 33.6981 28.3726 33.163Z" stroke="white"/>
<path d="M42.5852 33.2224C42.0454 32.6874 41.1458 32.6279 40.606 33.1629C40.0662 33.698 40.0062 34.5897 40.546 35.1247L46.1238 41.0099L40.546 46.8951C40.0062 47.4301 40.0662 48.3218 40.606 48.8568C40.9059 49.0946 41.2058 49.2135 41.5656 49.2135C41.9255 49.2135 42.2853 49.0946 42.5852 48.7974L49.1226 41.961C49.6623 41.426 49.6623 40.5938 49.1226 40.0587L42.5852 33.2224Z" fill="black"/>
<path d="M42.5852 33.2224C42.0454 32.6874 41.1458 32.6279 40.606 33.1629C40.0662 33.698 40.0062 34.5897 40.546 35.1247L46.1238 41.0099L40.546 46.8951C40.0062 47.4301 40.0662 48.3218 40.606 48.8568C40.9059 49.0946 41.2058 49.2135 41.5656 49.2135C41.9255 49.2135 42.2853 49.0946 42.5852 48.7974L49.1226 41.961C49.6623 41.426 49.6623 40.5938 49.1226 40.0587L42.5852 33.2224Z" stroke="white"/>
<path d="M37.0086 31.3796C36.229 31.2013 35.5092 31.6174 35.2693 32.3902L31.0111 48.9758C30.8311 49.7486 31.251 50.4619 32.0306 50.6997C32.0906 50.6997 32.1506 50.7146 32.2106 50.7295C32.2706 50.7443 32.3305 50.7592 32.3905 50.7592C32.9903 50.7592 33.59 50.3431 33.7699 49.6891L37.9683 33.1035C38.2082 32.3307 37.7284 31.5579 37.0086 31.3796Z" fill="black"/>
<path d="M37.0086 31.3796C36.229 31.2013 35.5092 31.6174 35.2693 32.3902L31.0111 48.9758C30.8311 49.7486 31.251 50.4619 32.0306 50.6997C32.0906 50.6997 32.1506 50.7146 32.2106 50.7295C32.2706 50.7443 32.3305 50.7592 32.3905 50.7592C32.9903 50.7592 33.59 50.3431 33.7699 49.6891L37.9683 33.1035C38.2082 32.3307 37.7284 31.5579 37.0086 31.3796Z" stroke="white"/>
<path d="M57.5192 12H11.4578C8.45901 12 6 14.4373 6 17.4096V52.4237C6 55.396 8.45901 57.8333 11.4578 57.8333H57.5792C60.578 57.8333 63.037 55.396 63.037 52.4237V17.4096C62.977 14.4373 60.518 12 57.5192 12ZM11.4578 14.794H57.5792C59.0186 14.794 60.2182 15.9829 60.2182 17.4096V24.246H8.81886V17.4096C8.81886 15.9235 10.0184 14.794 11.4578 14.794ZM57.5192 54.9799H11.4578C10.0184 54.9799 8.81886 53.7909 8.81886 52.3642V27.04H60.1582V52.3642C60.1582 53.8504 58.9587 54.9799 57.5192 54.9799Z" fill="black"/>
<path d="M57.5192 12H11.4578C8.45901 12 6 14.4373 6 17.4096V52.4237C6 55.396 8.45901 57.8333 11.4578 57.8333H57.5792C60.578 57.8333 63.037 55.396 63.037 52.4237V17.4096C62.977 14.4373 60.518 12 57.5192 12ZM11.4578 14.794H57.5792C59.0186 14.794 60.2182 15.9829 60.2182 17.4096V24.246H8.81886V17.4096C8.81886 15.9235 10.0184 14.794 11.4578 14.794ZM57.5192 54.9799H11.4578C10.0184 54.9799 8.81886 53.7909 8.81886 52.3642V27.04H60.1582V52.3642C60.1582 53.8504 58.9587 54.9799 57.5192 54.9799Z" stroke="white"/>
<path d="M14.2159 21.5115C15.3421 21.5115 16.2551 20.6066 16.2551 19.4903C16.2551 18.374 15.3421 17.4691 14.2159 17.4691C13.0897 17.4691 12.1768 18.374 12.1768 19.4903C12.1768 20.6066 13.0897 21.5115 14.2159 21.5115Z" fill="black"/>
<path d="M14.2159 21.5115C15.3421 21.5115 16.2551 20.6066 16.2551 19.4903C16.2551 18.374 15.3421 17.4691 14.2159 17.4691C13.0897 17.4691 12.1768 18.374 12.1768 19.4903C12.1768 20.6066 13.0897 21.5115 14.2159 21.5115Z" stroke="white"/>
<path d="M20.3351 21.5116C21.4613 21.5116 22.3743 20.6067 22.3743 19.4904C22.3743 18.3742 21.4613 17.4692 20.3351 17.4692C19.2089 17.4692 18.2959 18.3742 18.2959 19.4904C18.2959 20.6067 19.2089 21.5116 20.3351 21.5116Z" fill="black"/>
<path d="M20.3351 21.5116C21.4613 21.5116 22.3743 20.6067 22.3743 19.4904C22.3743 18.3742 21.4613 17.4692 20.3351 17.4692C19.2089 17.4692 18.2959 18.3742 18.2959 19.4904C18.2959 20.6067 19.2089 21.5116 20.3351 21.5116Z" stroke="white"/>
<path d="M26.4523 21.5115C27.5785 21.5115 28.4914 20.6066 28.4914 19.4903C28.4914 18.374 27.5785 17.4691 26.4523 17.4691C25.3261 17.4691 24.4131 18.374 24.4131 19.4903C24.4131 20.6066 25.3261 21.5115 26.4523 21.5115Z" fill="black"/>
<path d="M26.4523 21.5115C27.5785 21.5115 28.4914 20.6066 28.4914 19.4903C28.4914 18.374 27.5785 17.4691 26.4523 17.4691C25.3261 17.4691 24.4131 18.374 24.4131 19.4903C24.4131 20.6066 25.3261 21.5115 26.4523 21.5115Z" stroke="white"/>
<path d="M44.7451 20.9169H53.8014C54.5811 20.9169 55.2409 20.263 55.2409 19.4902C55.2409 18.7174 54.5811 18.0635 53.8014 18.0635H44.7451C43.9654 18.0635 43.3057 18.7174 43.3057 19.4902C43.3656 20.263 43.9654 20.9169 44.7451 20.9169Z" fill="black"/>
<path d="M44.7451 20.9169H53.8014C54.5811 20.9169 55.2409 20.263 55.2409 19.4902C55.2409 18.7174 54.5811 18.0635 53.8014 18.0635H44.7451C43.9654 18.0635 43.3057 18.7174 43.3057 19.4902C43.3656 20.263 43.9654 20.9169 44.7451 20.9169Z" stroke="white"/>
</svg>
