<svg width="46" height="46" viewBox="0 0 46 46" fill="none" xmlns="http://www.w3.org/2000/svg">
<path d="M42.875 45.5C37.5 45.5 32.2608 44.3017 27.1575 41.905C22.0525 39.51 17.5317 36.3433 13.595 32.405C9.65667 28.4683 6.49 23.9475 4.095 18.8425C1.69833 13.7392 0.5 8.5 0.5 3.125C0.5 2.375 0.75 1.75 1.25 1.25C1.75 0.75 2.375 0.5 3.125 0.5H13.25C13.8333 0.5 14.3542 0.6875 14.8125 1.0625C15.2708 1.4375 15.5417 1.91667 15.625 2.5L17.25 11.25C17.3333 11.8333 17.3233 12.3642 17.22 12.8425C17.115 13.3225 16.875 13.75 16.5 14.125L10.5 20.25C12.25 23.25 14.4375 26.0625 17.0625 28.6875C19.6875 31.3125 22.5833 33.5833 25.75 35.5L31.625 29.625C32 29.25 32.49 28.9683 33.095 28.78C33.6983 28.5933 34.2917 28.5417 34.875 28.625L43.5 30.375C44.0833 30.5 44.5625 30.7808 44.9375 31.2175C45.3125 31.6558 45.5 32.1667 45.5 32.75V42.875C45.5 43.625 45.25 44.25 44.75 44.75C44.25 45.25 43.625 45.5 42.875 45.5Z" fill="#E2E5FC"/>
</svg>
