<svg width="40" height="40" viewBox="0 0 40 40" fill="none" xmlns="http://www.w3.org/2000/svg">
<path d="M23.3789 2.65611C23.4309 2.45749 23.522 2.27124 23.6468 2.10826C23.7717 1.94529 23.9278 1.80888 24.1061 1.70702C24.2844 1.60515 24.4811 1.53989 24.6849 1.51505C24.8888 1.49021 25.0955 1.5063 25.293 1.56236C28.2057 2.34356 30.8616 3.87737 32.994 6.00977C35.1264 8.14216 36.6602 10.7981 37.4414 13.7108C37.4975 13.9083 37.5136 14.115 37.4887 14.3188C37.4639 14.5226 37.3986 14.7194 37.2968 14.8977C37.1949 15.0759 37.0585 15.2321 36.8955 15.3569C36.7325 15.4818 36.5463 15.5729 36.3477 15.6249C36.2144 15.6635 36.0763 15.6832 35.9375 15.6835C35.5926 15.6815 35.2581 15.5655 34.9861 15.3535C34.7141 15.1415 34.5198 14.8455 34.4336 14.5116C33.7838 12.1332 32.5251 9.9654 30.7818 8.22202C29.0384 6.47863 26.8705 5.21995 24.4922 4.57018C24.2918 4.52035 24.1035 4.4308 23.9383 4.30685C23.7732 4.1829 23.6346 4.02706 23.5308 3.84857C23.427 3.67008 23.36 3.47257 23.3339 3.26774C23.3078 3.06291 23.3231 2.85493 23.3789 2.65611ZM22.8711 10.6053C24.1931 10.9672 25.3981 11.6672 26.3673 12.6365C27.3365 13.6057 28.0365 14.8106 28.3984 16.1327C28.4816 16.4683 28.675 16.7662 28.9477 16.9787C29.2204 17.1912 29.5566 17.3059 29.9023 17.3046C30.0348 17.3058 30.1667 17.2861 30.293 17.246C30.4934 17.1961 30.6817 17.1066 30.8468 16.9826C31.012 16.8587 31.1506 16.7028 31.2544 16.5244C31.3582 16.3459 31.4251 16.1484 31.4512 15.9435C31.4773 15.7387 31.462 15.5307 31.4062 15.3319C30.913 13.4755 29.9379 11.7824 28.5796 10.4241C27.2214 9.06591 25.5283 8.09077 23.6719 7.59752C23.4681 7.52327 23.251 7.49227 23.0346 7.50649C22.8181 7.52072 22.607 7.57986 22.4146 7.68014C22.2223 7.78043 22.0529 7.91967 21.9174 8.089C21.7818 8.25832 21.6829 8.45402 21.6271 8.66364C21.5713 8.87326 21.5598 9.0922 21.5932 9.30653C21.6267 9.52085 21.7044 9.72587 21.8214 9.90852C21.9384 10.0912 22.0922 10.2475 22.2729 10.3674C22.4536 10.4874 22.6573 10.5684 22.8711 10.6053ZM38.9844 29.453C38.6389 32.0905 37.3473 34.5128 35.3499 36.2695C33.3525 38.0263 30.785 38.9979 28.125 39.0038C12.6172 39.0038 0 26.3866 0 10.8788C0.00586397 8.21873 0.977488 5.65132 2.73422 3.65388C4.49096 1.65645 6.91327 0.36491 9.55078 0.0193941C10.2231 -0.0551549 10.9018 0.0864037 11.4882 0.423541C12.0747 0.760679 12.5386 1.27587 12.8125 1.89439L16.7383 11.0546C16.9419 11.53 17.0236 12.0488 16.9758 12.5639C16.9281 13.0789 16.7524 13.5738 16.4648 14.0038L13.2227 18.9647C14.6908 21.9442 17.1099 24.3495 20.0977 25.8006L25 22.5389C25.4295 22.2494 25.9257 22.0742 26.4417 22.0298C26.9577 21.9853 27.4766 22.0732 27.9492 22.285L37.1094 26.1913C37.7279 26.4652 38.2431 26.9291 38.5802 27.5155C38.9174 28.102 39.0589 28.7806 38.9844 29.453ZM35.8789 29.0624L26.7188 25.1561L21.8359 28.4178C21.3867 28.7148 20.8682 28.8907 20.331 28.9284C19.7937 28.966 19.2558 28.8641 18.7695 28.6327C15.1307 26.8725 12.1874 23.9429 10.4102 20.3124C10.1758 19.8277 10.0707 19.2907 10.1049 18.7535C10.1391 18.2163 10.3116 17.697 10.6055 17.246L13.8672 12.285L9.94141 3.12486C8.05654 3.36716 6.32462 4.28817 5.06991 5.71545C3.8152 7.14272 3.12374 8.9784 3.125 10.8788C3.13017 17.5076 5.76576 23.8634 10.453 28.5507C15.1403 33.238 21.4962 35.8736 28.125 35.8788C30.0254 35.88 31.861 35.1886 33.2883 33.9339C34.7156 32.6791 35.6366 30.9472 35.8789 29.0624Z" fill="url(#paint0_linear_872_15802)"/>
<defs>
<linearGradient id="paint0_linear_872_15802" x1="19.5019" y1="0" x2="19.5019" y2="39.0038" gradientUnits="userSpaceOnUse">
<stop stop-color="#1D5AF9"/>
<stop offset="1" stop-color="#2F7DFB"/>
</linearGradient>
</defs>
</svg>
