<svg width="60" height="54" viewBox="0 0 60 54" fill="none" xmlns="http://www.w3.org/2000/svg">
<path d="M58.2314 0H1.76865C0.790532 0 0 0.790375 0 1.7683V41.6353C0 42.6132 0.790532 43.4036 1.76865 43.4036H23.4346L22.3359 54L38.1197 53.9062L37.222 43.4036H58.2314C59.2095 43.4036 60 42.6132 60 41.6353V1.7683C59.9866 0.790375 59.1961 0 58.2314 0Z" fill="#E2E5FC"/>
<path d="M59.2601 36.3659H1.21631V2.29943C1.21631 1.57604 1.79246 1 2.516 1H57.9604C58.6839 1 59.2601 1.57604 59.2601 2.29943V36.3659Z" fill="#111216"/>
<path d="M38.0808 12.6257L37.8395 12.7818L37.7188 12.8598C37.6788 12.8858 37.6397 12.9149 37.6001 12.942L37.1267 13.2739C35.8671 14.1916 34.6781 15.2248 33.5721 16.3629C33.0159 16.9341 32.4751 17.5258 31.9499 18.1379C31.4248 18.7501 30.9188 19.3811 30.4321 20.031C29.943 20.6792 29.4715 21.3423 29.0177 22.0203L28.8496 22.2758L28.7657 22.4032L28.6236 22.6259L28.4736 22.861L28.3991 22.9786C28.3739 23.0176 28.3497 23.055 28.3208 23.1039L27.9868 23.6559C27.9588 23.7012 27.9313 23.7501 27.9043 23.799L27.8218 23.9451L27.6579 24.237L27.3266 24.8326L26.6795 26C26.4531 25.3324 26.2272 24.6653 26.0017 23.9987L25.9169 23.749C25.9034 23.7053 25.888 23.6725 25.8731 23.6356L25.8288 23.5264L25.7403 23.3089L25.6937 23.2002L25.6714 23.1456L25.6602 23.1185L25.6476 23.0951L25.444 22.7185C25.41 22.656 25.3769 22.5926 25.3406 22.5333L25.2661 22.4131C24.996 21.9868 24.7026 21.5795 24.3874 21.1937C23.7335 20.3965 23.0303 19.6514 22.2831 18.964C22.2002 18.8824 22.1368 18.8163 22.0916 18.7653C22.0593 18.7333 22.0321 18.6955 22.011 18.6535C21.9956 18.6249 21.997 18.6077 22.011 18.6014C22.0211 18.5973 22.032 18.5959 22.0427 18.5973C22.0506 18.5973 22.0539 18.5973 22.0613 18.5973L22.0856 18.602C22.2281 18.6342 22.5402 18.8059 22.8407 18.9963C22.6399 18.8709 22.7191 18.7627 22.5146 18.6394C22.5533 18.5874 22.6944 18.5916 22.9176 18.6914C23.1408 18.7913 23.4468 18.9895 23.8028 19.3209C23.6323 19.1475 23.4589 18.9763 23.2828 18.8075C23.1333 18.6046 23.3634 18.7034 23.4175 18.6316C23.5954 18.8012 23.7692 18.975 23.7972 18.9401L23.9076 18.8023C23.7329 18.6259 23.3746 18.282 23.1915 18.1176C23.3737 18.2841 23.5526 18.4553 23.5796 18.4204L23.6877 18.2794C23.9087 18.4676 24.1167 18.674 24.3101 18.8969C24.5221 19.131 24.7294 19.3703 24.912 19.5425L25.0001 19.4442C24.8154 19.2087 24.6166 18.9875 24.4051 18.782C24.1815 18.5593 23.9504 18.3476 23.7683 18.1738C23.9775 18.3127 24.004 18.2779 24.059 18.2092C24.3446 18.4579 24.598 18.7481 24.851 19.0374C25.1004 19.3353 25.3682 19.6134 25.6523 19.8697C25.487 19.6693 25.3184 19.473 25.1463 19.2809C25.3919 19.3906 25.6993 19.7262 25.9961 20.1252C26.0702 20.2256 26.1447 20.327 26.2164 20.4326L26.3241 20.5887C26.359 20.6407 26.3935 20.6927 26.428 20.7447C26.4974 20.8488 26.5621 20.9528 26.6269 21.0475C26.6595 21.0954 26.6902 21.1432 26.7201 21.1895L26.7666 21.2572L26.789 21.2899L26.7946 21.2977L26.7988 21.3035C26.8754 21.3746 26.9374 21.4633 26.9805 21.5636L26.9875 21.5807C26.9875 21.5865 26.9903 21.5807 26.9921 21.5776L26.9972 21.5677L27.0177 21.5287C27.0317 21.5032 27.0452 21.4767 27.0597 21.4554C27.0741 21.434 27.0886 21.4085 27.103 21.3851L27.1519 21.3118L27.4887 20.8124C27.6499 20.5793 27.8102 20.3442 27.9747 20.1174C28.6269 19.1981 29.2987 18.3216 29.9094 17.4975C30.366 16.8759 30.8556 16.261 31.3779 15.6674L31.5735 15.4437L31.7738 15.2247C31.9089 15.079 32.0422 14.9313 32.1796 14.7882L32.5961 14.3617L32.7009 14.255L32.8076 14.151L33.0224 13.9429C33.3056 13.664 33.6033 13.4019 33.8968 13.136C34.0454 13.0054 34.1973 12.8796 34.3473 12.7516L34.5737 12.5653C34.6492 12.5029 34.727 12.4431 34.8034 12.3822L35.2632 12.0181L35.7291 11.6726L35.962 11.502C36.0408 11.4464 36.1204 11.3933 36.1992 11.3392L36.6706 11.0182C36.7126 11.0983 36.5691 11.3584 36.7969 11.2575C37.2492 11.0494 37.4957 10.9912 37.6355 11.001C37.7752 11.0109 37.8176 11.0973 37.8563 11.1784C37.8949 11.2596 37.2334 11.7673 37.4799 11.7174C37.5847 11.6728 37.6943 11.6438 37.806 11.631C38.0687 11.6258 37.7235 12.0014 37.9853 11.9952C38.0356 11.9645 38.0976 11.9224 38.168 11.8828L38.3916 11.7543L38.8011 11.5202C39.0405 11.488 38.7969 12.1741 39 12.0581L38.0808 12.6257Z" fill="#E2E5FC"/>
</svg>
