<svg width="70" height="70" viewBox="0 0 70 70" fill="none" xmlns="http://www.w3.org/2000/svg">
<path d="M53.3436 9H55.074C55.4651 9.02235 55.8559 9.04273 56.2464 9.06113C58.4452 9.16467 60.0554 10.761 60.1185 12.9441C60.1297 13.3332 60.1458 13.7224 60.1668 14.1115V15.8331C59.9745 20.6005 59.2409 25.2585 57.4089 29.6837C55.1667 35.098 51.3488 39.8338 46.7944 43.5965C46.7851 43.6042 46.7774 43.6138 46.7718 43.6246C46.7662 43.6355 46.7628 43.6474 46.7619 43.6596C46.5758 46.0747 46.3905 48.4897 46.2058 50.9048C46.1334 51.8468 45.81 52.6435 45.2355 53.2949C44.9916 53.5717 44.4737 53.9723 43.6815 54.4969C41.3447 56.0443 39.0062 57.5894 36.666 59.1322C36.3899 59.3149 35.9978 59.4323 35.4897 59.4842H35.0894C34.0534 59.3225 33.331 58.8275 32.9221 57.9992C32.7775 57.7061 32.6487 57.1884 32.5356 56.4463C32.2595 54.6392 31.9798 52.8318 31.6965 51.0241C31.6912 50.9893 31.6705 50.9739 31.6344 50.9778C31.4352 51.0005 31.1995 51.0547 31.0398 51.0656C29.8014 51.1517 28.7641 50.7763 27.9279 49.9395C25.2565 47.2674 22.5844 44.5956 19.9116 41.9242C19.2365 41.2491 18.8066 40.7548 18.6219 40.4412C18.1131 39.5788 17.9704 38.6069 18.1939 37.5255C18.2005 37.4946 18.188 37.4766 18.1565 37.4713C16.4309 37.1992 14.7031 36.932 12.973 36.6697C12.0671 36.5323 11.4637 36.39 11.1626 36.2427C10.3363 35.8371 9.84301 35.1088 9.68262 34.0577V33.5943C9.74638 33.123 9.89658 32.7082 10.1332 32.3499C11.6458 30.0617 13.1587 27.7738 14.6719 25.4862C15.1964 24.6922 15.5964 24.1739 15.8719 23.9313C16.5161 23.3647 17.3036 23.0449 18.2344 22.9719C20.6593 22.7832 23.081 22.5942 25.4994 22.4049C25.5266 22.4024 25.5517 22.3893 25.5694 22.3685C27.6111 19.9067 29.9131 17.7075 32.4754 15.771C35.7471 13.2981 39.3651 11.5226 43.3295 10.4445C46.6018 9.55447 49.9398 9.07297 53.3436 9ZM55.8816 11.9975C48.6185 11.6692 40.896 13.3217 34.9149 17.6444C30.1366 21.0955 26.0969 25.6687 23.4701 30.9685C23.4661 30.9768 23.4647 30.9862 23.4663 30.9954C23.4679 31.0046 23.4724 31.0131 23.479 31.0198L38.1362 45.676C38.1472 45.6874 38.1617 45.695 38.1775 45.6977C38.1932 45.7003 38.2095 45.6979 38.2239 45.6908C42.9815 43.2957 47.038 39.8969 50.3885 35.7527C52.6681 32.934 54.3572 29.8257 55.4556 26.4279C56.8222 22.2018 57.3905 17.7835 57.1604 13.1728C57.1161 12.2765 56.7828 12.0389 55.8816 11.9975ZM18.895 34.5586C19.8705 31.3613 21.294 28.3782 23.1654 25.6095C23.1689 25.6042 23.1708 25.598 23.171 25.5917C23.1712 25.5853 23.1696 25.579 23.1664 25.5735C23.1633 25.568 23.1586 25.5635 23.1531 25.5605C23.1475 25.5574 23.1412 25.556 23.1349 25.5562C21.5743 25.6772 20.0072 25.7959 18.4335 25.9122C18.0851 25.9385 17.8255 26.0808 17.6546 26.3391C16.052 28.7615 14.4484 31.1867 12.8438 33.615C12.8414 33.6188 12.8399 33.6231 12.8396 33.6276C12.8392 33.632 12.8399 33.6365 12.8417 33.6405C12.8435 33.6445 12.8462 33.648 12.8497 33.6506C12.8532 33.6532 12.8572 33.6549 12.8615 33.6554L18.8536 34.5852C18.8625 34.5865 18.8717 34.5846 18.8793 34.5797C18.8869 34.5748 18.8925 34.5673 18.895 34.5586ZM30.8081 48.1134C32.1974 47.9024 33.7218 47.4814 35.1791 46.9726C35.1845 46.9708 35.1894 46.9677 35.1932 46.9635C35.197 46.9593 35.1997 46.9541 35.201 46.9485C35.2023 46.9429 35.2021 46.937 35.2005 46.9314C35.1989 46.9257 35.196 46.9206 35.1919 46.9164L22.2514 33.9759C22.2264 33.9515 22.208 33.9558 22.1962 33.9887C21.7163 35.327 21.3505 36.6979 21.0987 38.1014C21.0169 38.5579 21.0347 38.8685 21.3531 39.186C24.2382 42.0691 27.126 44.9496 30.0163 47.8275C30.253 48.0621 30.5169 48.1575 30.8081 48.1134ZM43.5691 46.0023C40.8103 47.8462 37.795 49.3183 34.6141 50.2639C34.6035 50.2669 34.5944 50.2737 34.5884 50.2829C34.5824 50.2922 34.58 50.3033 34.5816 50.3142L35.5094 56.3062C35.5101 56.311 35.5119 56.3154 35.5148 56.3192C35.5177 56.323 35.5215 56.326 35.5258 56.3279C35.5302 56.3297 35.535 56.3305 35.5397 56.33C35.5444 56.3295 35.5489 56.3277 35.5528 56.325C37.8969 54.7763 40.2433 53.2246 42.592 51.67C42.9706 51.4195 43.2122 51.2105 43.2457 50.7757C43.3687 49.1869 43.4912 47.6043 43.6135 46.028C43.6139 46.0227 43.6127 46.0174 43.6102 46.0127C43.6077 46.008 43.6039 46.0041 43.5993 46.0014C43.5947 45.9987 43.5894 45.9974 43.5841 45.9976C43.5788 45.9977 43.5736 45.9994 43.5691 46.0023Z" fill="black"/>
<path d="M52.0896 24.65C52.0896 26.6584 51.2918 28.5845 49.8716 30.0047C48.4515 31.4248 46.5254 32.2226 44.517 32.2226C42.5086 32.2226 40.5824 31.4248 39.1623 30.0047C37.7422 28.5845 36.9443 26.6584 36.9443 24.65C36.9443 22.6416 37.7422 20.7155 39.1623 19.2954C40.5824 17.8752 42.5086 17.0774 44.517 17.0774C46.5254 17.0774 48.4515 17.8752 49.8716 19.2954C51.2918 20.7155 52.0896 22.6416 52.0896 24.65ZM49.0581 24.65C49.0581 24.0537 48.9407 23.4632 48.7124 22.9122C48.4842 22.3612 48.1497 21.8606 47.728 21.4389C47.3064 21.0173 46.8057 20.6828 46.2548 20.4545C45.7038 20.2263 45.1133 20.1089 44.517 20.1089C43.3126 20.1089 42.1575 20.5873 41.3059 21.4389C40.4543 22.2906 39.9758 23.4456 39.9758 24.65C39.9758 25.8544 40.4543 27.0095 41.3059 27.8611C42.1575 28.7127 43.3126 29.1912 44.517 29.1912C45.7214 29.1912 46.8764 28.7127 47.728 27.8611C48.5797 27.0095 49.0581 25.8544 49.0581 24.65Z" fill="black"/>
<path d="M16.9791 43.3491L16.9357 43.3059C16.3693 42.7415 15.4526 42.7431 14.8882 43.3094L10.0221 48.1926C9.45767 48.759 9.45927 49.6756 10.0256 50.24L10.069 50.2833C10.6354 50.8477 11.5521 50.8461 12.1165 50.2797L16.9826 45.3965C17.547 44.8302 17.5454 43.9135 16.9791 43.3491Z" fill="black"/>
<path d="M11.2662 59.4841H11.0181C10.2502 59.3561 9.80506 58.9095 9.68262 58.1441V57.8732C9.74579 57.5081 9.84837 57.2547 9.99036 57.1131C12.9401 54.1706 15.8892 51.2278 18.8376 48.2847C19.2876 47.8351 19.6198 47.5652 19.8341 47.4749C20.2887 47.2832 20.754 47.3492 21.2301 47.6727C21.9638 48.1726 21.9746 49.306 21.3376 49.9395C18.2531 53.0099 15.1688 56.0814 12.0849 59.1538C11.9162 59.322 11.6434 59.4322 11.2662 59.4841Z" fill="black"/>
<path d="M23.77 52.1849L18.8868 57.0511C18.3205 57.6155 18.3189 58.5321 18.8833 59.0985L18.9279 59.1433C19.4923 59.7097 20.4089 59.7113 20.9753 59.1469L25.8585 54.2807C26.4249 53.7163 26.4265 52.7996 25.8621 52.2333L25.8174 52.1885C25.253 51.6221 24.3364 51.6205 23.77 52.1849Z" fill="black"/>
</svg>
