<svg width="70" height="70" viewBox="0 0 70 70" fill="none" xmlns="http://www.w3.org/2000/svg">
<path d="M17.5624 9H17.8946C18.5358 9.06882 19.0691 9.30153 19.4943 9.69812C19.7266 9.91481 20.0231 10.3703 20.3835 11.0647C22.2792 14.7206 24.1685 18.3795 26.0513 22.0414C26.3129 22.5511 26.4438 23.0932 26.4438 23.6676C26.4465 26.7041 26.4472 29.7289 26.4458 32.7422C26.4458 32.798 26.4656 32.8062 26.5051 32.7667C30.9834 28.2891 35.4651 23.8073 39.9503 19.3215C40.5533 18.7195 41.2177 18.3801 42.0262 18.7123C42.2831 18.8173 42.6875 19.1464 43.2395 19.6997C46.2487 22.715 49.2589 25.7296 52.2701 28.7436C52.8936 29.3671 53.2329 30.0131 52.8823 30.8512C52.7815 31.0931 52.5379 31.4069 52.1515 31.7926C47.5478 36.3936 42.9441 40.9959 38.3404 45.5996C38.3375 45.6025 38.3356 45.6062 38.3349 45.6103C38.3341 45.6143 38.3346 45.6184 38.3363 45.6222C38.3379 45.6259 38.3407 45.6291 38.3441 45.6313C38.3476 45.6334 38.3516 45.6345 38.3557 45.6344C43.2088 45.6357 48.0653 45.6367 52.9253 45.6374C53.8138 45.6374 54.4925 45.6824 54.9613 45.7724C58.5255 46.4521 61.0758 49.4377 61.3333 53.0653V53.9034C61.0349 57.9685 57.9644 61.0512 53.8932 61.3333H16.4299C12.3741 61.0195 9.29233 57.9797 9 53.9126V23.3794C9.05383 22.8602 9.16525 22.4367 9.33424 22.1089C11.3376 18.2418 13.3396 14.3744 15.3403 10.5066C15.8044 9.61056 16.5451 9.10835 17.5624 9ZM16.988 11.1383C16.3062 12.418 15.6469 13.711 14.9815 15.004C14.9659 15.0347 14.972 15.0602 14.9999 15.0807C16.6415 16.2919 18.835 16.2561 20.4633 15.0746C20.472 15.0683 20.4782 15.0591 20.4807 15.0487C20.4831 15.0384 20.4816 15.0275 20.4765 15.0183C19.8169 13.7509 19.1498 12.4841 18.4752 11.218C18.1583 10.6242 17.2844 10.5812 16.988 11.1383ZM14.1076 16.6875L11.0003 22.6792C10.9943 22.6911 10.9926 22.7046 10.9954 22.7175C10.9982 22.7304 11.0053 22.7418 11.0157 22.7498L14.1362 25.2479C14.1594 25.2663 14.1815 25.2649 14.2027 25.2438C14.8916 24.5535 15.5853 23.8605 16.2837 23.1648C16.9001 22.5494 17.541 22.2315 18.3669 22.5729C18.5999 22.6697 18.8885 22.8898 19.2326 23.2332C19.9052 23.9031 20.5747 24.5722 21.2411 25.2407C21.2649 25.2646 21.2898 25.2659 21.3157 25.2448L24.4383 22.7447C24.4567 22.7297 24.4605 22.7119 24.4496 22.6915L21.3413 16.6926C21.3235 16.6599 21.2987 16.6531 21.2667 16.6721C19.0088 18.0582 16.4524 18.0827 14.1894 16.665C14.1826 16.6607 14.1751 16.6579 14.1672 16.6567C14.1593 16.6555 14.1512 16.656 14.1435 16.6581C14.1358 16.6602 14.1286 16.6639 14.1225 16.669C14.1163 16.6741 14.1112 16.6804 14.1076 16.6875ZM37.028 29.5224C37.9172 30.4015 36.6774 31.6383 35.8576 30.8226C35.0379 30.0083 34.2222 29.194 33.4106 28.3797C33.4044 28.3734 33.3959 28.3699 33.3869 28.3699C33.3779 28.3699 33.3692 28.3734 33.3626 28.3797L32.1861 29.5541C32.1765 29.5642 32.1711 29.5777 32.1713 29.5916C32.1715 29.6056 32.1772 29.6189 32.1871 29.6287C32.5388 29.9729 32.889 30.3221 33.2379 30.6764C33.443 30.8849 33.5701 31.0604 33.6192 31.2028C33.8287 31.8141 33.1939 32.4631 32.595 32.2996C32.4144 32.2505 32.2107 32.1136 31.9837 31.8887C31.6376 31.5459 31.2935 31.2018 30.9514 30.8563C30.9425 30.8473 30.9303 30.8422 30.9174 30.8422C30.9046 30.8422 30.8922 30.8473 30.8829 30.8563L29.7105 32.0308C29.7075 32.0337 29.7052 32.0372 29.7036 32.0411C29.702 32.0449 29.7011 32.0491 29.7011 32.0532C29.7011 32.0574 29.702 32.0616 29.7036 32.0654C29.7052 32.0693 29.7075 32.0728 29.7105 32.0757C30.5248 32.8921 31.3343 33.7139 32.1391 34.5411C32.9517 35.3772 31.6986 36.5445 30.8788 35.7227C30.0768 34.9186 29.2778 34.118 28.4819 33.3207C28.4779 33.3166 28.4731 33.3134 28.4679 33.3112C28.4626 33.309 28.457 33.3078 28.4512 33.3078C28.4455 33.3078 28.4399 33.309 28.4346 33.3112C28.4293 33.3134 28.4246 33.3166 28.4206 33.3207L27.241 34.4982C27.2377 34.5014 27.2351 34.5052 27.2333 34.5094C27.2315 34.5137 27.2306 34.5183 27.2306 34.5229C27.2306 34.5276 27.2315 34.5322 27.2333 34.5366C27.2351 34.5409 27.2377 34.5449 27.241 34.5483C27.5736 34.8788 27.9051 35.2103 28.2356 35.5428C28.5862 35.8955 28.8325 36.2409 28.6107 36.705C28.3439 37.262 27.6254 37.4021 27.1991 36.9728C26.8141 36.5844 26.4226 36.1932 26.0247 35.7994C25.9954 35.7701 25.9661 35.7704 25.9368 35.8004L24.7869 36.9493C24.7617 36.9745 24.7617 36.9997 24.7869 37.0249C25.5739 37.8181 26.3661 38.6058 27.1633 39.3881C28.0291 40.2375 26.8128 41.507 25.9644 40.6637C25.1514 39.8562 24.3419 39.0491 23.5358 38.2423C23.5331 38.2396 23.5299 38.2374 23.5264 38.2359C23.5229 38.2344 23.5192 38.2337 23.5153 38.2337C23.5115 38.2337 23.5078 38.2344 23.5043 38.2359C23.5008 38.2374 23.4976 38.2396 23.4949 38.2423L22.3062 39.431C22.3027 39.4343 22.2999 39.4383 22.298 39.4427C22.2961 39.4471 22.2951 39.4519 22.2951 39.4568C22.2951 39.4616 22.2961 39.4665 22.298 39.471C22.2999 39.4755 22.3027 39.4797 22.3062 39.4832C22.655 39.8286 23.0016 40.1741 23.3457 40.5196C23.6676 40.8436 23.8792 41.1492 23.7249 41.5816C23.4816 42.2644 22.6731 42.3482 22.1978 41.8494C21.8353 41.4692 21.4643 41.0957 21.0847 40.7291C21.0575 40.7032 21.0309 40.7036 21.005 40.7302L19.853 41.8831C19.8265 41.9104 19.8265 41.9376 19.853 41.9649C20.2047 42.3196 20.6401 42.615 20.5358 43.1874C20.4305 43.7608 19.8387 44.0296 19.3185 43.8037C19.0547 43.6892 18.8289 43.3918 18.603 43.1823C18.5962 43.1761 18.5873 43.1728 18.5782 43.173C18.5691 43.1732 18.5604 43.1769 18.5539 43.1833L16.1233 45.6139C16.0858 45.6521 16.0936 45.6691 16.1468 45.665C16.3587 45.648 16.5829 45.6395 16.8193 45.6395C23.1539 45.6395 29.4771 45.6381 35.7892 45.6354C35.8259 45.6354 35.8576 45.6221 35.8842 45.5955L51.2449 30.2349C51.2524 30.2272 51.2566 30.2169 51.2566 30.2062C51.2566 30.1955 51.2524 30.1853 51.2449 30.1776L41.4487 20.3805C41.4374 20.3693 41.4222 20.363 41.4063 20.363C41.3904 20.363 41.3752 20.3693 41.3639 20.3805L39.5731 22.1702C39.5703 22.1728 39.568 22.176 39.5665 22.1796C39.565 22.1831 39.5642 22.1869 39.5642 22.1909C39.5642 22.1948 39.565 22.1987 39.5665 22.2023C39.568 22.206 39.5703 22.2093 39.5731 22.2121C40.3465 22.9821 41.1206 23.7556 41.8954 24.5324C42.153 24.79 42.2961 25.0148 42.2542 25.3634C42.1918 25.8795 41.6879 26.2424 41.1738 26.0952C41 26.0448 40.801 25.9068 40.5768 25.6813C39.8341 24.9337 39.0896 24.1886 38.3435 23.4458C38.3369 23.4395 38.3281 23.436 38.3192 23.436C38.3102 23.436 38.3016 23.4395 38.2954 23.4458L37.119 24.6233C37.0965 24.6458 37.0968 24.6683 37.12 24.6908C37.4709 25.0383 37.8222 25.3896 38.1738 25.7446C38.3421 25.9136 38.4505 26.0581 38.4988 26.178C38.6787 26.6257 38.4641 27.0918 38.0348 27.2911C37.5523 27.516 37.2109 27.2533 36.8522 26.8915C36.5339 26.5705 36.211 26.2489 35.8832 25.9266C35.8593 25.9027 35.8355 25.9031 35.8116 25.9276L34.6628 27.0754C34.6335 27.1054 34.6335 27.1351 34.6628 27.1644C35.4471 27.9548 36.2355 28.7408 37.028 29.5224ZM13.3645 40.4307C13.3645 39.3728 14.8374 39.2062 15.0776 40.1762C15.096 40.2532 15.1056 40.4927 15.1062 40.8947C15.1062 41.97 15.1062 43.034 15.1062 44.0868C15.1062 44.14 15.125 44.1478 15.1625 44.1104L20.3058 38.966C20.3172 38.9546 20.3262 38.9413 20.3323 38.9267C20.3385 38.9122 20.3416 38.8967 20.3416 38.8811V26.8363C20.3416 26.8111 20.3324 26.7896 20.314 26.7719L17.7709 24.239C17.7642 24.2323 17.7563 24.227 17.7475 24.2234C17.7388 24.2197 17.7295 24.2178 17.72 24.2178C17.7106 24.2178 17.7013 24.2197 17.6927 24.2234C17.6841 24.227 17.6763 24.2323 17.6698 24.239C16.8398 25.071 16.0221 25.9317 15.1461 26.7177C15.1195 26.7415 15.1062 26.7708 15.1062 26.8056C15.1062 30.163 15.1066 33.5207 15.1073 36.8787C15.1073 37.7874 13.9001 38.1421 13.4708 37.3244C13.4 37.1888 13.3645 36.9874 13.3645 36.7203C13.3632 33.4318 13.3628 30.1429 13.3635 26.8536C13.3635 26.8378 13.3594 26.8222 13.3515 26.8084C13.3436 26.7946 13.3323 26.7831 13.3185 26.7749C13.2276 26.7208 13.1294 26.6748 13.0538 26.6155C12.2954 26.0111 11.5393 25.4053 10.7857 24.7981C10.7818 24.7948 10.777 24.7926 10.772 24.7919C10.7669 24.7912 10.7617 24.792 10.7571 24.7941C10.7524 24.7963 10.7485 24.7998 10.7458 24.8041C10.7431 24.8084 10.7417 24.8134 10.7417 24.8186V48.479C10.742 48.4855 10.7441 48.4918 10.748 48.4971C10.7519 48.5024 10.7572 48.5064 10.7634 48.5086C10.7696 48.5108 10.7763 48.5111 10.7826 48.5095C10.7889 48.5078 10.7946 48.5043 10.799 48.4994C11.1404 48.0762 11.6402 47.6326 11.9294 47.3444C12.3949 46.8783 12.8548 46.418 13.3093 45.9635C13.3454 45.9274 13.3635 45.8838 13.3635 45.8327C13.3628 44.0371 13.3632 42.2364 13.3645 40.4307ZM22.0833 37.1067C22.0833 37.1133 22.0852 37.1199 22.0888 37.1255C22.0924 37.131 22.0977 37.1354 22.1038 37.138C22.1099 37.1407 22.1167 37.1414 22.1232 37.1402C22.1298 37.139 22.1358 37.1359 22.1406 37.1312L24.6877 34.5841C24.691 34.5809 24.6936 34.5771 24.6954 34.5728C24.6971 34.5686 24.698 34.5641 24.698 34.5595V24.8411C24.6981 24.8346 24.6963 24.8283 24.6929 24.8228C24.6896 24.8173 24.6847 24.8129 24.6789 24.8101C24.6731 24.8073 24.6666 24.8062 24.6602 24.807C24.6538 24.8078 24.6477 24.8104 24.6428 24.8145L22.0956 26.8536C22.0917 26.8569 22.0886 26.8609 22.0864 26.8655C22.0843 26.8701 22.0833 26.8752 22.0833 26.8802V37.1067ZM11.0208 55.2751C11.771 57.7099 14.1086 59.5906 16.7171 59.5906C28.6502 59.5913 40.5837 59.5916 52.5174 59.5916C53.4925 59.5916 54.1719 59.5582 54.5556 59.4915C57.115 59.0468 59.148 56.9494 59.5201 54.3798C59.979 51.2162 57.9296 48.2183 54.8223 47.5253C54.3896 47.4286 53.7351 47.3802 52.8588 47.3802C41.06 47.3774 29.2608 47.3774 17.4612 47.3802C16.6033 47.3802 15.9573 47.4282 15.5233 47.5243C12.0725 48.2848 9.96898 51.8643 11.0208 55.2751Z" fill="black" stroke="black" stroke-width="0.5"/>
<path d="M21.2069 53.4833C21.2069 54.639 20.7478 55.7473 19.9307 56.5645C19.1135 57.3816 18.0052 57.8407 16.8496 57.8407C16.2773 57.8407 15.7107 57.728 15.1821 57.509C14.6534 57.29 14.173 56.9691 13.7684 56.5645C12.9513 55.7473 12.4922 54.639 12.4922 53.4833C12.4922 52.3277 12.9513 51.2194 13.7684 50.4022C14.5856 49.5851 15.6939 49.126 16.8496 49.126C18.0052 49.126 19.1135 49.5851 19.9307 50.4022C20.7478 51.2194 21.2069 52.3277 21.2069 53.4833ZM19.4652 53.4833C19.4652 52.7899 19.1897 52.1249 18.6994 51.6345C18.2091 51.1442 17.544 50.8687 16.8506 50.8687C16.1571 50.8687 15.4921 51.1442 15.0018 51.6345C14.5114 52.1249 14.236 52.7899 14.236 53.4833C14.236 54.1768 14.5114 54.8418 15.0018 55.3322C15.4921 55.8225 16.1571 56.098 16.8506 56.098C17.544 56.098 18.2091 55.8225 18.6994 55.3322C19.1897 54.8418 19.4652 54.1768 19.4652 53.4833Z" fill="black" stroke="black" stroke-width="0.5"/>
<path d="M57.8407 53.4833C57.8407 54.639 57.3816 55.7473 56.5645 56.5645C55.7473 57.3816 54.639 57.8407 53.4833 57.8407C52.3277 57.8407 51.2194 57.3816 50.4022 56.5645C49.5851 55.7473 49.126 54.639 49.126 53.4833C49.126 52.3277 49.5851 51.2194 50.4022 50.4022C51.2194 49.5851 52.3277 49.126 53.4833 49.126C54.639 49.126 55.7473 49.5851 56.5645 50.4022C57.3816 51.2194 57.8407 52.3277 57.8407 53.4833ZM56.098 53.4833C56.098 52.7899 55.8225 52.1249 55.3322 51.6345C54.8418 51.1442 54.1768 50.8687 53.4833 50.8687C52.7899 50.8687 52.1249 51.1442 51.6345 51.6345C51.1442 52.1249 50.8687 52.7899 50.8687 53.4833C50.8687 54.1768 51.1442 54.8418 51.6345 55.3322C52.1249 55.8225 52.7899 56.098 53.4833 56.098C54.1768 56.098 54.8418 55.8225 55.3322 55.3322C55.8225 54.8418 56.098 54.1768 56.098 53.4833Z" fill="black" stroke="black" stroke-width="0.5"/>
</svg>
