<svg width="60" height="60" viewBox="0 0 60 60" fill="none" xmlns="http://www.w3.org/2000/svg">
<mask id="mask0_956_219" style="mask-type:luminance" maskUnits="userSpaceOnUse" x="0" y="0" width="60" height="60">
<path d="M0 0H60V60H0V0Z" fill="white"/>
</mask>
<g mask="url(#mask0_956_219)">
<path d="M8.23997 51.505L24.15 35.595M44.185 28.52L39.4225 42.8075C39.3465 43.0365 39.2163 43.2438 39.0431 43.4118C38.8699 43.5798 38.6587 43.7035 38.4275 43.7725L9.23247 52.45C8.96945 52.5281 8.69004 52.5326 8.42465 52.4629C8.15926 52.3933 7.91806 52.2521 7.72729 52.0549C7.53652 51.8577 7.4035 51.612 7.34271 51.3444C7.28191 51.0769 7.29566 50.7977 7.38247 50.5375L16.8625 22.1025C16.9304 21.8983 17.0415 21.7111 17.1882 21.5537C17.3348 21.3962 17.5136 21.2722 17.7125 21.19L31.18 15.645C31.4538 15.5319 31.7549 15.5024 32.0454 15.5602C32.336 15.6181 32.6029 15.7606 32.8125 15.97L43.8225 26.9825C44.0199 27.1797 44.1585 27.428 44.2225 27.6996C44.2865 27.9712 44.2735 28.2553 44.185 28.52Z" stroke="#E2E5FC" stroke-width="1.5" stroke-linecap="round" stroke-linejoin="round"/>
<path d="M44.48 27.64L51.55 20.5675C52.4873 19.6298 53.0139 18.3583 53.0139 17.0325C53.0139 15.7067 52.4873 14.4351 51.55 13.4975L46.25 8.19248C45.7857 7.72797 45.2344 7.35949 44.6276 7.10809C44.0208 6.85669 43.3705 6.72729 42.7137 6.72729C42.0569 6.72729 41.4066 6.85669 40.7998 7.10809C40.1931 7.35949 39.6418 7.72797 39.1775 8.19248L32.1075 15.265M29.4525 30.29C29.1041 29.9418 28.6906 29.6657 28.2356 29.4773C27.7805 29.2889 27.2928 29.192 26.8003 29.1922C26.3078 29.1923 25.8202 29.2894 25.3652 29.478C24.9103 29.6666 24.4969 29.9429 24.1487 30.2912C23.8006 30.6396 23.5244 31.0531 23.336 31.5081C23.1477 31.9632 23.0508 32.4509 23.0509 32.9434C23.051 33.4359 23.1481 33.9235 23.3367 34.3785C23.5253 34.8334 23.8016 35.2468 24.15 35.595C24.8535 36.2981 25.8075 36.693 26.8021 36.6928C27.7968 36.6926 28.7506 36.2972 29.4537 35.5937C30.1569 34.8902 30.5518 33.9362 30.5515 32.9416C30.5513 31.9469 30.156 30.9931 29.4525 30.29Z" stroke="#E2E5FC" stroke-width="1.5" stroke-linecap="round" stroke-linejoin="round"/>
</g>
</svg>
