<svg width="34" height="53" viewBox="0 0 34 53" fill="none" xmlns="http://www.w3.org/2000/svg">
<path fill-rule="evenodd" clip-rule="evenodd" d="M25.5343 1.30605C24.7893 1.75986 24.1794 2.30193 24.1794 2.51094C24.1794 2.71994 21.7306 4.32618 18.7373 6.08022C15.7444 7.83426 13.1993 9.5196 13.0817 9.82519C12.8874 10.331 15.3729 15.8059 16.3443 17.0116C16.6574 17.4001 17.2448 17.3235 18.9019 16.6781C25.8532 13.9703 28.7931 12.9361 29.2701 13.0306C29.9667 13.1684 32.8549 12.1838 33.1493 11.7079C33.4832 11.1687 28.0161 0.477533 27.4074 0.479615C27.1222 0.480447 26.2793 0.852239 25.5343 1.30605ZM10.1092 12.1309C9.36384 12.5847 8.75434 13.1284 8.75434 13.3395C8.75434 13.5506 9.31715 14.9757 10.005 16.507C10.6929 18.0383 11.2557 19.7416 11.2557 20.2928C11.2557 20.844 11.6309 21.6696 12.0895 22.1276C12.8641 22.9012 12.9233 23.5153 12.9233 30.7721V38.5839L6.87832 44.61C1.05433 50.4158 0.0704603 51.8376 1.49749 52.3847C1.96566 52.5641 3.74829 51.0582 7.54244 47.2775L12.9233 41.9158V46.7508C12.9233 51.7798 13.3097 52.9405 14.7939 52.3718C15.3096 52.1745 15.4246 51.1977 15.4246 47.0231V41.9158L20.7459 47.2179C23.6724 50.1344 26.2922 52.5204 26.5678 52.5204C26.8429 52.5204 27.2515 52.179 27.4749 51.7619C27.8176 51.1219 26.9059 50.0303 21.653 44.7932L15.4246 38.5835V30.8362C15.4246 23.6181 15.4817 23.0377 16.2584 22.3358C17.4124 21.2929 17.3507 19.1845 16.1333 18.0421C15.6056 17.5475 14.5375 15.8284 13.7596 14.2226C12.9816 12.6168 12.147 11.3036 11.9048 11.3045C11.6626 11.3053 10.8542 11.6771 10.1092 12.1309ZM5.71102 15.5053C3.75121 16.5383 3.50899 17.1203 4.35737 18.7594C5.13238 20.2558 5.09319 20.2483 7.6379 19.3823C9.78198 18.6528 9.92373 18.2794 8.88566 16.1048C8.07773 14.4124 7.86178 14.3716 5.71102 15.5053ZM0.916754 17.6312C-0.498181 19.0442 1.42953 22.5231 3.2993 21.9307C4.38822 21.5855 4.39448 20.8711 3.3264 18.7802C2.45884 17.082 1.78723 16.7618 0.916754 17.6312Z" fill="#E2E5FC"/>
</svg>
