<svg width="70" height="70" viewBox="0 0 70 70" fill="none" xmlns="http://www.w3.org/2000/svg">
<path d="M34.859 5.83477L34.8025 5.83487C34.3048 5.83573 33.9021 6.22819 33.9029 6.71145L33.9134 12.641C33.9142 13.1243 34.3183 13.5154 34.816 13.5145L34.8726 13.5144C35.3702 13.5136 35.773 13.1211 35.7721 12.6378L35.7617 6.70824C35.7608 6.22498 35.3567 5.83391 34.859 5.83477Z" fill="black" stroke="black" stroke-width="0.5"/>
<path d="M52.2869 12.864L52.2418 12.8204C51.8893 12.4793 51.3187 12.4803 50.9674 12.8226L46.6621 17.0179C46.3108 17.3602 46.3117 17.9142 46.6643 18.2554L46.7093 18.299C47.0619 18.6401 47.6324 18.6391 47.9837 18.2968L52.2891 14.1015C52.6404 13.7592 52.6394 13.2051 52.2869 12.864Z" fill="black" stroke="black" stroke-width="0.5"/>
<path d="M30.2862 49.052H32.7516C32.7932 49.052 32.814 49.0318 32.814 48.9914C32.814 38.3835 32.814 27.7764 32.814 17.1701C32.814 16.7019 32.8604 16.3546 32.953 16.1281C33.2864 15.3091 34.0992 14.7715 35.0215 14.8344C43.836 15.4326 50.2688 23.5732 48.8965 31.9117C48.3342 35.3249 46.7982 38.1715 44.2884 40.4516C43.4112 41.2484 42.8368 41.8051 42.565 42.1215C40.8602 44.1049 39.9319 46.393 39.7804 48.9857C39.7772 49.0284 39.7977 49.0497 39.8416 49.0497C41.3651 49.0718 42.4095 49.7261 42.975 51.0125C43.549 52.3195 43.3228 53.4981 42.2965 54.5481C42.2682 54.5771 42.2682 54.6057 42.2965 54.6339C44.2625 56.6207 43.0244 59.8349 40.2292 60.1208C39.8946 60.1551 39.4235 60.1151 39.0289 60.1277C38.9872 60.1284 38.966 60.1494 38.9652 60.1906C38.944 62.3639 37.3303 64.1231 35.0521 64.1402C32.686 64.1578 30.3203 64.1665 27.955 64.1665C25.7122 64.1665 23.9783 62.3856 23.9948 60.1929C23.9956 60.1509 23.9743 60.1296 23.9312 60.1288C23.4211 60.1208 22.8427 60.1654 22.3881 60.0762C19.773 59.5672 18.8189 56.4937 20.6588 54.6236C20.6645 54.6177 20.6676 54.6099 20.6676 54.6019C20.6676 54.5938 20.6645 54.586 20.6588 54.5801C18.9072 52.7317 19.6552 49.9179 22.1313 49.1652C22.1355 49.164 22.1393 49.1617 22.1423 49.1586C22.1453 49.1555 22.1474 49.1517 22.1485 49.1474C22.1495 49.1432 22.1495 49.1387 22.1483 49.1345C22.1472 49.1302 22.1449 49.1262 22.1419 49.1229C21.6801 48.6372 21.3252 48.0858 21.077 47.4689C21.0629 47.4339 21.0358 47.4167 20.9957 47.4175C16.5808 47.5799 13.2896 43.4438 14.6761 39.3249C14.6886 39.2852 14.6757 39.2566 14.6372 39.2391C9.06905 36.701 9.17035 28.9046 14.6454 26.4111C14.6597 26.4048 14.6711 26.3936 14.6774 26.3797C14.6837 26.3657 14.6845 26.35 14.6796 26.3356C13.2861 22.3059 16.5749 18.0337 20.991 18.251C21.0318 18.2533 21.0597 18.2358 21.0746 18.1984C21.5443 17.0195 22.3021 16.1319 23.3481 15.5356C26.8348 13.5476 31.5407 15.9268 31.5418 19.929C31.545 28.4315 31.5454 36.9339 31.543 45.4364C31.543 46.7945 31.115 47.9814 30.2591 48.9971C30.2284 49.0337 30.2375 49.052 30.2862 49.052ZM38.8569 17.5178C37.6059 17.026 36.2917 16.7263 34.9143 16.6188C34.8827 16.6162 34.8509 16.6201 34.8209 16.6302C34.7909 16.6403 34.7634 16.6563 34.74 16.6772C34.7167 16.6982 34.698 16.7236 34.6852 16.7519C34.6725 16.7803 34.6658 16.8109 34.6658 16.8418V48.9868C34.6658 49.0303 34.6881 49.052 34.7329 49.052H37.8191C37.8647 49.052 37.8886 49.0299 37.891 48.9857C38.0944 45.6907 39.3159 42.8547 41.5555 40.4779C42.1516 39.8465 43.081 39.1247 43.7559 38.4167C50.0096 31.8591 47.2909 20.8315 38.8569 17.5178ZM20.0545 35.3226C20.6035 35.5594 20.7554 36.3818 20.2701 36.7799C20.1649 36.866 19.9748 36.9495 19.7 37.0304C14.6407 38.5105 15.3498 45.362 20.6694 45.6102C20.6833 45.6108 20.6972 45.6088 20.7102 45.6041C20.7232 45.5995 20.7352 45.5924 20.7454 45.5833C20.7556 45.5741 20.7638 45.5631 20.7696 45.5508C20.7753 45.5386 20.7785 45.5253 20.779 45.5119C20.83 44.1873 21.4151 43.1838 22.5341 42.5013C23.2409 42.0712 24.2963 41.9946 24.3835 43.0641C24.4388 43.7515 23.7969 43.8133 23.3375 44.153C22.4729 44.7935 22.4835 46.0472 22.8887 46.9371C23.4376 48.1434 24.3383 48.8309 25.5909 48.9994C27.816 49.3002 29.6937 47.7835 29.6948 45.5793C29.6995 37.096 29.7023 28.6126 29.7031 20.1292C29.7031 16.4609 24.5873 15.2622 22.9758 18.585C22.9609 18.6163 22.9696 18.6384 23.0018 18.6514C24.1137 19.1081 25.0325 19.8074 25.7581 20.7491C26.1551 21.2639 26.4308 22.0371 25.6898 22.3985C24.8264 22.8195 24.4495 22.1 24.0242 21.5635C23.8342 21.3233 23.6571 21.1388 23.493 21.0099C20.1076 18.3471 14.9917 21.798 16.4854 25.814C16.4979 25.8476 16.5223 25.8628 16.5584 25.8598C18.2861 25.705 19.7734 26.23 21.0205 27.4348C22.1089 28.4848 20.6777 29.7453 19.773 28.7902C18.6233 27.5766 17.1874 27.3559 15.6325 27.9655C12.8632 29.0533 11.7288 32.24 12.7619 34.8502C13.2598 36.1092 14.1798 37.0452 15.5218 37.6583C15.5587 37.6751 15.5901 37.6686 15.6161 37.6389C16.3723 36.757 18.7824 34.7736 20.0545 35.3226ZM41.4107 52.2635C41.4113 51.8931 41.2605 51.5376 40.9912 51.2752C40.7219 51.0129 40.3564 50.8651 39.9749 50.8645L23.0338 50.8357C22.8449 50.8354 22.6578 50.8712 22.4832 50.9411C22.3086 51.011 22.1498 51.1136 22.016 51.2431C21.8822 51.3725 21.776 51.5263 21.7034 51.6956C21.6309 51.865 21.5933 52.0465 21.593 52.2299L21.5929 52.278C21.5923 52.6484 21.7431 53.0039 22.0124 53.2662C22.2816 53.5286 22.6472 53.6764 23.0287 53.677L39.9698 53.7057C40.1587 53.706 40.3458 53.6702 40.5204 53.6003C40.695 53.5305 40.8538 53.4278 40.9876 53.2984C41.1213 53.1689 41.2276 53.0151 41.3002 52.8458C41.3727 52.6765 41.4103 52.4949 41.4106 52.3115L41.4107 52.2635ZM41.4036 56.8918C41.4036 56.5226 41.2526 56.1685 40.9837 55.9075C40.7149 55.6464 40.3502 55.4998 39.97 55.4998H23.0076C22.6274 55.4998 22.2628 55.6464 21.994 55.9075C21.7251 56.1685 21.5741 56.5226 21.5741 56.8918V56.9398C21.5741 57.1226 21.6112 57.3037 21.6832 57.4725C21.7553 57.6414 21.8609 57.7949 21.994 57.9242C22.1271 58.0534 22.2851 58.156 22.4591 58.2259C22.633 58.2959 22.8194 58.3319 23.0076 58.3319H39.97C40.1583 58.3319 40.3447 58.2959 40.5186 58.2259C40.6926 58.156 40.8506 58.0534 40.9837 57.9242C41.1168 57.7949 41.2224 57.6414 41.2945 57.4725C41.3665 57.3037 41.4036 57.1226 41.4036 56.9398V56.8918ZM37.0688 60.1265H25.9089C25.8952 60.1265 25.882 60.1318 25.8723 60.1413C25.8626 60.1507 25.8571 60.1635 25.8571 60.1769V60.2741C25.8571 60.8302 26.0903 61.3634 26.5054 61.7566C26.9205 62.1498 27.4834 62.3707 28.0704 62.3707H34.9072C35.1979 62.3707 35.4857 62.3165 35.7542 62.2111C36.0228 62.1058 36.2668 61.9513 36.4723 61.7566C36.6778 61.5619 36.8409 61.3308 36.9521 61.0764C37.0633 60.8221 37.1206 60.5494 37.1206 60.2741V60.1769C37.1206 60.1635 37.1151 60.1507 37.1054 60.1413C37.0957 60.1318 37.0825 60.1265 37.0688 60.1265Z" fill="black" stroke="black" stroke-width="0.5"/>
<path d="M42.2395 24.8384C40.9708 22.7326 39.3347 21.5521 37.0341 20.6302C35.9163 20.1818 36.5241 18.5656 37.6608 18.9614C42.2783 20.5684 45.3257 24.6142 45.4494 29.3782C45.458 29.7038 45.4101 29.9524 45.3056 30.124C44.8604 30.8572 43.6106 30.5598 43.5906 29.7099C43.5474 27.8859 43.097 26.262 42.2395 24.8384Z" fill="black" stroke="black" stroke-width="0.5"/>
<path d="M58.5968 28.8756L52.4927 28.8859C51.9957 28.8868 51.5935 29.2787 51.5943 29.7613L51.5945 29.8208C51.5953 30.3034 51.9989 30.694 52.496 30.6932L58.6001 30.6828C59.0971 30.682 59.4993 30.29 59.4984 29.8074L59.4983 29.7479C59.4975 29.2653 59.0938 28.8747 58.5968 28.8756Z" fill="black" stroke="black" stroke-width="0.5"/>
<path d="M46.702 41.2608L46.6587 41.3029C46.3068 41.6446 46.3068 42.1986 46.6587 42.5404L50.9749 46.7316C51.3268 47.0733 51.8974 47.0733 52.2493 46.7316L52.2926 46.6896C52.6445 46.3478 52.6445 45.7938 52.2926 45.4521L47.9764 41.2608C47.6245 40.9191 47.0539 40.9191 46.702 41.2608Z" fill="black" stroke="black" stroke-width="0.5"/>
</svg>
