<svg width="56" height="50" viewBox="0 0 56 50" fill="none" xmlns="http://www.w3.org/2000/svg">
<path d="M45.5 50C42.75 50 40.3958 49.0208 38.4375 47.0625C36.4792 45.1042 35.5 42.75 35.5 40V28.75C35.5 27 36.1042 25.5208 37.3125 24.3125C38.5208 23.1042 40 22.5 41.75 22.5C43.5 22.5 44.9792 23.1042 46.1875 24.3125C47.3958 25.5208 48 27 48 28.75V40H43V28.75C43 28.4167 42.875 28.125 42.625 27.875C42.375 27.625 42.0833 27.5 41.75 27.5C41.4167 27.5 41.125 27.625 40.875 27.875C40.625 28.125 40.5 28.4167 40.5 28.75V40C40.5 41.375 40.9892 42.5525 41.9675 43.5325C42.9475 44.5108 44.125 45 45.5 45C46.875 45 48.0525 44.5108 49.0325 43.5325C50.0108 42.5525 50.5 41.375 50.5 40V30H55.5V40C55.5 42.75 54.5208 45.1042 52.5625 47.0625C50.6042 49.0208 48.25 50 45.5 50ZM5.5 40C4.125 40 2.94833 39.5108 1.97 38.5325C0.99 37.5525 0.5 36.375 0.5 35V5C0.5 3.625 0.99 2.4475 1.97 1.4675C2.94833 0.489166 4.125 0 5.5 0H45.5C46.875 0 48.0525 0.489166 49.0325 1.4675C50.0108 2.4475 50.5 3.625 50.5 5V20H41.75C39.3333 20 37.2708 20.8542 35.5625 22.5625C33.8542 24.2708 33 26.3333 33 28.75V40H5.5ZM25.5 22.5L45.5 10V5L25.5 17.5L5.5 5V10L25.5 22.5Z" fill="#E2E5FC"/>
</svg>
