<svg width="42" height="34" viewBox="0 0 42 34" fill="none" xmlns="http://www.w3.org/2000/svg">
<path d="M4.33366 33.6666C3.18783 33.6666 2.20727 33.259 1.39199 32.4437C0.575326 31.6271 0.166992 30.6458 0.166992 29.5V4.49998C0.166992 3.35415 0.575326 2.37359 1.39199 1.55831C2.20727 0.741646 3.18783 0.333313 4.33366 0.333313H37.667C38.8128 0.333313 39.7941 0.741646 40.6107 1.55831C41.426 2.37359 41.8337 3.35415 41.8337 4.49998V29.5C41.8337 30.6458 41.426 31.6271 40.6107 32.4437C39.7941 33.259 38.8128 33.6666 37.667 33.6666H4.33366ZM37.667 8.66665L22.0941 18.4062C21.9205 18.5104 21.7378 18.5882 21.5462 18.6396C21.3559 18.6923 21.1739 18.7187 21.0003 18.7187C20.8267 18.7187 20.6448 18.6923 20.4545 18.6396C20.2628 18.5882 20.0802 18.5104 19.9066 18.4062L4.33366 8.66665V29.5H37.667V8.66665ZM21.0003 14.9166L37.667 4.49998H4.33366L21.0003 14.9166ZM4.33366 9.18748V6.11456V6.16665V6.13956V9.18748Z" fill="url(#paint0_linear_872_15798)"/>
<defs>
<linearGradient id="paint0_linear_872_15798" x1="21.0003" y1="0.333313" x2="21.0003" y2="33.6666" gradientUnits="userSpaceOnUse">
<stop stop-color="#1D5AF9"/>
<stop offset="1" stop-color="#2F7DFB"/>
</linearGradient>
</defs>
</svg>
