<svg width="38" height="39" viewBox="0 0 38 39" fill="none" xmlns="http://www.w3.org/2000/svg">
<path d="M25.8375 38.2812V23.7687H30.6979L31.425 18.1271H25.8375V14.5271C25.8375 12.8937 26.2917 11.7792 28.6333 11.7792H31.6208V6.73333C30.1746 6.57988 28.721 6.50547 27.2667 6.51042C22.9604 6.51042 20.0125 9.13958 20.0125 13.9687V18.1271H15.1417V23.7687H20.0125V38.2812H2.08333C1.5308 38.2812 1.00089 38.0618 0.610194 37.6711C0.219493 37.2804 0 36.7505 0 36.1979V2.86458C0 2.31205 0.219493 1.78214 0.610194 1.39144C1.00089 1.00074 1.5308 0.78125 2.08333 0.78125H35.4167C35.9692 0.78125 36.4991 1.00074 36.8898 1.39144C37.2805 1.78214 37.5 2.31205 37.5 2.86458V36.1979C37.5 36.7505 37.2805 37.2804 36.8898 37.6711C36.4991 38.0618 35.9692 38.2812 35.4167 38.2812H25.8375Z" fill="#E2E5FC"/>
</svg>
