<svg width="90" height="80" viewBox="0 0 90 80" fill="none" xmlns="http://www.w3.org/2000/svg">
<g clip-path="url(#clip0_1061_4420)">
<path d="M10.5505 39.999C10.5505 56.91 25.9736 70.6201 44.999 70.6201C64.0244 70.6201 79.4497 56.911 79.4497 39.999C79.4497 23.087 64.0255 9.37891 44.999 9.37891C25.9724 9.37891 10.5505 23.088 10.5505 39.999Z" fill="#64B8CB"/>
<path d="M89.6674 40.4775C89.8081 29.6384 85.0013 18.7872 75.3716 10.8575C65.742 2.9277 53.2025 -0.502343 41.0537 0.450279L40.729 0.182859C41.5748 0.111211 42.4251 0.0587347 43.2811 0.030479C55.2071 -0.374984 66.8259 3.44724 75.5814 10.6563C84.337 17.8654 89.512 27.8707 89.9682 38.4714C90.0011 39.2323 90.0068 39.9851 89.9921 40.745L89.6674 40.4775Z" fill="white"/>
<path d="M6.42252 19.9426L6.18184 19.7407C10.192 13.7021 15.9002 8.69429 22.7459 5.20923L22.9968 5.4161C16.1278 8.87233 10.4093 13.8818 6.42139 19.9365L6.42252 19.9426Z" fill="white"/>
<path d="M0.675545 35.0543C-1.0399 47.3193 3.67274 60.1232 14.6296 69.1458C32.7081 84.0305 61.0396 83.0718 77.7865 66.9984C80.9219 63.994 83.5132 60.575 85.4679 56.8637L85.72 57.0655C83.7469 60.7668 81.1479 64.1778 78.0135 67.18C74.0082 71.0455 69.1799 74.1663 63.8083 76.3616C58.4367 78.557 52.6285 79.7834 46.72 79.9698C34.7085 80.3734 23.2374 76.6053 14.4195 69.3436C10.0716 65.7829 6.5613 61.4911 4.09185 56.7166C1.62241 51.942 0.242828 46.7795 0.0329666 41.5279C-0.0637131 39.2814 0.050209 37.0317 0.373558 34.802L0.675545 35.0543Z" fill="white"/>
<path d="M77.4832 24.1729C76.0898 21.9138 74.4025 19.8081 72.4561 17.8991C59.0255 4.71681 36.2275 3.45741 21.0757 14.8656L20.877 14.6709C28.2691 9.10833 37.8038 6.31694 47.4679 6.88615C57.132 7.45536 66.169 11.3406 72.6707 17.7215C74.6708 19.6831 76.4021 21.8487 77.8284 24.1729H77.4832Z" fill="white"/>
<path d="M81.9633 38.1018H82.2789C82.3527 39.2805 82.3573 40.4618 82.2925 41.6408C81.8501 50.0548 77.8003 57.9989 70.9747 63.8418L70.776 63.646C78.7765 56.7597 82.548 47.3576 81.9633 38.1018Z" fill="white"/>
<path d="M12.1591 24.1727C12.5376 23.5578 12.9357 22.954 13.3535 22.3613L13.5703 22.5743C13.201 23.099 12.8509 23.6318 12.5202 24.1727H12.1591Z" fill="white"/>
<path d="M7.72476 38.1018H8.04037C7.74784 42.4627 8.43776 46.8315 10.0697 50.9523C11.7016 55.073 14.2427 58.8626 17.544 62.099C28.897 73.2418 46.9392 75.8616 61.4041 69.5161L61.6221 69.729C55.788 72.3033 49.2981 73.4768 42.7962 73.133C36.2944 72.7893 30.0067 70.9402 24.5571 67.7694C19.1075 64.5986 14.6855 60.2162 11.7298 55.0571C8.77411 49.898 7.38756 44.1416 7.70773 38.3591C7.71227 38.2734 7.71908 38.1876 7.72476 38.1018Z" fill="white"/>
<path d="M29.8845 72.9844C29.3396 72.7826 28.7935 72.5666 28.2599 72.3426L28.3859 72.1055C28.915 72.3265 29.4576 72.5414 29.998 72.7412L29.8845 72.9844Z" fill="white"/>
<path d="M77.4141 61.1907L77.6514 61.3471C77.2983 61.7679 76.9305 62.1867 76.5592 62.5913L76.3321 62.4248C76.6988 62.0222 77.0633 61.6064 77.4141 61.1907Z" fill="white"/>
<path d="M79.3918 58.5994L79.6438 58.7366C79.335 59.1816 79.0114 59.6277 78.6799 60.0606L78.4358 59.9133C78.7639 59.4834 79.0852 59.0414 79.3918 58.5994Z" fill="white"/>
<path d="M83.6832 50.0278L83.967 50.1015C83.8013 50.6061 83.6264 51.1106 83.43 51.6081L83.1508 51.5234C83.3347 51.0309 83.5141 50.5274 83.6832 50.0278Z" fill="white"/>
<path d="M72.723 65.8601L72.925 66.0508C72.4959 66.4091 72.0509 66.7643 71.6024 67.1064L71.4106 66.9046C71.8545 66.5675 72.2961 66.2153 72.723 65.8601Z" fill="white"/>
<path d="M81.1037 55.8616L81.3694 55.9786C81.1049 56.4479 80.8256 56.9181 80.5395 57.3763L80.2818 57.2491C80.5656 56.794 80.8449 56.3268 81.1037 55.8616Z" fill="white"/>
<path d="M82.5378 52.9956L82.8125 53.0965C82.5979 53.5849 82.3663 54.0754 82.1313 54.5537L81.8623 54.4528C82.0939 53.9674 82.3209 53.481 82.5378 52.9956Z" fill="white"/>
<path d="M33.2223 74.0704C32.6604 73.913 32.0938 73.7414 31.5398 73.5658L31.642 73.3196C32.1915 73.4982 32.7534 73.6687 33.312 73.8241L33.2223 74.0704Z" fill="white"/>
<path d="M40.1953 75.1774L40.1567 75.4377C39.5709 75.3701 38.9794 75.2894 38.3993 75.1975L38.4504 74.9392C39.0271 75.03 39.614 75.1098 40.1953 75.1774Z" fill="white"/>
<path d="M36.719 74.6334L36.6554 74.8897C36.0798 74.7757 35.4985 74.6495 34.9286 74.5143L35.0058 74.26C35.5712 74.3952 36.1468 74.5204 36.719 74.6334Z" fill="white"/>
<path d="M70.047 67.9036L70.2297 68.1104C69.7654 68.4344 69.2863 68.7532 68.8072 69.059L68.6358 68.8451C69.1115 68.5423 69.586 68.2245 70.047 67.9036Z" fill="white"/>
<path d="M67.178 69.7312L67.3347 69.9512C66.8409 70.2378 66.3322 70.5183 65.8236 70.7857L65.6738 70.5587C66.1824 70.2943 66.6876 70.0158 67.178 69.7312Z" fill="white"/>
<path d="M59.8417 73.0783C60.213 72.9501 60.5831 72.8179 60.9475 72.6807L61.061 72.9229C60.6444 73.0803 60.2198 73.2256 59.7963 73.3749L59.8417 73.0783Z" fill="white"/>
<path d="M64.1389 71.3284L64.2786 71.5595C63.7563 71.8067 63.2227 72.0469 62.6891 72.2729L62.562 72.0358C63.091 71.8107 63.6212 71.5726 64.1389 71.3284Z" fill="white"/>
<path d="M75.1855 63.6128L75.4058 63.7884C75.0129 64.1789 74.6111 64.5674 74.1933 64.9428L73.9821 64.7582C74.3908 64.3898 74.795 64.0033 75.1855 63.6128Z" fill="white"/>
<path d="M76.2309 17.5125L76.458 17.345C76.8326 17.7486 77.2016 18.1694 77.5547 18.5882L77.3254 18.7467C76.97 18.3309 76.6033 17.9151 76.2309 17.5125Z" fill="white"/>
<path d="M71.4913 12.8391C71.9386 13.1792 72.3847 13.5324 72.8162 13.8916L72.6141 14.0834C72.1861 13.7272 71.7433 13.377 71.2994 13.0389L71.4913 12.8391Z" fill="white"/>
<path d="M74.0866 14.9946C74.4987 15.368 74.9085 15.7555 75.3025 16.1471L75.0822 16.3226C74.6906 15.9341 74.2875 15.5497 73.8765 15.1783L74.0866 14.9946Z" fill="white"/>
<path d="M68.9468 11.0601C69.3408 11.3144 69.7336 11.5747 70.1162 11.8401L69.9346 12.047C69.594 11.8129 69.2534 11.5828 68.9026 11.3567L68.9468 11.0601Z" fill="white"/>
<path d="M52.3896 5.1031L52.4407 4.84375C52.9652 4.9265 53.4931 5.02136 54.0154 5.12227L53.9768 5.38364C53.45 5.28474 52.9164 5.18383 52.3896 5.1031Z" fill="white"/>
<path d="M43.6943 75.4498L43.6557 75.7112C43.0801 75.689 42.4977 75.6547 41.9233 75.6103L41.9494 75.3479C42.5272 75.3933 43.1142 75.4276 43.6943 75.4498Z" fill="white"/>
<path d="M78.5925 19.8738C78.9252 20.3067 79.2522 20.7527 79.5632 21.1978L79.3123 21.337C79.0035 20.894 78.6788 20.452 78.3485 20.0251L78.5925 19.8738Z" fill="white"/>
<path d="M80.4679 22.5603C80.7562 23.0174 81.0355 23.4867 81.3035 23.9559L81.0401 24.075C80.7756 23.6088 80.4963 23.1426 80.2102 22.6885L80.4679 22.5603Z" fill="white"/>
<path d="M84.4029 31.3579C84.5471 31.8625 84.6788 32.3882 84.7969 32.9029L84.5074 32.9554C84.3938 32.4437 84.2587 31.9281 84.1157 31.4225L84.4029 31.3579Z" fill="white"/>
<path d="M82.0698 25.3838C82.3128 25.8621 82.5467 26.3526 82.7646 26.841L82.4899 26.9419C82.2731 26.4575 82.0415 25.9711 81.8008 25.4958L82.0698 25.3838Z" fill="white"/>
<path d="M83.3856 28.3245C83.5798 28.8199 83.7637 29.3275 83.9329 29.8311L83.649 29.9058C83.481 29.4012 83.2994 28.9027 83.1064 28.4102L83.3856 28.3245Z" fill="white"/>
<path d="M6.87771 50.2418C6.70742 49.7372 6.54848 49.2246 6.40429 48.7149L6.69153 48.6514C6.83457 49.1559 6.99238 49.6666 7.1604 50.1651L6.87771 50.2418Z" fill="white"/>
<path d="M8.92339 25.628L8.65206 25.5271C8.8916 25.0478 9.14592 24.5674 9.40931 24.0972L9.67383 24.2142C9.41271 24.6754 9.15954 25.1537 8.92339 25.628Z" fill="white"/>
<path d="M14.4399 17.6416L14.2129 17.4751C14.5864 17.0714 14.9735 16.6678 15.3652 16.2732L15.5854 16.4488C15.1949 16.8363 14.81 17.2379 14.4399 17.6416Z" fill="white"/>
<path d="M26.6684 71.6375C26.1484 71.3943 25.6262 71.1329 25.1187 70.8726L25.2674 70.6455C25.7726 70.9079 26.2892 71.1642 26.8069 71.4054L26.6684 71.6375Z" fill="white"/>
<path d="M12.3374 20.1544L12.0933 20.0071C12.4237 19.5732 12.7745 19.1403 13.1151 18.7205L13.3535 18.8769C13.0084 19.2947 12.6655 19.7235 12.3374 20.1544Z" fill="white"/>
<path d="M45.2792 4.55119V4.28882C45.8685 4.28882 46.4668 4.29891 47.0571 4.32111L47.0435 4.58348C46.4588 4.56128 45.8651 4.55018 45.2792 4.55119Z" fill="white"/>
<path d="M50.6459 4.86311L50.5596 4.85302C49.9772 4.78541 49.3868 4.7289 48.8044 4.68449L48.8305 4.42212C49.4164 4.46753 50.0101 4.52303 50.5982 4.59266L50.6833 4.60275L50.6459 4.86311Z" fill="white"/>
<path d="M41.7552 4.69551L41.7279 4.43415C42.316 4.38672 42.9132 4.35039 43.5013 4.32617L43.5149 4.58855C42.9257 4.61277 42.3387 4.64909 41.7552 4.69551Z" fill="white"/>
<path d="M31.4467 6.78647L31.3434 6.54024C31.8985 6.35658 32.4639 6.18099 33.0247 6.01953L33.1167 6.26879C32.5593 6.42924 31.9984 6.60382 31.4467 6.78647Z" fill="white"/>
<path d="M34.8095 5.81777L34.7311 5.56447C35.2988 5.42521 35.8812 5.29504 36.4602 5.17798L36.5249 5.4343C35.9516 5.55035 35.3748 5.67952 34.8095 5.81777Z" fill="white"/>
<path d="M38.2585 5.1184L38.2052 4.86006C38.7876 4.76621 39.3779 4.68246 39.9615 4.61182L40.0012 4.87217C39.4222 4.94281 38.8387 5.02556 38.2585 5.1184Z" fill="white"/>
<path d="M10.4946 22.8205L10.2369 22.6934C10.523 22.2352 10.8238 21.7771 11.1304 21.332L11.3835 21.4693C11.0781 21.9113 10.7784 22.3664 10.4946 22.8205Z" fill="white"/>
<path d="M15.5241 63.9154C15.1301 63.5259 14.7396 63.1232 14.3649 62.7185L14.592 62.551C14.9643 62.9547 15.3515 63.3583 15.7432 63.7398L15.5241 63.9154Z" fill="white"/>
<path d="M13.2661 61.4784C12.9118 61.0596 12.5633 60.6277 12.2295 60.1937L12.4736 60.0454C12.8051 60.4753 13.1548 60.9042 13.5022 61.3199L13.2661 61.4784Z" fill="white"/>
<path d="M11.2577 58.8699C10.9455 58.4238 10.6401 57.9616 10.3495 57.5085L10.6072 57.3804C10.8944 57.8335 11.1975 58.2886 11.5063 58.7306L11.2577 58.8699Z" fill="white"/>
<path d="M23.6075 70.047C23.1136 69.7624 22.6187 69.4657 22.1384 69.162L22.3098 68.947C22.7878 69.2498 23.2783 69.5444 23.7676 69.826L23.6075 70.047Z" fill="white"/>
<path d="M9.51282 56.1148C9.24602 55.6455 8.9883 55.1662 8.74421 54.6878L9.01442 54.5789C9.2551 55.0542 9.51168 55.5305 9.77734 55.9916L9.51282 56.1148Z" fill="white"/>
<path d="M20.7146 68.2194C20.2514 67.8975 19.7882 67.5624 19.3386 67.2214L19.5305 67.0195C19.9766 67.3576 20.4387 67.6906 20.8928 68.0105L20.7146 68.2194Z" fill="white"/>
<path d="M18.0139 66.1709C17.5825 65.8127 17.1545 65.4423 16.7412 65.069L16.9524 64.8843C17.3622 65.2556 17.7868 65.624 18.2148 65.9782L18.0139 66.1709Z" fill="white"/>
<path d="M5.96365 34.6375L5.67187 34.5971C5.76156 34.0764 5.86488 33.5526 5.97841 33.041L6.26904 33.0915C6.15551 33.6001 6.05334 34.1198 5.96365 34.6375Z" fill="white"/>
<path d="M8.04923 53.2318C7.83012 52.7434 7.62009 52.2449 7.42595 51.7484L7.70524 51.6626C7.89824 52.1551 8.106 52.6495 8.32397 53.1339L8.04923 53.2318Z" fill="white"/>
<path d="M7.63829 28.5494L7.35787 28.4647C7.5486 27.9682 7.75409 27.4686 7.96867 26.9802L8.24341 27.0761C8.02997 27.5605 7.82675 28.056 7.63829 28.5494Z" fill="white"/>
<path d="M6.64955 31.5606L6.36346 31.498C6.50196 30.9934 6.6575 30.4758 6.81758 29.9712L7.10254 30.0449C6.93678 30.5454 6.78919 31.055 6.64955 31.5606Z" fill="white"/>
<path d="M5.28707 37.7386C5.32453 37.2178 5.37676 36.688 5.44147 36.1643L5.73438 36.1926C5.6708 36.7123 5.62085 37.239 5.58225 37.7557L5.28707 37.7386Z" fill="white"/>
<path d="M6.00908 47.1709C5.89555 46.6573 5.78202 46.1335 5.69233 45.6158L5.9841 45.5745C6.07606 46.0881 6.18165 46.6078 6.29858 47.1184L6.00908 47.1709Z" fill="white"/>
<path d="M5.454 44.0497C5.38815 43.5289 5.33366 42.9991 5.29393 42.4754L5.5891 42.4583C5.62884 42.9769 5.6822 43.5027 5.74805 44.0204L5.454 44.0497Z" fill="white"/>
<path d="M5.21337 40.8972C5.19975 40.3725 5.19861 39.8406 5.21337 39.3169L5.50854 39.3229C5.49606 39.8427 5.49719 40.3704 5.50854 40.8911L5.21337 40.8972Z" fill="white"/>
<path d="M59.247 54.2955C59.247 54.6026 59.3495 54.9029 59.5415 55.1583C59.7334 55.4137 60.0063 55.6128 60.3256 55.7303C60.6449 55.8479 60.9962 55.8786 61.3351 55.8187C61.674 55.7588 61.9853 55.6109 62.2297 55.3937C62.4741 55.1765 62.6405 54.8997 62.7079 54.5985C62.7753 54.2972 62.7407 53.9849 62.6085 53.7012C62.4762 53.4174 62.2523 53.1748 61.9649 53.0042C61.6776 52.8335 61.3398 52.7424 60.9942 52.7424C60.5308 52.7424 60.0864 52.9061 59.7587 53.1973C59.4311 53.4886 59.247 53.8836 59.247 54.2955Z" fill="white"/>
<path d="M56.9083 53.5274C57.0279 53.0179 57.2669 52.5365 57.6099 52.1147L57.1115 51.6494L58.2161 50.715L58.7145 51.1802C59.2039 50.8963 59.7552 50.7075 60.3323 50.6262L60.3494 49.9844L61.8741 50.0157L61.8559 50.6585C62.0096 50.6865 62.1612 50.7225 62.31 50.7665C62.7162 50.8856 63.0992 51.0599 63.4453 51.2831L63.9699 50.8401L65.0211 51.822L64.4978 52.265C64.8167 52.6998 65.0291 53.1894 65.1211 53.702L65.8442 53.7182L65.8068 55.0734L65.0836 55.0573C64.9643 55.5671 64.7248 56.0486 64.3808 56.4701L64.8792 56.9353L63.7757 57.8707L63.2773 57.4055C62.7877 57.6901 62.236 57.8796 61.6584 57.9616L61.6413 58.6054L60.1166 58.5721L60.1337 57.9293C59.5598 57.8241 59.0179 57.6111 58.5442 57.3046L58.0209 57.7486L56.9696 56.7668L57.493 56.3238C57.1737 55.8887 56.9613 55.3987 56.8697 54.8857L56.1465 54.8696L56.1839 53.5153L56.9083 53.5274ZM59.4775 54.2611C59.4696 54.55 59.5664 54.8335 59.7537 55.0697C59.9409 55.3059 60.2087 55.4823 60.5174 55.573C60.6588 55.6152 60.8065 55.638 60.9556 55.6406C61.3177 55.6471 61.6705 55.5382 61.9501 55.3336C62.2296 55.1289 62.4175 54.842 62.4796 54.5249C62.5418 54.2077 62.4742 53.8813 62.2889 53.6047C62.1037 53.328 61.8132 53.1195 61.4699 53.0168C61.3282 52.9746 61.18 52.9518 61.0306 52.9492C60.6289 52.9403 60.2397 53.0734 59.9485 53.3194C59.6573 53.5654 59.4879 53.9041 59.4775 54.2611Z" fill="#F76031"/>
<path d="M61.4517 55.0009L61.9104 54.2945L61.4517 53.5891H60.5355L60.0769 54.2945L60.5355 55.0009H61.4517Z" fill="#161D21"/>
<path fill-rule="evenodd" clip-rule="evenodd" d="M12.9685 34.6294C12.9718 34.8617 13.0784 35.0833 13.2649 35.2459C13.4515 35.4085 13.7029 35.4989 13.9642 35.4973H29.4599C29.7212 35.4989 29.9726 35.4085 30.1591 35.2459C30.3457 35.0833 30.4523 34.8617 30.4556 34.6294V6.97313C30.4523 6.74081 30.3457 6.51906 30.1592 6.35629C29.9727 6.19351 29.7213 6.10292 29.4599 6.10427H13.9642C13.7027 6.10265 13.4511 6.19316 13.2645 6.35599C13.0779 6.51882 12.9715 6.74072 12.9685 6.97313V34.6294Z" fill="#161D21"/>
<path fill-rule="evenodd" clip-rule="evenodd" d="M14.5625 9.34961H14.9814H15.7818H16.6923H17.4518H17.5052H18.5224H21.0848H21.9726H22.8831H23.7357H25.0129H25.8065H28.3099H28.4007H29.1954H29.6518L29.6529 12.484L29.6541 12.483V13.3276L29.6529 13.3286V15.6587V18.4792H29.6541V19.1765H29.6529L29.6541 26.1759V26.8096V30.0449V30.8895V32.9966H29.5973H28.7776H26.9577H25.9223H25.8065H25.1355H25.0129H24.2273H24.1115H23.4201H20.9974H20.9576H20.0925H17.9445H17.0624H16.8683H15.8124H13.7712V31.0641V29.7724V29.4657V29.0751V28.3153V27.9843V27.1245V19.1765V18.4792V16.6376V15.6587V11.4859V10.7089V9.34961H14.5625Z" fill="white"/>
<path opacity="0.2" fill-rule="evenodd" clip-rule="evenodd" d="M20.8339 34.2903C20.8339 34.4446 20.8854 34.5954 20.9818 34.7237C21.0783 34.852 21.2153 34.952 21.3757 35.011C21.536 35.07 21.7125 35.0855 21.8827 35.0554C22.053 35.0253 22.2093 34.951 22.3321 34.8419C22.4548 34.7328 22.5384 34.5938 22.5722 34.4425C22.6061 34.2912 22.5887 34.1343 22.5223 33.9918C22.4559 33.8493 22.3434 33.7274 22.1991 33.6417C22.0548 33.556 21.8851 33.5103 21.7115 33.5103C21.4789 33.5105 21.2558 33.5928 21.0913 33.739C20.9268 33.8853 20.8342 34.0835 20.8339 34.2903Z" fill="white"/>
<path d="M17.7221 7.70681C17.7224 7.78532 17.7577 7.86052 17.8203 7.91594C17.8828 7.97136 17.9676 8.00248 18.0559 8.00248H25.3729C25.4611 8.00248 25.5458 7.97133 25.6081 7.91588C25.6705 7.86043 25.7056 7.78523 25.7056 7.70681C25.7056 7.62839 25.6705 7.55319 25.6081 7.49774C25.5458 7.44229 25.4611 7.41113 25.3729 7.41113H18.0514C17.9638 7.41219 17.8802 7.44378 17.8187 7.49908C17.7571 7.55439 17.7224 7.62899 17.7221 7.70681Z" fill="white"/>
<path d="M70.2209 26.6553H70.6125V30.8684H70.2209V26.6553Z" fill="white"/>
<path d="M82.0575 28.3628H58.7769V30.8685H58.3864V28.0146H82.448V30.814H82.0575V28.3628Z" fill="white"/>
<path d="M58.4556 11.0935H82.3787V26.7865H58.4556V11.0935Z" fill="white"/>
<path d="M80.4419 13.9471H60.3913V12.5667H80.4408L80.4419 13.9471Z" fill="#F76031"/>
<path d="M59.9996 25.6693H80.8347V22.2009H59.9996V25.6693Z" fill="#F76031"/>
<path d="M74.5552 20.5923H74.8936V20.893H74.5552V20.5923Z" fill="#161D21"/>
<path d="M75.2512 20.8931H75.6088V20.5903H75.2512V20.8931ZM75.9676 20.8931H76.3252V20.5903H75.963L75.9676 20.8931ZM76.6828 20.8931H77.0416V20.5903H76.6828V20.8931ZM77.3992 20.8931H77.7568V20.5903H77.3992V20.8931ZM78.1155 20.8931H78.4732V20.5903H78.1201L78.1155 20.8931ZM78.8308 20.8931H79.1895V20.5903H78.8308V20.8931ZM79.5472 20.8931H79.9048V20.5903H79.5472V20.8931Z" fill="#161D21"/>
<path d="M80.2637 20.5923H80.6021V20.893H80.2637V20.5923Z" fill="#161D21"/>
<path d="M80.2624 20.2746H80.603V19.9557H80.2624V20.2746ZM80.2624 19.6379H80.603V19.32H80.2624V19.6379ZM80.2624 19.0011H80.603V18.6832H80.2624V19.0011ZM80.2624 18.3653H80.603V18.0475H80.2624V18.3653ZM80.2624 17.7286H80.603V17.4107H80.2624V17.7286ZM80.2624 17.0928H80.603V16.7739H80.2624V17.0928ZM80.2624 16.4561H80.603V16.1382H80.2624V16.4561Z" fill="#161D21"/>
<path d="M80.2637 15.5183H80.6021V15.819H80.2637V15.5183Z" fill="#161D21"/>
<path d="M75.2512 15.8191H75.6088V15.5164H75.2512V15.8191ZM75.9676 15.8191H76.3252V15.5164H75.963L75.9676 15.8191ZM76.6828 15.8191H77.0416V15.5164H76.6828V15.8191ZM77.3992 15.8191H77.7568V15.5164H77.3992V15.8191ZM78.1155 15.8191H78.4732V15.5164H78.1201L78.1155 15.8191ZM78.8308 15.8191H79.1895V15.5164H78.8308V15.8191ZM79.5472 15.8191H79.9048V15.5164H79.5472V15.8191Z" fill="#161D21"/>
<path d="M74.5552 15.5183H74.8936V15.819H74.5552V15.5183Z" fill="#161D21"/>
<path d="M74.5554 20.2746H74.896V19.9557H74.5554V20.2746ZM74.5554 19.6379H74.896V19.32H74.5554V19.6379ZM74.5554 19.0011H74.896V18.6832H74.5554V19.0011ZM74.5554 18.3653H74.896V18.0465H74.5554V18.3653ZM74.5554 17.7286H74.896V17.4107H74.5554V17.7286ZM74.5554 17.0928H74.896V16.7739H74.5554V17.0928ZM74.5554 16.4561H74.896V16.1382H74.5554V16.4561Z" fill="#161D21"/>
<path d="M67.3939 20.5923H67.7322V20.893H67.3939V20.5923Z" fill="#161D21"/>
<path d="M68.0899 20.8931H68.4475V20.5903H68.0899V20.8931ZM68.8063 20.8931H69.1639V20.5903H68.8108L68.8063 20.8931ZM69.5215 20.8931H69.8803V20.5903H69.5215V20.8931ZM70.2379 20.8931H70.5955V20.5903H70.2379V20.8931ZM70.9543 20.8931H71.3085V20.5903H70.9509L70.9543 20.8931ZM71.6695 20.8931H72.0283V20.5903H71.6695V20.8931ZM72.3859 20.8931H72.7446V20.5903H72.3859V20.8931Z" fill="#161D21"/>
<path d="M73.1021 20.5923H73.4404V20.893H73.1021V20.5923Z" fill="#161D21"/>
<path d="M73.102 20.2746H73.4426V19.9557H73.102V20.2746ZM73.102 19.6379H73.4426V19.32H73.102V19.6379ZM73.102 19.0011H73.4426V18.6832H73.102V19.0011ZM73.102 18.3653H73.4426V18.0475H73.102V18.3653ZM73.102 17.7286H73.4426V17.4107H73.102V17.7286ZM73.102 17.0928H73.4426V16.7739H73.102V17.0928ZM73.102 16.4561H73.4426V16.1382H73.102V16.4561Z" fill="#161D21"/>
<path d="M73.1021 15.5183H73.4404V15.819H73.1021V15.5183Z" fill="#161D21"/>
<path d="M68.0899 15.8191H68.4475V15.5164H68.0899V15.8191ZM68.8063 15.8191H69.1639V15.5164H68.8108L68.8063 15.8191ZM69.5215 15.8191H69.8803V15.5164H69.5215V15.8191ZM70.2379 15.8191H70.5955V15.5164H70.2379V15.8191ZM70.9543 15.8191H71.3085V15.5164H70.9509L70.9543 15.8191ZM71.6695 15.8191H72.0283V15.5164H71.6695V15.8191ZM72.3859 15.8191H72.7446V15.5164H72.3859V15.8191Z" fill="#161D21"/>
<path d="M67.3939 15.5183H67.7322V15.819H67.3939V15.5183Z" fill="#161D21"/>
<path d="M67.3938 20.2746H67.7344V19.9557H67.3938V20.2746ZM67.3938 19.6379H67.7344V19.32H67.3938V19.6379ZM67.3938 19.0011H67.7344V18.6832H67.3938V19.0011ZM67.3938 18.3653H67.7344V18.0465H67.3938V18.3653ZM67.3938 17.7286H67.7344V17.4107H67.3938V17.7286ZM67.3938 17.0928H67.7344V16.7739H67.3938V17.0928ZM67.3938 16.4561H67.7344V16.1382H67.3938V16.4561Z" fill="#161D21"/>
<path d="M60.2322 20.5923H60.5706V20.893H60.2322V20.5923Z" fill="#161D21"/>
<path d="M60.9294 20.8931H61.287V20.5903H60.9294V20.8931ZM61.6446 20.8931H61.9989V20.5903H61.6412L61.6446 20.8931ZM62.361 20.8931H62.7186V20.5903H62.361V20.8931ZM63.0763 20.8931H63.4339V20.5903H63.0763V20.8931ZM63.7926 20.8931H64.1503V20.5903H63.7926V20.8931ZM64.509 20.8931H64.8666V20.5903H64.509V20.8931ZM65.2243 20.8931H65.583V20.5903H65.2243V20.8931Z" fill="#161D21"/>
<path d="M65.9407 20.5923H66.2791V20.893H65.9407V20.5923Z" fill="#161D21"/>
<path d="M65.9407 20.2746H66.2812V19.9557H65.9407V20.2746ZM65.9407 19.6379H66.2812V19.32H65.9407V19.6379ZM65.9407 19.0011H66.2812V18.6832H65.9407V19.0011ZM65.9407 18.3653H66.2812V18.0475H65.9407V18.3653ZM65.9407 17.7286H66.2812V17.4107H65.9407V17.7286ZM65.9407 17.0928H66.2812V16.7739H65.9407V17.0928ZM65.9407 16.4561H66.2812V16.1382H65.9407V16.4561Z" fill="#161D21"/>
<path d="M65.9407 15.5183H66.2791V15.819H65.9407V15.5183Z" fill="#161D21"/>
<path d="M60.9296 15.8191H61.286V15.5164H60.9296V15.8191ZM61.6448 15.8191H61.999V15.5164H61.6414L61.6448 15.8191ZM62.3612 15.8191H62.7188V15.5164H62.3612V15.8191ZM63.0764 15.8191H63.434V15.5164H63.0764V15.8191ZM63.7928 15.8191H64.1504V15.5164H63.7928V15.8191ZM64.5092 15.8191H64.8668V15.5164H64.5092V15.8191ZM65.2244 15.8191H65.582V15.5164H65.2244V15.8191Z" fill="#161D21"/>
<path d="M60.2322 15.5183H60.5706V15.819H60.2322V15.5183Z" fill="#161D21"/>
<path d="M60.2324 20.2746H60.573V19.9557H60.2324V20.2746ZM60.2324 19.6379H60.573V19.32H60.2324V19.6379ZM60.2324 19.0011H60.573V18.6832H60.2324V19.0011ZM60.2324 18.3653H60.573V18.0465H60.2324V18.3653ZM60.2324 17.7286H60.573V17.4107H60.2324V17.7286ZM60.2324 17.0928H60.573V16.7739H60.2324V17.0928ZM60.2324 16.4561H60.573V16.1382H60.2324V16.4561Z" fill="#161D21"/>
<path d="M76.2639 16.9888H79.051V19.4662H76.2639V16.9888Z" fill="#FFD11D"/>
<path d="M69.0071 16.9888H71.7954V19.4662H69.0071V16.9888Z" fill="#FFD11D"/>
<path d="M61.8604 16.9888H64.6487V19.4662H61.8604V16.9888Z" fill="#FFD11D"/>
<path d="M78.6005 30.1489H85.8926V34.36H78.6005V30.1489Z" fill="white"/>
<path d="M66.6855 30.1489H73.9775V34.36H66.6855V30.1489Z" fill="white"/>
<path d="M54.7705 30.1489H62.0625V34.36H54.7705V30.1489Z" fill="white"/>
<path d="M80.1171 32.8977H84.4392V33.1359H80.1171V32.8977Z" fill="#161D21"/>
<path d="M81.9813 32.1357H84.4392V32.3739H81.9813V32.1357Z" fill="#161D21"/>
<path d="M81.9813 31.3728H84.4392V31.611H81.9813V31.3728Z" fill="#161D21"/>
<path d="M68.3271 32.8977H72.6492V33.1359H68.3271V32.8977Z" fill="#161D21"/>
<path d="M70.1912 32.1357H72.6492V32.3739H70.1912V32.1357Z" fill="#161D21"/>
<path d="M70.1912 31.3728H72.6492V31.611H70.1912V31.3728Z" fill="#161D21"/>
<path d="M56.412 32.8977H60.7341V33.1359H56.412V32.8977Z" fill="#161D21"/>
<path d="M58.2762 32.1357H60.7341V32.3739H58.2762V32.1357Z" fill="#161D21"/>
<path d="M58.2762 31.3728H60.7341V31.611H58.2762V31.3728Z" fill="#161D21"/>
<path d="M17.0034 20.9738H17.2815V20.7609H17.2418V20.7256H17.0034V20.9738Z" fill="#161D21"/>
<path d="M17.5926 20.9729H17.9025V20.761H17.5926V20.9729ZM18.2136 20.9729H18.5235V20.761H18.2136V20.9729ZM18.8346 20.9729H19.1446V20.761H18.8346V20.9729ZM19.4556 20.9729H19.7656V20.761H19.4556V20.9729ZM20.0766 20.9729H20.3866V20.761H20.0766V20.9729ZM20.6976 20.9729H21.0087V20.761H20.6976V20.9729ZM21.3187 20.9729H21.6297V20.761H21.3187V20.9729ZM21.9397 20.9729H22.2507V20.761H21.9397V20.9729ZM22.5607 20.9729H22.8717V20.761H22.5607V20.9729ZM23.1817 20.9729H23.4928V20.761H23.1817V20.9729ZM23.8027 20.9729H24.1138V20.761H23.8027V20.9729ZM24.4237 20.9729H24.7348V20.761H24.4203L24.4237 20.9729ZM25.0447 20.9729H25.3558V20.761H25.0447V20.9729ZM25.6657 20.9729H25.9768V20.761H25.6691L25.6657 20.9729Z" fill="#161D21"/>
<path d="M26.2879 20.9738H26.5671V20.7256H26.3276V20.7609H26.2879V20.9738Z" fill="#161D21"/>
<path d="M26.3277 20.4531H26.5662V20.1816H26.3277V20.4531ZM26.3277 19.9101H26.5662V19.6377H26.3277V19.9101ZM26.3277 19.3662H26.5662V19.0948H26.3277V19.3662ZM26.3277 18.8223H26.5662V18.5508H26.3277V18.8223ZM26.3277 18.2794H26.5662V18.0079H26.3277V18.2794ZM26.3277 17.7355H26.5662V17.464H26.3277V17.7355ZM26.3277 17.1926H26.5662V16.9201H26.3277V17.1926ZM26.3277 16.6486H26.5662V16.3772H26.3277V16.6486ZM26.3277 16.1047H26.5662V15.8333H26.3277V16.1047Z" fill="#161D21"/>
<path d="M26.3276 15.5617H26.5671V15.3135H26.2879V15.5264H26.3276V15.5617Z" fill="#161D21"/>
<path d="M17.5926 15.5264H17.9025V15.3135H17.5926V15.5264ZM18.2136 15.5264H18.5235V15.3135H18.2136V15.5264ZM18.8346 15.5264H19.1446V15.3135H18.8346V15.5264ZM19.4556 15.5264H19.7656V15.3135H19.4556V15.5264ZM20.0766 15.5264H20.3866V15.3135H20.0766V15.5264ZM20.6976 15.5264H21.0087V15.3135H20.6976V15.5264ZM21.3187 15.5264H21.6297V15.3135H21.3187V15.5264ZM21.9397 15.5264H22.2507V15.3135H21.9397V15.5264ZM22.5607 15.5264H22.8717V15.3135H22.5607V15.5264ZM23.1817 15.5264H23.4928V15.3135H23.1817V15.5264ZM23.8027 15.5264H24.1138V15.3135H23.8027V15.5264ZM24.4237 15.5264H24.7348V15.3135H24.4203L24.4237 15.5264ZM25.0447 15.5264H25.3558V15.3135H25.0447V15.5264ZM25.6657 15.5264H25.9768V15.3135H25.6691L25.6657 15.5264Z" fill="#161D21"/>
<path d="M17.0034 15.5617H17.2418V15.5264H17.2815V15.3135H17.0034V15.5617Z" fill="#B0B0B0"/>
<path d="M17.0024 20.4531H17.2419V20.1816H17.0024V20.4531ZM17.0024 19.9101H17.2419V19.6377H17.0024V19.9101ZM17.0024 19.3662H17.2419V19.0948H17.0024V19.3662ZM17.0024 18.8223H17.2419V18.5508H17.0024V18.8223ZM17.0024 18.2794H17.2419V18.0079H17.0024V18.2794ZM17.0024 17.7355H17.2419V17.464H17.0024V17.7355ZM17.0024 17.1926H17.2419V16.9201H17.0024V17.1926ZM17.0024 16.6486H17.2419V16.3772H17.0024V16.6486ZM17.0024 16.1047H17.2419V15.8333H17.0024V16.1047Z" fill="#161D21"/>
<path d="M15.8782 14.2227H25.2036V19.6699H15.8782V14.2227Z" fill="#F76031"/>
<path d="M16.1565 19.4208L19.0833 17.7043L21.0031 18.6246L22.4858 17.2441L24.9233 19.4208H16.1565Z" fill="white"/>
<path d="M19.3738 16.7618C19.3738 16.876 19.4119 16.9876 19.4833 17.0825C19.5546 17.1774 19.656 17.2514 19.7747 17.2951C19.8934 17.3388 20.0239 17.3502 20.1499 17.3279C20.2759 17.3057 20.3916 17.2507 20.4824 17.17C20.5732 17.0892 20.6351 16.9864 20.6601 16.8744C20.6852 16.7624 20.6723 16.6464 20.6232 16.5409C20.574 16.4354 20.4908 16.3453 20.384 16.2818C20.2772 16.2184 20.1517 16.1846 20.0232 16.1846C19.9379 16.1846 19.8535 16.1995 19.7747 16.2285C19.6959 16.2575 19.6243 16.3 19.564 16.3536C19.5037 16.4072 19.4559 16.4709 19.4233 16.5409C19.3906 16.6109 19.3738 16.686 19.3738 16.7618Z" fill="white"/>
<path d="M16.1098 19.4904H24.9731V14.4014H16.1098V19.4904ZM24.8131 19.3522H16.2699V14.5396H24.8131V19.3522Z" fill="white"/>
<path d="M24.4487 27.0527H24.6792V27.2566H24.4487V27.0527Z" fill="#161D21"/>
<path d="M24.9211 27.2577H25.1652V27.0559H24.9211V27.2577ZM25.4082 27.2577H25.6511V27.0559H25.4082V27.2577ZM25.8952 27.2577H26.1382V27.0559H25.8963L25.8952 27.2577ZM26.3823 27.2577H26.6252V27.0559H26.3823V27.2577ZM26.8682 27.2577H27.1122V27.0559H26.8682V27.2577ZM27.3552 27.2577H27.5993V27.0559H27.3563L27.3552 27.2577ZM27.8422 27.2577H28.0852V27.0559H27.8422V27.2577Z" fill="#161D21"/>
<path d="M28.3281 27.0527H28.5586V27.2566H28.3281V27.0527Z" fill="#161D21"/>
<path d="M28.3281 26.8369H28.5552V26.6199H28.3281V26.8369ZM28.3281 26.4039H28.5552V26.188H28.3281V26.4039ZM28.3281 25.972H28.5552V25.7551H28.3281V25.972ZM28.3281 25.5391H28.5552V25.3232H28.3281V25.5391ZM28.3281 25.1062H28.5552V24.8902H28.3281V25.1062ZM28.3281 24.6733H28.5552V24.4583H28.3281V24.6733ZM28.3281 24.2414H28.5552V24.0244H28.3281V24.2414Z" fill="#161D21"/>
<path d="M28.3281 23.6047H28.5586V23.8096H28.3281V23.6047Z" fill="#161D21"/>
<path d="M24.9211 23.8085H25.1652V23.6067H24.9211V23.8085ZM25.4082 23.8085H25.6511V23.6067H25.4082V23.8085ZM25.8952 23.8085H26.1382V23.6067H25.8963L25.8952 23.8085ZM26.3823 23.8085H26.6252V23.6067H26.3823V23.8085ZM26.8682 23.8085H27.1122V23.6067H26.8682V23.8085ZM27.3552 23.8085H27.5993V23.6067H27.3563L27.3552 23.8085ZM27.8422 23.8085H28.0852V23.6067H27.8422V23.8085Z" fill="#161D21"/>
<path d="M24.4487 23.6047H24.6792V23.8096H24.4487V23.6047Z" fill="#161D21"/>
<path d="M24.4487 26.8369H24.6758V26.6199H24.4487V26.8369ZM24.4487 26.4039H24.6758V26.188H24.4487V26.4039ZM24.4487 25.972H24.6758V25.7551H24.4487V25.972ZM24.4487 25.5391H24.6758V25.3222H24.4487V25.5391ZM24.4487 25.1062H24.6758V24.8902H24.4487V25.1062ZM24.4487 24.6733H24.6758V24.4583H24.4487V24.6733ZM24.4487 24.2414H24.6758V24.0244H24.4487V24.2414Z" fill="#161D21"/>
<path d="M19.5805 27.0527H19.8098V27.2566H19.5805V27.0527Z" fill="#161D21"/>
<path d="M20.053 27.2577H20.297V27.0559H20.053V27.2577ZM20.54 27.2577H20.7875V27.0559H20.5445L20.54 27.2577ZM21.027 27.2577H21.27V27.0559H21.027V27.2577ZM21.5141 27.2577H21.757V27.0559H21.5141V27.2577ZM22 27.2577H22.2441V27.0559H22V27.2577ZM22.487 27.2577H22.73V27.0559H22.4904L22.487 27.2577ZM22.9741 27.2577H23.217V27.0559H22.9741V27.2577Z" fill="#161D21"/>
<path d="M23.4611 27.0527H23.6904V27.2566H23.4611V27.0527Z" fill="#161D21"/>
<path d="M23.46 26.8369H23.687V26.6199H23.46V26.8369ZM23.46 26.4039H23.687V26.188H23.46V26.4039ZM23.46 25.972H23.687V25.7551H23.46V25.972ZM23.46 25.5391H23.687V25.3232H23.46V25.5391ZM23.46 25.1062H23.687V24.8902H23.46V25.1062ZM23.46 24.6733H23.687V24.4583H23.46V24.6733ZM23.46 24.2414H23.687V24.0244H23.46V24.2414Z" fill="#161D21"/>
<path d="M23.4611 23.6047H23.6904V23.8096H23.4611V23.6047Z" fill="#161D21"/>
<path d="M20.053 23.8085H20.297V23.6067H20.053V23.8085ZM20.54 23.8085H20.7875V23.6067H20.5445L20.54 23.8085ZM21.027 23.8085H21.27V23.6067H21.027V23.8085ZM21.5141 23.8085H21.757V23.6067H21.5141V23.8085ZM22 23.8085H22.2441V23.6067H22V23.8085ZM22.487 23.8085H22.73V23.6067H22.4904L22.487 23.8085ZM22.9741 23.8085H23.217V23.6067H22.9741V23.8085Z" fill="#161D21"/>
<path d="M19.5805 23.6047H19.8098V23.8096H19.5805V23.6047Z" fill="#161D21"/>
<path d="M19.5806 26.8369H19.8076V26.6199H19.5806V26.8369ZM19.5806 26.4039H19.8076V26.188H19.5806V26.4039ZM19.5806 25.972H19.8076V25.7551H19.5806V25.972ZM19.5806 25.5391H19.8076V25.3222H19.5806V25.5391ZM19.5806 25.1062H19.8076V24.8902H19.5806V25.1062ZM19.5806 24.6733H19.8076V24.4583H19.5806V24.6733ZM19.5806 24.2414H19.8076V24.0244H19.5806V24.2414Z" fill="#161D21"/>
<path d="M14.7112 27.0527H14.9417V27.2566H14.7112V27.0527Z" fill="#161D21"/>
<path d="M15.1848 27.2577H15.4289V27.0559H15.1848V27.2577ZM15.6718 27.2577H15.9148V27.0559H15.6718V27.2577ZM16.1589 27.2577H16.4018V27.0559H16.1589V27.2577ZM16.6448 27.2577H16.8889V27.0559H16.6448V27.2577ZM17.1318 27.2577H17.3759V27.0559H17.1318V27.2577ZM17.6189 27.2577H17.8618V27.0559H17.6189V27.2577ZM18.1059 27.2577H18.3489V27.0559H18.1059V27.2577Z" fill="#161D21"/>
<path d="M18.5929 27.0527H18.8223V27.2566H18.5929V27.0527Z" fill="#161D21"/>
<path d="M18.5918 26.8369H18.8188V26.6199H18.5918V26.8369ZM18.5918 26.4039H18.8188V26.188H18.5918V26.4039ZM18.5918 25.972H18.8188V25.7551H18.5918V25.972ZM18.5918 25.5391H18.8188V25.3232H18.5918V25.5391ZM18.5918 25.1062H18.8188V24.8902H18.5918V25.1062ZM18.5918 24.6733H18.8188V24.4583H18.5918V24.6733ZM18.5918 24.2414H18.8188V24.0244H18.5918V24.2414Z" fill="#161D21"/>
<path d="M18.5929 23.6047H18.8223V23.8096H18.5929V23.6047Z" fill="#161D21"/>
<path d="M15.1848 23.8085H15.4289V23.6067H15.1848V23.8085ZM15.6718 23.8085H15.9148V23.6067H15.6718V23.8085ZM16.1589 23.8085H16.4018V23.6067H16.1589V23.8085ZM16.6448 23.8085H16.8889V23.6067H16.6448V23.8085ZM17.1318 23.8085H17.3759V23.6067H17.1318V23.8085ZM17.6189 23.8085H17.8618V23.6067H17.6189V23.8085ZM18.1059 23.8085H18.3489V23.6067H18.1059V23.8085Z" fill="#161D21"/>
<path d="M14.7112 23.6047H14.9417V23.8096H14.7112V23.6047Z" fill="#161D21"/>
<path d="M14.7124 26.8369H14.9395V26.6199H14.7124V26.8369ZM14.7124 26.4039H14.9395V26.188H14.7124V26.4039ZM14.7124 25.972H14.9395V25.7551H14.7124V25.972ZM14.7124 25.5391H14.9395V25.3222H14.7124V25.5391ZM14.7124 25.1062H14.9395V24.8902H14.7124V25.1062ZM14.7124 24.6733H14.9395V24.4583H14.7124V24.6733ZM14.7124 24.2414H14.9395V24.0244H14.7124V24.2414Z" fill="#161D21"/>
<path d="M77.5456 68.3668C77.5453 68.3762 77.5471 68.3856 77.5509 68.3944C77.5546 68.4032 77.5603 68.4112 77.5676 68.418C77.5749 68.4249 77.5836 68.4304 77.5933 68.4342C77.6029 68.4381 77.6134 68.4402 77.6239 68.4405H78.8444C78.8656 68.4397 78.8856 68.4315 78.9 68.4177C78.9145 68.4039 78.9222 68.3856 78.9216 68.3668V66.2365C78.9222 66.2177 78.9145 66.1994 78.9 66.1856C78.8856 66.1718 78.8656 66.1636 78.8444 66.1628H77.6239C77.6134 66.1631 77.6029 66.1652 77.5933 66.1691C77.5836 66.1729 77.5749 66.1784 77.5676 66.1852C77.5603 66.1921 77.5546 66.2001 77.5509 66.2089C77.5471 66.2177 77.5453 66.2271 77.5456 66.2365V68.3668Z" fill="#F76031"/>
<path d="M77.1823 66.1597H77.6228V68.4403H77.1823C77.1717 68.4401 77.1613 68.4379 77.1516 68.4341C77.142 68.4302 77.1332 68.4247 77.126 68.4179C77.1187 68.4111 77.113 68.403 77.1092 68.3942C77.1055 68.3854 77.1037 68.3761 77.104 68.3666V66.2364C77.1032 66.2267 77.1046 66.217 77.1082 66.2079C77.1118 66.1987 77.1174 66.1903 77.1247 66.1831C77.132 66.176 77.1409 66.1702 77.1508 66.1662C77.1607 66.1621 77.1714 66.1599 77.1823 66.1597Z" fill="white"/>
<path d="M57.9254 66.1597H58.8983H71.6943H73.806H77.1438V68.4413H73.806H71.6943H58.8983H57.9254H53.6896L53.6884 66.1597H57.9254Z" fill="#FFD11D"/>
<path d="M57.9254 66.9944H58.8983H71.6943H73.806H77.1438V67.6059H73.806H71.6943H58.8983H57.9254H53.6884V66.9944H57.9254Z" fill="#161D21"/>
<path d="M53.6999 68.4474L54.3584 67.3L53.7011 66.1526L50.6948 67.3L53.6999 68.4474Z" fill="white"/>
<path d="M51.948 66.8218V67.7784L50.6946 67.3001L51.948 66.8218Z" fill="#161D21"/>
<path d="M69.8383 44.4543H72.9558V74.9372H69.8383V44.4543Z" fill="#FFD11D"/>
<path d="M71.397 72.3972C71.2426 72.397 71.0917 72.4375 70.9632 72.5136C70.8348 72.5897 70.7346 72.698 70.6755 72.8247C70.6163 72.9514 70.6007 73.0909 70.6308 73.2255C70.6609 73.3601 70.7352 73.4837 70.8443 73.5807C70.9535 73.6777 71.0925 73.7438 71.2439 73.7705C71.3953 73.7972 71.5523 73.7834 71.6948 73.7308C71.8374 73.6782 71.9592 73.5892 72.0448 73.475C72.1304 73.3609 72.176 73.2267 72.1758 73.0895C72.1755 72.906 72.0933 72.73 71.9473 72.6003C71.8013 72.4705 71.6034 72.3975 71.397 72.3972Z" fill="white"/>
<path d="M70.1446 59.1594H71.7397V59.4914H70.1446V59.1594Z" fill="white"/>
<path d="M70.1447 60.2209H71.0518V60.5519H70.1447V60.2209Z" fill="white"/>
<path d="M70.1447 61.2815H71.0518V61.6125H70.1447V61.2815Z" fill="white"/>
<path d="M70.1447 62.3433H71.0518V62.6753H70.1447V62.3433Z" fill="white"/>
<path d="M70.1446 63.3401H71.7397V63.6711H70.1446V63.3401Z" fill="white"/>
<path d="M70.1447 64.4019H71.0518V64.7328H70.1447V64.4019Z" fill="white"/>
<path d="M70.1447 65.4624H71.0518V65.7944H70.1447V65.4624Z" fill="white"/>
<path d="M70.1447 66.5239H71.0518V66.8549H70.1447V66.5239Z" fill="white"/>
<path d="M70.1446 67.521H71.7397V67.852H70.1446V67.521Z" fill="white"/>
<path d="M70.1447 68.5828H71.0518V68.9138H70.1447V68.5828Z" fill="white"/>
<path d="M70.1447 69.6433H71.0518V69.9743H70.1447V69.6433Z" fill="white"/>
<path d="M70.1447 70.7048H71.0518V71.0358H70.1447V70.7048Z" fill="white"/>
<path d="M70.1446 46.5322H71.7397V46.8632H70.1446V46.5322Z" fill="white"/>
<path d="M70.1447 47.5938H71.0518V47.9247H70.1447V47.5938Z" fill="white"/>
<path d="M70.1447 48.6543H71.0518V48.9853H70.1447V48.6543Z" fill="white"/>
<path d="M70.1447 49.7148H71.0518V50.0468H70.1447V49.7148Z" fill="white"/>
<path d="M70.1446 50.7129H71.7397V51.0439H70.1446V50.7129Z" fill="white"/>
<path d="M70.1447 51.7747H71.0518V52.1057H70.1447V51.7747Z" fill="white"/>
<path d="M70.1447 52.8352H71.0518V53.1672H70.1447V52.8352Z" fill="white"/>
<path d="M70.1447 53.8958H71.0518V54.2278H70.1447V53.8958Z" fill="white"/>
<path d="M70.1446 54.8938H71.7397V55.2258H70.1446V54.8938Z" fill="white"/>
<path d="M70.1447 55.9543H71.0518V56.2853H70.1447V55.9543Z" fill="white"/>
<path d="M70.1447 57.0161H71.0518V57.3471H70.1447V57.0161Z" fill="white"/>
<path d="M70.1447 58.0767H71.0518V58.4087H70.1447V58.0767Z" fill="white"/>
<path d="M22.4768 20.1323H56.0171V60.094H22.4768V20.1323Z" fill="white"/>
<path d="M25.332 22.3523H58.8711V62.314H25.332V22.3523Z" fill="#161D21"/>
<path d="M25.332 24.1475H58.8711V27.5351H25.332V24.1475Z" fill="white"/>
<path d="M25.332 22.3523H58.8711V25.3151H25.332V22.3523Z" fill="#161D21"/>
<path d="M43.171 32.166H55.8853V32.8664H43.171V32.166Z" fill="white"/>
<path d="M43.1711 34.4094H50.4019V35.1098H43.1711V34.4094Z" fill="white"/>
<path d="M43.1709 36.6538H53.4727V37.3552H43.1709V36.6538Z" fill="#FFD11D"/>
<path d="M43.1711 38.8979H50.4019V39.5993H43.1711V38.8979Z" fill="white"/>
<path d="M28.7242 38.8979H41.4385V39.5993H28.7242V38.8979Z" fill="#F76031"/>
<path d="M37.4013 36.6538H41.4385V37.3552H37.4013V36.6538Z" fill="white"/>
<path d="M30.0254 36.6538H34.0625V37.3552H30.0254V36.6538Z" fill="white"/>
<path d="M34.2077 34.4094H41.4385V35.1098H34.2077V34.4094Z" fill="white"/>
<path d="M43.5718 23.5481H50.8025V24.2484H43.5718V23.5481Z" fill="white"/>
<path d="M34.6075 23.5481H41.8394V24.2484H34.6075V23.5481Z" fill="white"/>
<path d="M43.5718 26.1526H50.8025V26.8539H43.5718V26.1526Z" fill="#161D21"/>
<path d="M49.3436 41.8628H55.8853V42.5641H49.3436V41.8628Z" fill="white"/>
<path d="M48.8953 44.1072H51.4531V44.8085H48.8953V44.1072Z" fill="white"/>
<path d="M51.0137 46.3516H53.5295V47.0519H51.0137V46.3516Z" fill="#FFD11D"/>
<path d="M49.3436 48.5957H53.064V49.2971H49.3436V48.5957Z" fill="white"/>
<path d="M41.9108 48.5957H48.4524V49.2971H41.9108V48.5957Z" fill="white"/>
<path d="M44.732 46.3516H48.4524V47.0519H44.732V46.3516Z" fill="#FFD11D"/>
<path d="M43.6331 44.1072H47.3535V44.8085H43.6331V44.1072Z" fill="white"/>
<path d="M30.7929 48.5957H37.3345V49.2971H30.7929V48.5957Z" fill="white"/>
<path d="M33.6141 46.3516H37.3345V47.0529H33.6141V46.3516Z" fill="white"/>
<path d="M33.6141 44.1072H37.3345V44.8085H33.6141V44.1072Z" fill="white"/>
<path d="M33.6141 41.8628H37.3345V42.5641H33.6141V41.8628Z" fill="white"/>
<path d="M38.2257 41.8628H44.7673V42.5641H38.2257V41.8628Z" fill="white"/>
<path d="M38.2257 44.1072H41.946V44.8085H38.2257V44.1072Z" fill="#F76031"/>
<path d="M38.2257 46.3516H41.946V47.0529H38.2257V46.3516Z" fill="white"/>
<path d="M43.171 51.5596H55.8853V52.2609H43.171V51.5596Z" fill="white"/>
<path d="M43.1711 53.804H50.4019V54.5053H43.1711V53.804Z" fill="white"/>
<path d="M47.5942 56.0483H52.7576V56.7497H47.5942V56.0483Z" fill="white"/>
<path d="M43.1711 58.2925H50.4019V58.9938H43.1711V58.2925Z" fill="white"/>
<path d="M28.7242 58.2925H41.4385V58.9938H28.7242V58.2925Z" fill="white"/>
<path d="M38.3291 56.0483H45.5598V56.7497H38.3291V56.0483Z" fill="white"/>
<path d="M34.2077 53.804H41.4385V54.5053H34.2077V53.804Z" fill="#FFD11D"/>
<path fill-rule="evenodd" clip-rule="evenodd" d="M27.7583 41.3604V41.3815H27.756V41.6237L27.7572 41.9164H27.7583V41.988H27.7572V42.7146H27.7583V42.7802H27.7572V43.1152H27.7583V43.203H27.7572L27.7583 43.4462V43.4846H1.49306V41.3604H27.7583Z" fill="#FFD11D"/>
<path d="M1.2988 43.6561H27.9512V41.1877H1.2988V43.6561ZM27.5629 43.312H1.68593V41.5319H27.5618L27.5629 43.312Z" fill="#FFD11D"/>
<path d="M1.49281 41.3604H4.84082V43.4846H1.49281V41.3604Z" fill="white"/>
<path d="M1.29879 43.6561H5.03394V41.1877H1.29879V43.6561ZM4.6468 43.312H1.68593V41.5319H4.6468V43.312Z" fill="#FFD11D"/>
<path d="M14.3639 42.0596H17.8254V42.7771H14.3639V42.0596Z" fill="white"/>
<path d="M18.501 42.0596H21.9614V42.7771H18.501V42.0596Z" fill="white"/>
<path d="M22.638 42.0596H26.0984V42.7771H22.638V42.0596Z" fill="white"/>
<path d="M8.52036 66.196H28.9819V54.5183H8.52036V66.196Z" fill="white"/>
<path d="M9.27989 55.2197H28.2451V64.1435H9.27989V55.2197Z" fill="#F76031"/>
<path d="M9.27989 64.9023H28.2451V65.6794H9.27989V64.9023Z" fill="#161D21"/>
<path d="M18.7438 62.4068C19.3112 62.4066 19.8658 62.2568 20.3375 61.9765C20.8092 61.6961 21.1767 61.2977 21.3936 60.8317C21.6106 60.3656 21.6671 59.8529 21.5562 59.3582C21.4453 58.8636 21.1719 58.4093 20.7705 58.0528C20.3691 57.6963 19.8578 57.4536 19.3012 57.3554C18.7447 57.2572 18.1679 57.3079 17.6437 57.5011C17.1196 57.6943 16.6717 58.0213 16.3566 58.4408C16.0416 58.8603 15.8735 59.3534 15.8737 59.8577C15.875 60.5338 16.1778 61.1819 16.7158 61.6597C17.2539 62.1376 17.9832 62.4063 18.7438 62.4068ZM18.7438 57.462C19.2772 57.4622 19.7986 57.603 20.242 57.8666C20.6854 58.1301 21.031 58.5046 21.235 58.9427C21.4391 59.3807 21.4924 59.8628 21.3883 60.3278C21.2841 60.7928 21.0272 61.2199 20.6501 61.5552C20.2729 61.8904 19.7923 62.1188 19.2692 62.2113C18.746 62.3039 18.2038 62.2565 17.7109 62.0751C17.2181 61.8938 16.7968 61.5866 16.5003 61.1925C16.2038 60.7983 16.0454 60.3349 16.0452 59.8608C16.0447 59.5454 16.1142 59.2331 16.2496 58.9416C16.385 58.6501 16.5836 58.3852 16.8342 58.1619C17.0849 57.9387 17.3825 57.7616 17.7101 57.6406C18.0378 57.5197 18.389 57.4573 18.7438 57.457V57.462Z" fill="white"/>
<path d="M16.765 59.8577L18.2761 60.6327L19.7883 61.4097V59.8577V58.3057L18.2761 59.0817L16.765 59.8577Z" fill="white" stroke="white" stroke-miterlimit="10"/>
<path d="M23.8673 65.2909C23.8676 65.3938 23.9138 65.4925 23.9957 65.5653C24.0776 65.6381 24.1886 65.6791 24.3044 65.6794H25.7939C25.91 65.6794 26.0213 65.6385 26.1034 65.5656C26.1856 65.4928 26.2319 65.394 26.2322 65.2909C26.2322 65.2398 26.2208 65.1891 26.1988 65.1419C26.1768 65.0947 26.1445 65.0519 26.1038 65.0158C26.063 64.9797 26.0147 64.9511 25.9616 64.9316C25.9084 64.9122 25.8514 64.9022 25.7939 64.9023H24.3067C24.1908 64.9023 24.0796 64.9433 23.9976 65.0161C23.9157 65.089 23.8696 65.1878 23.8696 65.2909H23.8673Z" fill="white"/>
</g>
<defs>
<clipPath id="clip0_1061_4420">
<rect width="90" height="80" fill="white" transform="matrix(-1 0 0 1 90 0)"/>
</clipPath>
</defs>
</svg>
