<svg width="88" height="80" viewBox="0 0 88 80" fill="none" xmlns="http://www.w3.org/2000/svg">
<g clip-path="url(#clip0_1061_4921)">
<path d="M56.0335 20.0222C55.4555 20.1827 54.8332 20.3761 54.4922 20.9215C54.3837 21.0818 54.3257 21.2711 54.3257 21.4649C54.3257 21.6588 54.3837 21.8481 54.4922 22.0084C55.1897 22.9754 57.0816 21.6409 57.8465 22.5886C58.0062 22.8026 58.0755 23.0711 58.0394 23.3361C58.0034 23.601 57.8648 23.841 57.6538 24.0042C56.8928 24.6289 55.9565 24.422 55.0779 24.3021C53.0588 24.0313 50.822 24.3233 49.4734 26.0271C48.7124 26.9941 48.4928 28.3034 49.0476 29.398C49.8953 31.069 51.9799 31.2875 53.7678 31.3513C63.478 31.6917 73.2613 32.0301 82.8597 30.4694C84.2238 30.247 85.6591 29.9531 86.5569 28.7811C86.781 28.497 86.9303 28.1608 86.9909 27.8035C87.0515 27.4463 87.0215 27.0795 86.9037 26.7369C86.4413 25.4663 84.9771 25.2613 83.7364 25.1897L81.2587 25.0312C81.1565 25.0353 81.0569 24.9984 80.9817 24.9288C80.9066 24.8592 80.8621 24.7624 80.858 24.6598C80.8539 24.5573 80.8906 24.4572 80.9599 24.3818C81.0293 24.3064 81.1257 24.2617 81.2279 24.2576L82.1623 24.1203C83.3626 23.9481 84.7555 23.6406 85.1524 22.4126C85.2674 22.0248 85.2716 21.6124 85.1646 21.2223C85.0577 20.8322 84.8439 20.4801 84.5475 20.2059C83.4339 19.1094 81.8887 19.0456 80.4303 19.0204C72.4965 18.8464 63.765 17.6937 56.0335 20.0222Z" fill="white"/>
<path d="M35.3245 20.38L2.91691 21.0027C2.11737 21.0182 1.24461 21.0027 0.622313 20.5038C-0.41228 19.6606 -0.0635627 17.8543 0.990296 17.0362C2.04415 16.2181 3.4949 16.1543 4.81656 16.2626C6.13821 16.3709 7.4984 16.6127 8.79116 16.2878C9.66392 16.0692 10.6003 15.2531 10.2592 14.4176C9.99337 13.7639 9.13795 13.617 8.43474 13.6672C7.13042 13.7581 5.86463 14.1836 4.56032 14.2474C3.256 14.3112 1.79562 13.878 1.15791 12.7331C0.367999 11.3117 1.26195 9.42607 2.64526 8.57513C4.02857 7.72419 5.72784 7.63716 7.35006 7.57334L29.799 6.68372C35.232 6.46905 40.484 6.30853 45.9151 6.55995C46.8052 6.6025 47.7261 6.65858 48.5199 7.06471C49.3137 7.47084 49.9514 8.32372 49.8262 9.20947C49.7125 10.0024 49.0305 10.6077 48.2849 10.9075C47.5393 11.2072 46.7436 11.2769 45.9575 11.4393C45.2909 11.5786 44.6089 11.801 44.1176 12.2632C43.6263 12.7254 43.3335 13.4758 43.5781 14.114C43.9789 15.1622 45.4624 15.3575 46.0423 16.3168C46.5316 17.1271 46.1752 18.2372 45.4759 18.8715C44.7765 19.5059 43.8247 19.7669 42.9019 19.9584C40.4821 20.4554 37.8002 20.3317 35.3245 20.38Z" fill="white"/>
<path d="M38.6131 45.883L28.3713 46.0919C27.3559 46.1112 26.3117 46.1286 25.3561 45.7844C24.4005 45.4402 23.5297 44.653 23.3929 43.6416C23.2773 42.7887 23.705 41.9262 24.3389 41.344C24.9727 40.7619 25.7896 40.4235 26.6103 40.1682C28.4371 39.6012 30.3568 39.3988 32.2611 39.5725C33.0317 39.6441 33.8544 39.7659 34.5615 39.4468C35.2685 39.1277 35.7174 38.1143 35.1857 37.5399C34.4151 36.7083 32.7158 37.6908 32.0261 36.7954C31.6407 36.3041 31.9143 35.5383 32.4114 35.1747C32.9084 34.8111 33.5673 34.7415 34.1762 34.6854L40.3799 34.1052C44.2331 33.7494 47.9476 34.2 51.822 34.142C52.8277 34.1265 53.9066 34.1323 54.7351 34.7028C55.5635 35.2733 55.9122 36.6368 55.1377 37.2866C54.5405 37.7836 53.6619 37.6115 52.8855 37.5844C52.1091 37.5573 51.1265 37.9306 51.14 38.71C51.1496 39.3211 51.8008 39.7253 52.4 39.822C52.9992 39.9187 53.6369 39.8394 54.2052 40.056C55.2533 40.4544 55.7196 41.8121 55.3612 42.8796C55.0029 43.9471 54.0222 44.7091 52.9626 45.0746C51.9029 45.4402 50.7624 45.475 49.6411 45.504C46.0653 45.6103 42.1986 45.8173 38.6131 45.883Z" fill="white"/>
<path d="M10.6195 59.059L11.8178 57.8174L10.1455 57.3977L10.6195 59.059Z" fill="#DD2120"/>
<path d="M75.2843 59.2312L74.0859 60.4747L75.7563 60.8944L75.2843 59.2312Z" fill="#270504"/>
<path d="M61.5381 45.3726L62.8559 46.4846L63.1584 44.7827L61.5381 45.3726Z" fill="white"/>
<path d="M23.0729 4.12134L21.3813 4.45398L22.5142 5.75747L23.0729 4.12134Z" fill="white"/>
<path d="M12.9794 13.0619C12.9798 12.9628 12.9509 12.8657 12.8963 12.7831C12.8417 12.7005 12.7639 12.636 12.6727 12.5978C12.5816 12.5596 12.4812 12.5494 12.3843 12.5685C12.2874 12.5876 12.1983 12.6351 12.1283 12.7051C12.0583 12.7751 12.0106 12.8643 11.9912 12.9615C11.9718 13.0588 11.9815 13.1596 12.0192 13.2512C12.057 13.3429 12.1209 13.4212 12.203 13.4763C12.2851 13.5314 12.3817 13.5609 12.4804 13.5609C12.6124 13.5609 12.7391 13.5084 12.8326 13.4148C12.9261 13.3213 12.9789 13.1944 12.9794 13.0619Z" fill="#FE857A"/>
<path d="M82.0971 38.5939C82.0971 38.4948 82.0678 38.398 82.013 38.3156C81.9582 38.2333 81.8802 38.1691 81.7891 38.1311C81.6979 38.0932 81.5976 38.0833 81.5008 38.1026C81.404 38.122 81.3151 38.1697 81.2453 38.2397C81.1755 38.3098 81.128 38.399 81.1087 38.4962C81.0895 38.5934 81.0993 38.6941 81.1371 38.7856C81.1749 38.8771 81.2388 38.9554 81.3209 39.0104C81.4029 39.0654 81.4994 39.0948 81.5981 39.0948C81.7305 39.0948 81.8574 39.042 81.951 38.9481C82.0445 38.8542 82.0971 38.7268 82.0971 38.5939Z" fill="#FE857A"/>
<path d="M75.7123 9.97719C75.7127 9.87796 75.6837 9.78085 75.629 9.69818C75.5744 9.61552 75.4964 9.55102 75.4052 9.51286C75.3139 9.47471 75.2134 9.46463 75.1165 9.4839C75.0195 9.50316 74.9304 9.55091 74.8605 9.62107C74.7906 9.69124 74.743 9.78067 74.7239 9.87801C74.7047 9.97536 74.7147 10.0762 74.7527 10.1678C74.7907 10.2594 74.855 10.3377 74.9373 10.3925C75.0197 10.4474 75.1164 10.4765 75.2153 10.4762C75.3471 10.4762 75.4735 10.4236 75.5668 10.33C75.66 10.2364 75.7123 10.1095 75.7123 9.97719Z" fill="white"/>
<path d="M9.87982 35.0414C9.8802 34.9423 9.85126 34.8452 9.79666 34.7626C9.74206 34.68 9.66427 34.6155 9.57312 34.5773C9.48198 34.5391 9.38159 34.5289 9.28466 34.548C9.18774 34.5671 9.09865 34.6146 9.02867 34.6846C8.95869 34.7546 8.91098 34.8438 8.89157 34.941C8.87216 35.0383 8.88192 35.1391 8.91963 35.2307C8.95734 35.3223 9.0213 35.4007 9.1034 35.4558C9.1855 35.5109 9.28205 35.5404 9.38083 35.5404C9.51283 35.5404 9.63946 35.4879 9.73299 35.3943C9.82651 35.3008 9.87931 35.1739 9.87982 35.0414Z" fill="white"/>
<path d="M77.1607 21.1013C77.1607 21.042 77.1432 20.984 77.1104 20.9347C77.0776 20.8854 77.0309 20.847 76.9764 20.8243C76.9218 20.8016 76.8618 20.7957 76.8038 20.8073C76.7459 20.8188 76.6927 20.8474 76.6509 20.8893C76.6092 20.9312 76.5807 20.9846 76.5692 21.0428C76.5577 21.1009 76.5636 21.1612 76.5862 21.216C76.6088 21.2708 76.6471 21.3176 76.6962 21.3505C76.7453 21.3835 76.803 21.401 76.8621 21.401C76.9413 21.401 77.0173 21.3695 77.0733 21.3132C77.1293 21.257 77.1607 21.1808 77.1607 21.1013Z" fill="#DD2120"/>
<path d="M73.8702 36.7934C73.8702 36.7341 73.8527 36.6762 73.8199 36.6269C73.7871 36.5776 73.7404 36.5392 73.6859 36.5165C73.6313 36.4938 73.5712 36.4878 73.5133 36.4994C73.4554 36.511 73.4022 36.5395 73.3604 36.5815C73.3187 36.6234 73.2902 36.6768 73.2787 36.7349C73.2672 36.7931 73.2731 36.8534 73.2957 36.9081C73.3183 36.9629 73.3566 37.0097 73.4057 37.0427C73.4548 37.0756 73.5125 37.0932 73.5716 37.0932C73.6109 37.0934 73.6498 37.0859 73.6862 37.0709C73.7225 37.0559 73.7555 37.0338 73.7833 37.006C73.8111 36.9781 73.8331 36.9449 73.848 36.9084C73.8629 36.8719 73.8705 36.8329 73.8702 36.7934Z" fill="white"/>
<path d="M48.5968 5.32808C48.5968 5.2688 48.5792 5.21084 48.5464 5.16154C48.5136 5.11225 48.467 5.07383 48.4124 5.05114C48.3578 5.02845 48.2978 5.02251 48.2399 5.03408C48.182 5.04565 48.1287 5.0742 48.087 5.11612C48.0452 5.15804 48.0168 5.21145 48.0052 5.2696C47.9937 5.32775 47.9996 5.38802 48.0222 5.4428C48.0448 5.49757 48.0831 5.54439 48.1322 5.57733C48.1813 5.61026 48.2391 5.62785 48.2981 5.62785C48.3374 5.6281 48.3764 5.62052 48.4127 5.60555C48.4491 5.59058 48.4821 5.56851 48.5099 5.54062C48.5376 5.51273 48.5596 5.47959 48.5746 5.4431C48.5895 5.40662 48.597 5.36752 48.5968 5.32808Z" fill="#270504"/>
<path d="M44.1466 29.4619C44.1466 29.4026 44.1291 29.3446 44.0962 29.2953C44.0634 29.246 44.0168 29.2076 43.9622 29.1849C43.9077 29.1622 43.8476 29.1563 43.7897 29.1679C43.7318 29.1794 43.6785 29.208 43.6368 29.2499C43.595 29.2918 43.5666 29.3452 43.5551 29.4034C43.5435 29.4615 43.5494 29.5218 43.572 29.5766C43.5947 29.6314 43.6329 29.6782 43.682 29.7111C43.7311 29.7441 43.7889 29.7616 43.8479 29.7616C43.8872 29.7619 43.9262 29.7543 43.9625 29.7393C43.9989 29.7244 44.0319 29.7023 44.0597 29.6744C44.0875 29.6465 44.1094 29.6134 44.1244 29.5769C44.1393 29.5404 44.1468 29.5013 44.1466 29.4619Z" fill="#324498"/>
<path d="M4.30037 32.9411C4.29999 32.8819 4.28215 32.8242 4.24911 32.7751C4.21606 32.7261 4.16929 32.688 4.11469 32.6656C4.0601 32.6432 4.00011 32.6375 3.94231 32.6493C3.88451 32.6611 3.83148 32.6898 3.78991 32.7318C3.74834 32.7738 3.72009 32.8272 3.70872 32.8853C3.69736 32.9434 3.70338 33.0036 3.72604 33.0582C3.7487 33.1129 3.78697 33.1596 3.83604 33.1924C3.88511 33.2253 3.94276 33.2428 4.00174 33.2428C4.04112 33.2428 4.08011 33.235 4.11647 33.2198C4.15283 33.2046 4.18583 33.1824 4.21359 33.1544C4.24134 33.1263 4.2633 33.093 4.27819 33.0564C4.29309 33.0199 4.30062 32.9807 4.30037 32.9411Z" fill="#324498"/>
<path d="M80.7061 18.6355C80.7061 18.5762 80.6886 18.5182 80.6558 18.4689C80.623 18.4196 80.5764 18.3812 80.5218 18.3585C80.4672 18.3358 80.4072 18.3299 80.3493 18.3415C80.2913 18.353 80.2381 18.3816 80.1964 18.4235C80.1546 18.4654 80.1261 18.5188 80.1146 18.577C80.1031 18.6351 80.109 18.6954 80.1316 18.7502C80.1542 18.8049 80.1925 18.8518 80.2416 18.8847C80.2907 18.9176 80.3485 18.9352 80.4075 18.9352C80.4467 18.9352 80.4856 18.9275 80.5218 18.9124C80.558 18.8973 80.5909 18.8753 80.6187 18.8474C80.6464 18.8196 80.6684 18.7865 80.6834 18.7502C80.6984 18.7138 80.7061 18.6748 80.7061 18.6355Z" fill="#FE857A"/>
<path d="M5.462 26.1373C5.46198 26.0777 5.44425 26.0194 5.41108 25.97C5.37792 25.9205 5.33082 25.8821 5.2758 25.8597C5.22078 25.8373 5.16035 25.8318 5.10222 25.844C5.04409 25.8562 4.99091 25.8855 4.94947 25.9282C4.90803 25.9709 4.88021 26.0251 4.86958 26.0837C4.85894 26.1424 4.86596 26.2029 4.88975 26.2575C4.91354 26.3121 4.95301 26.3584 5.00312 26.3904C5.05324 26.4223 5.11171 26.4386 5.17108 26.4371C5.2491 26.4355 5.32338 26.4032 5.37783 26.3471C5.43228 26.291 5.46252 26.2156 5.462 26.1373Z" fill="#270504"/>
<path d="M41.8209 25.4297C41.8205 25.3705 41.8027 25.3127 41.7696 25.2637C41.7366 25.2146 41.6898 25.1765 41.6352 25.1541C41.5806 25.1317 41.5206 25.126 41.4628 25.1378C41.405 25.1496 41.352 25.1783 41.3104 25.2203C41.2689 25.2623 41.2406 25.3157 41.2292 25.3738C41.2179 25.4319 41.2239 25.4921 41.2465 25.5468C41.2692 25.6014 41.3075 25.6481 41.3565 25.681C41.4056 25.7138 41.4633 25.7314 41.5223 25.7314C41.6016 25.7309 41.6776 25.6988 41.7335 25.6423C41.7895 25.5858 41.8209 25.5093 41.8209 25.4297Z" fill="#270504"/>
<path d="M70.1963 12.3658C70.1942 12.0735 70.1245 11.7856 69.9927 11.525C69.8609 11.2643 69.6706 11.038 69.4368 10.8637C69.203 10.6895 68.9321 10.5721 68.6454 10.5209C68.3588 10.4697 68.0641 10.486 67.7848 10.5686C67.5055 10.6511 67.2491 10.7977 67.0358 10.9967C66.8225 11.1957 66.6581 11.4417 66.5557 11.7153C66.4533 11.9889 66.4156 12.2827 66.4455 12.5734C66.4755 12.8642 66.5723 13.144 66.7283 13.3908C66.9934 13.7898 67.1888 14.2313 67.3063 14.6962L67.3584 14.9128H69.258L69.3023 14.7194C69.4228 14.2385 69.622 13.781 69.8919 13.3656C70.0864 13.0684 70.1921 12.7214 70.1963 12.3658Z" fill="white"/>
<path d="M69.3119 15.3923H69.2657V15.2434H69.3119C69.3413 15.2462 69.371 15.2428 69.399 15.2334C69.427 15.2241 69.4528 15.2089 69.4747 15.189C69.4965 15.1691 69.514 15.1448 69.5259 15.1177C69.5379 15.0905 69.544 15.0612 69.544 15.0316C69.544 15.0019 69.5379 14.9726 69.5259 14.9455C69.514 14.9184 69.4965 14.8941 69.4747 14.8742C69.4528 14.8542 69.427 14.8391 69.399 14.8297C69.371 14.8204 69.3413 14.817 69.3119 14.8198H67.3179C67.2654 14.8249 67.2167 14.8493 67.1812 14.8885C67.1458 14.9277 67.1261 14.9787 67.1261 15.0316C67.1261 15.0845 67.1458 15.1355 67.1812 15.1747C67.2167 15.2138 67.2654 15.2383 67.3179 15.2434H67.3661V15.3923H67.3179C67.2617 15.3923 67.2078 15.4147 67.168 15.4546C67.1283 15.4945 67.106 15.5486 67.106 15.605C67.106 15.6614 67.1283 15.7155 67.168 15.7554C67.2078 15.7953 67.2617 15.8177 67.3179 15.8177H69.3119C69.3681 15.8177 69.422 15.7953 69.4618 15.7554C69.5015 15.7155 69.5239 15.6614 69.5239 15.605C69.5239 15.5486 69.5015 15.4945 69.4618 15.4546C69.422 15.4147 69.3681 15.3923 69.3119 15.3923Z" fill="#270504"/>
<path d="M68.16 14.615C68.0868 13.9342 68.0123 13.2522 67.9365 12.5688C68.1818 12.6542 68.4485 12.6542 68.6937 12.5688C68.6378 13.2573 68.5916 13.9226 68.5338 14.6169" stroke="#270504" stroke-linecap="round" stroke-linejoin="round"/>
<path d="M51.2422 19.4498C51.2425 19.1561 51.1744 18.8663 51.0435 18.6037C50.9126 18.341 50.7225 18.1126 50.4882 17.9367C50.2539 17.7607 49.982 17.6421 49.694 17.5902C49.406 17.5383 49.1099 17.5546 48.8293 17.6378C48.5487 17.721 48.2913 17.8687 48.0776 18.0693C47.8639 18.2699 47.6997 18.5178 47.5982 18.7932C47.4967 19.0687 47.4607 19.3641 47.4929 19.6561C47.5251 19.948 47.6248 20.2283 47.7839 20.4748C48.049 20.8738 48.2444 21.3153 48.3619 21.7802L48.4139 21.9968H50.3136L50.3598 21.8034C50.4795 21.3222 50.6787 20.8646 50.9493 20.4496C51.1391 20.1508 51.2406 19.8041 51.2422 19.4498Z" fill="#FE857A"/>
<path d="M50.3599 22.4821H50.3118V22.3332H50.3599C50.4124 22.3282 50.4611 22.3037 50.4966 22.2645C50.532 22.2254 50.5517 22.1743 50.5517 22.1214C50.5517 22.0685 50.532 22.0175 50.4966 21.9783C50.4611 21.9392 50.4124 21.9147 50.3599 21.9097H48.3659C48.3365 21.9068 48.3068 21.9102 48.2788 21.9196C48.2508 21.9289 48.225 21.9441 48.2032 21.964C48.1813 21.9839 48.1639 22.0082 48.1519 22.0354C48.14 22.0625 48.1338 22.0918 48.1338 22.1214C48.1338 22.1511 48.14 22.1804 48.1519 22.2075C48.1639 22.2346 48.1813 22.2589 48.2032 22.2789C48.225 22.2988 48.2508 22.3139 48.2788 22.3233C48.3068 22.3326 48.3365 22.336 48.3659 22.3332H48.4121V22.4821H48.3659C48.3097 22.4821 48.2558 22.5045 48.216 22.5444C48.1763 22.5843 48.154 22.6384 48.154 22.6948C48.154 22.7513 48.1763 22.8054 48.216 22.8453C48.2558 22.8852 48.3097 22.9076 48.3659 22.9076H50.3599C50.4162 22.9076 50.4701 22.8852 50.5098 22.8453C50.5495 22.8054 50.5719 22.7513 50.5719 22.6948C50.5719 22.6384 50.5495 22.5843 50.5098 22.5444C50.4701 22.5045 50.4162 22.4821 50.3599 22.4821Z" fill="#324498"/>
<path d="M49.2079 21.7087C49.1327 21.026 49.0576 20.355 48.9844 19.6626C49.2296 19.7479 49.4963 19.7479 49.7415 19.6626C49.6837 20.3511 49.6375 21.0164 49.5797 21.7107" stroke="#270504" stroke-linecap="round" stroke-linejoin="round"/>
<path d="M55.1474 28.7715C55.1453 28.4792 55.0757 28.1914 54.9439 27.9308C54.8121 27.6701 54.6218 27.4437 54.388 27.2695C54.1542 27.0952 53.8833 26.9779 53.5966 26.9267C53.3099 26.8754 53.0153 26.8918 52.736 26.9743C52.4566 27.0569 52.2002 27.2034 51.9869 27.4024C51.7736 27.6014 51.6093 27.8474 51.5069 28.1211C51.4045 28.3947 51.3667 28.6884 51.3967 28.9792C51.4267 29.2699 51.5235 29.5497 51.6795 29.7965C51.9437 30.196 52.1391 30.6373 52.2575 31.1019L52.3076 31.3185H54.2092L54.2535 31.1251C54.3731 30.6439 54.5724 30.1863 54.843 29.7714C55.0367 29.4737 55.1423 29.127 55.1474 28.7715Z" fill="#F2AA31"/>
<path d="M54.2631 31.798H54.2169V31.6491H54.2631C54.2925 31.6519 54.3222 31.6486 54.3502 31.6392C54.3782 31.6298 54.404 31.6147 54.4258 31.5948C54.4477 31.5748 54.4651 31.5505 54.4771 31.5234C54.489 31.4963 54.4952 31.467 54.4952 31.4373C54.4952 31.4077 54.489 31.3784 54.4771 31.3513C54.4651 31.3242 54.4477 31.2999 54.4258 31.2799C54.404 31.26 54.3782 31.2448 54.3502 31.2355C54.3222 31.2261 54.2925 31.2228 54.2631 31.2256H52.2691C52.2166 31.2306 52.1679 31.2551 52.1324 31.2943C52.097 31.3334 52.0773 31.3844 52.0773 31.4373C52.0773 31.4903 52.097 31.5413 52.1324 31.5804C52.1679 31.6196 52.2166 31.6441 52.2691 31.6491H52.3153V31.798H52.2691C52.2129 31.798 52.1589 31.8204 52.1192 31.8603C52.0795 31.9002 52.0571 31.9543 52.0571 32.0108C52.0571 32.0672 52.0795 32.1213 52.1192 32.1612C52.1589 32.2011 52.2129 32.2235 52.2691 32.2235H54.2631C54.3193 32.2235 54.3732 32.2011 54.413 32.1612C54.4527 32.1213 54.475 32.0672 54.475 32.0108C54.475 31.9543 54.4527 31.9002 54.413 31.8603C54.3732 31.8204 54.3193 31.798 54.2631 31.798Z" fill="#270504"/>
<path d="M53.1112 31.0207L52.8877 28.9746C53.1329 29.0599 53.3996 29.0599 53.6449 28.9746C53.5871 29.6631 53.5427 30.3284 53.4849 31.0227" stroke="#270504" stroke-linecap="round" stroke-linejoin="round"/>
<path d="M81.0317 31.6319C81.0296 31.3396 80.9599 31.0518 80.8282 30.7911C80.6964 30.5305 80.5061 30.3041 80.2723 30.1298C80.0385 29.9556 79.7676 29.8382 79.4809 29.787C79.1942 29.7358 78.8996 29.7521 78.6203 29.8347C78.3409 29.9172 78.0845 30.0638 77.8712 30.2628C77.6579 30.4618 77.4936 30.7078 77.3912 30.9814C77.2887 31.255 77.251 31.5488 77.281 31.8395C77.3109 32.1303 77.4077 32.4101 77.5638 32.6569C77.828 33.0564 78.0234 33.4977 78.1418 33.9623L78.1938 34.1789H80.0934L80.1377 33.9855C80.2574 33.5043 80.4567 33.0467 80.7273 32.6317C80.9219 32.3345 81.0275 31.9875 81.0317 31.6319Z" fill="#FE857A"/>
<path d="M80.1474 34.6662H80.1011V34.5173H80.1474C80.1768 34.5201 80.2064 34.5167 80.2345 34.5074C80.2625 34.498 80.2882 34.4829 80.3101 34.4629C80.332 34.443 80.3494 34.4187 80.3614 34.3916C80.3733 34.3645 80.3795 34.3352 80.3795 34.3055C80.3795 34.2759 80.3733 34.2465 80.3614 34.2194C80.3494 34.1923 80.332 34.168 80.3101 34.1481C80.2882 34.1281 80.2625 34.113 80.2345 34.1037C80.2064 34.0943 80.1768 34.0909 80.1474 34.0937H78.1533C78.1009 34.0988 78.0521 34.1233 78.0167 34.1624C77.9812 34.2016 77.9616 34.2526 77.9616 34.3055C77.9616 34.3584 77.9812 34.4094 78.0167 34.4486C78.0521 34.4877 78.1009 34.5122 78.1533 34.5173H78.1996V34.6662H78.1533C78.0971 34.6662 78.0432 34.6886 78.0035 34.7285C77.9637 34.7684 77.9414 34.8225 77.9414 34.8789C77.9414 34.9353 77.9637 34.9895 78.0035 35.0294C78.0432 35.0693 78.0971 35.0917 78.1533 35.0917H80.1474C80.2036 35.0917 80.2575 35.0693 80.2972 35.0294C80.337 34.9895 80.3593 34.9353 80.3593 34.8789C80.3593 34.8225 80.337 34.7684 80.2972 34.7285C80.2575 34.6886 80.2036 34.6662 80.1474 34.6662Z" fill="#270504"/>
<path d="M78.995 33.8811C78.9218 33.1984 78.8466 32.5176 78.7715 31.835C79.0169 31.9191 79.2832 31.9191 79.5286 31.835C79.4709 32.5234 79.4265 33.1887 79.3687 33.883" stroke="#270504" stroke-linecap="round" stroke-linejoin="round"/>
<path d="M37.5498 28.3323C37.5477 28.04 37.478 27.7522 37.3462 27.4915C37.2144 27.2309 37.0242 27.0045 36.7904 26.8303C36.5566 26.656 36.2856 26.5387 35.999 26.4875C35.7123 26.4362 35.4177 26.4526 35.1383 26.5351C34.859 26.6177 34.6026 26.7642 34.3893 26.9632C34.176 27.1622 34.0117 27.4082 33.9092 27.6818C33.8068 27.9555 33.7691 28.2492 33.799 28.54C33.829 28.8307 33.9258 29.1105 34.0819 29.3573C34.3466 29.7572 34.5421 30.1993 34.6598 30.6647L34.7119 30.8793H36.6134L36.6577 30.6859C36.7772 30.2047 36.9765 29.747 37.2473 29.3322C37.44 29.0342 37.5449 28.6876 37.5498 28.3323Z" fill="white"/>
<path d="M36.6656 31.361H36.6194V31.2121H36.6656C36.7218 31.2121 36.7757 31.1897 36.8155 31.1498C36.8552 31.1099 36.8775 31.0558 36.8775 30.9994C36.8775 30.9429 36.8552 30.8888 36.8155 30.8489C36.7757 30.809 36.7218 30.7866 36.6656 30.7866H34.6716C34.6154 30.7866 34.5615 30.809 34.5217 30.8489C34.482 30.8888 34.4596 30.9429 34.4596 30.9994C34.4596 31.0558 34.482 31.1099 34.5217 31.1498C34.5615 31.1897 34.6154 31.2121 34.6716 31.2121H34.7178V31.361H34.6716C34.6422 31.3582 34.6125 31.3616 34.5845 31.3709C34.5565 31.3803 34.5307 31.3954 34.5088 31.4153C34.487 31.4353 34.4695 31.4596 34.4576 31.4867C34.4456 31.5138 34.4395 31.5431 34.4395 31.5728C34.4395 31.6024 34.4456 31.6317 34.4576 31.6588C34.4695 31.686 34.487 31.7103 34.5088 31.7302C34.5307 31.7501 34.5565 31.7653 34.5845 31.7746C34.6125 31.784 34.6422 31.7874 34.6716 31.7845H36.6656C36.695 31.7874 36.7247 31.784 36.7527 31.7746C36.7807 31.7653 36.8065 31.7501 36.8283 31.7302C36.8502 31.7103 36.8677 31.686 36.8796 31.6588C36.8915 31.6317 36.8977 31.6024 36.8977 31.5728C36.8977 31.5431 36.8915 31.5138 36.8796 31.4867C36.8677 31.4596 36.8502 31.4353 36.8283 31.4153C36.8065 31.3954 36.7807 31.3803 36.7527 31.3709C36.7247 31.3616 36.695 31.3582 36.6656 31.361Z" fill="#324498"/>
<path d="M35.5135 30.5835C35.4384 29.9008 35.3652 29.2181 35.29 28.5374C35.5353 28.6227 35.802 28.6227 36.0472 28.5374C35.9894 29.2258 35.9432 29.8911 35.8854 30.5854" stroke="#270504" stroke-linecap="round" stroke-linejoin="round"/>
<path d="M23.6069 14.6885C23.6048 14.3962 23.5351 14.1084 23.4034 13.8478C23.2716 13.5871 23.0813 13.3607 22.8475 13.1865C22.6137 13.0122 22.3428 12.8949 22.0561 12.8437C21.7694 12.7924 21.4748 12.8088 21.1954 12.8913C20.9161 12.9739 20.6597 13.1204 20.4464 13.3194C20.2331 13.5184 20.0688 13.7644 19.9664 14.038C19.8639 14.3117 19.8262 14.6054 19.8562 14.8962C19.8861 15.1869 19.9829 15.4667 20.139 15.7135C20.4044 16.1131 20.5999 16.5552 20.717 17.0209L20.769 17.2355H22.6706L22.7149 17.0421C22.834 16.5607 23.0333 16.103 23.3044 15.6884C23.4969 15.3903 23.6017 15.0437 23.6069 14.6885Z" fill="#FE857A"/>
<path d="M22.7226 17.715H22.6763V17.568H22.7226C22.7788 17.568 22.8327 17.5456 22.8724 17.5057C22.9122 17.4658 22.9345 17.4117 22.9345 17.3553C22.9345 17.2989 22.9122 17.2448 22.8724 17.2049C22.8327 17.165 22.7788 17.1426 22.7226 17.1426H20.7285C20.6723 17.1426 20.6184 17.165 20.5787 17.2049C20.5389 17.2448 20.5166 17.2989 20.5166 17.3553C20.5166 17.4117 20.5389 17.4658 20.5787 17.5057C20.6184 17.5456 20.6723 17.568 20.7285 17.568H20.7767V17.715H20.7305C20.6742 17.715 20.6203 17.7374 20.5806 17.7773C20.5409 17.8172 20.5185 17.8713 20.5185 17.9278C20.5185 17.9842 20.5409 18.0383 20.5806 18.0782C20.6203 18.1181 20.6742 18.1405 20.7305 18.1405H22.7226C22.7788 18.1405 22.8327 18.1181 22.8724 18.0782C22.9122 18.0383 22.9345 17.9842 22.9345 17.9278C22.9345 17.8713 22.9122 17.8172 22.8724 17.7773C22.8327 17.7374 22.7788 17.715 22.7226 17.715Z" fill="#270504"/>
<path d="M21.5702 16.9375C21.495 16.2567 21.4218 15.5837 21.3467 14.8914C21.5919 14.9767 21.8586 14.9767 22.1038 14.8914C22.046 15.5798 21.9998 16.2451 21.9439 16.9394" stroke="#270504" stroke-linecap="round" stroke-linejoin="round"/>
<path d="M13.8637 25.8492C13.8617 25.5569 13.792 25.269 13.6602 25.0084C13.5284 24.7477 13.3381 24.5214 13.1043 24.3471C12.8705 24.1729 12.5996 24.0555 12.3129 24.0043C12.0262 23.9531 11.7316 23.9694 11.4523 24.052C11.1729 24.1345 10.9165 24.2811 10.7032 24.4801C10.49 24.6791 10.3256 24.9251 10.2232 25.1987C10.1208 25.4723 10.083 25.7661 10.113 26.0568C10.143 26.3476 10.2398 26.6274 10.3958 26.8742C10.6597 27.2746 10.8551 27.7164 10.9738 28.1815L11.0258 28.3962H12.9255L12.9698 28.2028C13.0901 27.7218 13.2893 27.2643 13.5593 26.849C13.7535 26.5516 13.8591 26.2047 13.8637 25.8492Z" fill="#F2AA31"/>
<path d="M12.9794 28.8779H12.9332V28.7289H12.9794C13.0356 28.7289 13.0895 28.7065 13.1293 28.6666C13.169 28.6267 13.1913 28.5726 13.1913 28.5162C13.1913 28.4598 13.169 28.4057 13.1293 28.3658C13.0895 28.3259 13.0356 28.3035 12.9794 28.3035H10.9854C10.9292 28.3035 10.8753 28.3259 10.8355 28.3658C10.7958 28.4057 10.7734 28.4598 10.7734 28.5162C10.7734 28.5726 10.7958 28.6267 10.8355 28.6666C10.8753 28.7065 10.9292 28.7289 10.9854 28.7289H11.0335V28.8779H10.9854C10.9329 28.8829 10.8842 28.9074 10.8487 28.9465C10.8133 28.9857 10.7936 29.0367 10.7936 29.0896C10.7936 29.1425 10.8133 29.1935 10.8487 29.2327C10.8842 29.2719 10.9329 29.2963 10.9854 29.3014H12.9794C13.0088 29.3042 13.0385 29.3008 13.0665 29.2915C13.0945 29.2821 13.1203 29.267 13.1421 29.247C13.164 29.2271 13.1815 29.2028 13.1934 29.1757C13.2054 29.1486 13.2115 29.1193 13.2115 29.0896C13.2115 29.06 13.2054 29.0307 13.1934 29.0035C13.1815 28.9764 13.164 28.9521 13.1421 28.9322C13.1203 28.9123 13.0945 28.8971 13.0665 28.8878C13.0385 28.8784 13.0088 28.875 12.9794 28.8779Z" fill="#270504"/>
<path d="M11.8275 28.1003C11.7543 27.417 11.6798 26.735 11.604 26.0542C11.8492 26.1395 12.1159 26.1395 12.3612 26.0542C12.3053 26.7427 12.2591 27.408 12.2013 28.1023" stroke="#270504" stroke-linecap="round" stroke-linejoin="round"/>
<path d="M17.9233 33.7591C17.9212 33.4668 17.8515 33.179 17.7198 32.9183C17.588 32.6577 17.3977 32.4313 17.1639 32.257C16.9301 32.0828 16.6592 31.9654 16.3725 31.9142C16.0858 31.863 15.7912 31.8793 15.5119 31.9619C15.2325 32.0444 14.9761 32.191 14.7628 32.39C14.5495 32.589 14.3852 32.835 14.2828 33.1086C14.1803 33.3822 14.1426 33.676 14.1726 33.9667C14.2025 34.2575 14.2993 34.5373 14.4554 34.7841C14.7205 35.1831 14.9159 35.6246 15.0334 36.0895L15.0854 36.3061H16.987L17.0313 36.1127C17.1509 35.6315 17.3502 35.1739 17.6208 34.7589C17.814 34.4611 17.9189 34.1144 17.9233 33.7591Z" fill="#FE857A"/>
<path d="M17.0411 36.7934H16.9949V36.6445H17.0411C17.0936 36.6394 17.1423 36.6149 17.1777 36.5758C17.2132 36.5366 17.2328 36.4856 17.2328 36.4327C17.2328 36.3798 17.2132 36.3288 17.1777 36.2896C17.1423 36.2505 17.0936 36.226 17.0411 36.2209H15.0471C15.0177 36.2181 14.988 36.2215 14.96 36.2308C14.9319 36.2402 14.9062 36.2553 14.8843 36.2753C14.8625 36.2952 14.845 36.3195 14.8331 36.3466C14.8211 36.3737 14.8149 36.4031 14.8149 36.4327C14.8149 36.4624 14.8211 36.4917 14.8331 36.5188C14.845 36.5459 14.8625 36.5702 14.8843 36.5901C14.9062 36.6101 14.9319 36.6252 14.96 36.6346C14.988 36.6439 15.0177 36.6473 15.0471 36.6445H15.0933V36.7934H15.0471C14.9908 36.7934 14.9369 36.8158 14.8972 36.8557C14.8575 36.8956 14.8351 36.9497 14.8351 37.0061C14.8351 37.0625 14.8575 37.1167 14.8972 37.1566C14.9369 37.1964 14.9908 37.2189 15.0471 37.2189H17.0411C17.0973 37.2189 17.1512 37.1964 17.191 37.1566C17.2307 37.1167 17.253 37.0625 17.253 37.0061C17.253 36.9497 17.2307 36.8956 17.191 36.8557C17.1512 36.8158 17.0973 36.7934 17.0411 36.7934Z" fill="#324498"/>
<path d="M15.889 36.0083C15.8139 35.3256 15.7387 34.6448 15.6655 33.9622C15.911 34.0463 16.1773 34.0463 16.4227 33.9622C16.3649 34.6506 16.3186 35.3159 16.2609 36.0102" stroke="#270504" stroke-linecap="round" stroke-linejoin="round"/>
<path d="M14.4285 43.7847L12.0568 41.7212C11.9646 41.7453 11.8825 41.7982 11.8222 41.8722C11.7619 41.9463 11.7267 42.0376 11.7216 42.1331C11.714 42.3268 11.7495 42.5197 11.8256 42.6978L12.9642 46.0494C12.2302 46.1287 11.4846 46.1615 10.7506 46.2428C10.3652 45.4692 9.9568 44.6415 9.58111 43.8776C9.53369 43.7303 9.4422 43.6013 9.31909 43.5082C9.2498 43.47 9.17255 43.4488 9.09358 43.4461C9.01461 43.4434 8.93611 43.4594 8.86441 43.4927C9.08597 44.4964 9.30368 45.4711 9.52524 46.4749C8.84321 45.5736 8.15541 44.6473 7.48302 43.7557C7.39018 43.6004 7.25698 43.4734 7.0977 43.3883C7.0224 43.3667 6.94291 43.3644 6.86651 43.3816C6.7901 43.3989 6.71922 43.435 6.66036 43.4869C7.04568 44.4365 7.40018 45.3609 7.7778 46.3105C7.60825 46.2486 7.37706 46.2215 7.19981 46.1596C6.77596 45.6123 6.31742 45.0766 5.89357 44.5293C5.78684 44.3963 5.63413 44.3086 5.46586 44.2837C5.3902 44.2796 5.31468 44.2939 5.24562 44.3251C5.17657 44.3564 5.11599 44.4039 5.06898 44.4635C5.36953 45.1714 5.6354 45.8173 5.93595 46.5329C5.64229 46.4188 5.32991 46.3611 5.01503 46.3627C4.87 46.3619 4.72797 46.4041 4.60667 46.4839C4.48537 46.5637 4.39018 46.6776 4.33301 46.8114L8.14771 48.9174C10.6388 50.2963 13.5076 50.3698 16.2973 52.6055L19.8827 47.6082L18.7441 46.881C17.5438 45.5311 15.7829 44.9683 14.4285 43.7847Z" fill="#FF9A7D"/>
<path d="M12.9932 45.9412C13.174 46.2972 13.4433 46.6004 13.7751 46.8213C14.1069 47.0423 14.4899 47.1734 14.887 47.2021" stroke="#270504" stroke-linecap="round" stroke-linejoin="round"/>
<path d="M10.7773 46.241L11.0606 47.0532C12.6158 46.9558 14.1546 47.4195 15.3993 48.3606" stroke="#270504" stroke-linecap="round" stroke-linejoin="round"/>
<path d="M9.38281 46.179L9.93575 47.6874" stroke="#270504" stroke-linecap="round" stroke-linejoin="round"/>
<path d="M7.70654 46.3164C8.01352 46.9611 8.31921 47.6057 8.62361 48.2504" stroke="#270504" stroke-linecap="round" stroke-linejoin="round"/>
<path d="M5.89355 46.4866C6.32584 47.1851 6.85522 47.818 7.46567 48.3664" stroke="#270504" stroke-linecap="round" stroke-linejoin="round"/>
<path d="M73.0456 43.7847L75.4172 41.7212C75.5112 41.7435 75.5955 41.7956 75.6577 41.8698C75.7198 41.944 75.7564 42.0364 75.7621 42.1331C75.7697 42.3268 75.7341 42.5197 75.6581 42.6978L74.5291 46.0494C75.2631 46.1287 76.0087 46.1616 76.7428 46.2428C77.1184 45.4692 77.5365 44.6415 77.9122 43.8776C77.9596 43.7303 78.0511 43.6013 78.1742 43.5082C78.2435 43.47 78.3208 43.4488 78.3997 43.4461C78.4787 43.4434 78.5572 43.4594 78.6289 43.4927C78.4074 44.4964 78.1897 45.4711 77.9681 46.4749C78.6405 45.5756 79.3283 44.6492 80.0007 43.748C80.0935 43.5927 80.2267 43.4656 80.386 43.3805C80.4613 43.3589 80.5408 43.3567 80.6172 43.3739C80.6936 43.3911 80.7645 43.4273 80.8233 43.4792C80.438 44.4287 80.0854 45.3532 79.7059 46.3027C79.8754 46.2409 80.1066 46.2138 80.2839 46.1519C80.7077 45.6046 81.1663 45.0689 81.5901 44.5216C81.6968 44.3886 81.8496 44.3009 82.0178 44.276C82.0935 44.2719 82.169 44.2861 82.2381 44.3174C82.3071 44.3487 82.3677 44.3962 82.4147 44.4558C82.1142 45.1636 81.8483 45.8096 81.5477 46.5251C81.8415 46.4112 82.1538 46.3535 82.4687 46.355C82.6137 46.3542 82.7557 46.3963 82.877 46.4761C82.9983 46.5559 83.0935 46.6698 83.1507 46.8036L79.336 48.9097C76.8449 50.2886 73.9761 50.3621 71.1864 52.5978L67.5933 47.5985L68.7319 46.8713C69.9302 45.5311 71.6931 44.9683 73.0456 43.7847Z" fill="#FF9A7D"/>
<path d="M74.4981 46.0764C74.3376 46.4366 74.0984 46.7559 73.7982 47.0106C73.4981 47.2654 73.1446 47.4491 72.7642 47.5482" stroke="#270504" stroke-linecap="round" stroke-linejoin="round"/>
<path d="M76.7273 46.179L76.3323 47.2368C75.0896 47.3606 73.9048 47.4592 72.6621 47.583" stroke="#270504" stroke-linecap="round" stroke-linejoin="round"/>
<path d="M77.9279 46.2834C77.7301 47.0145 77.5323 47.7442 77.3345 48.4727" stroke="#270504" stroke-linecap="round" stroke-linejoin="round"/>
<path d="M79.8026 46.0764C79.4686 46.899 79.1341 47.7196 78.7988 48.5383" stroke="#270504" stroke-linecap="round" stroke-linejoin="round"/>
<path d="M81.515 46.5852L79.7676 48.1865" stroke="#270504" stroke-linecap="round" stroke-linejoin="round"/>
<path d="M35.9697 62.103C37.8694 64.5708 40.819 66.2726 43.9228 66.3751C47.0266 66.4776 50.2016 64.8609 51.7121 62.1359L35.9697 62.103Z" fill="#270504"/>
<path d="M68.4064 46.593C65.6494 47.9158 62.8924 49.2909 60.1354 50.6156C58.4959 48.8751 56.8486 47.1345 54.9952 45.6202C53.1418 44.1059 51.142 42.9378 48.857 42.2571C49.5217 41.7446 49.7028 40.7486 49.3945 39.9653C49.0863 39.1821 48.3754 38.6116 47.5893 38.3137C46.7911 38.0471 45.9494 37.9368 45.1097 37.9888C44.2697 38.0082 43.3951 38.0527 42.5628 38.1552C41.8239 38.2134 41.0956 38.3661 40.3953 38.6096C39.7056 38.8804 39.066 39.3561 38.75 40.0272C38.603 40.3548 38.5645 40.7211 38.6401 41.0723C38.7157 41.4235 38.9014 41.7411 39.17 41.9786C36.5748 43.0249 33.8776 43.9957 31.8835 45.9703C30.192 47.6451 28.3732 49.3276 26.5526 50.8612C24.1655 49.463 21.6937 48.2214 19.3085 46.8251C17.8957 48.6301 16.486 50.4396 15.0796 52.2537C17.2181 54.2263 19.401 56.1216 21.5395 58.1C22.6413 59.0973 24.0424 59.6981 25.5218 59.8077C26.9957 59.9296 28.4792 59.6143 29.8644 59.0941C31.2497 58.5739 32.5501 57.8544 33.8448 57.1369C33.9412 59.127 33.9739 61.0571 34.0702 63.0452L53.583 62.7628C53.6119 60.9159 53.583 59.1753 53.61 57.3284C55.186 58.4888 56.8852 59.5737 58.7984 59.9953C60.7115 60.4169 62.6709 59.8425 64.2507 58.6822C66.8882 56.7482 69.5354 54.7775 72.1748 52.8416C70.9091 50.7355 69.6722 48.6972 68.4064 46.593Z" fill="#3C5BBF"/>
<path d="M40.8579 40.1721L41.8906 41.1275" stroke="#270504" stroke-linecap="round" stroke-linejoin="round"/>
<path d="M46.0269 41.0927L47.2059 40.1257" stroke="#270504" stroke-linecap="round" stroke-linejoin="round"/>
<path d="M39.0352 42.0383L40.3703 41.522C41.4704 42.5141 42.6032 43.4192 43.7053 44.4094C44.8901 43.4753 46.1078 42.6069 47.2946 41.6728C47.8976 41.9068 48.5315 42.1157 49.1345 42.3516" stroke="#270504" stroke-linecap="round" stroke-linejoin="round"/>
<path d="M33.7812 57.3262L33.4922 49.9868" stroke="#270504" stroke-linecap="round" stroke-linejoin="round"/>
<path d="M53.6333 57.3244L53.9628 49.9753" stroke="#270504" stroke-linecap="round" stroke-linejoin="round"/>
<path d="M26.7914 50.6272L26.2905 51.6096" stroke="#270504" stroke-linecap="round" stroke-linejoin="round"/>
<path d="M60.1084 50.5479L60.461 51.3214" stroke="#270504" stroke-linecap="round" stroke-linejoin="round"/>
<path d="M17.147 54.0056L21.6071 48.0452" stroke="#270504" stroke-linecap="round" stroke-linejoin="round"/>
<path d="M15.8096 51.6211L17.6726 53.2089" stroke="#270504" stroke-linecap="round" stroke-linejoin="round"/>
<path d="M16.731 50.5632L18.5632 51.9692" stroke="#270504" stroke-linecap="round" stroke-linejoin="round"/>
<path d="M17.2568 49.9443C17.8271 50.4368 18.398 50.9294 18.9696 51.4219" stroke="#270504" stroke-linecap="round" stroke-linejoin="round"/>
<path d="M18.2876 48.7068L20.1217 49.9871" stroke="#270504" stroke-linecap="round" stroke-linejoin="round"/>
<path d="M19.0425 47.5347L20.9325 48.8884" stroke="#270504" stroke-linecap="round" stroke-linejoin="round"/>
<path d="M66.3159 47.5405L69.9437 54.3654" stroke="#270504" stroke-linecap="round" stroke-linejoin="round"/>
<path d="M66.7378 48.1652L68.36 47.3645" stroke="#270504" stroke-linecap="round" stroke-linejoin="round"/>
<path d="M67.0405 48.8266L68.5818 48.0278" stroke="#270504" stroke-linecap="round" stroke-linejoin="round"/>
<path d="M68.0229 50.5361L69.6586 49.7239" stroke="#270504" stroke-linecap="round" stroke-linejoin="round"/>
<path d="M68.3643 51.2363L70.2215 50.2693" stroke="#270504" stroke-linecap="round" stroke-linejoin="round"/>
<path d="M68.9902 52.53L70.9612 51.5437" stroke="#270504" stroke-linecap="round" stroke-linejoin="round"/>
<path d="M69.7261 53.884L71.5987 52.5728" stroke="#270504" stroke-linecap="round" stroke-linejoin="round"/>
<path d="M34.1128 60.2233L53.6178 59.353" stroke="#270504" stroke-linecap="round" stroke-linejoin="round"/>
<path d="M35.0068 60.1943L35.2438 62.5731" stroke="#270504" stroke-linecap="round" stroke-linejoin="round"/>
<path d="M37.0718 60.1499L37.2047 62.5499" stroke="#270504" stroke-linecap="round" stroke-linejoin="round"/>
<path d="M38.0332 60.1248C38.055 60.9641 38.0769 61.8021 38.0987 62.6389" stroke="#270504" stroke-linecap="round" stroke-linejoin="round"/>
<path d="M40.5205 59.9836L40.6708 62.6177" stroke="#270504" stroke-linecap="round" stroke-linejoin="round"/>
<path d="M42.9771 59.8655C43.0117 60.7757 43.0458 61.686 43.0792 62.5962" stroke="#270504" stroke-linecap="round" stroke-linejoin="round"/>
<path d="M44.1929 59.7959C44.2378 60.7539 44.2828 61.7105 44.3277 62.6659" stroke="#270504" stroke-linecap="round" stroke-linejoin="round"/>
<path d="M46.104 59.7495L46.1753 62.5015" stroke="#270504" stroke-linecap="round" stroke-linejoin="round"/>
<path d="M47.0269 59.678C47.0487 60.6205 47.0692 61.5617 47.0885 62.5016" stroke="#270504" stroke-linecap="round" stroke-linejoin="round"/>
<path d="M48.4546 59.5601C48.4636 60.5412 48.4726 61.5217 48.4816 62.5016" stroke="#270504" stroke-linecap="round" stroke-linejoin="round"/>
<path d="M51.042 59.5601L51.2212 62.2173" stroke="#270504" stroke-linecap="round" stroke-linejoin="round"/>
<path d="M52.429 59.3955L52.4175 62.0779" stroke="#270504" stroke-linecap="round" stroke-linejoin="round"/>
<path d="M43.3525 31.6821C43.6312 31.8671 43.8602 32.1182 44.0191 32.4132C44.023 32.2783 44.0571 32.1461 44.1188 32.0262C44.1805 31.9064 44.2682 31.802 44.3756 31.7208" stroke="#270504" stroke-linecap="round" stroke-linejoin="round"/>
<path d="M48.52 35.1033C48.4352 34.8673 48.2252 34.6391 47.9766 34.6623C48.0216 34.4819 48.0241 34.2934 47.984 34.1118C47.9439 33.9302 47.8622 33.7605 47.7455 33.616C47.626 33.4819 47.476 33.3786 47.3083 33.315C47.1406 33.2514 46.9602 33.2293 46.7821 33.2505C46.7481 32.941 46.6266 32.6476 46.4321 32.4051C46.2375 32.1625 45.978 31.9808 45.684 31.8813C45.3836 31.7933 45.0646 31.7925 44.7638 31.8791C44.463 31.9657 44.1929 32.1361 43.9847 32.3706C43.6506 32.1487 43.2691 32.0088 42.8712 31.9621C42.4733 31.9154 42.0701 31.9633 41.694 32.1018C41.3183 32.2487 40.9819 32.4815 40.7113 32.7816C40.4408 33.0817 40.2436 33.4408 40.1353 33.8307C39.9906 33.8022 39.8409 33.8122 39.7013 33.8599C39.5616 33.9075 39.4368 33.9911 39.3394 34.1022C39.2419 34.2134 39.1752 34.3482 39.1458 34.4933C39.1164 34.6384 39.1255 34.7887 39.172 34.9292C39.2367 35.0748 39.3346 35.2032 39.4577 35.304C39.5809 35.4047 39.7259 35.4751 39.881 35.5094C39.8591 35.5893 39.859 35.6736 39.8807 35.7536C39.9024 35.8335 39.9451 35.9062 40.0043 35.9639C40.0574 36.0205 40.1254 36.061 40.2004 36.0805C40.2754 36.1 40.3544 36.0978 40.4282 36.0741L40.6208 37.0604C40.7152 37.54 41.1873 37.8495 41.6458 38.0177C41.8753 38.1011 42.1191 38.1378 42.3629 38.1255C42.6067 38.1132 42.8457 38.0522 43.0657 37.9462L47.2099 37.484C47.3505 37.0063 47.5297 36.517 47.6703 36.0374C47.7949 36.0503 47.9207 36.0356 48.039 35.9941C48.1572 35.9526 48.2648 35.8855 48.3543 35.7975C48.4417 35.7076 48.5033 35.5956 48.5325 35.4733C48.5617 35.3511 48.5573 35.2232 48.52 35.1033Z" fill="#270504"/>
<path d="M47.8492 37.1976C47.7359 36.9764 47.5621 36.7922 47.3481 36.6668C47.1341 36.5414 46.8888 36.48 46.6412 36.4898C46.5237 36.7257 46.3175 36.9114 46.2 37.1474C46.1634 36.6465 46.1095 36.1088 46.0728 35.6002C45.8303 35.6745 45.5704 35.6684 45.3316 35.5827C45.0928 35.497 44.8879 35.3363 44.7473 35.1244C44.6473 35.2202 44.5279 35.2933 44.3973 35.3387C44.2666 35.3841 44.1278 35.4007 43.9902 35.3875C43.8611 35.3807 43.7353 35.3438 43.6229 35.2797C43.5106 35.2156 43.4146 35.126 43.3428 35.0181C43.2388 35.1035 43.1116 35.1558 42.9778 35.1683C42.8439 35.1807 42.7093 35.1526 42.5915 35.0877C42.5611 35.2907 42.4592 35.476 42.3044 35.6101C42.1496 35.7442 41.9521 35.8182 41.7476 35.8187C41.7014 36.2829 41.6558 36.7464 41.6108 37.2092C41.4663 36.954 41.3584 36.7664 41.2139 36.5091C41.0312 36.5065 40.8501 36.5434 40.6828 36.6172C40.5155 36.691 40.3659 36.8 40.2442 36.9368C40.1226 37.0737 40.0316 37.2352 39.9775 37.4104C39.9235 37.5856 39.9075 37.7705 39.9308 37.9524C39.9541 38.1344 40.016 38.3092 40.1125 38.465C40.2089 38.6208 40.3376 38.754 40.4898 38.8555C40.642 38.9571 40.8141 39.0246 40.9946 39.0535C41.175 39.0825 41.3595 39.0722 41.5357 39.0233C41.5702 39.2815 41.6726 39.5258 41.8324 39.7311V41.1139C42.5086 41.6747 43.1579 42.1988 43.8341 42.7616L46.0439 41.0907C46.0439 40.6207 46.0671 40.1566 46.0767 39.6905C46.2125 39.4813 46.3019 39.2451 46.3387 38.9981C46.577 39.0692 46.8308 39.0689 47.0688 38.9971C47.3069 38.9254 47.5189 38.7853 47.6787 38.5943C47.8386 38.4032 47.9393 38.1694 47.9686 37.9216C47.9978 37.6738 47.9543 37.4229 47.8434 37.1996L47.8492 37.1976Z" fill="#FF9A7D"/>
<path d="M42.3545 37.3542C42.3884 37.4243 42.4394 37.4846 42.5027 37.5295C42.566 37.5745 42.6396 37.6027 42.7167 37.6115C42.7938 37.6184 42.8714 37.6055 42.9421 37.574C43.0129 37.5426 43.0746 37.4936 43.1213 37.4316" stroke="#270504" stroke-linecap="round" stroke-linejoin="round"/>
<path d="M44.73 37.3603C44.7802 37.429 44.8477 37.4831 44.9255 37.5171C45.0034 37.551 45.0888 37.5637 45.1731 37.5537C45.2584 37.5436 45.3394 37.5104 45.4073 37.4576C45.4752 37.4048 45.5275 37.3343 45.5584 37.2539" stroke="#270504" stroke-linecap="round" stroke-linejoin="round"/>
<path d="M43.9767 37.2771L44.0095 38.099L43.8457 38.0874" stroke="#270504" stroke-linecap="round" stroke-linejoin="round"/>
<path d="M43.3276 38.4587C43.3301 38.517 43.3484 38.5736 43.3805 38.6222C43.4126 38.6709 43.4573 38.7098 43.5098 38.7349C43.5623 38.7599 43.6206 38.7702 43.6785 38.7644C43.7364 38.7587 43.7916 38.7373 43.8382 38.7024" stroke="#270504" stroke-linecap="round" stroke-linejoin="round"/>
<path d="M42.2197 36.0876C42.3332 35.9088 42.5092 35.7791 42.7132 35.724C42.9171 35.6689 43.1342 35.6924 43.3218 35.7898" stroke="#270504" stroke-linecap="round" stroke-linejoin="round"/>
<path d="M44.5029 35.9057C44.5785 35.8217 44.6732 35.7572 44.779 35.7177C44.8847 35.6782 44.9984 35.665 45.1103 35.679C45.2223 35.6931 45.3292 35.734 45.422 35.7984C45.5148 35.8628 45.5908 35.9487 45.6435 36.0488" stroke="#270504" stroke-linecap="round" stroke-linejoin="round"/>
<path d="M43.3934 34.9119C43.3769 35.1067 43.4345 35.3005 43.5546 35.4545C43.6747 35.6084 43.8484 35.711 44.0407 35.7415" stroke="#270504" stroke-linecap="round" stroke-linejoin="round"/>
<path d="M40.5747 37.2693L41.1199 37.6561" stroke="#270504" stroke-linecap="round" stroke-linejoin="round"/>
<path d="M41.3779 38.4258C41.4203 38.654 41.4646 38.8822 41.507 39.1123" stroke="#270504" stroke-linecap="round" stroke-linejoin="round"/>
<path d="M46.5414 38.2478C46.4893 38.5302 46.4393 38.8125 46.3892 39.0949" stroke="#270504" stroke-linecap="round" stroke-linejoin="round"/>
<path d="M46.7861 37.685L47.4547 37.3853" stroke="#270504" stroke-linecap="round" stroke-linejoin="round"/>
<path d="M41.8096 39.8163C42.0975 40.0928 42.4374 40.3089 42.8094 40.4519C43.1815 40.595 43.5782 40.6622 43.9764 40.6496C44.3746 40.637 44.7664 40.5449 45.1287 40.3785C45.491 40.2122 45.8167 39.975 46.0867 39.6809" stroke="#270504" stroke-linecap="round" stroke-linejoin="round"/>
<path d="M32.7428 70.6746C32.7428 70.6746 38.0044 68.1373 40.6978 66.9614L41.5224 75.5521L34.6097 78.0662C33.7852 78.3915 32.992 78.7916 32.2399 79.2614C31.5001 79.7294 31.0339 80.0466 30.1592 80.0021C30.1549 76.7143 31.0485 73.4883 32.7428 70.6746Z" fill="#DD2120"/>
<path d="M36.0298 75.5808L36.496 77.2015" stroke="#270504" stroke-linecap="round" stroke-linejoin="round"/>
<path d="M37.1528 74.9736L37.6441 76.6697" stroke="#270504" stroke-linecap="round" stroke-linejoin="round"/>
<path d="M38.3086 74.9387L38.9058 76.1378" stroke="#270504" stroke-linecap="round" stroke-linejoin="round"/>
<path d="M58.4729 61.1303C59.4048 61.0356 60.3454 61.18 61.2064 61.5501C62.0674 61.9202 62.8207 62.5037 63.3956 63.246C63.9704 63.9884 64.348 64.8651 64.4929 65.794C64.6377 66.7229 64.5452 67.6735 64.2238 68.5567C63.5842 70.3146 61.9504 71.4982 60.1779 72.0823C56.2515 73.3722 44.162 75.9502 41.4666 76.5981L38.0488 67.7231C43.1794 65.0156 51.3155 61.8594 58.4729 61.1303Z" fill="#270504"/>
<path d="M44.2021 64.8358L50.4463 62.6543" stroke="white" stroke-linecap="round" stroke-linejoin="round"/>
<path d="M61.1623 66.4451C61.0157 66.7227 60.9457 67.0346 60.9598 67.3486C60.9738 67.6625 61.0713 67.9669 61.2422 68.2302C61.4131 68.4935 61.651 68.706 61.9314 68.8458C62.2118 68.9856 62.5243 69.0474 62.8365 69.025" stroke="white" stroke-linecap="round" stroke-linejoin="round"/>
<path d="M55.2439 70.6746C55.2439 70.6746 49.9824 68.1373 47.2889 66.9614L46.4644 75.5521L53.3771 78.0662C54.2015 78.3915 54.9947 78.7916 55.7468 79.2614C56.4866 79.7294 56.9529 80.0466 57.8275 80.0021C57.8318 76.7143 56.9382 73.4883 55.2439 70.6746Z" fill="#DD2120"/>
<path d="M49.5083 73.6392C49.2386 74.4347 48.9676 75.2295 48.6953 76.0237" stroke="#270504" stroke-linecap="round" stroke-linejoin="round"/>
<path d="M50.4925 73.8752L49.9146 76.196" stroke="#270504" stroke-linecap="round" stroke-linejoin="round"/>
<path d="M51.7953 74.2715C51.6168 75.058 51.437 75.8451 51.2559 76.6328" stroke="#270504" stroke-linecap="round" stroke-linejoin="round"/>
<path d="M29.5138 61.1303C28.5819 61.0356 27.6413 61.18 26.7803 61.5501C25.9192 61.9202 25.1659 62.5037 24.5911 63.246C24.0162 63.9884 23.6387 64.8651 23.4938 65.794C23.3489 66.7229 23.4415 67.6735 23.7628 68.5567C24.4025 70.3146 26.0362 71.4982 27.8087 72.0823C31.7352 73.3722 43.8247 75.9502 46.52 76.5981L49.9378 67.7231C44.8072 65.0156 36.6712 61.8594 29.5138 61.1303Z" fill="#270504"/>
<path d="M38.4224 62.9426C42.4741 64.0926 46.3826 65.701 50.0726 67.7369" stroke="white" stroke-linecap="round" stroke-linejoin="round"/>
<path d="M41.0483 75.368L43.7861 76.0527L46.5931 66.1179" stroke="white" stroke-linecap="round" stroke-linejoin="round"/>
<path d="M25.208 68.375C25.4565 68.4028 25.7079 68.3647 25.9372 68.2644C26.1664 68.1642 26.3654 68.0053 26.5144 67.8037C26.6633 67.6022 26.757 67.3649 26.7861 67.1156C26.8151 66.8663 26.7785 66.6137 26.6799 66.3831" stroke="white" stroke-linecap="round" stroke-linejoin="round"/>
<path d="M30.0553 27.9881C30.0557 27.1882 29.8701 26.3992 29.5133 25.6839C29.1566 24.9685 28.6385 24.3466 28.0003 23.8676C27.3621 23.3885 26.6214 23.0655 25.837 22.9243C25.0526 22.7831 24.2462 22.8275 23.4819 23.054C22.7176 23.2805 22.0165 23.6828 21.4343 24.2291C20.8521 24.7753 20.4049 25.4504 20.1282 26.2006C19.8515 26.9508 19.753 27.7554 19.8405 28.5505C19.928 29.3456 20.1991 30.1093 20.6322 30.7807C21.3532 31.869 21.8848 33.0723 22.2044 34.3392L22.345 34.9194H27.5199L27.6413 34.4127C27.9729 33.1129 28.5179 31.8776 29.2538 30.7575C29.7799 29.9306 30.0581 28.9693 30.0553 27.9881Z" fill="#FDB913"/>
<path d="M23.9111 26.6441C24.0579 26.4279 24.2568 26.2526 24.4894 26.1345C24.722 26.0164 24.9806 25.9595 25.2411 25.969C25.5016 25.9786 25.7554 26.0543 25.9788 26.189C26.2022 26.3238 26.3879 26.5132 26.5186 26.7396C26.6492 26.966 26.7206 27.222 26.7259 27.4835C26.7312 27.7451 26.6704 28.0038 26.5491 28.2354C26.4277 28.4669 26.2499 28.6638 26.0322 28.8076C25.8144 28.9515 25.5639 29.0375 25.3041 29.0577C24.9592 29.079 24.6143 28.9842 24.2714 29.0152C24.0558 29.0338 23.8471 29.1005 23.6606 29.2105C23.4741 29.3205 23.3144 29.4711 23.1933 29.651C23.0723 29.831 22.9928 30.0359 22.9608 30.2507C22.9288 30.4654 22.945 30.6847 23.0084 30.8923C23.0717 31.1 23.1805 31.2908 23.3268 31.4508C23.4731 31.6108 23.6532 31.7359 23.8539 31.817C24.0546 31.8981 24.2708 31.9331 24.4867 31.9195C24.7026 31.9058 24.9128 31.8439 25.1018 31.7382C25.1384 33.6721 25.2135 35.6061 25.2501 37.5517" stroke="#270504" stroke-width="1.6" stroke-linecap="round" stroke-linejoin="round"/>
<path d="M24.7588 25.5186C24.7357 26.96 24.7119 28.3995 24.6875 29.8371" stroke="#270504" stroke-width="1.6" stroke-linecap="round" stroke-linejoin="round"/>
<path d="M25.4004 25.2537C25.4286 26.855 25.4569 28.4563 25.4852 30.0576" stroke="#270504" stroke-width="1.6" stroke-linecap="round" stroke-linejoin="round"/>
<path d="M24.5703 23.7219C23.5493 23.7984 22.5907 24.2442 21.8725 24.9765C21.1542 25.7089 20.7252 26.678 20.665 27.7039" stroke="white" stroke-linecap="round" stroke-linejoin="round"/>
<path d="M27.6468 37.3912C27.8001 37.3912 27.9471 37.3301 28.0555 37.2213C28.1639 37.1125 28.2248 36.9649 28.2248 36.811C28.2248 36.6571 28.1639 36.5096 28.0555 36.4008C27.9471 36.292 27.8001 36.2308 27.6468 36.2308H27.5197V35.8266H27.6449C27.7982 35.8266 27.9452 35.7655 28.0536 35.6567C28.162 35.5479 28.2229 35.4003 28.2229 35.2464C28.2229 35.0926 28.162 34.945 28.0536 34.8362C27.9452 34.7274 27.7982 34.6663 27.6449 34.6663H22.2176C22.0643 34.6663 21.9173 34.7274 21.8089 34.8362C21.7005 34.945 21.6396 35.0926 21.6396 35.2464C21.6396 35.4003 21.7005 35.5479 21.8089 35.6567C21.9173 35.7655 22.0643 35.8266 22.2176 35.8266H22.3448V36.2328H22.2176C22.0643 36.2328 21.9173 36.2939 21.8089 36.4027C21.7005 36.5115 21.6396 36.6591 21.6396 36.8129C21.6396 36.9668 21.7005 37.1144 21.8089 37.2232C21.9173 37.332 22.0643 37.3931 22.2176 37.3931H22.3448V37.7973H22.2176C22.0643 37.7973 21.9173 37.8585 21.8089 37.9673C21.7005 38.0761 21.6396 38.2236 21.6396 38.3775C21.6396 38.5314 21.7005 38.679 21.8089 38.7878C21.9173 38.8966 22.0643 38.9577 22.2176 38.9577H27.6468C27.8001 38.9577 27.9471 38.8966 28.0555 38.7878C28.1639 38.679 28.2248 38.5314 28.2248 38.3775C28.2248 38.2236 28.1639 38.0761 28.0555 37.9673C27.9471 37.8585 27.8001 37.7973 27.6468 37.7973H27.5197V37.3931L27.6468 37.3912Z" fill="#3C5BBF"/>
<path d="M22.2178 35.8284H27.5198" stroke="white" stroke-linecap="round" stroke-linejoin="round"/>
<path d="M22.3447 37.3892H27.5196" stroke="white" stroke-linecap="round" stroke-linejoin="round"/>
<path d="M42.9712 7.17685C42.9721 6.06029 42.7135 4.95892 42.2159 3.96033C41.7182 2.96174 40.9954 2.09347 40.1048 1.42456C39.2141 0.755658 38.1803 0.304575 37.0855 0.107183C35.9907 -0.0902092 34.8651 -0.0284645 33.7983 0.287507C32.7314 0.603479 31.7527 1.16496 30.94 1.9273C30.1273 2.68965 29.503 3.63182 29.1168 4.6789C28.7305 5.72598 28.593 6.84907 28.7151 7.95888C28.8372 9.06869 29.2156 10.1346 29.8201 11.0718C30.825 12.5905 31.5663 14.2691 32.0126 16.0363L32.2053 16.8563H39.4301L39.6016 16.1485C40.0596 14.3313 40.8169 12.6036 41.8422 11.037C42.5798 9.8857 42.9717 8.54566 42.9712 7.17685Z" fill="#FDB913"/>
<path d="M36.7193 11.1086C37.4527 10.9347 38.1192 10.5487 38.6363 9.99851C38.4581 9.86592 38.3348 9.67217 38.2897 9.45416C38.2446 9.23615 38.281 9.00912 38.3919 8.81631C38.5029 8.6235 38.6805 8.47837 38.8912 8.40858C39.1018 8.33878 39.3306 8.34918 39.5341 8.43781C39.7498 7.71294 39.7498 6.94057 39.5341 6.2157C39.3306 6.30432 39.1018 6.31473 38.8912 6.24493C38.6805 6.17514 38.5029 6.03001 38.3919 5.8372C38.281 5.64439 38.2446 5.41736 38.2897 5.19935C38.3348 4.98134 38.4581 4.78759 38.6363 4.65499C38.1186 4.10512 37.4524 3.71868 36.7193 3.54297C36.6943 3.76437 36.5889 3.96875 36.4233 4.11715C36.2577 4.26555 36.0435 4.34757 35.8215 4.34757C35.5995 4.34757 35.3853 4.26555 35.2197 4.11715C35.0542 3.96875 34.9488 3.76437 34.9237 3.54297C34.1873 3.71736 33.5177 4.10386 32.9971 4.65499C33.1753 4.78759 33.2987 4.98134 33.3437 5.19935C33.3888 5.41736 33.3524 5.64439 33.2415 5.8372C33.1306 6.03001 32.9529 6.17514 32.7422 6.24493C32.5316 6.31473 32.3028 6.30432 32.0993 6.2157C31.8836 6.94057 31.8836 7.71294 32.0993 8.43781C32.3028 8.34918 32.5316 8.33878 32.7422 8.40858C32.9529 8.47837 33.1306 8.6235 33.2415 8.81631C33.3524 9.00912 33.3888 9.23615 33.3437 9.45416C33.2987 9.67217 33.1753 9.86592 32.9971 9.99851C33.5173 10.5497 34.1872 10.9357 34.9237 11.1086L35.5576 17.3804H36.2916L36.7193 11.1086ZM35.8215 8.86522C35.5167 8.86522 35.2187 8.77448 34.9652 8.60447C34.7118 8.43447 34.5142 8.19283 34.3976 7.91013C34.2809 7.62742 34.2504 7.31633 34.3098 7.01621C34.3693 6.71609 34.5161 6.44042 34.7317 6.22404C34.9472 6.00767 35.2219 5.86031 35.5208 5.80062C35.8198 5.74092 36.1297 5.77156 36.4114 5.88866C36.693 6.00576 36.9337 6.20406 37.1031 6.45849C37.2724 6.71292 37.3628 7.01205 37.3628 7.31805C37.3628 7.72838 37.2004 8.12191 36.9114 8.41206C36.6223 8.70221 36.2303 8.86522 35.8215 8.86522Z" stroke="#270504" stroke-width="2" stroke-linecap="round" stroke-linejoin="round"/>
<path d="M35.29 1.17969C33.9074 1.28274 32.609 1.88621 31.6363 2.87794C30.6636 3.86967 30.0826 5.18219 30.0015 6.57155" stroke="white" stroke-linecap="round" stroke-linejoin="round"/>
<path d="M39.6112 20.3027C39.8243 20.3027 40.0286 20.2178 40.1793 20.0665C40.33 19.9153 40.4146 19.7101 40.4146 19.4963C40.4146 19.2824 40.33 19.0772 40.1793 18.926C40.0286 18.7748 39.8243 18.6898 39.6112 18.6898H39.434V18.1232H39.6112C39.8177 18.113 40.0125 18.0235 40.155 17.8732C40.2976 17.7229 40.3772 17.5233 40.3772 17.3157C40.3772 17.1082 40.2976 16.9086 40.155 16.7583C40.0125 16.6079 39.8177 16.5184 39.6112 16.5083H32.0319C31.8254 16.5184 31.6307 16.6079 31.4881 16.7583C31.3455 16.9086 31.266 17.1082 31.266 17.3157C31.266 17.5233 31.3455 17.7229 31.4881 17.8732C31.6307 18.0235 31.8254 18.113 32.0319 18.1232H32.2092V18.6898H32.0319C31.8188 18.6898 31.6145 18.7748 31.4638 18.926C31.3132 19.0772 31.2285 19.2824 31.2285 19.4963C31.2285 19.7101 31.3132 19.9153 31.4638 20.0665C31.6145 20.2178 31.8188 20.3027 32.0319 20.3027H32.2092V20.8694H32.0319C31.8254 20.8795 31.6307 20.969 31.4881 21.1193C31.3455 21.2696 31.266 21.4692 31.266 21.6768C31.266 21.8844 31.3455 22.084 31.4881 22.2343C31.6307 22.3846 31.8254 22.4741 32.0319 22.4842H39.6112C39.8177 22.4741 40.0125 22.3846 40.155 22.2343C40.2976 22.084 40.3772 21.8844 40.3772 21.6768C40.3772 21.4692 40.2976 21.2696 40.155 21.1193C40.0125 20.969 39.8177 20.8795 39.6112 20.8694H39.434V20.3027H39.6112Z" fill="#DD2120"/>
<path d="M32.209 18.123H39.4723" stroke="white" stroke-linecap="round" stroke-linejoin="round"/>
<path d="M32.209 20.3027H39.4723" stroke="white" stroke-linecap="round" stroke-linejoin="round"/>
<path d="M62.3915 9.1902C62.3946 8.58702 62.2571 7.99148 61.9901 7.45114C61.723 6.9108 61.3338 6.44064 60.8534 6.07823C60.3731 5.71582 59.815 5.4712 59.2236 5.36392C58.6323 5.25664 58.0242 5.28966 57.4479 5.46035C56.8715 5.63104 56.343 5.93467 55.9044 6.34699C55.4658 6.7593 55.1293 7.26886 54.9219 7.83496C54.7145 8.40107 54.6418 9.00803 54.7098 9.60735C54.7777 10.2067 54.9843 10.7817 55.3131 11.2866C55.8541 12.1043 56.2534 13.0079 56.4941 13.9593L56.6001 14.4003H60.488L60.5785 14.0135C60.8225 13.0371 61.2269 12.1083 61.7749 11.2653C62.1747 10.6474 62.3887 9.92698 62.3915 9.1902Z" fill="#FDB913"/>
<path d="M59.207 10.7934C59.6052 10.6138 59.9479 10.3299 60.1992 9.9715C60.3229 9.79188 60.4082 9.58846 60.4496 9.3741C60.4911 9.15973 60.4878 8.93907 60.4401 8.72603C60.3882 8.51347 60.2783 8.31963 60.1228 8.16625C59.9673 8.01287 59.7722 7.90602 59.5596 7.85769C59.1338 7.77839 58.5963 8.0008 58.4576 8.41467C58.3169 8.2197 58.1074 8.08595 57.8718 8.04067C57.6363 7.99539 57.3924 8.042 57.1899 8.17099C56.9949 8.31246 56.8448 8.50747 56.7577 8.73254C56.6705 8.95761 56.65 9.20316 56.6986 9.43966C56.8084 9.91455 57.0997 10.3271 57.5097 10.5884C57.7976 10.7886 58.1269 10.9208 58.473 10.9752C58.473 12.3735 58.5077 13.7447 58.5096 15.1448" stroke="#270504" stroke-width="1.6" stroke-linecap="round" stroke-linejoin="round"/>
<path d="M58.0143 6.26978C57.3774 6.3176 56.7794 6.59523 56.3307 7.05135C55.8819 7.50747 55.6129 8.11123 55.5732 8.75104" stroke="white" stroke-linecap="round" stroke-linejoin="round"/>
<path d="M60.5727 16.2529C60.6876 16.2529 60.7979 16.2071 60.8792 16.1255C60.9605 16.0439 61.0062 15.9332 61.0062 15.8178C61.0062 15.7024 60.9605 15.5917 60.8792 15.5101C60.7979 15.4285 60.6876 15.3827 60.5727 15.3827H60.4783V15.079H60.5727C60.6319 15.083 60.6913 15.0747 60.7472 15.0547C60.8031 15.0347 60.8543 15.0033 60.8977 14.9626C60.941 14.9219 60.9756 14.8727 60.9992 14.8181C61.0229 14.7634 61.0351 14.7044 61.0351 14.6449C61.0351 14.5853 61.0229 14.5263 60.9992 14.4717C60.9756 14.417 60.941 14.3678 60.8977 14.3271C60.8543 14.2864 60.8031 14.255 60.7472 14.235C60.6913 14.215 60.6319 14.2067 60.5727 14.2107H56.494C56.3843 14.218 56.2815 14.267 56.2063 14.3476C56.1312 14.4282 56.0894 14.5345 56.0894 14.6449C56.0894 14.7552 56.1312 14.8615 56.2063 14.9421C56.2815 15.0227 56.3843 15.0717 56.494 15.079H56.5904V15.3827H56.494C56.3791 15.3827 56.2688 15.4285 56.1875 15.5101C56.1062 15.5917 56.0605 15.7024 56.0605 15.8178C56.0605 15.9332 56.1062 16.0439 56.1875 16.1255C56.2688 16.2071 56.3791 16.2529 56.494 16.2529H56.5904V16.5566H56.494C56.3843 16.5639 56.2815 16.6129 56.2063 16.6935C56.1312 16.7741 56.0894 16.8804 56.0894 16.9907C56.0894 17.1011 56.1312 17.2074 56.2063 17.288C56.2815 17.3686 56.3843 17.4176 56.494 17.4249H60.5727C60.6319 17.4289 60.6913 17.4206 60.7472 17.4006C60.8031 17.3806 60.8543 17.3492 60.8977 17.3085C60.941 17.2678 60.9756 17.2186 60.9992 17.1639C61.0229 17.1093 61.0351 17.0503 61.0351 16.9907C61.0351 16.9312 61.0229 16.8722 60.9992 16.8175C60.9756 16.7629 60.941 16.7137 60.8977 16.673C60.8543 16.6323 60.8031 16.6009 60.7472 16.5809C60.6913 16.5609 60.6319 16.5526 60.5727 16.5566H60.4783V16.2529H60.5727Z" fill="#3C5BBF"/>
<path d="M56.5884 15.0791H60.4763" stroke="white" stroke-linecap="round" stroke-linejoin="round"/>
<path d="M60.4763 16.251H56.5884" stroke="white" stroke-linecap="round" stroke-linejoin="round"/>
<path d="M71.1942 28.2668C71.1946 27.2854 70.9668 26.3175 70.5291 25.44C70.0914 24.5626 69.4558 23.7997 68.6728 23.212C67.8898 22.6244 66.981 22.2283 66.0187 22.0551C65.0564 21.8819 64.0672 21.9364 63.1296 22.2144C62.192 22.4924 61.3319 22.9861 60.6177 23.6562C59.9036 24.3264 59.355 25.1546 59.0157 26.075C58.6764 26.9953 58.5556 27.9824 58.6631 28.9578C58.7705 29.9333 59.1031 30.8701 59.6345 31.6938C60.5183 33.0288 61.1698 34.5047 61.5612 36.0587L61.7346 36.7801H68.0924L68.2427 36.1573C68.6452 34.5602 69.3107 33.0418 70.2117 31.6648C70.8571 30.6501 71.1982 29.4706 71.1942 28.2668Z" fill="#FDB913"/>
<path d="M67.8478 27.9514C67.8872 28.3622 67.8356 28.7766 67.6967 29.165C67.5577 29.5534 67.3348 29.9061 67.0441 30.1978C66.7533 30.4895 66.4018 30.713 66.0148 30.8523C65.6278 30.9915 65.2149 31.0431 64.8057 31.0032V36.6581" stroke="#270504" stroke-width="2" stroke-linecap="round" stroke-linejoin="round"/>
<path d="M67.6108 27.0637C67.4405 26.6882 67.1895 26.3551 66.8759 26.0884C66.5622 25.8217 66.1937 25.628 65.7966 25.5212C65.3996 25.4143 64.9839 25.397 64.5794 25.4704C64.1749 25.5439 63.7916 25.7062 63.457 25.9459" stroke="#270504" stroke-width="2" stroke-linecap="round" stroke-linejoin="round"/>
<path d="M62.8098 26.5957C62.427 27.1342 62.2467 27.7915 62.301 28.4508C62.3553 29.1101 62.6407 29.7287 63.1065 30.1967C63.3421 30.4346 63.6189 30.6273 63.9234 30.7653" stroke="#270504" stroke-width="2" stroke-linecap="round" stroke-linejoin="round"/>
<path d="M63.4377 29.3284L63.9212 30.7653L62.4204 30.6551" stroke="#270504" stroke-width="2" stroke-linecap="round" stroke-linejoin="round"/>
<path d="M64.8981 26.2903L63.457 25.946L64.2084 24.7393" stroke="#270504" stroke-width="2" stroke-linecap="round" stroke-linejoin="round"/>
<path d="M66.9883 29.1331L67.8283 27.9089L68.6779 29.0461" stroke="#270504" stroke-width="2" stroke-linecap="round" stroke-linejoin="round"/>
<path d="M64.3777 22.9038C63.1208 22.9977 61.9405 23.5465 61.0564 24.4483C60.1723 25.35 59.6444 26.5433 59.5708 27.8064" stroke="white" stroke-linecap="round" stroke-linejoin="round"/>
<path d="M68.239 39.8048C68.4265 39.8048 68.6063 39.73 68.7389 39.5969C68.8715 39.4638 68.946 39.2833 68.946 39.0951C68.946 38.9068 68.8715 38.7263 68.7389 38.5932C68.6063 38.4601 68.4265 38.3853 68.239 38.3853H68.0848V37.8883H68.239C68.4265 37.8883 68.6063 37.8135 68.7389 37.6804C68.8715 37.5473 68.946 37.3668 68.946 37.1785C68.946 36.9903 68.8715 36.8097 68.7389 36.6766C68.6063 36.5435 68.4265 36.4688 68.239 36.4688H61.5787C61.3911 36.4688 61.2113 36.5435 61.0787 36.6766C60.9461 36.8097 60.8716 36.9903 60.8716 37.1785C60.8716 37.3668 60.9461 37.5473 61.0787 37.6804C61.2113 37.8135 61.3911 37.8883 61.5787 37.8883H61.7328V38.3853H61.5787C61.3911 38.3853 61.2113 38.4601 61.0787 38.5932C60.9461 38.7263 60.8716 38.9068 60.8716 39.0951C60.8716 39.2833 60.9461 39.4638 61.0787 39.5969C61.2113 39.73 61.3911 39.8048 61.5787 39.8048H61.7328V40.3019H61.5787C61.3911 40.3019 61.2113 40.3766 61.0787 40.5097C60.9461 40.6428 60.8716 40.8234 60.8716 41.0116C60.8716 41.1999 60.9461 41.3804 61.0787 41.5135C61.2113 41.6466 61.3911 41.7214 61.5787 41.7214H68.239C68.4265 41.7214 68.6063 41.6466 68.7389 41.5135C68.8715 41.3804 68.946 41.1999 68.946 41.0116C68.946 40.8234 68.8715 40.6428 68.7389 40.5097C68.6063 40.3766 68.4265 40.3019 68.239 40.3019H68.0848V39.8048H68.239Z" fill="#270504"/>
<path d="M61.7324 37.8882H68.0825" stroke="white" stroke-linecap="round" stroke-linejoin="round"/>
<path d="M68.0825 39.8047H61.7324" stroke="white" stroke-linecap="round" stroke-linejoin="round"/>
</g>
<defs>
<clipPath id="clip0_1061_4921">
<rect width="87.0175" height="80" fill="white"/>
</clipPath>
</defs>
</svg>
