<svg width="40" height="40" viewBox="0 0 40 40" fill="none" xmlns="http://www.w3.org/2000/svg">
<path d="M26 19.5312C26 20.7674 25.6334 21.9758 24.9467 23.0036C24.2599 24.0314 23.2838 24.8325 22.1418 25.3055C20.9997 25.7785 19.7431 25.9023 18.5307 25.6612C17.3183 25.42 16.2047 24.8247 15.3306 23.9507C14.4565 23.0766 13.8612 21.9629 13.6201 20.7506C13.3789 19.5382 13.5027 18.2815 13.9758 17.1395C14.4488 15.9974 15.2499 15.0213 16.2777 14.3346C17.3055 13.6478 18.5139 13.2812 19.75 13.2812C21.406 13.2864 22.9927 13.9465 24.1637 15.1175C25.3347 16.2885 25.9948 17.8752 26 19.5312ZM39.2812 10.9375V28.125C39.2812 31.0258 38.1289 33.8078 36.0777 35.859C34.0266 37.9102 31.2446 39.0625 28.3438 39.0625H11.1562C8.25544 39.0625 5.47345 37.9102 3.42227 35.859C1.37109 33.8078 0.21875 31.0258 0.21875 28.125V10.9375C0.21875 8.03669 1.37109 5.2547 3.42227 3.20352C5.47345 1.15234 8.25544 0 11.1562 0H28.3438C31.2446 0 34.0266 1.15234 36.0777 3.20352C38.1289 5.2547 39.2812 8.03669 39.2812 10.9375ZM29.125 19.5312C29.125 17.677 28.5752 15.8645 27.545 14.3228C26.5149 12.7811 25.0507 11.5795 23.3377 10.8699C21.6246 10.1603 19.7396 9.97465 17.921 10.3364C16.1025 10.6981 14.432 11.591 13.1209 12.9021C11.8098 14.2132 10.9169 15.8837 10.5551 17.7023C10.1934 19.5209 10.3791 21.4058 11.0886 23.1189C11.7982 24.832 12.9998 26.2961 14.5415 27.3263C16.0832 28.3564 17.8958 28.9062 19.75 28.9062C22.2364 28.9062 24.621 27.9185 26.3791 26.1604C28.1373 24.4022 29.125 22.0177 29.125 19.5312ZM32.25 9.375C32.25 8.91145 32.1125 8.45831 31.855 8.07288C31.5975 7.68746 31.2314 7.38705 30.8032 7.20966C30.3749 7.03226 29.9037 6.98585 29.449 7.07628C28.9944 7.16672 28.5767 7.38994 28.249 7.71772C27.9212 8.0455 27.698 8.46311 27.6075 8.91776C27.5171 9.3724 27.5635 9.84365 27.7409 10.2719C27.9183 10.7002 28.2187 11.0662 28.6041 11.3238C28.9896 11.5813 29.4427 11.7188 29.9062 11.7188C30.5279 11.7188 31.124 11.4718 31.5635 11.0323C32.0031 10.5927 32.25 9.9966 32.25 9.375Z" fill="#E2E5FC"/>
</svg>
