<svg width="30" height="30" viewBox="0 0 30 30" fill="none" xmlns="http://www.w3.org/2000/svg">
<path d="M14.9962 7.30355C10.7371 7.30355 7.2998 10.7409 7.2998 15C7.2998 19.2591 10.7371 22.6964 14.9962 22.6964C19.2554 22.6964 22.6927 19.2591 22.6927 15C22.6927 10.7409 19.2554 7.30355 14.9962 7.30355ZM14.9962 20.0021C12.2419 20.0021 9.99412 17.7544 9.99412 15C9.99412 12.2456 12.2419 9.99787 14.9962 9.99787C17.7506 9.99787 19.9984 12.2456 19.9984 15C19.9984 17.7544 17.7506 20.0021 14.9962 20.0021ZM23.0079 5.19462C22.0135 5.19462 21.2104 5.99767 21.2104 6.99209C21.2104 7.98651 22.0135 8.78955 23.0079 8.78955C24.0023 8.78955 24.8054 7.99026 24.8054 6.99209C24.8057 6.75596 24.7594 6.52209 24.6692 6.30388C24.5789 6.08567 24.4465 5.8874 24.2796 5.72043C24.1126 5.55346 23.9143 5.42107 23.6961 5.33085C23.4779 5.24062 23.244 5.19433 23.0079 5.19462ZM29.9989 15C29.9989 12.9286 30.0176 10.876 29.9013 8.80832C29.785 6.40669 29.2371 4.27525 27.4809 2.51907C25.721 0.759128 23.5933 0.215011 21.1917 0.098682C19.1203 -0.0176466 17.0676 0.00111617 15 0.00111617C12.9286 0.00111617 10.876 -0.0176466 8.80832 0.098682C6.40669 0.215011 4.27525 0.762881 2.51907 2.51907C0.759128 4.27901 0.215011 6.40669 0.098682 8.80832C-0.0176466 10.8797 0.00111617 12.9324 0.00111617 15C0.00111617 17.0676 -0.0176466 19.124 0.098682 21.1917C0.215011 23.5933 0.762881 25.7247 2.51907 27.4809C4.27901 29.2409 6.40669 29.785 8.80832 29.9013C10.8797 30.0176 12.9324 29.9989 15 29.9989C17.0714 29.9989 19.124 30.0176 21.1917 29.9013C23.5933 29.785 25.7247 29.2371 27.4809 27.4809C29.2409 25.721 29.785 23.5933 29.9013 21.1917C30.0214 19.124 29.9989 17.0714 29.9989 15ZM26.6967 23.8485C26.4227 24.5314 26.0925 25.0418 25.5634 25.5671C25.0343 26.0962 24.5277 26.4265 23.8447 26.7004C21.8709 27.4847 17.184 27.3083 14.9962 27.3083C12.8085 27.3083 8.11785 27.4847 6.14402 26.7042C5.46106 26.4302 4.95071 26.1 4.42536 25.5709C3.89625 25.0418 3.56603 24.5352 3.29209 23.8522C2.51156 21.8746 2.68793 17.1877 2.68793 15C2.68793 12.8123 2.51156 8.1216 3.29209 6.14777C3.56603 5.46481 3.89625 4.95446 4.42536 4.42911C4.95446 3.90375 5.46106 3.56978 6.14402 3.29584C8.11785 2.51532 12.8085 2.69168 14.9962 2.69168C17.184 2.69168 21.8746 2.51532 23.8485 3.29584C24.5314 3.56978 25.0418 3.9 25.5671 4.42911C26.0963 4.95822 26.4265 5.46481 26.7004 6.14777C27.4809 8.1216 27.3046 12.8123 27.3046 15C27.3046 17.1877 27.4809 21.8746 26.6967 23.8485Z" fill="#A5A8BA"/>
</svg>
