<svg width="38" height="39" viewBox="0 0 38 39" fill="none" xmlns="http://www.w3.org/2000/svg">
<path d="M31.9479 32.7375H26.3958V24.0354C26.3958 21.9604 26.3542 19.2896 23.5 19.2896C20.6062 19.2896 20.1646 21.5479 20.1646 23.8833V32.7375H14.6104V14.8437H19.9437V17.2812H20.0167C20.7625 15.8771 22.575 14.3917 25.2833 14.3917C30.9083 14.3917 31.95 18.0958 31.95 22.9146V32.7375H31.9479ZM8.33958 12.3958C7.91574 12.3964 7.49596 12.3133 7.1043 12.1513C6.71264 11.9893 6.35681 11.7515 6.0572 11.4517C5.7576 11.1519 5.52011 10.796 5.35836 10.4042C5.1966 10.0124 5.11376 9.59259 5.11458 9.16875C5.115 8.53091 5.30454 7.90751 5.65925 7.37739C6.01396 6.84727 6.5179 6.43424 7.10735 6.19053C7.6968 5.94681 8.34528 5.88337 8.97079 6.00821C9.5963 6.13305 10.1707 6.44057 10.6215 6.89189C11.0722 7.3432 11.379 7.91804 11.503 8.54371C11.6271 9.16938 11.5628 9.81778 11.3183 10.4069C11.0738 10.996 10.6601 11.4995 10.1296 11.8535C9.59899 12.2075 8.97743 12.3962 8.33958 12.3958ZM11.1229 32.7375H5.55417V14.8437H11.125V32.7375H11.1229ZM34.7292 0.78125H2.76875C1.23542 0.78125 0 1.98958 0 3.48333V35.5792C0 37.0729 1.2375 38.2812 2.76667 38.2812H34.7208C36.25 38.2812 37.5 37.0729 37.5 35.5792V3.48333C37.5 1.98958 36.25 0.78125 34.7208 0.78125H34.7292Z" fill="#E2E5FC"/>
</svg>
