<svg width="56" height="112" viewBox="0 0 56 112" fill="none" xmlns="http://www.w3.org/2000/svg">
<path d="M28.0001 112C38.8656 112 47.6738 109.874 47.6738 107.252C47.6738 104.629 38.8656 102.503 28.0001 102.503C17.1346 102.503 8.32642 104.629 8.32642 107.252C8.32642 109.874 17.1346 112 28.0001 112Z" fill="#00FFFF" fill-opacity="0.04"/>
<path d="M14.6958 23.0459L26.9919 38.9374L26.7397 69.644H25.2263C25.1633 69.0742 25.1002 68.5677 25.0371 68.0612C24.1543 63.5027 21.0015 60.4636 21.0015 60.4636C14.822 54.0691 12.9303 47.4212 12.4258 44.0024V43.9391C12.2366 42.6728 12.1736 41.8497 12.1736 41.7231C12.1736 41.6598 12.1736 41.6598 12.1736 41.6598L22.8302 47.7378L14.5697 39.6338C12.8672 37.9877 12.0475 35.6451 12.3628 33.2392C12.8041 29.6937 13.6239 26.2115 14.6958 23.0459Z" fill="#FFC200"/>
<path d="M43.0713 29.6936L29.0096 40.5834L28.6943 0C28.6943 0 32.0363 3.92538 35.5675 10.13C36.5764 11.9661 36.7025 14.182 35.8828 16.0814L33.2975 21.9062L37.9637 14.6885C38.5942 16.0181 39.2248 17.411 39.7923 18.8672L33.1714 29.6303L41.3057 22.8558C41.9993 25.0718 42.6299 27.351 43.0713 29.6936Z" fill="#FF007A"/>
<path d="M27.2443 0L26.992 36.4681L15.2004 21.1464C15.9571 18.9938 17.3444 16.0181 17.9749 14.6885L22.6411 21.9062L20.0558 16.0814C19.173 14.182 19.2991 11.9661 20.3711 10.13C23.9653 3.92538 27.2443 0 27.2443 0Z" fill="#FF3000"/>
<path d="M33.1719 47.6744L43.8285 41.5964C43.8285 41.5964 43.8285 41.5964 43.8285 41.6597C43.8285 41.8497 43.7654 42.6727 43.5763 43.8757C43.5763 43.8757 43.5763 43.8757 43.5763 43.939C43.4502 44.762 43.1979 45.8384 42.8826 47.0413C41.8107 50.6501 39.6037 55.5885 35.0006 60.4002C35.0006 60.4002 31.7847 63.4393 30.9649 67.9978C30.8388 68.5043 30.7758 69.0741 30.7758 69.5806H29.2624L29.0732 42.5461L43.3871 31.4031C43.3871 31.4664 43.3871 31.593 43.4502 31.6563C43.5132 32.0362 43.5763 32.3528 43.5763 32.7326C43.6393 33.0492 43.7024 33.4291 43.7024 33.7456C43.7654 34.2521 43.8285 34.7586 43.8285 35.2018C43.9546 36.3415 43.4502 37.4811 42.6304 38.3042L33.1719 47.6744Z" fill="#FF0012"/>
<path d="M40.2334 89.4607L34.4952 80.2804V76.1018H35.8194C36.45 76.1018 37.0175 75.5953 37.0175 74.8988V70.7835C37.0175 70.1504 36.45 69.5806 35.8194 69.5806H20.1814C19.5508 69.5806 18.9833 70.1504 18.9833 70.7835V74.8988C18.9833 75.532 19.5508 76.1018 20.1814 76.1018H21.5056V80.2804L15.7674 89.4607C15.326 90.1572 15.326 91.1069 15.8305 91.8033L26.2979 106.555C26.487 106.872 26.8023 107.062 27.0545 107.188V90.9169C26.487 90.6004 26.1087 89.9672 26.1087 89.2708C26.1087 88.1945 26.9284 87.3714 28.0004 87.3714C29.0724 87.3714 29.8921 88.1945 29.8921 89.2708C29.8921 89.9672 29.5138 90.6004 28.9462 90.9169V107.188C29.2615 107.062 29.5138 106.808 29.7029 106.555L40.1703 91.8033C40.6748 91.1069 40.6748 90.2205 40.2334 89.4607Z" fill="#E2E5FC"/>
<path d="M9.20957 53.4991C8.64206 53.4991 8.13761 53.4358 7.63315 53.3725C4.22809 52.866 1.64277 50.1435 1.07526 46.7246C0.823036 45.2685 0.75998 43.8123 0.823036 42.3561C0.823036 42.0395 0.886093 41.7863 0.886093 41.4697C3.21919 44.4454 5.86757 45.775 5.86757 45.775C4.92172 45.0152 4.16504 44.1288 3.53447 43.2425C1.70583 40.6466 1.4536 37.1644 2.71474 34.1888C4.66949 29.5669 8.51595 27.2244 8.51595 27.2244C3.3453 51.0932 21.4426 64.3889 21.4426 64.3889C15.2 60.9067 9.33568 60.5268 6.24591 57.2345C5.237 56.1582 4.41726 55.0186 3.66059 53.8157C6.75036 54.4488 9.20957 53.4991 9.20957 53.4991Z" fill="#00FFFF"/>
<path d="M46.7911 53.4991C47.3586 53.4991 47.8631 53.4358 48.3675 53.3725C51.7726 52.866 54.3579 50.1435 54.9254 46.7246C55.1776 45.2685 55.2407 43.8123 55.1776 42.3561C55.1776 42.0395 55.1146 41.7863 55.1146 41.4697C52.7815 44.4454 50.1331 45.775 50.1331 45.775C51.0789 45.0152 51.8356 44.1288 52.4662 43.2425C54.3579 40.5833 54.6101 37.1644 53.349 34.1888C51.3312 29.5669 47.4847 27.2244 47.4847 27.2244C52.6554 51.0932 34.5581 64.3889 34.5581 64.3889C40.8007 60.9067 46.665 60.5268 49.7548 57.2345C50.7637 56.1582 51.5834 55.0186 52.3401 53.8157C49.1872 54.4488 46.7911 53.4991 46.7911 53.4991Z" fill="#00FFFF"/>
</svg>
