<svg width="100" height="80" viewBox="0 0 100 80" fill="none" xmlns="http://www.w3.org/2000/svg">
<path d="M18.7308 15.1238C18.274 15.1238 17.6828 15.1238 16.984 15.1238C16.8228 15.1238 16.6347 15.0969 16.4735 15.1776C16.3122 15.2314 16.151 15.366 16.0703 15.5543C16.0166 15.635 15.9897 15.7426 15.9629 15.8233C15.936 15.9309 15.9629 16.0116 15.9629 16.1193C15.9629 16.2269 15.9629 16.3345 15.9629 16.4421C15.9629 16.5497 15.9629 16.6573 15.936 16.7649C15.8822 16.9802 15.7479 17.1954 15.5598 17.3299C15.4523 17.3837 15.3448 17.4375 15.2104 17.4375C15.076 17.4375 14.9685 17.4375 14.8342 17.4375C14.3504 17.4375 13.813 17.4375 13.2755 17.4375C12.2006 17.4375 11.0181 17.4375 9.75506 17.4375C9.43258 17.4375 9.1101 17.4375 8.78762 17.4375C8.707 17.4375 8.62637 17.4375 8.54575 17.4375C8.46513 17.4375 8.38451 17.4375 8.30389 17.4106C8.14265 17.3568 7.98141 17.2761 7.87391 17.1416C7.76642 17.0071 7.6858 16.8456 7.65893 16.6842C7.65893 16.6035 7.65893 16.5228 7.65893 16.4152C7.65893 16.3345 7.65893 16.2538 7.65893 16.1462C7.65893 15.9847 7.65893 15.7964 7.60518 15.635C7.55143 15.4736 7.44394 15.3391 7.2827 15.2314C7.14833 15.1238 6.96021 15.0969 6.7721 15.0969C6.58398 15.0969 6.39587 15.0969 6.23463 15.0969C5.8584 15.0969 5.48217 15.0969 5.10594 15.0969C4.35348 15.0969 3.57415 15.0969 2.76794 15.0969C2.36484 15.0969 1.96173 15.1507 1.61238 15.3122C1.23615 15.4736 0.913665 15.7157 0.644929 16.0385C0.376194 16.3614 0.188079 16.738 0.107458 17.1416C0.0805845 17.2492 0.0805845 17.3568 0.0537109 17.4644C0.0537109 17.5451 0.0537109 17.6528 0.0537109 17.7335V35.1131C0.0537109 35.3552 0.0537109 35.5704 0.0537109 35.8126C0.0537109 36.5121 0.0537109 37.2385 0.0537109 37.9379V60.483C0.0537109 60.779 0.0805845 61.048 0.161205 61.317C0.322446 61.882 0.698676 62.3932 1.1824 62.7429C1.66612 63.0927 2.28422 63.2272 2.87543 63.2003C3.46665 63.2003 4.08474 63.2003 4.67596 63.2003C5.88527 63.2003 7.06771 63.2003 8.25014 63.2003C10.615 63.2003 12.953 63.2003 15.2373 63.2003C16.3928 63.2003 17.5215 63.2003 18.6502 63.2003C19.2146 63.2003 19.7789 63.2003 20.3164 63.2003C20.8538 63.1734 21.3913 62.9581 21.8213 62.6084C22.0363 62.447 22.2244 62.2317 22.3588 62.0165C22.52 61.8013 22.6275 61.5323 22.6812 61.2901C22.7619 61.0211 22.7887 60.7521 22.7887 60.483C22.7887 60.214 22.7887 59.945 22.7887 59.6759C22.7887 58.5998 22.7887 57.5236 22.7887 56.4744C22.7887 48.0805 22.7887 40.4938 22.7887 34.1446C22.7887 27.7953 22.7887 22.6299 22.8156 19.0786C22.8156 18.6213 22.8156 18.2177 22.8156 17.8142C22.8156 17.4106 22.7619 17.0609 22.6275 16.738C22.4931 16.4152 22.3319 16.1462 22.1169 15.9578C21.9288 15.7426 21.7138 15.5812 21.5257 15.4736C21.1226 15.2314 20.7732 15.1507 20.5314 15.1238C20.4239 15.0969 20.3164 15.0969 20.2626 15.0969C20.2089 15.0969 20.182 15.0969 20.182 15.0969C20.182 15.0969 20.0476 15.0969 19.8058 15.0969C19.537 15.1238 19.1877 15.1238 18.7308 15.1238Z" fill="#FAFAFA"/>
<path d="M20.182 15.1507C20.182 15.1507 20.2089 15.1507 20.2627 15.1507C20.3164 15.1507 20.4239 15.1507 20.5314 15.1776C20.7733 15.2045 21.1226 15.2852 21.5257 15.5274C21.7407 15.635 21.9288 15.7964 22.1438 16.0116C22.3319 16.2269 22.52 16.4959 22.6544 16.8187C22.7888 17.1416 22.8694 17.5182 22.8425 17.8949C22.8425 18.2984 22.8425 18.702 22.8425 19.1593C22.8425 22.7106 22.8425 27.8492 22.8425 34.2253C22.8425 40.5745 22.8425 48.1613 22.8425 56.5551C22.8425 57.6044 22.8425 58.6805 22.8425 59.7566C22.8425 60.0257 22.8425 60.2947 22.8425 60.5637C22.8425 60.8328 22.8156 61.1018 22.735 61.3708C22.6544 61.6399 22.5469 61.882 22.3857 62.1241C22.2244 62.3663 22.0363 62.5546 21.8213 62.7429C21.3913 63.0927 20.8539 63.3079 20.2895 63.3348C19.7252 63.3617 19.1877 63.3348 18.6234 63.3348C17.4947 63.3348 16.366 63.3348 15.2373 63.3348C12.9531 63.3348 10.6151 63.3348 8.27705 63.3348C7.09462 63.3348 5.91218 63.3348 4.70287 63.3348C4.11165 63.3348 3.49356 63.3348 2.90234 63.3348C2.31113 63.3617 1.66616 63.2003 1.15556 62.8505C0.644965 62.5008 0.268736 61.9627 0.107494 61.3977C0.0268736 61.1018 0 60.8059 0 60.483C0 60.1871 0 59.8911 0 59.5952C0 58.3846 0 57.2008 0 56.0171C0 53.6496 0 51.3359 0 49.0491C0 44.4755 0 40.0633 0 35.8664C0 31.6694 0 27.6608 0 23.9213C0 22.0649 0 20.2355 0 18.5137C0 18.2984 0 18.0832 0 17.868C0 17.7604 0 17.6528 0.0268736 17.5451C0.0537471 17.4375 0.0537471 17.3299 0.0806207 17.2223C0.188115 16.7918 0.37623 16.4152 0.644965 16.0924C0.913701 15.7695 1.26306 15.5274 1.63929 15.3391C2.01552 15.1776 2.41862 15.0969 2.82172 15.1238C3.62793 15.1238 4.38039 15.1238 5.13285 15.1238C5.50908 15.1238 5.88531 15.1238 6.26154 15.1238C6.44965 15.1238 6.63777 15.1238 6.79901 15.1238C6.98712 15.1238 7.17524 15.1776 7.33648 15.2583C7.49772 15.366 7.60522 15.5274 7.65896 15.6888C7.73958 15.8502 7.71271 16.0385 7.71271 16.2269C7.71271 16.3076 7.71271 16.3883 7.71271 16.4959C7.71271 16.5766 7.71271 16.6573 7.71271 16.738C7.73958 16.8995 7.79333 17.0609 7.90083 17.1954C8.00832 17.3299 8.14269 17.4106 8.30393 17.4375C8.38455 17.4644 8.46517 17.4644 8.54579 17.4644C8.62641 17.4644 8.70703 17.4644 8.78765 17.4644C9.11014 17.4644 9.43262 17.4644 9.7551 17.4644C11.0182 17.4644 12.2006 17.4644 13.2755 17.4644C13.813 17.4644 14.3236 17.4644 14.8342 17.4644C14.9686 17.4644 15.0761 17.4644 15.2104 17.4644C15.3179 17.4644 15.4523 17.4106 15.5329 17.3568C15.721 17.2223 15.8554 17.034 15.9091 16.8187C15.936 16.7111 15.936 16.6035 15.936 16.4959C15.936 16.3883 15.936 16.2807 15.936 16.1731C15.936 16.0654 15.936 15.9578 15.9629 15.8502C15.9898 15.7426 16.0166 15.6619 16.0704 15.5543C16.1779 15.366 16.3122 15.2583 16.5004 15.1776C16.6885 15.0969 16.8497 15.1238 17.0378 15.1238C17.7097 15.1238 18.3009 15.1238 18.7577 15.1238C19.2146 15.1238 19.5908 15.1238 19.8327 15.1238C20.0477 15.1507 20.182 15.1507 20.182 15.1507C20.182 15.1507 20.0477 15.1507 19.8327 15.1507C19.5908 15.1507 19.2415 15.1507 18.7577 15.1507C18.3009 15.1507 17.7097 15.1507 17.0378 15.1507C16.8766 15.1507 16.6885 15.1238 16.5272 15.2045C16.366 15.2583 16.2048 15.3929 16.1241 15.5812C16.0704 15.6619 16.0435 15.7695 16.0166 15.8502C15.9898 15.9578 16.0166 16.0385 16.0166 16.1462C16.0166 16.2538 16.0166 16.3614 16.0166 16.469C16.0166 16.5766 16.0166 16.6842 15.9898 16.7918C15.936 17.0071 15.8017 17.2223 15.6135 17.3568C15.506 17.4106 15.3985 17.4644 15.2642 17.4644C15.1298 17.4644 15.0223 17.4644 14.8879 17.4644C14.4042 17.4644 13.8668 17.4644 13.3293 17.4644C12.2543 17.4644 11.0719 17.4644 9.80885 17.4644C9.48637 17.4644 9.16388 17.4644 8.8414 17.4644C8.76078 17.4644 8.68016 17.4644 8.59954 17.4644C8.51892 17.4644 8.4383 17.4644 8.35768 17.4375C8.19643 17.3837 8.03519 17.303 7.9277 17.1685C7.8202 17.034 7.73958 16.8726 7.71271 16.7111C7.71271 16.6304 7.71271 16.5497 7.71271 16.4421C7.71271 16.3614 7.71271 16.2807 7.71271 16.1731C7.71271 16.0116 7.71271 15.8233 7.65896 15.6619C7.60522 15.5005 7.49772 15.366 7.36335 15.2583C7.22899 15.1507 7.04087 15.1238 6.85276 15.1238C6.66464 15.1238 6.47653 15.1238 6.31529 15.1238C5.93906 15.1238 5.56283 15.1238 5.1866 15.1238C4.43414 15.1238 3.6548 15.1238 2.87547 15.1238C2.47237 15.1238 2.06926 15.1776 1.71991 15.3391C1.34368 15.5005 1.0212 15.7426 0.75246 16.0654C0.483724 16.3883 0.295609 16.7649 0.214988 17.1685C0.188115 17.2761 0.188115 17.3837 0.161241 17.4913C0.161241 17.5989 0.161241 17.7066 0.134368 17.8142C0.134368 18.0294 0.134368 18.2446 0.134368 18.4599C0.134368 20.1817 0.134368 22.0111 0.134368 23.8674C0.134368 27.607 0.134368 31.5887 0.134368 35.8126C0.134368 40.0095 0.134368 44.4217 0.134368 48.9953C0.134368 51.2821 0.134368 53.6226 0.134368 55.9632C0.134368 57.147 0.134368 58.3308 0.134368 59.5414C0.134368 59.8373 0.134368 60.1333 0.134368 60.4292C0.134368 60.7252 0.161241 61.0211 0.241862 61.317C0.403103 61.882 0.779333 62.3932 1.26306 62.7429C1.74678 63.0927 2.36487 63.2272 2.95609 63.2003C3.54731 63.2003 4.1654 63.2003 4.75662 63.2003C5.96593 63.2003 7.14837 63.2003 8.3308 63.2003C10.6957 63.2003 13.0068 63.2003 15.2911 63.2003C16.4466 63.2003 17.5753 63.2003 18.6771 63.2003C19.2415 63.2003 19.8058 63.2003 20.3433 63.2003C20.8808 63.1734 21.4182 62.9581 21.8482 62.6084C22.0632 62.447 22.2513 62.2317 22.3857 62.0165C22.5469 61.8013 22.6544 61.5323 22.7082 61.2901C22.7888 61.0211 22.8156 60.7521 22.8156 60.483C22.8156 60.214 22.8156 59.945 22.8156 59.6759C22.8156 58.5998 22.8156 57.5236 22.8156 56.4744C22.8156 48.0805 22.8156 40.4938 22.8156 34.1446C22.8156 27.7953 22.8156 22.6299 22.8425 19.0786C22.8425 18.6213 22.8425 18.2177 22.8425 17.8142C22.8425 17.4106 22.7888 17.0609 22.6544 16.738C22.52 16.4152 22.3588 16.1462 22.1438 15.9578C21.9557 15.7426 21.7407 15.5812 21.5526 15.4736C21.1495 15.2314 20.8001 15.1507 20.5583 15.1238C20.4508 15.0969 20.3433 15.0969 20.2895 15.0969C20.2089 15.1507 20.182 15.1507 20.182 15.1507Z" fill="#263238"/>
<path d="M20.6925 19.4825C20.6925 19.4825 20.2625 19.5094 19.6982 19.5094C19.1607 19.5094 18.7039 19.5094 18.7039 19.5094C18.7039 19.5094 19.1338 19.4825 19.6982 19.4825C20.2625 19.4557 20.6925 19.4557 20.6925 19.4825Z" fill="#263238"/>
<path d="M20.6925 19.9668C20.6925 19.9668 20.2625 19.9936 19.6982 19.9936C19.1607 19.9936 18.7039 19.9936 18.7039 19.9936C18.7039 19.9936 19.1338 19.9668 19.6982 19.9668C20.2625 19.9668 20.6925 19.9668 20.6925 19.9668Z" fill="#263238"/>
<path d="M20.6925 20.4778C20.6925 20.4778 20.2625 20.5046 19.6982 20.5046C19.1607 20.5046 18.7039 20.5046 18.7039 20.5046C18.7039 20.5046 19.1338 20.4778 19.6982 20.4778C20.2625 20.4509 20.6925 20.4778 20.6925 20.4778Z" fill="#263238"/>
<path d="M2.79468 21.0428C2.79468 21.0428 2.82155 21.0428 2.84843 21.0428C2.8753 21.0428 2.92905 21.0428 2.95592 21.0428C3.06341 21.0428 3.19778 21.0428 3.3859 21.0428C3.3859 20.9621 3.3859 20.8545 3.3859 20.7469C3.3859 20.6931 3.3859 20.6393 3.3859 20.5586C3.3859 20.5048 3.46652 20.4241 3.52026 20.4241C3.60088 20.4241 3.65463 20.4241 3.70838 20.4241C3.789 20.4241 3.84275 20.5048 3.84275 20.5855C3.84275 20.72 3.84275 20.8814 3.84275 21.0428L3.81587 21.0159C3.97711 21.0159 4.16523 21.0159 4.35334 21.0159L4.32647 21.0428C4.32647 20.8276 4.32647 20.6124 4.32647 20.3702C4.32647 20.3164 4.32647 20.2626 4.32647 20.2088C4.32647 20.155 4.2996 20.1281 4.24585 20.0743C4.16523 19.9936 4.08461 19.9129 4.00399 19.8322C3.92337 19.7515 3.84275 19.6708 3.789 19.6169C3.76213 19.59 3.70838 19.5362 3.68151 19.5093C3.65463 19.4824 3.62776 19.4286 3.57401 19.4286C3.52026 19.4286 3.49339 19.4286 3.43964 19.4555C3.41277 19.4824 3.3859 19.5093 3.33215 19.5631C3.2784 19.6169 3.19778 19.6977 3.14403 19.7515C3.03654 19.886 2.90217 19.9936 2.82155 20.1012C2.79468 20.155 2.79468 20.2357 2.79468 20.2895C2.79468 20.3433 2.79468 20.4241 2.79468 20.4779C2.79468 20.5855 2.79468 20.6931 2.79468 20.7738C2.79468 20.8545 2.79468 20.9083 2.79468 20.9621C2.79468 21.0159 2.79468 21.0428 2.79468 21.0428C2.79468 21.0428 2.79468 21.0159 2.79468 20.989C2.79468 20.9352 2.79468 20.8814 2.79468 20.8007C2.79468 20.72 2.79468 20.6124 2.79468 20.5048C2.79468 20.451 2.79468 20.3702 2.79468 20.3164C2.79468 20.2895 2.79468 20.2357 2.79468 20.2088C2.79468 20.1819 2.79468 20.1281 2.82155 20.1012C2.92905 19.9936 3.03654 19.886 3.14403 19.7515C3.19778 19.6977 3.2784 19.6169 3.33215 19.5631C3.35902 19.5362 3.3859 19.5093 3.43964 19.4555C3.49339 19.4286 3.54714 19.4017 3.60088 19.4286C3.65463 19.4286 3.6815 19.4824 3.73525 19.5093C3.76213 19.5362 3.81587 19.59 3.84275 19.6169C3.92337 19.6977 4.00399 19.7515 4.05773 19.8322C4.13836 19.9129 4.21898 19.9936 4.2996 20.0474C4.32647 20.0743 4.35334 20.0743 4.35334 20.1012C4.38022 20.1281 4.38022 20.155 4.38022 20.1819C4.38022 20.2357 4.38022 20.2895 4.38022 20.3433C4.38022 20.5586 4.38022 20.8007 4.38022 21.0159V21.0428H4.35334C4.16523 21.0428 4.00399 21.0428 3.81587 21.0428H3.789V21.0159C3.789 20.8545 3.789 20.72 3.789 20.5586C3.789 20.5048 3.73525 20.451 3.68151 20.4241C3.62776 20.4241 3.54714 20.4241 3.49339 20.4241C3.43964 20.4241 3.3859 20.4779 3.3859 20.5317C3.3859 20.5855 3.3859 20.6393 3.3859 20.6931C3.3859 20.8007 3.3859 20.9083 3.3859 20.989C3.19778 20.989 3.06341 20.989 2.95592 20.989C2.90217 20.989 2.8753 20.989 2.84843 20.989C2.79468 21.0428 2.79468 21.0428 2.79468 21.0428Z" fill="#263238"/>
<path d="M16.1509 38.7185C16.1509 38.7992 14.0547 38.853 11.448 38.853C8.84125 38.853 6.74512 38.7992 6.74512 38.7185C6.74512 38.6378 8.84125 38.584 11.448 38.584C14.0547 38.584 16.1509 38.6378 16.1509 38.7185Z" fill="#263238"/>
<path d="M5.41119 26.3816L5.36035 35.5288L17.5341 35.5968L17.5849 26.4496L5.41119 26.3816Z" fill="#FF007A"/>
<path d="M5.34766 35.517L9.64742 29.8403L12.2542 33.4185L14.0547 31.5352L17.5214 35.5977L5.34766 35.517Z" fill="#FF007A"/>
<path d="M13.3831 29.1677C13.3831 29.7058 12.9531 30.1362 12.4156 30.1093C11.8782 30.1093 11.4482 29.6789 11.4751 29.1408C11.4751 28.6027 11.905 28.1723 12.4425 28.1992C12.9531 28.2261 13.3831 28.6566 13.3831 29.1677Z" fill="#FF007A"/>
<g opacity="0.2">
<path d="M5.34766 35.517L9.64742 29.8403L12.2542 33.4185L14.0547 31.5352L17.5214 35.5977L5.34766 35.517Z" fill="black"/>
</g>
<g opacity="0.2">
<path d="M13.3831 29.1677C13.3831 29.7058 12.9531 30.1362 12.4156 30.1093C11.8782 30.1093 11.4482 29.6789 11.4751 29.1408C11.4751 28.6027 11.905 28.1723 12.4425 28.1992C12.9531 28.2261 13.3831 28.6566 13.3831 29.1677Z" fill="black"/>
</g>
<path d="M19.8328 42.0813C19.8328 42.162 16.0974 42.2158 11.4751 42.2158C6.85286 42.2158 3.11743 42.162 3.11743 42.0813C3.11743 42.0006 6.85286 41.9468 11.4751 41.9468C16.0974 41.9468 19.8328 42.0006 19.8328 42.0813Z" fill="#263238"/>
<path d="M19.8328 44.4219C19.8328 44.5026 16.0974 44.5564 11.4751 44.5564C6.85286 44.5564 3.11743 44.5026 3.11743 44.4219C3.11743 44.3412 6.85286 44.2874 11.4751 44.2874C16.0974 44.2874 19.8328 44.3412 19.8328 44.4219Z" fill="#263238"/>
<path d="M19.8328 46.7353C19.8328 46.8161 16.0974 46.8699 11.4751 46.8699C6.85286 46.8699 3.11743 46.8161 3.11743 46.7353C3.11743 46.6546 6.85286 46.6008 11.4751 46.6008C16.0974 46.6008 19.8328 46.6546 19.8328 46.7353Z" fill="#263238"/>
<path d="M19.8328 49.0762C19.8328 49.1569 16.0974 49.2107 11.4751 49.2107C6.85286 49.2107 3.11743 49.1569 3.11743 49.0762C3.11743 48.9955 6.85286 48.9417 11.4751 48.9417C16.0974 48.9417 19.8328 48.9955 19.8328 49.0762Z" fill="#263238"/>
<path d="M19.8328 51.4166C19.8328 51.4974 16.0974 51.5512 11.4751 51.5512C6.85286 51.5512 3.11743 51.4974 3.11743 51.4166C3.11743 51.3359 6.85286 51.2821 11.4751 51.2821C16.0974 51.2552 19.8328 51.3359 19.8328 51.4166Z" fill="#263238"/>
<path d="M16.2318 53.5423C16.2318 53.5692 15.6943 53.623 14.8344 53.6499C13.9744 53.6768 12.7651 53.7037 11.4483 53.7037C10.1315 53.7037 8.92217 53.6768 8.06222 53.6499C7.20227 53.623 6.66479 53.5961 6.66479 53.5423C6.66479 53.5154 7.20227 53.4616 8.06222 53.4347C8.92217 53.4078 10.1315 53.3809 11.4483 53.3809C12.7651 53.3809 13.9744 53.4078 14.8344 53.4347C15.6943 53.4616 16.2318 53.4885 16.2318 53.5423Z" fill="#263238"/>
<path d="M35.4193 11.196C34.9087 11.196 34.2637 11.196 33.4844 11.196C33.2962 11.196 33.0813 11.1691 32.8931 11.2498C32.705 11.3305 32.5438 11.465 32.4363 11.6533C32.3825 11.7609 32.3557 11.8416 32.3288 11.9762C32.3019 12.0838 32.3288 12.1914 32.3019 12.3259C32.3019 12.4335 32.3019 12.568 32.3019 12.6756C32.3019 12.7833 32.3019 12.9178 32.275 13.0523C32.2213 13.2944 32.0601 13.5366 31.8451 13.6711C31.7376 13.7518 31.6032 13.7787 31.4688 13.8056C31.3345 13.8056 31.2001 13.8056 31.0657 13.8056C30.5283 13.8056 29.937 13.8056 29.3458 13.8056C28.1365 13.8056 26.8197 13.8056 25.4223 13.8056C25.0729 13.8056 24.7236 13.8056 24.3473 13.8056C24.2667 13.8056 24.1592 13.8056 24.0786 13.8056C23.998 13.8056 23.8905 13.8056 23.8099 13.7787C23.6218 13.7249 23.4605 13.6173 23.3262 13.4827C23.1918 13.3482 23.1112 13.1599 23.0843 12.9716C23.0843 12.864 23.0843 12.7833 23.0843 12.6756C23.0843 12.568 23.0843 12.4873 23.0843 12.3797C23.0843 12.1914 23.1112 11.9762 23.0305 11.8147C22.9768 11.6264 22.8424 11.465 22.6812 11.3574C22.5199 11.2498 22.3318 11.196 22.1168 11.196C21.9019 11.196 21.7137 11.196 21.4988 11.196C21.0956 11.196 20.6657 11.196 20.2626 11.196C19.4295 11.196 18.5427 11.196 17.6827 11.196C17.2527 11.196 16.7959 11.2498 16.3928 11.4381C15.9897 11.6264 15.6134 11.8954 15.3178 12.2452C15.0222 12.5949 14.8072 13.0254 14.6997 13.4827C14.6729 13.5904 14.6729 13.7249 14.646 13.8325C14.646 13.9401 14.646 14.0208 14.646 14.1284V33.4989C14.646 33.7679 14.646 34.0101 14.646 34.2791C14.646 35.0593 14.646 35.8664 14.646 36.6466V61.8013C14.646 62.1242 14.6729 62.447 14.7535 62.7429C14.9416 63.3886 15.3447 63.9536 15.9091 64.3302C16.4465 64.7069 17.1184 64.8952 17.7902 64.8414C18.462 64.8414 19.1339 64.8414 19.8057 64.8414C21.1494 64.8414 22.4662 64.8414 23.783 64.8414C26.4166 64.8414 28.9965 64.8414 31.5495 64.8414C32.8125 64.8414 34.0756 64.8414 35.3386 64.8414C35.9567 64.8414 36.6017 64.8414 37.1929 64.8414C37.811 64.8145 38.4022 64.5724 38.8591 64.1957C39.1009 64.0074 39.289 63.7653 39.4503 63.5231C39.6115 63.281 39.7459 62.9851 39.8265 62.716C39.9071 62.4201 39.934 62.1242 39.934 61.8282C39.934 61.5323 39.934 61.2364 39.934 60.9135C39.934 59.7029 39.934 58.5191 39.934 57.3623C39.934 47.9999 39.934 39.5522 39.9609 32.4497C39.9609 25.3472 39.9609 19.6167 39.9878 15.6619C39.9878 15.1777 39.9878 14.6934 39.9878 14.2629C39.9878 13.8325 39.9071 13.4289 39.7728 13.0523C39.6384 12.7025 39.4234 12.4066 39.2084 12.1645C38.9934 11.9223 38.7516 11.734 38.5366 11.6264C38.0797 11.3574 37.7035 11.2767 37.4348 11.2229C37.3004 11.196 37.1929 11.196 37.1392 11.196C37.0585 11.196 37.0317 11.196 37.0317 11.196C37.0317 11.196 36.8973 11.196 36.6286 11.196C36.333 11.196 35.9299 11.196 35.4193 11.196Z" fill="#FAFAFA"/>
<path d="M37.0318 11.1689C37.0318 11.1689 37.0586 11.1689 37.1392 11.1689C37.2199 11.1689 37.3005 11.1689 37.4349 11.1958C37.7036 11.2227 38.1067 11.3034 38.5635 11.5725C38.7785 11.707 39.0204 11.8953 39.2354 12.1105C39.4504 12.3527 39.6654 12.6486 39.7997 12.9983C39.9341 13.3481 40.0147 13.7785 40.0147 14.209C40.0147 14.6395 40.0147 15.1237 40.0147 15.608C40.0147 19.5628 40.0147 25.3201 40.0147 32.3957C40.0147 39.4982 40.0147 47.919 40.0147 57.3083C40.0147 58.4921 40.0147 59.6758 40.0147 60.8596C40.0147 61.1555 40.0147 61.4514 40.0147 61.7743C40.0147 62.0702 39.9878 62.3931 39.9072 62.689C39.8266 62.9849 39.6922 63.2809 39.531 63.523C39.3698 63.792 39.1548 64.0073 38.9129 64.2225C38.4292 64.5991 37.8111 64.8682 37.193 64.8951C36.5749 64.922 35.9568 64.8951 35.3118 64.8951C34.0488 64.8951 32.7857 64.8951 31.5227 64.8951C28.9697 64.8951 26.3898 64.8951 23.7562 64.8951C22.4394 64.8951 21.1226 64.8951 19.7789 64.8951C19.1071 64.8951 18.4353 64.8951 17.7634 64.8951C17.0916 64.922 16.3929 64.7606 15.8285 64.357C15.2642 63.9804 14.8342 63.3885 14.6461 62.7159C14.5386 62.3931 14.5117 62.0433 14.5117 61.7205C14.5117 61.3976 14.5117 61.0479 14.5117 60.725C14.5117 59.3799 14.5117 58.0616 14.5117 56.7433C14.5117 54.1068 14.5117 51.5241 14.5117 48.9682C14.5117 43.8566 14.5117 38.9333 14.5117 34.2521C14.5117 29.5709 14.5117 25.1049 14.5117 20.9349C14.5117 18.8633 14.5117 16.8455 14.5117 14.9085C14.5117 14.6664 14.5117 14.4242 14.5117 14.1821C14.5117 14.0745 14.5117 13.94 14.5386 13.8324C14.5655 13.7247 14.5655 13.5902 14.5923 13.4826C14.6998 13.0252 14.9148 12.5679 15.2104 12.2181C15.506 11.8684 15.8823 11.5725 16.3122 11.3841C16.7422 11.1958 17.1991 11.1151 17.6291 11.142C18.5159 11.142 19.3758 11.142 20.2089 11.142C20.6389 11.142 21.042 11.142 21.4451 11.142C21.6601 11.142 21.8482 11.142 22.0632 11.142C22.2782 11.142 22.4932 11.1958 22.6544 11.3034C22.8156 11.411 22.95 11.5994 23.0306 11.7877C23.1113 11.976 23.0844 12.1912 23.0844 12.3796C23.0844 12.4872 23.0844 12.5679 23.0844 12.6755C23.0844 12.7831 23.0844 12.8638 23.0844 12.9714C23.1113 13.1598 23.1919 13.3212 23.2994 13.4826C23.4069 13.6171 23.5681 13.7247 23.7562 13.7516C23.8368 13.7785 23.9443 13.7785 24.025 13.7785C24.1056 13.7785 24.2131 13.7785 24.2937 13.7785C24.6699 13.7785 25.0193 13.7785 25.3686 13.7785C26.7661 13.7785 28.0829 13.7785 29.2922 13.7785C29.8834 13.7785 30.4746 13.7785 31.0121 13.7785C31.1464 13.7785 31.2808 13.7785 31.4152 13.7785C31.5495 13.7516 31.6839 13.7247 31.7914 13.644C32.0064 13.5095 32.1676 13.2943 32.2214 13.0522C32.2483 12.9445 32.2483 12.81 32.2483 12.7024C32.2483 12.5948 32.2483 12.4603 32.2483 12.3527C32.2483 12.245 32.2483 12.1105 32.2751 12.0029C32.302 11.8953 32.3289 11.7877 32.3826 11.6801C32.4901 11.4918 32.6514 11.3303 32.8664 11.2496C33.0545 11.1689 33.2695 11.1958 33.4576 11.1958C34.21 11.1958 34.855 11.1958 35.3925 11.1958C35.9031 11.1958 36.3062 11.1958 36.5749 11.1958C36.8974 11.1689 37.0318 11.1689 37.0318 11.1689C37.0318 11.1689 36.8974 11.1689 36.6287 11.1689C36.3599 11.1689 35.9568 11.1689 35.4462 11.1689C34.9356 11.1689 34.2907 11.1689 33.5113 11.1689C33.3232 11.1689 33.1082 11.142 32.9201 11.2227C32.732 11.3034 32.5707 11.4379 32.4633 11.6263C32.4095 11.7339 32.3826 11.8146 32.3558 11.9491C32.3289 12.0567 32.3558 12.1643 32.3289 12.2989C32.3289 12.4065 32.3289 12.541 32.3289 12.6486C32.3289 12.7562 32.3289 12.8907 32.302 13.0252C32.2483 13.2674 32.087 13.5095 31.872 13.644C31.7645 13.7247 31.6302 13.7516 31.4958 13.7785C31.3614 13.7785 31.2271 13.7785 31.0927 13.7785C30.5552 13.7785 29.964 13.7785 29.3728 13.7785C28.1635 13.7785 26.8467 13.7785 25.4493 13.7785C25.0999 13.7785 24.7505 13.7785 24.3743 13.7785C24.2937 13.7785 24.1862 13.7785 24.1056 13.7785C24.025 13.7785 23.9175 13.7785 23.8368 13.7516C23.6487 13.6978 23.4875 13.5902 23.3531 13.4557C23.2187 13.3212 23.1381 13.1329 23.1113 12.9445C23.1113 12.8369 23.1113 12.7562 23.1113 12.6486C23.1113 12.541 23.1113 12.4603 23.1113 12.3527C23.1113 12.1643 23.1381 11.9491 23.0575 11.7877C23.0038 11.5994 22.8694 11.4379 22.7082 11.3303C22.5469 11.2227 22.3588 11.1689 22.1438 11.1689C21.9288 11.1689 21.7407 11.1689 21.5257 11.1689C21.1226 11.1689 20.6926 11.1689 20.2895 11.1689C19.4565 11.1689 18.5696 11.1689 17.7097 11.1689C17.2797 11.1689 16.8228 11.2227 16.4197 11.411C16.0166 11.5994 15.6404 11.8684 15.3448 12.2181C15.0492 12.5679 14.8342 12.9983 14.7267 13.4557C14.6998 13.5633 14.6998 13.6978 14.673 13.8054C14.673 13.9131 14.6461 14.0476 14.6461 14.1552C14.6461 14.3973 14.6461 14.6395 14.6461 14.8816C14.6461 16.8186 14.6461 18.8364 14.6461 20.908C14.6461 25.078 14.6461 29.544 14.6461 34.2252C14.6461 38.9064 14.6461 43.8297 14.6461 48.9413C14.6461 51.4972 14.6461 54.0799 14.6461 56.7164C14.6461 58.0347 14.6461 59.353 14.6461 60.6981C14.6461 61.021 14.6461 61.3707 14.6461 61.6936C14.6461 62.0164 14.673 62.3662 14.7536 62.689C14.9417 63.3347 15.3448 63.8996 15.9091 64.2763C16.4466 64.6529 17.1185 64.8413 17.7903 64.7875C18.4621 64.7875 19.134 64.7875 19.8058 64.7875C21.1495 64.7875 22.4663 64.7875 23.7831 64.7875C26.4167 64.7875 28.9966 64.7875 31.5495 64.7875C32.8126 64.7875 34.0757 64.7875 35.3387 64.7875C35.9568 64.7875 36.6018 64.7875 37.193 64.7875C37.8111 64.7606 38.4023 64.5184 38.8592 64.1418C39.101 63.9535 39.2891 63.7113 39.4504 63.4692C39.6116 63.2271 39.746 62.9311 39.8266 62.6621C39.9072 62.3661 39.9341 62.0702 39.9341 61.7743C39.9341 61.4783 39.9341 61.1824 39.9341 60.8596C39.9341 59.6489 39.9341 58.4652 39.9341 57.3083C39.9341 47.9459 39.9341 39.4982 39.961 32.3957C39.961 25.2932 39.961 19.5628 39.9878 15.608C39.9878 15.1237 39.9878 14.6395 39.9878 14.209C39.9878 13.7785 39.9072 13.375 39.7729 12.9983C39.6385 12.6486 39.4235 12.3527 39.2085 12.1105C38.9935 11.8684 38.7517 11.6801 38.5367 11.5725C38.0798 11.3034 37.7036 11.2227 37.4349 11.1689C37.3005 11.142 37.193 11.142 37.1392 11.142C37.0586 11.1689 37.0318 11.1689 37.0318 11.1689Z" fill="#263238"/>
<path d="M37.5962 15.9849C37.5962 15.9849 37.1125 16.0117 36.4944 16.0117C35.8763 16.0117 35.3926 16.0117 35.3926 15.9849C35.3926 15.9849 35.8763 15.958 36.4944 15.958C37.1125 15.9849 37.5962 15.9849 37.5962 15.9849Z" fill="#263238"/>
<path d="M37.5962 16.5498C37.5962 16.5498 37.1125 16.5766 36.4944 16.5766C35.8763 16.5766 35.3926 16.5766 35.3926 16.5498C35.3926 16.5498 35.8763 16.5229 36.4944 16.5229C37.1125 16.5498 37.5962 16.5498 37.5962 16.5498Z" fill="#263238"/>
<path d="M37.5962 17.1145C37.5962 17.1145 37.1125 17.1413 36.4944 17.1413C35.8763 17.1413 35.3926 17.1413 35.3926 17.1145C35.3926 17.1145 35.8763 17.0876 36.4944 17.0876C37.1125 17.1145 37.5962 17.1145 37.5962 17.1145Z" fill="#263238"/>
<path d="M17.6289 17.7603C17.6289 17.7603 17.6558 17.7603 17.6827 17.7603C17.7095 17.7603 17.7633 17.7603 17.817 17.7603C17.9245 17.7603 18.0858 17.7603 18.2739 17.7603C18.2739 17.6526 18.2739 17.545 18.2739 17.4105C18.2739 17.3567 18.2739 17.276 18.2739 17.2222C18.2739 17.1415 18.3545 17.0877 18.4351 17.0877C18.5157 17.0877 18.5695 17.0877 18.6501 17.0877C18.7307 17.0877 18.8113 17.1684 18.8113 17.276C18.8113 17.4374 18.8113 17.5988 18.8113 17.7603L18.7845 17.7334C18.9726 17.7334 19.1607 17.7334 19.3757 17.7334L19.3488 17.7603C19.3488 17.5181 19.3488 17.276 19.3488 17.0339C19.3488 16.9801 19.3488 16.8993 19.3488 16.8455C19.3488 16.7917 19.3219 16.7379 19.2682 16.711C19.1876 16.6303 19.107 16.5496 18.9995 16.4689C18.9188 16.3882 18.8382 16.3075 18.7576 16.2268C18.7038 16.1999 18.677 16.146 18.6501 16.1191C18.5964 16.0922 18.5695 16.0384 18.5157 16.0384C18.462 16.0384 18.4082 16.0384 18.3814 16.0653C18.3545 16.0922 18.3007 16.146 18.2739 16.173C18.1933 16.2537 18.1395 16.3075 18.0589 16.3882C17.9245 16.5227 17.7901 16.6572 17.6827 16.7648C17.6289 16.8186 17.6558 16.8993 17.6558 16.9801C17.6558 17.0608 17.6558 17.1146 17.6558 17.1953C17.6558 17.3298 17.6558 17.4374 17.6558 17.5181C17.6558 17.5988 17.6558 17.6795 17.6558 17.7334C17.6289 17.7334 17.6289 17.7603 17.6289 17.7603C17.6289 17.7603 17.6289 17.7334 17.6289 17.6795C17.6289 17.6257 17.6289 17.545 17.6289 17.4643C17.6289 17.3567 17.6289 17.2491 17.6289 17.1146C17.6289 17.0608 17.6289 16.9801 17.6289 16.8993C17.6289 16.8724 17.6289 16.8186 17.6289 16.7917C17.6289 16.7379 17.6289 16.711 17.6558 16.6572C17.7364 16.5496 17.8708 16.442 18.0051 16.2806C18.0858 16.1999 18.1395 16.146 18.2201 16.0653C18.247 16.0384 18.3007 15.9846 18.3276 15.9577C18.3814 15.9308 18.4351 15.9039 18.4889 15.9308C18.5426 15.9577 18.5964 15.9846 18.6232 16.0384C18.6501 16.0653 18.7038 16.1191 18.7576 16.146C18.8382 16.2268 18.9188 16.3075 18.9995 16.3882C19.0801 16.4689 19.1607 16.5496 19.2682 16.6303C19.2951 16.6572 19.3219 16.6841 19.3219 16.711C19.3488 16.7379 19.3488 16.7648 19.3488 16.8186C19.3488 16.8724 19.3488 16.9532 19.3488 17.007C19.3488 17.2491 19.3488 17.5181 19.3488 17.7334V17.7603H19.3219C19.107 17.7603 18.9188 17.7603 18.7307 17.7603H18.7038V17.7334C18.7038 17.5719 18.7038 17.3836 18.7038 17.2491C18.7038 17.1684 18.6501 17.1146 18.5964 17.1146C18.5157 17.1146 18.4351 17.1146 18.3814 17.1146C18.3276 17.1146 18.2739 17.1684 18.247 17.2222C18.247 17.276 18.247 17.3567 18.247 17.4105C18.247 17.545 18.247 17.6526 18.247 17.7603C18.0589 17.7603 17.8976 17.7603 17.7633 17.7603C17.7095 17.7603 17.6827 17.7603 17.6289 17.7603Z" fill="#263238"/>
<path d="M29.5879 20.8541C29.5879 21.9572 28.7011 22.845 27.5992 22.845C26.4974 22.845 25.6106 21.9572 25.6106 20.8541C25.6106 19.7511 26.4974 18.8633 27.5992 18.8633C28.7011 18.8633 29.5879 19.7511 29.5879 20.8541Z" fill="#FF007A"/>
<path d="M28.2712 21.6343H26.9006V21.4729C26.9006 21.0962 27.1962 20.8003 27.5725 20.8003C27.9487 20.8003 28.2443 21.0962 28.2443 21.4729V21.6343H28.2712Z" fill="white"/>
<path d="M28.0027 20.4507C28.0027 20.6659 27.8146 20.8542 27.5996 20.8542C27.3846 20.8542 27.1965 20.6659 27.1965 20.4507C27.1965 20.2354 27.3846 20.0471 27.5996 20.0471C27.8146 20.0471 28.0027 20.2085 28.0027 20.4507Z" fill="white"/>
<path d="M32.5439 26.0735C32.5439 26.1542 30.1791 26.2349 27.3036 26.2349C24.3744 26.2349 22.0364 26.1811 22.0364 26.0735C22.0364 25.9928 24.3744 25.9121 27.2767 25.9121C30.1791 25.939 32.5439 25.9928 32.5439 26.0735Z" fill="#263238"/>
<path d="M16.579 31.2967L16.541 38.1301L25.5974 38.1807L25.6354 31.3472L16.579 31.2967Z" fill="#FF007A"/>
<path d="M16.5269 38.1262L19.7248 33.9023L21.6597 36.5658L23.0034 35.1668L25.6101 38.18L16.5269 38.1262Z" fill="#FF007A"/>
<path d="M22.5196 33.4181C22.5196 33.8217 22.1971 34.1445 21.794 34.1176C21.3909 34.1176 21.0684 33.7948 21.0953 33.3912C21.0953 32.9877 21.4178 32.6648 21.8209 32.6918C22.1971 32.6918 22.5196 33.0146 22.5196 33.4181Z" fill="#FF007A"/>
<g opacity="0.2">
<path d="M16.5269 38.1262L19.7248 33.9023L21.6597 36.5658L23.0034 35.1668L25.6101 38.18L16.5269 38.1262Z" fill="black"/>
</g>
<g opacity="0.2">
<path d="M22.5196 33.4181C22.5196 33.8217 22.1971 34.1445 21.794 34.1176C21.3909 34.1176 21.0684 33.7948 21.0953 33.3912C21.0953 32.9877 21.4178 32.6648 21.8209 32.6918C22.1971 32.6918 22.5196 33.0146 22.5196 33.4181Z" fill="black"/>
</g>
<path d="M16.5427 40.2395L16.4551 56.0049L37.4165 56.1219L37.5041 40.3565L16.5427 40.2395Z" fill="#FF007A"/>
<path d="M16.4463 56.0169L23.8365 46.251L28.3244 52.4119L31.4149 49.1565L37.4077 56.1245L16.4463 56.0169Z" fill="#FF007A"/>
<path d="M30.2864 45.094C30.2864 46.0088 29.5339 46.7351 28.6202 46.7351C27.7065 46.7351 26.981 45.9819 26.981 45.0671C26.981 44.1524 27.7334 43.426 28.6471 43.426C29.5608 43.426 30.3133 44.1793 30.2864 45.094Z" fill="#FF007A"/>
<g opacity="0.2">
<path d="M16.4463 56.0169L23.8365 46.251L28.3244 52.4119L31.4149 49.1565L37.4077 56.1245L16.4463 56.0169Z" fill="black"/>
</g>
<g opacity="0.2">
<path d="M30.2864 45.094C30.2864 46.0088 29.5339 46.7351 28.6202 46.7351C27.7065 46.7351 26.981 45.9819 26.981 45.0671C26.981 44.1524 27.7334 43.426 28.6471 43.426C29.5608 43.426 30.3133 44.1793 30.2864 45.094Z" fill="black"/>
</g>
<path d="M28.5514 31.3103L28.5134 38.1438L37.5698 38.1944L37.6078 31.3609L28.5514 31.3103Z" fill="#FF007A"/>
<path d="M28.5129 38.1262L31.684 33.9023L33.6458 36.5658L34.9895 35.1668L37.5693 38.18L28.5129 38.1262Z" fill="#FF007A"/>
<path d="M33.7803 34.1178C34.181 34.1178 34.5059 33.7926 34.5059 33.3914C34.5059 32.9903 34.181 32.665 33.7803 32.665C33.3795 32.665 33.0547 32.9903 33.0547 33.3914C33.0547 33.7926 33.3795 34.1178 33.7803 34.1178Z" fill="#FF007A"/>
<g opacity="0.2">
<path d="M28.5129 38.1262L31.684 33.9023L33.6458 36.5658L34.9895 35.1668L37.5693 38.18L28.5129 38.1262Z" fill="black"/>
</g>
<g opacity="0.2">
<path d="M33.7803 34.1178C34.181 34.1178 34.5059 33.7926 34.5059 33.3914C34.5059 32.9903 34.181 32.665 33.7803 32.665C33.3795 32.665 33.0547 32.9903 33.0547 33.3914C33.0547 33.7926 33.3795 34.1178 33.7803 34.1178Z" fill="black"/>
</g>
<path d="M91.7193 13.8595C91.2624 13.8595 90.6712 13.8595 89.9994 13.8595C89.8382 13.8595 89.65 13.8326 89.4888 13.9133C89.3276 13.9671 89.1663 14.1016 89.0857 14.2899C89.0319 14.3706 89.0051 14.4782 88.9782 14.559C88.9513 14.6666 88.9782 14.7473 88.9782 14.8549C88.9782 14.9625 88.9782 15.0701 88.9782 15.1777C88.9782 15.2854 88.9782 15.393 88.9513 15.5006C88.8976 15.7158 88.7632 15.931 88.5751 16.0656C88.4676 16.1194 88.3601 16.1732 88.2257 16.1732C88.0914 16.1732 87.9839 16.1732 87.8495 16.1732C87.3658 16.1732 86.8283 16.1732 86.2908 16.1732C85.2159 16.1732 84.0335 16.1732 82.7704 16.1732C82.4479 16.1732 82.1254 16.1732 81.803 16.1732C81.7223 16.1732 81.6417 16.1732 81.5611 16.1732C81.4805 16.1732 81.3999 16.1732 81.3192 16.1463C81.158 16.0925 80.9968 16.0117 80.8893 15.8772C80.7818 15.7427 80.7011 15.5813 80.6743 15.4199C80.6743 15.3392 80.6743 15.2584 80.6743 15.1508C80.6743 15.0701 80.6743 14.9894 80.6743 14.8818C80.6743 14.7204 80.6743 14.5321 80.6205 14.3706C80.5668 14.2092 80.4593 14.0747 80.3249 13.9671C80.1905 13.8595 80.0024 13.8326 79.8143 13.8326C79.6262 13.8326 79.4381 13.8326 79.2768 13.8326C78.9006 13.8326 78.5244 13.8326 78.1482 13.8326C77.3957 13.8326 76.6164 13.8326 75.837 13.8326C75.4339 13.8326 75.0308 13.8864 74.6815 14.0478C74.3052 14.2092 73.9828 14.4513 73.714 14.7742C73.4453 15.097 73.2572 15.4737 73.1765 15.8772C73.1497 15.9848 73.1497 16.0925 73.1228 16.2001C73.1228 16.2808 73.1228 16.3884 73.1228 16.4691V33.8218C73.1228 34.064 73.1228 34.2792 73.1228 34.5213C73.1228 35.2208 73.1228 35.9472 73.1228 36.6467V59.1918C73.1228 59.4877 73.1497 59.7567 73.2303 60.0258C73.3915 60.5907 73.7678 61.1019 74.2515 61.4517C74.7352 61.8014 75.3533 61.9359 75.9445 61.909C76.5357 61.909 77.1538 61.909 77.745 61.909C78.9544 61.909 80.1368 61.909 81.3192 61.909C83.6841 61.909 85.9952 61.909 88.2795 61.909C89.435 61.909 90.5637 61.909 91.6656 61.909C92.2299 61.909 92.7942 61.909 93.3317 61.909C93.8692 61.8821 94.4067 61.6669 94.8366 61.3171C95.0516 61.1557 95.2397 60.9405 95.3741 60.7253C95.5353 60.51 95.6428 60.241 95.6966 59.9989C95.7772 59.7298 95.8041 59.4608 95.8041 59.1918C95.8041 58.9227 95.8041 58.6537 95.8041 58.3847C95.8041 57.3085 95.8041 56.2324 95.8041 55.1832C95.8041 46.7893 95.8041 39.2025 95.8041 32.8533C95.8041 26.5041 95.8041 21.3386 95.831 17.7874C95.831 17.33 95.831 16.9265 95.831 16.5229C95.831 16.1194 95.7772 15.7696 95.6428 15.4468C95.5085 15.1239 95.3472 14.8549 95.1322 14.6666C94.9441 14.4513 94.7291 14.2899 94.541 14.1823C94.1379 13.9402 93.7886 13.8595 93.5467 13.8326C93.4392 13.8057 93.3317 13.8057 93.278 13.8057C93.2242 13.8057 93.1973 13.8057 93.1973 13.8057C93.1973 13.8057 93.063 13.8057 92.848 13.8057C92.5524 13.8595 92.203 13.8595 91.7193 13.8595Z" fill="#FAFAFA"/>
<path d="M91.8001 31.9656H76.8047V35.0326H91.8001V31.9656Z" fill="#EBEBEB"/>
<path d="M93.1977 13.8326C93.1977 13.8326 93.2245 13.8326 93.2783 13.8326C93.332 13.8326 93.4395 13.8326 93.547 13.8595C93.7889 13.8864 94.1382 13.9671 94.5413 14.2093C94.7563 14.3169 94.9444 14.4783 95.1594 14.6935C95.3475 14.9088 95.5357 15.1778 95.67 15.5006C95.8044 15.8235 95.885 16.2001 95.8581 16.5768C95.8581 16.9803 95.8581 17.3839 95.8581 17.8412C95.8581 21.3925 95.8581 26.531 95.8581 32.9072C95.8581 39.2564 95.8581 46.8431 95.8581 55.237C95.8581 56.2862 95.8581 57.3624 95.8581 58.4385C95.8581 58.7076 95.8581 58.9766 95.8581 59.2456C95.8581 59.5147 95.8313 59.7837 95.7506 60.0527C95.67 60.3218 95.5625 60.5639 95.4013 60.806C95.2401 61.0481 95.0519 61.2365 94.8369 61.4248C94.407 61.7745 93.8695 61.9898 93.3052 62.0167C92.7408 62.0436 92.2033 62.0167 91.639 62.0167C90.5103 62.0167 89.3816 62.0167 88.2529 62.0167C85.9687 62.0167 83.6307 62.0167 81.2927 62.0167C80.1102 62.0167 78.9278 62.0167 77.7185 62.0167C77.1273 62.0167 76.5092 62.0167 75.918 62.0167C75.3267 62.0436 74.6818 61.8822 74.1712 61.5324C73.6606 61.1827 73.2844 60.6446 73.1231 60.0796C73.0425 59.7837 73.0156 59.4878 73.0156 59.1649C73.0156 58.869 73.0156 58.573 73.0156 58.2771C73.0156 57.0664 73.0156 55.8827 73.0156 54.6989C73.0156 52.3314 73.0156 50.0177 73.0156 47.7309C73.0156 43.1574 73.0156 38.7452 73.0156 34.5483C73.0156 30.3513 73.0156 26.3427 73.0156 22.6031C73.0156 20.7468 73.0156 18.9174 73.0156 17.1955C73.0156 16.9803 73.0156 16.7651 73.0156 16.5499C73.0156 16.4422 73.0156 16.3346 73.0425 16.227C73.0694 16.1194 73.0694 16.0118 73.0962 15.9042C73.2037 15.4737 73.3919 15.0971 73.6606 14.7742C73.9293 14.4514 74.2787 14.2093 74.6549 14.0209C75.0311 13.8595 75.4342 13.7788 75.8373 13.8057C76.6436 13.8057 77.396 13.8057 78.1485 13.8057C78.5247 13.8057 78.9009 13.8057 79.2772 13.8057C79.4653 13.8057 79.6534 13.8057 79.8146 13.8057C80.0027 13.8057 80.1909 13.8595 80.3521 13.9402C80.5133 14.0478 80.6208 14.2093 80.6746 14.3707C80.7552 14.5321 80.7283 14.7204 80.7283 14.9088C80.7283 14.9895 80.7283 15.0702 80.7283 15.1778C80.7283 15.2585 80.7283 15.3392 80.7283 15.4199C80.7552 15.5813 80.809 15.7428 80.9164 15.8773C81.0239 16.0118 81.1583 16.0925 81.3196 16.1194C81.4002 16.1463 81.4808 16.1463 81.5614 16.1463C81.642 16.1463 81.7227 16.1463 81.8033 16.1463C82.1258 16.1463 82.4482 16.1463 82.7707 16.1463C84.0338 16.1463 85.2162 16.1463 86.2912 16.1463C86.8286 16.1463 87.3392 16.1463 87.8498 16.1463C87.9842 16.1463 88.0917 16.1463 88.2261 16.1463C88.3335 16.1463 88.4679 16.0925 88.5485 16.0387C88.7367 15.9042 88.871 15.7159 88.9248 15.5006C88.9516 15.393 88.9516 15.2854 88.9516 15.1778C88.9516 15.0702 88.9516 14.9626 88.9516 14.8549C88.9516 14.7473 88.9516 14.6397 88.9785 14.5321C89.0054 14.4245 89.0323 14.3438 89.086 14.2362C89.1935 14.0478 89.3279 13.9402 89.516 13.8595C89.7041 13.7788 89.8653 13.8057 90.0535 13.8057C90.7253 13.8057 91.3165 13.8057 91.7734 13.8057C92.2302 13.8057 92.6064 13.8057 92.8483 13.8057C93.0902 13.8326 93.1977 13.8326 93.1977 13.8326C93.1977 13.8326 93.0633 13.8326 92.8483 13.8326C92.6064 13.8326 92.2571 13.8326 91.7734 13.8326C91.3165 13.8326 90.7253 13.8326 90.0535 13.8326C89.8922 13.8326 89.7041 13.8057 89.5429 13.8864C89.3816 13.9402 89.2204 14.0747 89.1398 14.2631C89.086 14.3438 89.0591 14.4514 89.0323 14.5321C89.0054 14.6397 89.0323 14.7204 89.0323 14.828C89.0323 14.9357 89.0323 15.0433 89.0323 15.1509C89.0323 15.2585 89.0323 15.3661 89.0054 15.4737C88.9516 15.689 88.8173 15.9042 88.6292 16.0387C88.5217 16.0925 88.4142 16.1463 88.2798 16.1463C88.1454 16.1463 88.0379 16.1463 87.9036 16.1463C87.4198 16.1463 86.8824 16.1463 86.3449 16.1463C85.27 16.1463 84.0875 16.1463 82.8245 16.1463C82.502 16.1463 82.1795 16.1463 81.857 16.1463C81.7764 16.1463 81.6958 16.1463 81.6152 16.1463C81.5345 16.1463 81.4539 16.1463 81.3733 16.1194C81.2121 16.0656 81.0508 15.9849 80.9433 15.8504C80.8358 15.7159 80.7552 15.5544 80.7283 15.393C80.7283 15.3123 80.7283 15.2316 80.7283 15.124C80.7283 15.0433 80.7283 14.9626 80.7283 14.8549C80.7283 14.6935 80.7283 14.5052 80.6746 14.3438C80.6208 14.1824 80.5133 14.0478 80.379 13.9402C80.2446 13.8326 80.0565 13.8057 79.8684 13.8057C79.6803 13.8057 79.4922 13.8057 79.3309 13.8057C78.9547 13.8057 78.5784 13.8057 78.2022 13.8057C77.4498 13.8057 76.6704 13.8057 75.8911 13.8057C75.488 13.8057 75.0849 13.8595 74.7355 14.0209C74.3593 14.1824 74.0368 14.4245 73.7681 14.7473C73.4993 15.0702 73.3112 15.4468 73.2306 15.8504C73.2037 15.958 73.2037 16.0656 73.1769 16.1732C73.1769 16.2808 73.1769 16.3884 73.15 16.4961C73.15 16.7113 73.15 16.9265 73.15 17.1417C73.15 18.8636 73.15 20.693 73.15 22.5493C73.15 26.2889 73.15 30.2706 73.15 34.4945C73.15 38.6914 73.15 43.1036 73.15 47.6771C73.15 49.9639 73.15 52.3045 73.15 54.6451C73.15 55.8289 73.15 57.0126 73.15 58.2233C73.15 58.5192 73.15 58.8152 73.15 59.1111C73.15 59.407 73.1769 59.703 73.2575 59.9989C73.4187 60.5639 73.795 61.0751 74.2787 61.4248C74.7624 61.7745 75.3805 61.9091 75.9717 61.8822C76.5629 61.8822 77.181 61.8822 77.7722 61.8822C78.9815 61.8822 80.164 61.8822 81.3464 61.8822C83.7113 61.8822 86.0224 61.8822 88.3067 61.8822C89.4622 61.8822 90.5909 61.8822 91.6927 61.8822C92.2571 61.8822 92.8214 61.8822 93.3589 61.8822C93.8964 61.8553 94.4338 61.64 94.8638 61.2903C95.0788 61.1289 95.2669 60.9136 95.4013 60.6984C95.5625 60.4832 95.67 60.2141 95.7238 59.972C95.8044 59.703 95.8313 59.4339 95.8313 59.1649C95.8313 58.8959 95.8313 58.6268 95.8313 58.3578C95.8313 57.2817 95.8313 56.2055 95.8313 55.1563C95.8313 46.7624 95.8313 39.1757 95.8313 32.8264C95.8313 26.4772 95.8313 21.3118 95.8581 17.7605C95.8581 17.3032 95.8581 16.8996 95.8581 16.4961C95.8581 16.0925 95.8044 15.7428 95.67 15.4199C95.5357 15.0971 95.3744 14.828 95.1594 14.6397C94.9713 14.4245 94.7563 14.2631 94.5682 14.1555C94.1651 13.9133 93.8158 13.8326 93.5739 13.8057C93.4664 13.7788 93.3589 13.7788 93.3052 13.7788C93.2245 13.8326 93.1977 13.8326 93.1977 13.8326Z" fill="#263238"/>
<path d="M93.7081 18.1642C93.7081 18.1642 93.2782 18.191 92.7138 18.191C92.1763 18.191 91.7195 18.191 91.7195 18.191C91.7195 18.191 92.1495 18.1642 92.7138 18.1642C93.2782 18.1373 93.7081 18.1373 93.7081 18.1642Z" fill="#263238"/>
<path d="M93.735 18.6752C93.735 18.6752 93.305 18.702 92.7407 18.702C92.2032 18.702 91.7463 18.702 91.7463 18.702C91.7463 18.702 92.1763 18.6752 92.7407 18.6752C93.2781 18.6483 93.735 18.6483 93.735 18.6752Z" fill="#263238"/>
<path d="M93.735 19.1597C93.735 19.1597 93.305 19.1865 92.7407 19.1865C92.2032 19.1865 91.7463 19.1865 91.7463 19.1865C91.7463 19.1865 92.1763 19.1597 92.7407 19.1597C93.2781 19.1597 93.735 19.1597 93.735 19.1597Z" fill="#263238"/>
<path d="M75.8103 19.7516C75.8103 19.7516 75.8372 19.7516 75.864 19.7516C75.8909 19.7516 75.9447 19.7516 75.9715 19.7516C76.079 19.7516 76.2134 19.7516 76.4015 19.7516C76.4015 19.6709 76.4015 19.5632 76.4015 19.4556C76.4015 19.4018 76.4015 19.348 76.4015 19.2673C76.4015 19.2135 76.4821 19.1328 76.5359 19.1328C76.6165 19.1328 76.6703 19.1328 76.724 19.1328C76.8046 19.1328 76.8584 19.2135 76.8584 19.2942C76.8584 19.4287 76.8584 19.5902 76.8584 19.7516L76.8315 19.7247C76.9927 19.7247 77.1809 19.7247 77.369 19.7247L77.3421 19.7516C77.3421 19.5363 77.3421 19.3211 77.3421 19.079C77.3421 19.0252 77.3421 18.9714 77.3421 18.9176C77.3421 18.8638 77.3152 18.8369 77.2615 18.783C77.1809 18.7023 77.1002 18.6216 77.0196 18.5409C76.939 18.4602 76.8584 18.3795 76.8046 18.3257C76.7777 18.2988 76.724 18.245 76.6971 18.2181C76.6703 18.1912 76.6434 18.1374 76.5896 18.1374C76.5359 18.1374 76.509 18.1374 76.4553 18.1643C76.4284 18.1912 76.4015 18.2181 76.3478 18.2719C76.294 18.3257 76.2134 18.4064 76.1597 18.4602C76.0522 18.5947 75.9178 18.7023 75.8372 18.81C75.8103 18.8638 75.8103 18.9445 75.8103 18.9983C75.8103 19.0521 75.8103 19.1328 75.8103 19.1866C75.8103 19.2942 75.8103 19.4018 75.8103 19.4825C75.8103 19.5632 75.8103 19.6171 75.8103 19.6709C75.8103 19.7247 75.8103 19.7516 75.8103 19.7516C75.8103 19.7516 75.8103 19.7247 75.8103 19.6978C75.8103 19.644 75.8103 19.5901 75.8103 19.5094C75.8103 19.4287 75.8103 19.3211 75.8103 19.2135C75.8103 19.1597 75.8103 19.079 75.8103 19.0252C75.8103 18.9983 75.8103 18.9445 75.8103 18.9176C75.8103 18.8907 75.8103 18.8369 75.8372 18.81C75.9447 18.7023 76.0522 18.5947 76.1597 18.4602C76.2134 18.4064 76.294 18.3257 76.3478 18.2719C76.3746 18.245 76.4015 18.2181 76.4553 18.1643C76.509 18.1374 76.5628 18.1105 76.6165 18.1374C76.6703 18.1374 76.6971 18.1912 76.7509 18.2181C76.7778 18.245 76.8315 18.2988 76.8584 18.3257C76.939 18.4064 77.0196 18.4602 77.0734 18.5409C77.154 18.6216 77.2346 18.7023 77.3152 18.7561C77.3421 18.783 77.369 18.783 77.369 18.81C77.3958 18.8369 77.3958 18.8638 77.3958 18.8907C77.3958 18.9445 77.3958 18.9983 77.3958 19.0521C77.3958 19.2673 77.3958 19.5094 77.3958 19.7247V19.7516H77.369C77.1809 19.7516 77.0196 19.7516 76.8315 19.7516H76.8046V19.7247C76.8046 19.5632 76.8046 19.4287 76.8046 19.2673C76.8046 19.2135 76.7509 19.1597 76.6971 19.1328C76.6434 19.1328 76.5628 19.1328 76.509 19.1328C76.4553 19.1328 76.4015 19.1866 76.4015 19.2404C76.4015 19.2942 76.4015 19.348 76.4015 19.4018C76.4015 19.5094 76.4015 19.6171 76.4015 19.6978C76.2134 19.6978 76.079 19.6978 75.9715 19.6978C75.9178 19.6978 75.8909 19.6978 75.864 19.6978C75.8372 19.7516 75.8103 19.7516 75.8103 19.7516Z" fill="#263238"/>
<path d="M91.827 36.5391H76.8315V39.6061H91.827V36.5391Z" fill="#EBEBEB"/>
<path d="M91.827 41.0049H76.8315V44.0719H91.827V41.0049Z" fill="#EBEBEB"/>
<path d="M88.2529 50.1522H80.7283C79.8952 50.1522 79.1965 49.4527 79.1965 48.6187C79.1965 47.7847 79.8952 47.0852 80.7283 47.0852H88.2529C89.086 47.0852 89.7847 47.7847 89.7847 48.6187C89.7847 49.4796 89.086 50.1522 88.2529 50.1522Z" fill="#FF007A"/>
<path d="M89.1396 28.7908C89.1396 28.8715 87.0435 28.9253 84.4368 28.9253C81.83 28.9253 79.7339 28.8715 79.7339 28.7908C79.7339 28.7101 81.83 28.6562 84.4368 28.6562C87.0435 28.6562 89.1396 28.7101 89.1396 28.7908Z" fill="#263238"/>
<path d="M79.4383 10.6846C78.9277 10.6846 78.2827 10.6846 77.5034 10.6846C77.3153 10.6846 77.1003 10.6577 76.9122 10.7384C76.7241 10.8191 76.5628 10.9537 76.4553 11.142C76.4016 11.2496 76.3747 11.3303 76.3478 11.4648C76.321 11.5724 76.3478 11.68 76.321 11.8146C76.321 11.9222 76.321 12.0567 76.321 12.1643C76.321 12.2719 76.321 12.4064 76.2941 12.541C76.2403 12.7831 76.0791 13.0252 75.8641 13.1597C75.7566 13.2404 75.6222 13.2673 75.4879 13.2943C75.3535 13.2943 75.2191 13.2943 75.0848 13.2943C74.5473 13.2943 73.9561 13.2943 73.3649 13.2943C72.1556 13.2943 70.8388 13.2943 69.4413 13.2943C69.092 13.2943 68.7426 13.2943 68.3664 13.2943C68.2858 13.2943 68.1783 13.2943 68.0977 13.2943C68.017 13.2943 67.9095 13.2943 67.8289 13.2673C67.6408 13.2135 67.4796 13.1059 67.3452 12.9714C67.2108 12.8369 67.1302 12.6486 67.1033 12.4602C67.1033 12.3526 67.1033 12.2719 67.1033 12.1643C67.1033 12.0567 67.1033 11.976 67.1033 11.8684C67.1033 11.68 67.1302 11.4648 67.0496 11.3034C66.9958 11.1151 66.8615 10.9537 66.7002 10.846C66.539 10.7384 66.3509 10.6846 66.1359 10.6846C65.9209 10.6846 65.7328 10.6846 65.5178 10.6846C65.1147 10.6846 64.6847 10.6846 64.2816 10.6846C63.4485 10.6846 62.5617 10.6846 61.7018 10.6846C61.2718 10.6846 60.8149 10.7384 60.4118 10.9267C60.0087 11.1151 59.6325 11.3841 59.3369 11.7339C59.0413 12.0836 58.8263 12.5141 58.7188 12.9714C58.6919 13.079 58.6919 13.2135 58.665 13.3212C58.665 13.4288 58.665 13.5095 58.665 13.6171V32.9607C58.665 33.2297 58.665 33.4718 58.665 33.7409C58.665 34.5211 58.665 35.3282 58.665 36.1084V61.2631C58.665 61.5859 58.6919 61.9088 58.7725 62.2047C58.9606 62.8504 59.3638 63.4154 59.9281 63.792C60.4656 64.1687 61.1374 64.357 61.8092 64.3032C62.4811 64.3032 63.1529 64.3032 63.8248 64.3032C65.1684 64.3032 66.4852 64.3032 67.802 64.3032C70.4357 64.3032 73.0155 64.3032 75.5685 64.3032C76.8316 64.3032 78.0946 64.3032 79.3577 64.3032C79.9758 64.3032 80.6207 64.3032 81.212 64.3032C81.83 64.2763 82.4213 64.0341 82.8781 63.6575C83.12 63.4692 83.3081 63.227 83.4693 62.9849C83.6306 62.7428 83.7649 62.4468 83.8456 62.1778C83.9262 61.8819 83.9531 61.5859 83.9531 61.29C83.9531 60.9941 83.9531 60.6981 83.9531 60.3753C83.9531 59.1646 83.9531 57.9809 83.9531 56.824C83.9531 47.4616 83.9531 39.0139 83.9799 31.9114C83.9799 24.8089 83.9799 19.0785 84.0068 15.1237C84.0068 14.6394 84.0068 14.1552 84.0068 13.7247C84.0068 13.2943 83.9262 12.8907 83.7918 12.5141C83.6574 12.1643 83.4425 11.8684 83.2275 11.6262C83.0125 11.3841 82.7706 11.1958 82.5556 11.0882C82.0988 10.8191 81.7225 10.7384 81.4538 10.6846C81.3194 10.6577 81.2119 10.6577 81.1582 10.6577C81.0776 10.6577 81.0507 10.6577 81.0507 10.6577C81.0507 10.6577 80.9163 10.6577 80.6476 10.6577C80.352 10.6846 79.9489 10.6846 79.4383 10.6846Z" fill="#FAFAFA"/>
<path d="M81.0239 10.7116C81.0239 10.7116 81.0508 10.7116 81.1314 10.7116C81.2121 10.7116 81.2927 10.7116 81.427 10.7385C81.6958 10.7654 82.0989 10.8462 82.5557 11.1152C82.7707 11.2497 83.0126 11.438 83.2276 11.6533C83.4426 11.8954 83.6575 12.1913 83.7919 12.5411C83.9263 12.8908 84.0069 13.3213 84.0069 13.7517C84.0069 14.1822 84.0069 14.6664 84.0069 15.1507C84.0069 19.1055 84.0069 24.8628 84.0069 31.9384C84.0069 39.041 84.0069 47.4617 84.0069 56.851C84.0069 58.0348 84.0069 59.2185 84.0069 60.4023C84.0069 60.6982 84.0069 60.9942 84.0069 61.317C84.0069 61.6129 83.98 61.9358 83.8994 62.2317C83.8188 62.5277 83.6844 62.8236 83.5232 63.0657C83.3619 63.3348 83.147 63.55 82.9051 63.7652C82.4214 64.1419 81.8033 64.4109 81.1852 64.4378C80.5671 64.4647 79.949 64.4378 79.304 64.4378C78.041 64.4378 76.7779 64.4378 75.5149 64.4378C72.9619 64.4378 70.382 64.4378 67.7484 64.4378C66.4316 64.4378 65.1148 64.4378 63.7711 64.4378C63.0993 64.4378 62.4274 64.4378 61.7556 64.4378C61.0838 64.4647 60.3851 64.3033 59.8207 63.8997C59.2564 63.5231 58.8264 62.9312 58.6383 62.2586C58.5308 61.9358 58.5039 61.586 58.5039 61.2632C58.5039 60.9404 58.5039 60.5906 58.5039 60.2678C58.5039 58.9226 58.5039 57.6043 58.5039 56.2861C58.5039 53.6495 58.5039 51.0668 58.5039 48.511C58.5039 43.3993 58.5039 38.476 58.5039 33.7948C58.5039 29.1136 58.5039 24.6476 58.5039 20.4776C58.5039 18.406 58.5039 16.3883 58.5039 14.4512C58.5039 14.2091 58.5039 13.967 58.5039 13.7248C58.5039 13.6172 58.5039 13.4827 58.5308 13.3751C58.5577 13.2675 58.5577 13.1329 58.5845 13.0253C58.692 12.568 58.907 12.1106 59.2026 11.7609C59.4982 11.4111 59.8745 11.1152 60.3044 10.9269C60.7344 10.7385 61.1913 10.6578 61.6212 10.6847C62.5081 10.6847 63.368 10.6847 64.2011 10.6847C64.6311 10.6847 65.0342 10.6847 65.4373 10.6847C65.6523 10.6847 65.8404 10.6847 66.0554 10.6847C66.2704 10.6847 66.4854 10.7385 66.6466 10.8462C66.8078 10.9538 66.9422 11.1421 67.0228 11.3304C67.1034 11.5187 67.0766 11.734 67.0766 11.9223C67.0766 12.0299 67.0766 12.1106 67.0766 12.2182C67.0766 12.3258 67.0766 12.4066 67.0766 12.5142C67.1034 12.7025 67.1841 12.8639 67.2916 13.0253C67.3991 13.1598 67.5603 13.2675 67.7484 13.2944C67.829 13.3213 67.9365 13.3213 68.0171 13.3213C68.0978 13.3213 68.2053 13.3213 68.2859 13.3213C68.6621 13.3213 69.0115 13.3213 69.3608 13.3213C70.7582 13.3213 72.0751 13.3213 73.2844 13.3213C73.8756 13.3213 74.4668 13.3213 75.0043 13.3213C75.1386 13.3213 75.273 13.3213 75.4074 13.3213C75.5417 13.2944 75.6761 13.2675 75.7836 13.1868C75.9986 13.0522 76.1598 12.837 76.2136 12.5949C76.2405 12.4873 76.2405 12.3527 76.2405 12.2451C76.2405 12.1375 76.2405 12.003 76.2405 11.8954C76.2405 11.7878 76.2404 11.6533 76.2673 11.5456C76.2942 11.438 76.3211 11.3304 76.3748 11.2228C76.4823 11.0345 76.6436 10.8731 76.8585 10.7923C77.0467 10.7116 77.2616 10.7385 77.4498 10.7385C78.2022 10.7385 78.8472 10.7385 79.3847 10.7385C79.8953 10.7385 80.2984 10.7385 80.5671 10.7385C80.8896 10.7116 81.0239 10.7116 81.0239 10.7116C81.0239 10.7116 80.8896 10.7116 80.6208 10.7116C80.3521 10.7116 79.949 10.7116 79.4384 10.7116C78.9278 10.7116 78.2828 10.7116 77.5035 10.7116C77.3154 10.7116 77.1004 10.6847 76.9123 10.7654C76.7242 10.8462 76.5629 10.9807 76.4554 11.169C76.4017 11.2766 76.3748 11.3573 76.3479 11.4918C76.3211 11.5994 76.3479 11.7071 76.3211 11.8416C76.3211 11.9492 76.3211 12.0837 76.3211 12.1913C76.3211 12.2989 76.3211 12.4335 76.2942 12.568C76.2404 12.8101 76.0792 13.0522 75.8642 13.1868C75.7567 13.2675 75.6224 13.2944 75.488 13.3213C75.3536 13.3213 75.2193 13.3213 75.0849 13.3213C74.5474 13.3213 73.9562 13.3213 73.365 13.3213C72.1557 13.3213 70.8389 13.3213 69.4414 13.3213C69.0921 13.3213 68.7427 13.3213 68.3665 13.3213C68.2859 13.3213 68.1784 13.3213 68.0978 13.3213C68.0171 13.3213 67.9096 13.3213 67.829 13.2944C67.6409 13.2406 67.4797 13.1329 67.3453 12.9984C67.2109 12.8639 67.1303 12.6756 67.1034 12.4873C67.1034 12.3796 67.1034 12.2989 67.1034 12.1913C67.1034 12.0837 67.1034 12.003 67.1034 11.8954C67.1034 11.7071 67.1303 11.4918 67.0497 11.3304C66.9959 11.1421 66.8616 10.9807 66.7003 10.8731C66.5391 10.7654 66.351 10.7116 66.136 10.7116C65.921 10.7116 65.7329 10.7116 65.5179 10.7116C65.1148 10.7116 64.6848 10.7116 64.2817 10.7116C63.4486 10.7116 62.5618 10.7116 61.7019 10.7116C61.2719 10.7116 60.815 10.7654 60.4119 10.9538C60.0088 11.1421 59.6326 11.4111 59.337 11.7609C59.0414 12.1106 58.8264 12.5411 58.7189 12.9984C58.692 13.106 58.692 13.2406 58.6651 13.3482C58.6651 13.4558 58.6383 13.5903 58.6383 13.6979C58.6383 13.94 58.6383 14.1822 58.6383 14.4243C58.6383 16.3614 58.6383 18.3791 58.6383 20.4507C58.6383 24.6207 58.6383 29.0867 58.6383 33.7679C58.6383 38.4491 58.6383 43.3724 58.6383 48.4841C58.6383 51.0399 58.6383 53.6226 58.6383 56.2592C58.6383 57.5774 58.6383 58.8957 58.6383 60.2409C58.6383 60.5637 58.6383 60.9135 58.6383 61.2363C58.6383 61.5591 58.6652 61.9089 58.7458 62.2317C58.9339 62.8774 59.337 63.4424 59.9013 63.819C60.4388 64.1957 61.1106 64.384 61.7825 64.3302C62.4543 64.3302 63.1262 64.3302 63.798 64.3302C65.1417 64.3302 66.4585 64.3302 67.7753 64.3302C70.4089 64.3302 72.9888 64.3302 75.5417 64.3302C76.8048 64.3302 78.0679 64.3302 79.3309 64.3302C79.949 64.3302 80.594 64.3302 81.1852 64.3302C81.8033 64.3033 82.3945 64.0612 82.8513 63.6845C83.0932 63.4962 83.2813 63.2541 83.4426 63.0119C83.6038 62.7698 83.7382 62.4739 83.8188 62.2048C83.8994 61.9089 83.9263 61.6129 83.9263 61.317C83.9263 61.0211 83.9263 60.7251 83.9263 60.4023C83.9263 59.1916 83.9263 58.0079 83.9263 56.851C83.9263 47.4886 83.9263 39.041 83.9532 31.9384C83.9532 24.8359 83.9532 19.1055 83.98 15.1507C83.98 14.6664 83.98 14.1822 83.98 13.7517C83.98 13.3213 83.8994 12.9177 83.765 12.5411C83.6307 12.1913 83.4157 11.8954 83.2007 11.6533C82.9857 11.4111 82.7439 11.2228 82.5289 11.1152C82.072 10.8462 81.6958 10.7654 81.427 10.7116C81.2927 10.6847 81.1852 10.6847 81.1314 10.6847C81.0777 10.7116 81.0239 10.7116 81.0239 10.7116Z" fill="#263238"/>
<path d="M81.6148 15.5539C81.6148 15.5539 81.131 15.5808 80.513 15.5808C79.8949 15.5808 79.4111 15.5808 79.4111 15.5539C79.4111 15.5539 79.8949 15.5271 80.513 15.5271C81.131 15.5271 81.6148 15.5271 81.6148 15.5539Z" fill="#263238"/>
<path d="M81.6145 16.092C81.6145 16.092 81.1308 16.1189 80.5127 16.1189C79.8946 16.1189 79.4109 16.1189 79.4109 16.092C79.4109 16.092 79.8946 16.0652 80.5127 16.0652C81.1308 16.092 81.6145 16.092 81.6145 16.092Z" fill="#263238"/>
<path d="M81.6145 16.657C81.6145 16.657 81.1308 16.6838 80.5127 16.6838C79.8946 16.6838 79.4109 16.6838 79.4109 16.657C79.4109 16.657 79.8946 16.6301 80.5127 16.6301C81.1308 16.657 81.6145 16.657 81.6145 16.657Z" fill="#263238"/>
<path d="M61.6482 17.3028C61.6482 17.3028 61.6751 17.3028 61.7019 17.3028C61.7288 17.3028 61.7826 17.3028 61.8363 17.3028C61.9438 17.3028 62.105 17.3028 62.2932 17.3028C62.2932 17.1952 62.2932 17.0876 62.2932 16.953C62.2932 16.8992 62.2932 16.8185 62.2932 16.7647C62.2932 16.684 62.3738 16.6302 62.4544 16.6302C62.535 16.6302 62.5888 16.6302 62.6694 16.6302C62.75 16.6302 62.8306 16.7109 62.8306 16.8185C62.8306 16.9799 62.8306 17.1414 62.8306 17.3028L62.8038 17.2759C62.9919 17.2759 63.18 17.2759 63.395 17.2759L63.3681 17.3028C63.3681 17.0607 63.3681 16.8185 63.3681 16.5764C63.3681 16.5226 63.3681 16.4419 63.3681 16.3881C63.3681 16.3343 63.3412 16.2805 63.2875 16.2535C63.2069 16.1728 63.1262 16.0921 63.0187 16.0114C62.9381 15.9307 62.8575 15.85 62.7769 15.7693C62.7231 15.7424 62.6963 15.6886 62.6694 15.6617C62.6156 15.6348 62.5888 15.581 62.535 15.581C62.4813 15.581 62.4275 15.581 62.4007 15.6079C62.3738 15.6348 62.32 15.6886 62.2932 15.7155C62.2125 15.7962 62.1588 15.85 62.0782 15.9307C61.9438 16.0652 61.8094 16.1997 61.7019 16.3074C61.6482 16.3612 61.6751 16.4419 61.6751 16.5226C61.6751 16.6033 61.6751 16.6571 61.6751 16.7378C61.6751 16.8723 61.6751 16.9799 61.6751 17.0607C61.6751 17.1414 61.6751 17.2221 61.6751 17.2759C61.6482 17.2759 61.6482 17.3028 61.6482 17.3028C61.6482 17.3028 61.6482 17.2759 61.6482 17.2221C61.6482 17.1683 61.6482 17.0876 61.6482 17.0068C61.6482 16.8992 61.6482 16.7916 61.6482 16.6571C61.6482 16.6033 61.6482 16.5226 61.6482 16.4419C61.6482 16.415 61.6482 16.3612 61.6482 16.3343C61.6482 16.2805 61.6482 16.2535 61.6751 16.1997C61.7826 16.0652 61.9169 15.9576 62.0513 15.7962C62.1319 15.7155 62.1857 15.6617 62.2663 15.581C62.2932 15.5541 62.3469 15.5003 62.3738 15.4733C62.4275 15.4464 62.4813 15.4195 62.535 15.4464C62.5888 15.4734 62.6425 15.5003 62.6694 15.5541C62.6963 15.581 62.75 15.6348 62.8038 15.6617C62.8844 15.7424 62.965 15.8231 63.0456 15.9038C63.1262 15.9845 63.2069 16.0652 63.3144 16.1459C63.3412 16.1728 63.3681 16.1997 63.3681 16.2266C63.395 16.2535 63.395 16.2805 63.395 16.3343C63.395 16.3881 63.395 16.4688 63.395 16.5226C63.395 16.7647 63.395 17.0337 63.395 17.249V17.2759H63.3681C63.1531 17.2759 62.965 17.2759 62.7769 17.2759H62.75V17.249C62.75 17.0876 62.75 16.8992 62.75 16.7647C62.75 16.684 62.6963 16.6302 62.6425 16.6302C62.5619 16.6302 62.4813 16.6302 62.4275 16.6302C62.3738 16.6302 62.32 16.684 62.2932 16.7378C62.2932 16.7916 62.2932 16.8723 62.2932 16.9261C62.2932 17.0607 62.2932 17.1683 62.2932 17.2759C62.105 17.2759 61.9438 17.2759 61.8094 17.2759C61.7557 17.2759 61.7288 17.2759 61.6751 17.2759C61.6482 17.3028 61.6482 17.3028 61.6482 17.3028Z" fill="#263238"/>
<path d="M76.5638 29.1644C76.9835 26.4479 75.1241 23.9046 72.4109 23.4836C69.6976 23.0626 67.1578 24.9234 66.7382 27.6398C66.3185 30.3563 68.1778 32.8996 70.8911 33.3206C73.6044 33.7416 76.1441 31.8808 76.5638 29.1644Z" fill="#FF007A"/>
<path d="M73.338 30.4049H69.925V29.9745C69.925 29.0328 70.6775 28.2795 71.6181 28.2795C72.5587 28.2795 73.3111 29.0328 73.3111 29.9745V30.4049H73.338Z" fill="white"/>
<path d="M71.645 28.3871C72.1941 28.3871 72.6393 27.9414 72.6393 27.3917C72.6393 26.8419 72.1941 26.3962 71.645 26.3962C71.0958 26.3962 70.6506 26.8419 70.6506 27.3917C70.6506 27.9414 71.0958 28.3871 71.645 28.3871Z" fill="white"/>
<path d="M79.5459 39.0676H62.8037V42.4844H79.5459V39.0676Z" fill="#EBEBEB"/>
<path d="M79.5459 44.0449H62.8037V47.4617H79.5459V44.0449Z" fill="#EBEBEB"/>
<path d="M75.5149 54.2681H67.1035C66.1629 54.2681 65.3835 53.5148 65.3835 52.5463C65.3835 51.6047 66.136 50.8245 67.1035 50.8245H75.5149C76.4554 50.8245 77.2348 51.5778 77.2348 52.5463C77.2079 53.4879 76.4554 54.2681 75.5149 54.2681Z" fill="#FF007A"/>
<path d="M76.563 36.9964C76.563 37.0771 74.1981 37.1578 71.3226 37.1578C68.4203 37.1578 66.0823 37.0771 66.0823 36.9964C66.0823 36.9157 68.4203 36.835 71.3226 36.835C74.1981 36.8619 76.563 36.9157 76.563 36.9964Z" fill="#263238"/>
<path d="M65.1141 41.5428H64.3617C64.281 41.5428 64.2273 41.489 64.2273 41.4083C64.2273 41.1393 64.4423 40.9241 64.711 40.9241H64.7379C65.0066 40.9241 65.2216 41.1393 65.2216 41.4083C65.2216 41.4621 65.1679 41.5428 65.1141 41.5428Z" fill="#E0E0E0"/>
<path d="M65.0334 40.6551C65.0334 40.8165 64.899 40.951 64.7377 40.951C64.5765 40.951 64.4421 40.8165 64.4421 40.6551C64.4421 40.4936 64.5765 40.3591 64.7377 40.3591C64.899 40.3591 65.0334 40.4936 65.0334 40.6551Z" fill="#E0E0E0"/>
<path d="M65.1686 45.7937H64.2817V46.4125H65.1686V45.7937Z" fill="#E0E0E0"/>
<path d="M65.2761 45.9281H64.9805V45.7397C64.9805 45.6052 64.873 45.4976 64.7386 45.4976C64.6043 45.4976 64.4968 45.6052 64.4968 45.7397V45.9281H64.2012V45.7397C64.2012 45.4438 64.443 45.2017 64.7386 45.2017C65.0343 45.2017 65.2761 45.4438 65.2761 45.7397V45.9281Z" fill="#E0E0E0"/>
<path d="M61.702 0.192235C60.9227 0.192235 59.9552 0.192235 58.8265 0.192235C58.5309 0.192235 58.2353 0.165331 57.9666 0.272945C57.6979 0.380559 57.4291 0.595786 57.2948 0.891724C57.2141 1.02624 57.1604 1.18766 57.1335 1.34908C57.1066 1.5105 57.1066 1.67192 57.1066 1.86025C57.1066 2.02167 57.1066 2.20999 57.1066 2.39832C57.1066 2.58664 57.1066 2.77496 57.0798 2.93639C56.9991 3.31303 56.7842 3.66278 56.4348 3.8511C56.2736 3.95872 56.0854 4.03943 55.8705 4.03943C55.6555 4.06633 55.4674 4.03943 55.2524 4.03943C54.4462 4.03943 53.5862 4.03943 52.6725 4.03943C50.872 4.03943 48.9371 4.03943 46.8409 4.03943C46.3304 4.03943 45.7929 4.03943 45.2554 4.03943C45.121 4.03943 44.9867 4.03943 44.8523 4.03943C44.7179 4.03943 44.5836 4.03943 44.4223 3.98562C44.1536 3.90491 43.8849 3.77039 43.6967 3.55516C43.5086 3.33994 43.3743 3.0709 43.3474 2.77496C43.3205 2.64045 43.3205 2.47903 43.3205 2.34451C43.3205 2.20999 43.3205 2.04857 43.3205 1.91405C43.3205 1.61812 43.3474 1.32218 43.2399 1.05314C43.1593 0.78411 42.9712 0.541979 42.7293 0.380559C42.4874 0.219138 42.1918 0.138428 41.8962 0.165331C41.6006 0.165331 41.305 0.165331 40.9825 0.165331C40.3644 0.165331 39.7463 0.165331 39.1282 0.165331C37.8652 0.165331 36.5752 0.165331 35.2584 0.165331C34.6135 0.165331 33.9416 0.246041 33.3236 0.541979C32.7055 0.811014 32.168 1.21457 31.7111 1.75263C31.2812 2.2638 30.9587 2.90948 30.7974 3.58207C30.7437 3.74349 30.7437 3.93181 30.7168 4.09323C30.7168 4.22775 30.6899 4.38917 30.6899 4.52369V33.3373C30.6899 33.7139 30.6899 34.0906 30.6899 34.4941C30.6899 35.651 30.6899 36.8347 30.6899 38.0185V75.4411C30.6899 75.9254 30.7168 76.3828 30.8781 76.8401C31.1737 77.7818 31.7649 78.6427 32.598 79.2076C33.431 79.7726 34.4254 80.0416 35.4197 79.9878C36.414 79.9878 37.4083 79.9878 38.4027 79.9878C40.3913 79.9878 42.3531 79.9878 44.3148 79.9878C48.2384 79.9878 52.1082 79.9878 55.8973 79.9878C57.8054 79.9878 59.6865 79.9878 61.5408 79.9878C62.4814 79.9878 63.3951 80.0147 64.3088 79.9878C65.2225 79.934 66.1093 79.5843 66.808 79.0193C67.1574 78.7234 67.453 78.4005 67.6948 78.0239C67.9367 77.6472 68.1248 77.2437 68.2323 76.8132C68.3667 76.3828 68.3935 75.9523 68.3935 75.495C68.3935 75.0376 68.3935 74.6071 68.3935 74.1498C68.3935 72.3742 68.3935 70.5985 68.3935 68.8498C68.3935 54.8869 68.4204 42.323 68.4204 31.7769C68.4204 21.2307 68.4473 12.6754 68.4473 6.78358C68.4473 6.05718 68.4473 5.35769 68.4473 4.68511C68.4473 4.03943 68.3398 3.42065 68.1248 2.90948C67.9098 2.37141 67.6142 1.94096 67.2917 1.59121C66.9692 1.24147 66.6199 0.972434 66.2974 0.78411C65.6256 0.380559 65.0343 0.246041 64.6581 0.192235C64.47 0.165331 64.3088 0.165331 64.2013 0.138428C64.0938 0.138428 64.04 0.138428 64.04 0.138428C64.04 0.138428 63.825 0.138428 63.4488 0.138428C63.0726 0.192235 62.4814 0.192235 61.702 0.192235Z" fill="#FAFAFA"/>
<path d="M64.1206 0.192444C64.1206 0.192444 64.1743 0.192444 64.2818 0.192444C64.3893 0.192444 64.5237 0.192444 64.7387 0.219348C65.1418 0.273154 65.733 0.380768 66.4048 0.78432C66.7542 0.972644 67.0767 1.24168 67.426 1.59142C67.7485 1.94117 68.0441 2.37162 68.2591 2.90969C68.4741 3.44776 68.6085 4.03964 68.5816 4.71222C68.5816 5.3579 68.5816 6.05739 68.5816 6.78379C68.5816 12.6756 68.5816 21.204 68.6085 31.7233C68.6085 42.2694 68.6085 54.8064 68.6085 68.7155C68.6085 70.4642 68.6085 72.213 68.6085 73.9886C68.6085 74.4459 68.6085 74.8764 68.6085 75.3337C68.6085 75.7911 68.5816 76.2485 68.4472 76.6789C68.3129 77.1094 68.1516 77.5398 67.8829 77.9165C67.641 78.2931 67.3185 78.6429 66.9692 78.9388C66.2436 79.5038 65.3568 79.8804 64.4162 79.9342C63.5025 79.9611 62.5619 79.9342 61.6482 79.9342C59.7939 79.9342 57.9128 79.9342 56.0316 79.9342C52.2425 79.9342 48.3996 79.9342 44.476 79.9342C42.5142 79.9342 40.5525 79.9342 38.5638 79.9342C37.5695 79.9342 36.5752 79.9342 35.5809 79.9342C34.5866 79.988 33.5385 79.719 32.7054 79.1271C31.8723 78.5622 31.2542 77.6743 30.9586 76.7058C30.7974 76.2216 30.7705 75.7104 30.7705 75.1992C30.7705 74.6881 30.7705 74.2038 30.7705 73.7195C30.7705 71.7287 30.7705 69.7647 30.7705 67.8008C30.7705 63.8998 30.7705 60.0257 30.7705 56.2323C30.7705 48.6455 30.7705 41.3547 30.7705 34.3867C30.7705 27.4187 30.7705 20.8005 30.7705 14.6127C30.7705 11.5188 30.7705 8.53251 30.7705 5.65384C30.7705 5.3041 30.7705 4.92745 30.7705 4.5777C30.7705 4.38938 30.7974 4.22796 30.7974 4.03964C30.8243 3.85131 30.8511 3.68989 30.878 3.50157C31.0392 2.80208 31.3617 2.1564 31.8186 1.61833C32.2754 1.08026 32.8398 0.676706 33.4579 0.380768C34.076 0.111734 34.7747 0.00412009 35.4196 0.00412009C36.7364 0.00412009 38.0264 0.00412009 39.2626 0.00412009C39.8806 0.00412009 40.4987 0.00412009 41.1168 0.00412009C41.4124 0.00412009 41.7349 0.00412009 42.0305 0.00412009C42.3261 -0.0227833 42.6486 0.0848304 42.8905 0.246251C43.1323 0.434575 43.3205 0.676706 43.428 0.94574C43.5354 1.24168 43.5086 1.53762 43.5086 1.80665C43.5086 1.94117 43.5086 2.10259 43.5086 2.23711C43.5086 2.37162 43.5086 2.53304 43.5354 2.66756C43.5623 2.93659 43.6967 3.20563 43.8579 3.42086C44.046 3.63608 44.261 3.7706 44.5298 3.85131C44.6641 3.87822 44.7985 3.90512 44.9329 3.87822C45.0672 3.87822 45.2016 3.87822 45.336 3.87822C45.8734 3.87822 46.4109 3.87822 46.9215 3.87822C49.0177 3.87822 50.9525 3.87822 52.7531 3.87822C53.6399 3.87822 54.4999 3.87822 55.3329 3.87822C55.5479 3.87822 55.736 3.87822 55.9242 3.87822C56.1123 3.85131 56.3004 3.7975 56.4616 3.68989C56.7841 3.47466 56.9991 3.15182 57.0797 2.80208C57.1335 2.61375 57.1066 2.45233 57.1066 2.26401C57.1066 2.07569 57.1066 1.91426 57.1066 1.72594C57.1066 1.56452 57.1066 1.3762 57.1335 1.21477C57.1603 1.05335 57.2141 0.891934 57.2947 0.730513C57.4559 0.434575 57.7247 0.219348 57.9934 0.111734C58.289 -0.0227833 58.5846 0.0310235 58.8802 0.0310235C60.0089 0.0310235 60.9764 0.0310235 61.7557 0.0310235C62.535 0.0310235 63.1263 0.0310235 63.5294 0.0310235C63.9056 0.192444 64.1206 0.192444 64.1206 0.192444C64.1206 0.192444 63.9056 0.192444 63.5294 0.192444C63.1263 0.192444 62.535 0.192444 61.7557 0.192444C60.9764 0.192444 60.0358 0.192444 58.8802 0.192444C58.6115 0.192444 58.289 0.165541 58.0203 0.273154C57.7516 0.380768 57.4828 0.595996 57.3484 0.891934C57.2678 1.02645 57.2141 1.18787 57.1872 1.34929C57.1603 1.51071 57.1603 1.67213 57.1603 1.86046C57.1603 2.02188 57.1603 2.2102 57.1603 2.39853C57.1603 2.58685 57.1603 2.77517 57.1335 2.93659C57.0528 3.31324 56.8379 3.66299 56.4885 3.85131C56.3273 3.95893 56.1391 4.03964 55.9242 4.03964C55.7092 4.06654 55.521 4.03964 55.3061 4.03964C54.4999 4.03964 53.6399 4.03964 52.7262 4.03964C50.9257 4.03964 48.9908 4.03964 46.8946 4.03964C46.384 4.03964 45.8466 4.03964 45.3091 4.03964C45.1747 4.03964 45.0404 4.03964 44.906 4.03964C44.7716 4.03964 44.6373 4.03964 44.5029 3.98583C44.2342 3.90512 43.9654 3.7706 43.7773 3.55537C43.5892 3.34015 43.4548 3.07111 43.428 2.77517C43.4011 2.64066 43.4011 2.47924 43.4011 2.34472C43.4011 2.2102 43.4011 2.04878 43.4011 1.91426C43.4011 1.61833 43.4279 1.32239 43.3205 1.08026C43.2398 0.811223 43.0517 0.569092 42.8099 0.407672C42.568 0.246251 42.2724 0.165541 41.9768 0.192444C41.6812 0.192444 41.3856 0.192444 41.0631 0.192444C40.445 0.192444 39.8269 0.192444 39.2088 0.192444C37.9457 0.192444 36.6827 0.192444 35.3659 0.192444C34.7209 0.192444 34.0491 0.273154 33.431 0.569092C32.8129 0.838127 32.2754 1.24168 31.8186 1.77975C31.3886 2.29091 31.0661 2.93659 30.9049 3.60918C30.8511 3.7706 30.8511 3.95893 30.8243 4.12035C30.8243 4.30867 30.7974 4.47009 30.7974 4.65841C30.7974 5.00816 30.7974 5.38481 30.7974 5.73455C30.7974 8.61322 30.7974 11.5995 30.7974 14.6934C30.7974 20.8812 30.7974 27.4994 30.7974 34.4674C30.7974 41.4354 30.7974 48.7532 30.7974 56.313C30.7974 60.1064 30.7974 63.9536 30.7974 67.8815C30.7974 69.8455 30.7974 71.8094 30.7974 73.8002C30.7974 74.2845 30.7974 74.7957 30.7974 75.2799C30.7974 75.7642 30.8243 76.2754 30.9855 76.7327C31.2542 77.6744 31.8723 78.5353 32.6785 79.0733C33.4847 79.6383 34.4791 79.9073 35.4734 79.8535C36.4677 79.8535 37.462 79.8535 38.4563 79.8535C40.445 79.8535 42.4068 79.8535 44.3685 79.8535C48.2652 79.8535 52.135 79.8535 55.9242 79.8535C57.8053 79.8535 59.6864 79.8535 61.5407 79.8535C62.4544 79.8535 63.395 79.8804 64.3087 79.8535C65.2224 79.7997 66.0824 79.45 66.7811 78.885C67.1304 78.5891 67.426 78.2662 67.6679 77.8896C67.9098 77.5129 68.0979 77.1094 68.2054 76.6789C68.3397 76.2485 68.3666 75.818 68.3666 75.3607C68.3666 74.9033 68.3666 74.4728 68.3666 74.0155C68.3666 72.2399 68.3666 70.4642 68.3666 68.7424C68.3666 54.8064 68.3935 42.2694 68.3935 31.7502C68.3935 21.204 68.4204 12.7025 68.4204 6.81069C68.4204 6.0843 68.4204 5.38481 68.4204 4.73913C68.4204 4.09344 68.3129 3.47466 68.0979 2.9635C67.8829 2.45233 67.5873 1.99497 67.2648 1.64523C66.9423 1.29549 66.593 1.02645 66.2705 0.838127C65.5986 0.434575 65.0074 0.300058 64.6312 0.246251C64.4431 0.219348 64.2818 0.219348 64.1743 0.192444H64.1206Z" fill="#263238"/>
<path d="M64.981 7.37561C64.981 7.40246 64.2554 7.4293 63.3417 7.4293C62.428 7.4293 61.7024 7.4293 61.7024 7.40246C61.7024 7.37561 62.428 7.34877 63.3417 7.34877C64.2285 7.32192 64.9541 7.34877 64.981 7.37561Z" fill="#263238"/>
<path d="M64.981 8.2096C64.981 8.23644 64.2554 8.26329 63.3417 8.26329C62.428 8.26329 61.7024 8.26329 61.7024 8.23644C61.7024 8.2096 62.428 8.18275 63.3417 8.18275C64.2554 8.15591 64.981 8.18275 64.981 8.2096Z" fill="#263238"/>
<path d="M64.981 9.04345C64.981 9.07029 64.2554 9.09714 63.3417 9.09714C62.428 9.09714 61.7024 9.09714 61.7024 9.07029C61.7024 9.04345 62.428 9.0166 63.3417 9.0166C64.2554 9.0166 64.981 9.0166 64.981 9.04345Z" fill="#263238"/>
<path d="M35.3125 9.98542C35.3125 9.98542 35.3394 9.98542 35.3931 9.98542C35.4469 9.98542 35.5006 9.98542 35.5812 9.98542C35.7694 9.98542 35.9843 9.98542 36.2799 9.95851L36.2531 9.98542C36.2531 9.824 36.2531 9.66258 36.2531 9.47425C36.2531 9.39354 36.2531 9.28593 36.2531 9.17831C36.2799 9.0707 36.3606 8.96309 36.4949 8.96309C36.6024 8.96309 36.7099 8.96309 36.8174 8.96309C36.9518 8.98999 37.0593 9.0976 37.0324 9.23212C37.0324 9.47425 37.0324 9.71638 37.0324 9.95851L37.0055 9.93161C37.2743 9.93161 37.5699 9.93161 37.8924 9.93161L37.8655 9.95851C37.8655 9.60877 37.8655 9.23212 37.8655 8.85547C37.8655 8.77476 37.8655 8.66715 37.8655 8.58644C37.8655 8.50573 37.8117 8.45192 37.7311 8.37121C37.5968 8.23669 37.4624 8.12908 37.3549 7.99456C37.2205 7.86005 37.113 7.75243 36.9787 7.61792C36.9249 7.56411 36.8712 7.5103 36.7905 7.42959C36.7368 7.37578 36.6831 7.32198 36.6024 7.29507C36.5218 7.26817 36.4681 7.29507 36.4143 7.32198C36.3606 7.37578 36.3068 7.42959 36.2531 7.4834C36.1456 7.59101 36.0381 7.69863 35.9306 7.80624C35.7425 8.02147 35.5275 8.20979 35.3663 8.37121C35.3125 8.47883 35.3394 8.58644 35.3125 8.69405C35.3125 8.80167 35.3125 8.90928 35.3125 9.01689C35.3125 9.20522 35.3125 9.36664 35.3125 9.52806C35.3125 9.66258 35.3125 9.77019 35.3125 9.8509C35.3125 9.95851 35.3125 9.98542 35.3125 9.98542C35.3125 9.98542 35.3125 9.95851 35.3125 9.8778C35.3125 9.79709 35.3125 9.68948 35.3125 9.55496C35.3125 9.42045 35.3125 9.23212 35.3125 9.0438C35.3125 8.93618 35.3125 8.82857 35.3125 8.72096C35.3125 8.66715 35.3125 8.61334 35.3125 8.55954C35.3125 8.50573 35.3394 8.42502 35.3663 8.37121C35.5275 8.18289 35.7156 7.99456 35.9306 7.77934C36.0381 7.67172 36.1456 7.56411 36.2531 7.45649C36.3068 7.40269 36.3606 7.34888 36.4143 7.29507C36.4949 7.24127 36.5756 7.21436 36.6562 7.24127C36.7368 7.26817 36.8174 7.34888 36.8712 7.40269C36.9249 7.45649 36.9787 7.5103 37.0593 7.59101C37.1936 7.69863 37.3011 7.83314 37.4355 7.96766C37.5699 8.10218 37.6774 8.20979 37.8117 8.34431C37.8386 8.37121 37.8924 8.39811 37.9192 8.45192C37.9461 8.50573 37.973 8.55954 37.973 8.61334C37.973 8.69405 37.973 8.80167 37.973 8.88238C37.973 9.25902 37.973 9.63567 37.973 9.98542V10.0123H37.9461C37.6505 10.0123 37.3549 10.0123 37.0593 10.0123H37.0324V9.98542C37.0324 9.74329 37.0324 9.47425 37.0324 9.25903C37.0324 9.15141 36.9518 9.0707 36.8443 9.0438C36.7368 9.0438 36.6293 9.0438 36.5218 9.0438C36.4143 9.0438 36.3606 9.12451 36.3337 9.20522C36.3337 9.28593 36.3337 9.39354 36.3337 9.47425C36.3337 9.66258 36.3337 9.824 36.3337 9.98542V10.0123H36.3068C36.0112 10.0123 35.7694 10.0123 35.6081 10.0123C35.5275 10.0123 35.4737 10.0123 35.42 10.0123C35.3125 9.98542 35.3125 9.98542 35.3125 9.98542Z" fill="#263238"/>
<path d="M62.4278 20.02H36.3605C35.0437 20.02 33.9956 18.9708 33.9956 17.6525V16.7647C33.9956 15.4465 35.0437 14.3972 36.3605 14.3972H62.4278C63.7446 14.3972 64.7927 15.4465 64.7927 16.7647V17.6525C64.7927 18.9439 63.7446 20.02 62.4278 20.02Z" fill="#F5F5F5"/>
<path d="M62.4277 20.0201C62.4277 20.0201 62.4814 20.0201 62.6158 19.9932C62.7233 19.9932 62.9114 19.9663 63.1264 19.8856C63.3414 19.8049 63.6101 19.6972 63.8789 19.482C64.1476 19.2937 64.4163 18.9978 64.5776 18.5942C64.6582 18.4059 64.7388 18.1906 64.7657 17.9485C64.7926 17.7064 64.7926 17.4643 64.7926 17.1952C64.7926 16.9262 64.7926 16.6572 64.7657 16.3612C64.712 16.0922 64.6313 15.7962 64.4701 15.5272C64.1476 15.016 63.6101 14.5587 62.9114 14.4511C62.5621 14.3973 62.2127 14.4242 61.8365 14.3973C61.4603 14.3973 61.084 14.3973 60.7078 14.3973C54.4731 14.3973 45.9005 14.3973 36.4141 14.4242C35.8229 14.4242 35.2585 14.6394 34.8554 15.0429C34.4255 15.4196 34.1836 15.9846 34.1299 16.5495C34.103 16.8186 34.1299 17.1145 34.1299 17.4104C34.1299 17.7064 34.1299 17.9754 34.2105 18.2445C34.3717 18.7825 34.7211 19.2399 35.1779 19.5627C35.3929 19.7241 35.6616 19.8318 35.9304 19.8856C36.1991 19.9394 36.4678 19.9394 36.7366 19.9394C37.2741 19.9394 37.8384 19.9394 38.3759 19.9394C39.4508 19.9394 40.4989 19.9394 41.547 19.9394C45.6586 19.9394 49.3672 19.9394 52.4845 19.9394C55.6018 19.9394 58.1011 19.9663 59.8478 19.9663C60.7078 19.9663 61.3796 19.9663 61.8634 19.9663C62.0783 19.9663 62.2665 19.9663 62.374 19.9663C62.374 19.9932 62.4277 20.0201 62.4277 20.0201C62.4277 20.0201 62.374 20.0201 62.2396 20.0201C62.1321 20.0201 61.944 20.0201 61.729 20.0201C61.2721 20.0201 60.6003 20.0201 59.7135 20.0201C57.9667 20.0201 55.4675 20.0201 52.3501 20.047C49.2328 20.047 45.5242 20.047 41.4126 20.047C40.3914 20.047 39.3433 20.047 38.2415 20.047C37.704 20.047 37.1666 20.047 36.6022 20.047C36.3335 20.047 36.0379 20.047 35.7691 19.9932C35.5004 19.9394 35.2317 19.8318 34.9898 19.6703C34.5061 19.3475 34.1567 18.8632 33.9955 18.2983C33.9149 18.0292 33.888 17.7064 33.9149 17.4374C33.9149 17.1414 33.9149 16.8724 33.9149 16.5764C33.9686 15.9846 34.2373 15.4196 34.6673 15.016C35.0973 14.6125 35.7154 14.3704 36.3066 14.3704C45.793 14.3704 54.3925 14.3704 60.6003 14.3973C60.9765 14.3973 61.3796 14.3973 61.729 14.3973C62.1052 14.3973 62.4546 14.3704 62.8039 14.4511C63.5026 14.5856 64.0939 15.0429 64.3895 15.581C64.5507 15.8501 64.6582 16.146 64.712 16.415C64.7657 16.711 64.7388 16.98 64.7388 17.249C64.7388 17.5181 64.7388 17.7602 64.712 18.0023C64.6851 18.2445 64.6045 18.4597 64.5238 18.6749C64.3357 19.0785 64.067 19.3744 63.7982 19.5627C63.5295 19.778 63.2608 19.8856 63.0458 19.9394C62.8308 19.9932 62.6427 20.0201 62.5352 20.0201C62.4814 20.0201 62.4277 20.0201 62.4277 20.0201Z" fill="#263238"/>
<path d="M62.9116 17.0607C62.9116 17.0607 62.9116 16.9799 62.8578 16.8185C62.8041 16.6571 62.7234 16.4419 62.4816 16.2805C62.2666 16.119 61.9172 16.0114 61.5679 16.1459C61.2185 16.2536 60.9229 16.6302 60.9498 17.0607C60.9498 17.4911 61.2454 17.8409 61.5679 17.9754C61.9172 18.1099 62.2666 18.0023 62.4816 17.8409C62.6966 17.6794 62.8041 17.4642 62.8578 17.3028C62.9116 17.1683 62.9116 17.0607 62.9116 17.0607C62.9116 17.0607 62.9116 17.0876 62.9116 17.1145C62.9116 17.1683 62.9116 17.2221 62.8847 17.3028C62.8578 17.4642 62.7503 17.7063 62.5085 17.8947C62.2666 18.083 61.8904 18.1906 61.5141 18.0561C61.1379 17.9216 60.7885 17.518 60.8154 17.0607C60.8154 16.5764 61.1379 16.1728 61.5141 16.0652C61.8904 15.9307 62.2935 16.0383 62.5085 16.2267C62.7503 16.415 62.8309 16.6571 62.8847 16.8185C62.9116 16.8992 62.9116 16.953 62.9116 17.0069C62.9116 17.0607 62.9116 17.0607 62.9116 17.0607Z" fill="#263238"/>
<path d="M63.4758 18.8366C63.4489 18.8635 63.234 18.6482 62.9921 18.3792C62.7502 18.1102 62.5621 17.868 62.589 17.8411C62.6159 17.8142 62.8308 18.0295 63.0727 18.2985C63.3146 18.5675 63.5027 18.8097 63.4758 18.8366Z" fill="#263238"/>
<path d="M38.161 16.6572H37.6235V16.5227H38.8866V16.6572H38.3491V18.0831H38.161V16.6572Z" fill="#E0E0E0"/>
<path d="M39.9886 17.518H38.9943C39.0211 17.7601 39.2093 17.9215 39.4511 17.9215C39.5855 17.9215 39.7199 17.8677 39.8005 17.7601L39.8811 17.8677C39.7736 18.0023 39.6124 18.0561 39.4242 18.0561C39.048 18.0561 38.8062 17.8139 38.8062 17.4642C38.8062 17.1144 39.048 16.8723 39.3705 16.8723C39.693 16.8723 39.9348 17.1144 39.9348 17.4642C39.9886 17.4911 39.9886 17.518 39.9886 17.518ZM39.0211 17.4104H39.8542C39.8273 17.1683 39.6661 17.0068 39.4242 17.0068C39.2093 17.0068 39.048 17.1683 39.0211 17.4104Z" fill="#E0E0E0"/>
<path d="M41.0368 18.0563L40.6605 17.572L40.2843 18.0563H40.0962L40.553 17.4644L40.1231 16.8994H40.3112L40.6605 17.3568L41.0099 16.8994H41.1711L40.7412 17.4644L41.198 18.0563H41.0368Z" fill="#E0E0E0"/>
<path d="M42.1116 18.0022C42.0579 18.056 41.9504 18.0829 41.8698 18.0829C41.6548 18.0829 41.5204 17.9484 41.5204 17.7332V17.0337H41.3054V16.8992H41.5204V16.6301H41.6817V16.8992H42.031V17.0337H41.6817V17.7332C41.6817 17.8677 41.7623 17.9484 41.8966 17.9484C41.9504 17.9484 42.031 17.9215 42.0579 17.8946L42.1116 18.0022Z" fill="#E0E0E0"/>
<path d="M55.0107 25.3471C55.0107 25.374 52.7533 25.4008 49.9853 25.4008C47.2173 25.4008 44.96 25.374 44.96 25.3471C44.96 25.3203 47.2173 25.2935 49.9853 25.2935C52.7533 25.2935 55.0107 25.3203 55.0107 25.3471Z" fill="#FF007A"/>
<path d="M63.0459 27.4187C63.0459 27.4455 58.988 27.4724 53.9895 27.4724C48.991 27.4724 44.9331 27.4455 44.9331 27.4187C44.9331 27.3918 48.991 27.365 53.9895 27.365C58.988 27.365 63.0459 27.3918 63.0459 27.4187Z" fill="#263238"/>
<path d="M62.8309 28.8987C62.8309 28.9255 58.8267 28.9524 53.882 28.9524C48.9373 28.9524 44.9331 28.9255 44.9331 28.8987C44.9331 28.8718 48.9373 28.845 53.882 28.845C58.8267 28.845 62.8309 28.8718 62.8309 28.8987Z" fill="#263238"/>
<path d="M55.4944 30.2973C55.4944 30.3242 53.1295 30.351 50.2272 30.351C47.298 30.351 44.96 30.3242 44.96 30.2973C44.96 30.2705 47.3248 30.2437 50.2272 30.2437C53.1295 30.2437 55.4944 30.2705 55.4944 30.2973Z" fill="#263238"/>
<path d="M55.0107 36.5928C55.0107 36.6196 52.7533 36.6464 49.9853 36.6464C47.2173 36.6464 44.96 36.6196 44.96 36.5928C44.96 36.5659 47.2173 36.5391 49.9853 36.5391C52.7533 36.5391 55.0107 36.5659 55.0107 36.5928Z" fill="#FF007A"/>
<path d="M63.0459 38.6643C63.0459 38.6911 58.988 38.718 53.9895 38.718C48.991 38.718 44.9331 38.6911 44.9331 38.6643C44.9331 38.6374 48.991 38.6106 53.9895 38.6106C58.988 38.6106 63.0459 38.6374 63.0459 38.6643Z" fill="#263238"/>
<path d="M62.8309 40.1438C62.8309 40.1706 58.8267 40.1975 53.882 40.1975C48.9373 40.1975 44.9331 40.1706 44.9331 40.1438C44.9331 40.1169 48.9373 40.0901 53.882 40.0901C58.8267 40.0901 62.8309 40.1169 62.8309 40.1438Z" fill="#263238"/>
<path d="M55.4944 41.5429C55.4944 41.5698 53.1295 41.5966 50.2272 41.5966C47.298 41.5966 44.96 41.5698 44.96 41.5429C44.96 41.5161 47.3248 41.4893 50.2272 41.4893C53.1295 41.4893 55.4944 41.5161 55.4944 41.5429Z" fill="#263238"/>
<path d="M55.0107 47.8384C55.0107 47.8652 52.7533 47.892 49.9853 47.892C47.2173 47.892 44.96 47.8652 44.96 47.8384C44.96 47.8115 47.2173 47.7847 49.9853 47.7847C52.7533 47.7847 55.0107 47.8115 55.0107 47.8384Z" fill="#FF007A"/>
<path d="M63.0459 49.9099C63.0459 49.9367 58.988 49.9636 53.9895 49.9636C48.991 49.9636 44.9331 49.9367 44.9331 49.9099C44.9331 49.883 48.991 49.8562 53.9895 49.8562C58.988 49.8562 63.0459 49.883 63.0459 49.9099Z" fill="#263238"/>
<path d="M62.8309 51.3894C62.8309 51.4162 58.8267 51.4431 53.882 51.4431C48.9373 51.4431 44.9331 51.4162 44.9331 51.3894C44.9331 51.3625 48.9373 51.3357 53.882 51.3357C58.8267 51.3357 62.8309 51.3625 62.8309 51.3894Z" fill="#263238"/>
<path d="M55.4944 52.7886C55.4944 52.8154 53.1295 52.8422 50.2272 52.8422C47.298 52.8422 44.96 52.8154 44.96 52.7886C44.96 52.7617 47.3248 52.7349 50.2272 52.7349C53.1295 52.7349 55.4944 52.7617 55.4944 52.7886Z" fill="#263238"/>
<path d="M55.0107 59.0837C55.0107 59.1106 52.7533 59.1374 49.9853 59.1374C47.2173 59.1374 44.96 59.1106 44.96 59.0837C44.96 59.0569 47.2173 59.03 49.9853 59.03C52.7533 59.03 55.0107 59.0569 55.0107 59.0837Z" fill="#FF007A"/>
<path d="M63.0459 61.1553C63.0459 61.1821 58.988 61.2089 53.9895 61.2089C48.991 61.2089 44.9331 61.1821 44.9331 61.1553C44.9331 61.1284 48.991 61.1016 53.9895 61.1016C58.988 61.1016 63.0459 61.1284 63.0459 61.1553Z" fill="#263238"/>
<path d="M62.8309 62.6352C62.8309 62.6621 58.8267 62.6889 53.882 62.6889C48.9373 62.6889 44.9331 62.6621 44.9331 62.6352C44.9331 62.6084 48.9373 62.5815 53.882 62.5815C58.8267 62.5815 62.8309 62.6084 62.8309 62.6352Z" fill="#263238"/>
<path d="M55.4944 64.0342C55.4944 64.061 53.1295 64.0878 50.2272 64.0878C47.298 64.0878 44.96 64.061 44.96 64.0342C44.96 64.0073 47.3248 63.9805 50.2272 63.9805C53.1295 63.9805 55.4944 64.0073 55.4944 64.0342Z" fill="#263238"/>
<path d="M55.0107 70.249C55.0107 70.2759 52.7533 70.3027 49.9853 70.3027C47.2173 70.3027 44.96 70.2759 44.96 70.249C44.96 70.2222 47.2173 70.1953 49.9853 70.1953C52.7533 70.1953 55.0107 70.2222 55.0107 70.249Z" fill="#FF007A"/>
<path d="M63.0459 72.3205C63.0459 72.3474 58.988 72.3742 53.9895 72.3742C48.991 72.3742 44.9331 72.3474 44.9331 72.3205C44.9331 72.2937 48.991 72.2668 53.9895 72.2668C58.988 72.2668 63.0459 72.2937 63.0459 72.3205Z" fill="#263238"/>
<path d="M62.8309 73.8005C62.8309 73.8274 58.8267 73.8542 53.882 73.8542C48.9373 73.8542 44.9331 73.8274 44.9331 73.8005C44.9331 73.7737 48.9373 73.7468 53.882 73.7468C58.8267 73.7468 62.8309 73.7737 62.8309 73.8005Z" fill="#263238"/>
<path d="M55.4944 75.1992C55.4944 75.226 53.1295 75.2529 50.2272 75.2529C47.298 75.2529 44.96 75.226 44.96 75.1992C44.96 75.1724 47.3248 75.1455 50.2272 75.1455C53.1295 75.1455 55.4944 75.1724 55.4944 75.1992Z" fill="#263238"/>
<path d="M34.1512 25.2808L34.1169 31.4417L42.3134 31.4874L42.3476 25.3265L34.1512 25.2808Z" fill="#FF007A"/>
<path d="M34.1301 31.4272L37.0056 27.6069L38.7524 30.0282L39.9886 28.7638L42.3266 31.481L34.1301 31.4272Z" fill="#FF007A"/>
<path d="M39.5319 27.1767C39.5319 27.5264 39.2363 27.8224 38.8869 27.8224C38.5376 27.8224 38.2419 27.5264 38.2419 27.1767C38.2419 26.8269 38.5376 26.531 38.8869 26.531C39.2363 26.5041 39.5319 26.8 39.5319 27.1767Z" fill="#FF007A"/>
<g opacity="0.2">
<path d="M34.1301 31.4272L37.0056 27.6069L38.7524 30.0282L39.9886 28.7638L42.3266 31.481L34.1301 31.4272Z" fill="black"/>
</g>
<g opacity="0.2">
<path d="M39.5319 27.1767C39.5319 27.5264 39.2363 27.8224 38.8869 27.8224C38.5376 27.8224 38.2419 27.5264 38.2419 27.1767C38.2419 26.8269 38.5376 26.531 38.8869 26.531C39.2363 26.5041 39.5319 26.8 39.5319 27.1767Z" fill="black"/>
</g>
<path d="M34.1605 36.3831L34.1262 42.5439L42.3227 42.5897L42.3569 36.4288L34.1605 36.3831Z" fill="#FF007A"/>
<path d="M34.1301 42.5381L37.0056 38.7178L38.7524 41.1391L39.9886 39.8477L42.3266 42.5919L34.1301 42.5381Z" fill="#FF007A"/>
<path d="M39.5319 38.2607C39.5319 38.6104 39.2363 38.9064 38.8869 38.9064C38.5376 38.9064 38.2419 38.6104 38.2419 38.2607C38.2419 37.9109 38.5376 37.615 38.8869 37.615C39.2363 37.615 39.5319 37.9109 39.5319 38.2607Z" fill="#FF007A"/>
<g opacity="0.2">
<path d="M34.1301 42.5381L37.0056 38.7178L38.7524 41.1391L39.9886 39.8477L42.3266 42.5919L34.1301 42.5381Z" fill="black"/>
</g>
<g opacity="0.2">
<path d="M39.5319 38.2607C39.5319 38.6104 39.2363 38.9064 38.8869 38.9064C38.5376 38.9064 38.2419 38.6104 38.2419 38.2607C38.2419 37.9109 38.5376 37.615 38.8869 37.615C39.2363 37.615 39.5319 37.9109 39.5319 38.2607Z" fill="black"/>
</g>
<path d="M34.1429 47.4849L34.1086 53.6458L42.3051 53.6915L42.3393 47.5306L34.1429 47.4849Z" fill="#FF007A"/>
<path d="M34.1301 53.6496L37.0056 49.8293L38.7524 52.2238L39.9886 50.9593L42.3266 53.7034L34.1301 53.6496Z" fill="#FF007A"/>
<path d="M39.5316 49.372C39.5316 49.7217 39.236 50.0177 38.8867 50.0177C38.5373 50.0177 38.2417 49.7217 38.2417 49.372C38.2417 49.0223 38.5373 48.7263 38.8867 48.7263C39.236 48.7263 39.5316 49.0223 39.5316 49.372Z" fill="#FF007A"/>
<g opacity="0.2">
<path d="M34.1301 53.6496L37.0056 49.8293L38.7524 52.2238L39.9886 50.9593L42.3266 53.7034L34.1301 53.6496Z" fill="black"/>
</g>
<g opacity="0.2">
<path d="M39.5316 49.372C39.5316 49.7217 39.236 50.0177 38.8867 50.0177C38.5373 50.0177 38.2417 49.7217 38.2417 49.372C38.2417 49.0223 38.5373 48.7263 38.8867 48.7263C39.236 48.7263 39.5316 49.0223 39.5316 49.372Z" fill="black"/>
</g>
<path d="M34.1519 58.5872L34.1177 64.748L42.3141 64.7938L42.3484 58.6329L34.1519 58.5872Z" fill="#FF007A"/>
<path d="M34.1299 64.7341L37.0054 60.9138L38.7521 63.3351L39.9883 62.0707L42.3263 64.7879L34.1299 64.7341Z" fill="#FF007A"/>
<path d="M39.5314 60.4833C39.5314 60.8331 39.2358 61.129 38.8864 61.129C38.5371 61.129 38.2415 60.8331 38.2415 60.4833C38.2415 60.1336 38.5371 59.8376 38.8864 59.8376C39.2358 59.8107 39.5314 60.1067 39.5314 60.4833Z" fill="#FF007A"/>
<g opacity="0.2">
<path d="M34.1299 64.7341L37.0054 60.9138L38.7521 63.3351L39.9883 62.0707L42.3263 64.7879L34.1299 64.7341Z" fill="black"/>
</g>
<g opacity="0.2">
<path d="M39.5314 60.4833C39.5314 60.8331 39.2358 61.129 38.8864 61.129C38.5371 61.129 38.2415 60.8331 38.2415 60.4833C38.2415 60.1336 38.5371 59.8376 38.8864 59.8376C39.2358 59.8107 39.5314 60.1067 39.5314 60.4833Z" fill="black"/>
</g>
<path d="M34.1622 69.635L34.1279 75.7959L42.3244 75.8417L42.3586 69.6808L34.1622 69.635Z" fill="#FF007A"/>
<path d="M34.1304 75.791L37.0058 71.9707L38.7526 74.392L39.9888 73.1007L42.3268 75.8448L34.1304 75.791Z" fill="#FF007A"/>
<path d="M39.5321 71.5134C39.5321 71.8631 39.2365 72.159 38.8872 72.159C38.5378 72.159 38.2422 71.8631 38.2422 71.5134C38.2422 71.1636 38.5378 70.8677 38.8872 70.8677C39.2365 70.8677 39.5321 71.1636 39.5321 71.5134Z" fill="#FF007A"/>
<g opacity="0.2">
<path d="M34.1304 75.791L37.0058 71.9707L38.7526 74.392L39.9888 73.1007L42.3268 75.8448L34.1304 75.791Z" fill="black"/>
</g>
<g opacity="0.2">
<path d="M39.5321 71.5134C39.5321 71.8631 39.2365 72.159 38.8872 72.159C38.5378 72.159 38.2422 71.8631 38.2422 71.5134C38.2422 71.1636 38.5378 70.8677 38.8872 70.8677C39.2365 70.8677 39.5321 71.1636 39.5321 71.5134Z" fill="black"/>
</g>
<path d="M98.6578 15.3659C99.0274 13.7892 98.0504 12.2104 96.4756 11.8397C94.9008 11.4689 93.3245 12.4465 92.9549 14.0233C92.5853 15.6 93.5623 17.1787 95.1371 17.5495C96.7119 17.9203 98.2882 16.9426 98.6578 15.3659Z" fill="#FF007A"/>
<path d="M95.6432 15.635C95.6163 15.635 95.5894 15.635 95.5625 15.6081L94.5682 14.801C94.5145 14.7472 94.5145 14.6665 94.5413 14.6127C94.5951 14.5589 94.6757 14.5589 94.7295 14.5858L95.6163 15.3122L96.8525 13.7787C96.9062 13.7249 96.9868 13.7249 97.0406 13.7518C97.0943 13.8056 97.0943 13.8863 97.0675 13.9401L95.7238 15.5812C95.7238 15.635 95.67 15.635 95.6432 15.635Z" fill="white"/>
<path d="M83.2007 14.6935C85.4121 14.6935 87.2048 12.8988 87.2048 10.6849C87.2048 8.47099 85.4121 6.67627 83.2007 6.67627C80.9893 6.67627 79.1965 8.47099 79.1965 10.6849C79.1965 12.8988 80.9893 14.6935 83.2007 14.6935Z" fill="#FF007A"/>
<path d="M82.9589 12.0572C82.9051 12.0572 82.8245 12.0303 82.7976 12.0034L81.4539 10.9003C81.3465 10.7927 81.3196 10.6313 81.4271 10.5237C81.5346 10.4161 81.6958 10.3892 81.8033 10.4968L82.932 11.4384L84.5981 9.39375C84.6788 9.28614 84.8669 9.25923 84.9744 9.36685C85.0819 9.44756 85.1087 9.63588 85.0013 9.7435L83.1739 11.9765C83.1201 12.0303 83.0395 12.0572 82.9589 12.0572Z" fill="white"/>
</svg>
