<svg width="60" height="60" viewBox="0 0 60 60" fill="none" xmlns="http://www.w3.org/2000/svg">
<path fill-rule="evenodd" clip-rule="evenodd" d="M43.9286 0C44.7811 0 45.5986 0.338647 46.2014 0.941443C46.8042 1.54424 47.1429 2.3618 47.1429 3.21429V8.57143H55.7143C56.8509 8.57143 57.941 9.02296 58.7447 9.82668C59.5485 10.6304 60 11.7205 60 12.8571V55.7143C60 56.8509 59.5485 57.941 58.7447 58.7447C57.941 59.5485 56.8509 60 55.7143 60H4.28571C3.14907 60 2.05898 59.5485 1.25526 58.7447C0.451529 57.941 0 56.8509 0 55.7143V12.8571C0 11.7205 0.451529 10.6304 1.25526 9.82668C2.05898 9.02296 3.14907 8.57143 4.28571 8.57143H12.8571V3.21429C12.8571 2.3618 13.1958 1.54424 13.7986 0.941443C14.4014 0.338647 15.2189 0 16.0714 0C16.9239 0 17.7415 0.338647 18.3443 0.941443C18.9471 1.54424 19.2857 2.3618 19.2857 3.21429V8.57143H40.7143V3.21429C40.7143 2.3618 41.0529 1.54424 41.6557 0.941443C42.2585 0.338647 43.0761 0 43.9286 0ZM6.42857 27.8571V53.5714H53.5714V27.8571H6.42857ZM6.42857 21.4286H53.5714V15H6.42857V21.4286ZM39.7714 34.1571C40.3734 34.7598 40.7115 35.5768 40.7115 36.4286C40.7115 37.2804 40.3734 38.0973 39.7714 38.7L30.1286 48.3429C29.5259 48.9448 28.7089 49.2829 27.8571 49.2829C27.0054 49.2829 26.1884 48.9448 25.5857 48.3429L20.2286 42.9857C19.9128 42.6914 19.6595 42.3366 19.4838 41.9423C19.3081 41.548 19.2137 41.1224 19.206 40.6908C19.1984 40.2592 19.2778 39.8305 19.4395 39.4303C19.6011 39.0301 19.8418 38.6665 20.147 38.3613C20.4522 38.056 20.8158 37.8154 21.216 37.6538C21.6162 37.4921 22.0449 37.4127 22.4765 37.4203C22.9081 37.4279 23.3337 37.5224 23.728 37.6981C24.1223 37.8738 24.4772 38.1271 24.7714 38.4429L27.8571 41.5286L35.2286 34.1571C35.8313 33.5552 36.6482 33.2171 37.5 33.2171C38.3518 33.2171 39.1687 33.5552 39.7714 34.1571Z" fill="url(#paint0_linear_1012_233)"/>
<defs>
<linearGradient id="paint0_linear_1012_233" x1="70.9143" y1="116.857" x2="30" y2="-0.171435" gradientUnits="userSpaceOnUse">
<stop stop-color="#1D5AF9"/>
<stop offset="0.523958" stop-color="#2061F9"/>
<stop offset="1" stop-color="#5BCEFF"/>
</linearGradient>
</defs>
</svg>
