<svg width="43" height="35" viewBox="0 0 43 35" fill="none" xmlns="http://www.w3.org/2000/svg">
<path d="M42.9209 4.31467C41.3304 5.0182 39.6437 5.48024 37.9167 5.68551C39.737 4.59683 41.0994 2.88345 41.75 0.864674C40.0417 1.88134 38.1688 2.59384 36.2167 2.97926C34.9055 1.5763 33.1675 0.645848 31.2729 0.332559C29.3783 0.019271 27.4333 0.340698 25.7402 1.24687C24.0471 2.15304 22.7009 3.59318 21.9107 5.34341C21.1206 7.09364 20.9308 9.05588 21.3709 10.9251C17.9065 10.7515 14.5174 9.85118 11.4236 8.28272C8.32972 6.71427 5.60031 4.51269 3.41255 1.82092C2.63815 3.15103 2.23121 4.66306 2.23338 6.20217C2.23338 9.22301 3.77088 11.8918 6.10838 13.4543C4.72507 13.4107 3.3722 13.0371 2.16255 12.3647V12.473C2.16297 14.4849 2.85915 16.4347 4.13306 17.9919C5.40698 19.5491 7.18022 20.6177 9.15213 21.0168C7.868 21.3648 6.52152 21.416 5.21463 21.1668C5.77061 22.8985 6.85423 24.413 8.31378 25.4982C9.77333 26.5835 11.5357 27.1851 13.3542 27.2188C11.5469 28.6383 9.4775 29.6876 7.26438 30.3067C5.05127 30.9258 2.73781 31.1027 0.456299 30.8272C4.439 33.3885 9.07525 34.7483 13.8105 34.7438C29.8375 34.7438 38.6021 21.4668 38.6021 9.95218C38.6021 9.57718 38.5917 9.19801 38.5751 8.82717C40.281 7.59419 41.7534 6.0668 42.923 4.31676L42.9209 4.31467Z" fill="#E2E5FC"/>
</svg>
