<svg width="52" height="80" viewBox="0 0 52 80" fill="none" xmlns="http://www.w3.org/2000/svg">
<path d="M45.8964 0H38.9986L32.0479 80H38.9456C42.1291 80 44.9413 77.3806 45.2331 74.1731L51.1758 5.82693C51.4676 2.61945 49.0799 0 45.8964 0Z" fill="#263238"/>
<path d="M37.5396 80H9.15278C5.96921 80 3.60807 77.3806 3.87336 74.1731L9.81602 5.82693C10.1078 2.61945 12.92 0 16.1036 0H44.4904C47.6739 0 50.0351 2.61945 49.7698 5.82693L43.8271 74.1731C43.5618 77.4073 40.7231 80 37.5396 80Z" fill="#0D58FF"/>
<path d="M44.3842 1.33643H37.009C36.5314 1.33643 36.0804 1.71063 35.9743 2.19175L35.9212 2.40559C35.6825 3.58167 34.5947 4.46372 33.4274 4.46372H26.3971C25.2298 4.46372 24.3012 3.58167 24.2482 2.40559V2.16503C24.2216 1.71063 23.8502 1.33643 23.3727 1.33643H15.9974C13.5302 1.33643 11.3547 3.3411 11.1425 5.8269L5.19982 74.1731C4.98758 76.6589 6.7916 78.6635 9.25887 78.6635H37.6457C40.1129 78.6635 42.2884 76.6589 42.5006 74.1731L48.4433 5.8269C48.6555 3.3411 46.8249 1.33643 44.3842 1.33643Z" fill="#E2E5FC"/>
<g opacity="0.2">
<path d="M28.3867 2.08487C28.3602 2.40562 28.0949 2.64618 27.7766 2.64618C27.4582 2.64618 27.246 2.37889 27.2725 2.08487C27.299 1.76412 27.5643 1.52356 27.8827 1.52356C28.201 1.52356 28.4133 1.79085 28.3867 2.08487Z" fill="black"/>
<path d="M32.4456 1.52356C32.2334 1.52356 30.7477 1.52356 30.5089 1.52356C30.1906 1.52356 29.9253 1.79085 29.8987 2.08487C29.8722 2.40562 30.111 2.64618 30.4028 2.64618C30.5885 2.64618 32.1538 2.64618 32.3395 2.64618C32.6578 2.64618 32.9231 2.37889 32.9497 2.08487C32.9762 1.79085 32.764 1.52356 32.4456 1.52356Z" fill="black"/>
</g>
<path d="M14.3525 4.46377H14.9362L14.9893 3.87573H14.4056L14.3525 4.46377Z" fill="#263238"/>
<path d="M15.5994 3.87575L15.5464 4.46379H16.13L16.1831 3.87575L16.2362 3.26099H15.6525L15.5994 3.87575Z" fill="#263238"/>
<path d="M16.8994 2.67297L16.8464 3.26101L16.7933 3.87578L16.7402 4.46382H17.3239L17.3769 3.87578L17.43 3.26101L17.4831 2.67297H16.8994Z" fill="#263238"/>
<path d="M42.5537 2.69958L42.5272 3.12725H42.2354L42.1558 4.00931H42.4476L42.4211 4.4637H45.0475L45.2067 2.69958H42.5537ZM43.6149 4.03604H42.7394L42.819 3.15398H43.6945L43.6149 4.03604Z" fill="#263238"/>
<path d="M40.3516 49.2616H1.96313L5.19976 12.0548H43.5883L40.3516 49.2616Z" fill="#0D58FF"/>
<g opacity="0.8">
<path d="M40.3516 49.2616H1.96313L5.19976 12.0548H43.5883L40.3516 49.2616Z" fill="white"/>
<path d="M40.4844 49.3953H1.83057V49.2616L5.06719 11.9211H43.721L40.4844 49.3953ZM2.09586 49.128H40.2191L43.4292 12.1884H5.30596L2.09586 49.128Z" fill="#0D58FF"/>
</g>
<path opacity="0.8" d="M38.2294 38.9977H5.88965L7.95897 15.2089H40.2987L38.2294 38.9977Z" fill="#E8EAFD"/>
<path d="M38.3355 39.1313H5.73047L7.82632 15.0485H40.4313L38.3355 39.1313ZM6.0223 38.864H38.0967L40.1395 15.3158H8.06508L6.0223 38.864Z" fill="#0D58FF"/>
<path d="M8.02042 15.0941L7.85718 15.3048L38.1397 39.1192L38.303 38.9085L8.02042 15.0941Z" fill="#0D58FF"/>
<path d="M40.1932 15.0959L5.79834 38.91L5.9486 39.1303L40.3435 15.3162L40.1932 15.0959Z" fill="#0D58FF"/>
<path d="M18.4116 42.4992C18.3585 43.1674 17.7484 43.7287 17.0851 43.7287C16.4219 43.7287 15.9178 43.1674 15.9709 42.4992C16.0239 41.831 16.6341 41.2697 17.2974 41.2697C17.9871 41.2697 18.4647 41.8042 18.4116 42.4992Z" fill="#0D58FF"/>
<path d="M22.9746 42.4992C22.9215 43.1674 22.3114 43.7287 21.6481 43.7287C20.9849 43.7287 20.4808 43.1674 20.5339 42.4992C20.5869 41.831 21.1971 41.2697 21.8603 41.2697C22.5236 41.2697 23.0277 41.8042 22.9746 42.4992Z" fill="#0D58FF"/>
<path d="M27.511 42.4992C27.4579 43.1674 26.8477 43.7287 26.1845 43.7287C25.5212 43.7287 25.0172 43.1674 25.0702 42.4992C25.1233 41.831 25.7335 41.2697 26.3967 41.2697C27.0865 41.2697 27.564 41.8042 27.511 42.4992Z" fill="#0D58FF"/>
<path d="M18.1197 70.2171H0.132568L1.64476 52.7898H19.6319L18.1197 70.2171Z" fill="#0D58FF"/>
<g opacity="0.8">
<path d="M18.1197 70.2171H0.132568L1.64476 52.7898H19.6319L18.1197 70.2171Z" fill="white"/>
<path d="M18.2524 70.3508H0L1.53872 52.6561H19.7912L18.2524 70.3508ZM0.291827 70.0835H18.0137L19.4993 52.9234H1.77749L0.291827 70.0835Z" fill="#0D58FF"/>
</g>
<path d="M17.1117 65.406H1.98975L2.94482 54.26H18.0933L17.1117 65.406Z" fill="#E2E5FC"/>
<path d="M17.2443 65.5396H1.83057L2.81217 54.1263H18.2259L17.2443 65.5396ZM2.12239 65.2723H17.0056L17.9606 54.3936H3.07746L2.12239 65.2723Z" fill="#0D58FF"/>
<path d="M3.02994 54.1671L2.8667 54.3778L17.046 65.5284L17.2092 65.3177L3.02994 54.1671Z" fill="#0D58FF"/>
<path d="M18.0311 54.1532L1.91602 65.3109L2.06628 65.5312L18.1814 54.3735L18.0311 54.1532Z" fill="#0D58FF"/>
<path d="M7.85275 67.0365C7.82622 67.3573 7.5344 67.6246 7.24257 67.6246C6.92421 67.6246 6.68544 67.3573 6.71197 67.0365C6.7385 66.7158 7.03033 66.4485 7.32216 66.4485C7.61399 66.4485 7.87928 66.7158 7.85275 67.0365Z" fill="#0D58FF"/>
<path d="M9.97531 67.0365C9.94878 67.3573 9.65695 67.6246 9.36513 67.6246C9.04677 67.6246 8.808 67.3573 8.83453 67.0365C8.86106 66.7158 9.15289 66.4485 9.44472 66.4485C9.76307 66.4752 10.0018 66.7158 9.97531 67.0365Z" fill="#0D58FF"/>
<path d="M12.0976 67.0365C12.0711 67.3573 11.7793 67.6246 11.4874 67.6246C11.1691 67.6246 10.9303 67.3573 10.9568 67.0365C10.9834 66.7158 11.2752 66.4485 11.567 66.4485C11.9119 66.4752 12.1242 66.7158 12.0976 67.0365Z" fill="#0D58FF"/>
<path d="M38.5479 70.2171H20.5608L22.073 52.7898H40.0601L38.5479 70.2171Z" fill="#0D58FF"/>
<g opacity="0.8">
<path d="M38.5479 70.2171H20.5608L22.073 52.7898H40.0601L38.5479 70.2171Z" fill="white"/>
<path d="M38.6539 70.3508H20.428L21.9667 52.6561H40.2192L38.6539 70.3508ZM20.6933 70.0835H38.4151L39.9008 52.9234H22.2055L20.6933 70.0835Z" fill="#0D58FF"/>
</g>
<path d="M37.5401 65.406H22.3916L23.3732 54.26H38.4951L37.5401 65.406Z" fill="#E2E5FC"/>
<path d="M37.646 65.5396H22.2588L23.2404 54.1263H38.6542L37.646 65.5396ZM22.5506 65.2723H37.4073L38.3623 54.3936H23.4792L22.5506 65.2723Z" fill="#0D58FF"/>
<path d="M23.4545 54.1576L23.2913 54.3683L37.4705 65.5189L37.6338 65.3082L23.4545 54.1576Z" fill="#0D58FF"/>
<path d="M38.4361 54.1606L22.321 65.3182L22.4713 65.5385L38.5864 54.3809L38.4361 54.1606Z" fill="#0D58FF"/>
<path d="M28.2544 67.0365C28.2279 67.3573 27.9361 67.6246 27.6442 67.6246C27.3524 67.6246 27.0871 67.3573 27.1137 67.0365C27.1402 66.7158 27.432 66.4485 27.7238 66.4485C28.0687 66.4752 28.281 66.7158 28.2544 67.0365Z" fill="#0D58FF"/>
<path d="M30.4036 67.0365C30.3771 67.3573 30.0852 67.6246 29.7934 67.6246C29.5016 67.6246 29.2363 67.3573 29.2628 67.0365C29.2894 66.7158 29.5812 66.4485 29.873 66.4485C30.1914 66.4752 30.4301 66.7158 30.4036 67.0365Z" fill="#0D58FF"/>
<path d="M32.5258 67.0365C32.4993 67.3573 32.2075 67.6246 31.9157 67.6246C31.5973 67.6246 31.3585 67.3573 31.3851 67.0365C31.4116 66.7158 31.7034 66.4485 31.9953 66.4485C32.3136 66.4752 32.5524 66.7158 32.5258 67.0365Z" fill="#0D58FF"/>
<g opacity="0.2">
<path d="M26.4233 4.49047L6.81787 77.8884C7.48111 78.3695 8.33007 78.6635 9.25861 78.6635H10.7973L30.5885 4.46375H26.4233V4.49047Z" fill="#9BBAFF"/>
<path d="M44.3839 1.33643H37.0086C36.5311 1.33643 36.0801 1.71063 35.9739 2.19175L35.9209 2.40559C35.6821 3.55494 34.6474 4.41027 33.5067 4.46372L13.689 78.6635H28.7844L48.4164 5.10522C48.2837 2.9669 46.5858 1.33643 44.3839 1.33643Z" fill="#9BBAFF"/>
</g>
<path d="M25.6087 10.0746C25.2221 10.0659 24.9232 9.95111 24.7121 9.7303C24.501 9.50683 24.3999 9.19247 24.4089 8.78724L24.444 7.20763L24.9638 7.21933L24.9292 8.77895C24.917 9.32815 25.1482 9.60809 25.6228 9.61878C26.0946 9.6294 26.3367 9.36012 26.3489 8.81092L26.3835 7.2513L26.8953 7.26283L26.8603 8.84244C26.8513 9.24767 26.7364 9.55716 26.5156 9.77092C26.2975 9.98206 25.9952 10.0833 25.6087 10.0746ZM27.6234 7.27922L28.1433 7.29093L28.0812 10.0902L27.5613 10.0785L27.6234 7.27922ZM29.7368 6.75867L30.1847 6.76875L28.7815 10.5061L28.3336 10.496L29.7368 6.75867ZM31.5251 10.2078C31.1386 10.1991 30.8397 10.0843 30.6285 9.86353C30.4174 9.64005 30.3164 9.3257 30.3254 8.92046L30.3604 7.34085L30.8803 7.35256L30.8457 8.91218C30.8335 9.46137 31.0647 9.74132 31.5392 9.752C32.0111 9.76263 32.2531 9.49334 32.2653 8.94414L32.2999 7.38453L32.8118 7.39605L32.7768 8.97566C32.7678 9.3809 32.6529 9.69039 32.4321 9.90414C32.214 10.1153 31.9117 10.2165 31.5251 10.2078ZM35.2023 10.2506L34.4661 9.16974L33.6906 10.2166L33.0988 10.2032L34.1702 8.79899L33.2169 7.40517L33.8047 7.41841L34.4985 8.43028L35.2284 7.45047L35.7922 7.46316L34.7825 8.79277L35.8021 10.2641L35.2023 10.2506Z" fill="#0D58FF"/>
</svg>
