<svg width="60" height="60" viewBox="0 0 60 60" fill="none" xmlns="http://www.w3.org/2000/svg">
<path d="M30.0234 3.75C24.5553 3.7562 19.3128 5.93118 15.4462 9.79777C11.5796 13.6644 9.40464 18.9068 9.39844 24.375C9.39844 42.0234 28.1484 55.3594 28.9453 55.9219C29.2647 56.1345 29.6398 56.248 30.0234 56.248C30.4071 56.248 30.7822 56.1345 31.1016 55.9219C31.8984 55.3594 50.6484 42.0234 50.6484 24.375C50.6422 18.9068 48.4673 13.6644 44.6007 9.79777C40.7341 5.93118 35.4916 3.7562 30.0234 3.75ZM30.0234 16.875C31.5068 16.875 32.9568 17.3149 34.1902 18.139C35.4236 18.9631 36.3849 20.1344 36.9525 21.5049C37.5202 22.8753 37.6687 24.3833 37.3793 25.8382C37.0899 27.293 36.3756 28.6294 35.3267 29.6783C34.2778 30.7272 32.9415 31.4415 31.4866 31.7309C30.0318 32.0203 28.5238 31.8718 27.1533 31.3041C25.7829 30.7364 24.6115 29.7751 23.7874 28.5418C22.9633 27.3084 22.5234 25.8584 22.5234 24.375C22.5234 22.3859 23.3136 20.4782 24.7201 19.0717C26.1267 17.6652 28.0343 16.875 30.0234 16.875Z" fill="#E2E5FC"/>
</svg>
