<svg width="42" height="54" viewBox="0 0 42 54" fill="none" xmlns="http://www.w3.org/2000/svg">
<path d="M21.0234 0.75C15.5553 0.756203 10.3128 2.93118 6.44621 6.79777C2.57962 10.6644 0.404641 15.9068 0.398438 21.375C0.398438 39.0234 19.1484 52.3594 19.9453 52.9219C20.2647 53.1345 20.6398 53.248 21.0234 53.248C21.4071 53.248 21.7822 53.1345 22.1016 52.9219C22.8984 52.3594 41.6484 39.0234 41.6484 21.375C41.6422 15.9068 39.4673 10.6644 35.6007 6.79777C31.7341 2.93118 26.4916 0.756203 21.0234 0.75ZM21.0234 13.875C22.5068 13.875 23.9568 14.3149 25.1902 15.139C26.4236 15.9631 27.3849 17.1344 27.9525 18.5049C28.5202 19.8753 28.6687 21.3833 28.3793 22.8382C28.0899 24.293 27.3756 25.6294 26.3267 26.6783C25.2778 27.7272 23.9415 28.4415 22.4866 28.7309C21.0318 29.0203 19.5238 28.8718 18.1533 28.3041C16.7829 27.7364 15.6115 26.7751 14.7874 25.5418C13.9633 24.3084 13.5234 22.8584 13.5234 21.375C13.5234 19.3859 14.3136 17.4782 15.7201 16.0717C17.1267 14.6652 19.0343 13.875 21.0234 13.875Z" fill="#E2E5FC"/>
</svg>
