<svg width="3765" height="268" viewBox="0 0 3765 268" fill="none" xmlns="http://www.w3.org/2000/svg">
<path d="M78.9 36.441C64.5 41.541 15 55.5 0 55.5V267.5H1817H1947.3H3764.3V55.5C3749.3 55.5 3699.8 41.541 3685.4 36.441C3675 32.741 3664.4 30.841 3653.5 31.341C3642.2 31.841 3631.2 34.841 3620.6 39.341C3611.5 43.141 3602.8 47.641 3594.1 52.441C3582.7 58.741 3571.3 65.041 3559.5 70.241C3548.7 75.041 3537.5 78.541 3525.8 79.441C3514.4 80.341 3503.3 78.741 3492.4 74.941C3477.8 69.841 3464.4 61.741 3451.3 53.041C3440 45.541 3428.9 37.541 3417.3 30.441C3406.8 24.041 3396.1 18.341 3384.5 14.741C3366.1 9.04098 3348 10.341 3330 16.741C3318.1 20.9409 3306.8 26.8409 3295.5 32.7408C3282 39.8408 3268.7 47.241 3254.5 52.341C3244.2 56.041 3233.6 58.441 3222.7 58.641C3209.5 58.841 3196.8 55.841 3184.4 50.741C3171.1 45.241 3158.6 37.841 3146.1 30.341L3144.73 29.5207L3144.72 29.519C3131.28 21.4892 3117.81 13.443 3103.5 7.64098C3089.3 1.84098 3074.7 -0.859018 3059.6 0.240982C3046.3 1.24098 3033.6 5.34098 3021.3 10.641C3007.5 16.541 2994.4 23.941 2980.9 30.541C2969.2 36.241 2957.4 41.341 2944.9 44.441C2926.8 49.041 2908.8 48.241 2890.9 43.041C2876.3 38.841 2862.4 32.141 2848.5 25.741C2837.26 20.5286 2825.96 15.3161 2814.26 11.4003L2810.1 9.41116C2799.6 4.51116 2788.8 1.01117 2777.4 0.211166C2763.9 -0.788834 2750.9 1.81117 2738.3 7.01117C2724.2 12.8112 2711.2 20.8112 2698.2 28.9112C2685.6 36.8112 2673.3 46.2199 2659.8 52.2199C2648.7 57.2199 2636.7 58.7112 2624.7 59.2112C2610.8 59.8112 2597.5 56.5112 2584.5 51.3112C2571.1 45.8112 2558.3 38.7112 2545.5 31.8112C2534.5 25.8112 2523.3 20.2112 2511.6 16.1112C2497.2 11.1112 2482.4 8.91117 2467.3 11.3112C2456.4 13.0112 2446.1 16.6112 2436 21.3112C2421.4 28.1112 2407.7 36.9112 2393.8 45.1112C2381.2 52.5112 2368.5 59.6112 2354.8 64.3112C2339.2 69.7112 2323.4 71.2112 2307.3 68.3112C2293 65.7112 2279.5 60.3112 2266.1 54.2112C2254.4 48.9112 2242.8 43.1112 2230.8 38.2112C2214.5 31.6112 2197.8 27.1112 2180.1 28.0112C2169.7 28.5112 2159.7 30.6112 2149.8 34.0112C2133.4 39.6112 2118.1 48.2112 2102.7 56.3112C2092.5 61.7112 2082.3 67.0112 2071.7 71.3112C2057.5 77.1112 2042.8 80.7112 2027.6 80.6112C2016.1 80.6112 2004.8 78.4112 1993.8 74.9112C1980.3 70.6112 1967.2 64.8112 1954.1 58.9112C1942.8 53.8112 1931.3 49.0112 1919.5 45.3112C1902.6 39.9112 1885.5 37.9112 1867.9 40.3112L1844.8 45.3112C1833 49.0112 1821.5 53.8112 1810.2 58.9112C1797.1 64.8112 1784 70.6112 1770.5 74.9112C1759.5 78.4112 1748.2 80.6112 1736.7 80.6112C1721.5 80.7112 1706.8 77.1112 1692.6 71.3112C1682 67.0112 1671.8 61.7112 1661.6 56.3112C1646.2 48.2112 1630.9 39.6112 1614.5 34.0112C1604.6 30.6112 1594.6 28.5112 1584.2 28.0112C1566.5 27.1112 1549.8 31.6112 1533.5 38.2112C1521.5 43.1112 1509.9 48.9112 1498.2 54.2112C1484.8 60.3112 1471.3 65.7112 1457 68.3112C1440.9 71.2112 1425.1 69.7112 1409.5 64.3112C1395.8 59.6112 1383.1 52.5112 1370.5 45.1112C1356.6 36.9112 1342.9 28.1112 1328.3 21.3112C1318.2 16.6112 1307.9 13.0112 1297 11.3112C1281.9 8.91117 1267.1 11.1112 1252.7 16.1112C1241 20.2112 1229.8 25.8112 1218.8 31.8112C1206 38.7112 1193.2 45.8112 1179.8 51.3112C1166.8 56.5112 1153.5 59.8112 1139.6 59.2112C1127.6 58.7112 1115.6 57.2199 1104.5 52.2199C1091 46.2199 1078.7 36.8112 1066.1 28.9112C1053.1 20.8112 1040.1 12.8112 1026 7.01117C1013.4 1.81117 1000.4 -0.788834 986.901 0.211166C975.501 1.01117 964.701 4.51116 954.201 9.41116L950.042 11.4003C938.346 15.3161 927.04 20.5286 915.801 25.741C901.901 32.141 888.001 38.841 873.401 43.041C855.501 48.241 837.501 49.041 819.401 44.441C806.901 41.341 795.101 36.241 783.401 30.541C769.901 23.941 756.801 16.541 743.001 10.641C730.701 5.34098 718.001 1.24098 704.701 0.240982C689.601 -0.859018 675 1.84098 660.8 7.64098C646.488 13.4433 633.018 21.49 619.575 29.5203L619.574 29.5207L618.201 30.341C605.701 37.841 593.2 45.241 579.9 50.741C567.5 55.841 554.8 58.841 541.6 58.641C530.7 58.441 520.1 56.041 509.8 52.341C495.6 47.241 482.3 39.8408 468.8 32.7408C457.5 26.8409 446.2 20.9409 434.3 16.741C416.3 10.341 398.2 9.04098 379.8 14.741C368.2 18.341 357.5 24.041 347 30.441C335.4 37.541 324.3 45.541 313 53.041C299.9 61.741 286.5 69.841 271.9 74.941C261 78.741 249.9 80.341 238.5 79.441C226.8 78.541 215.6 75.041 204.8 70.241C193 65.041 181.6 58.741 170.2 52.441C161.5 47.641 152.8 43.141 143.7 39.341C133.1 34.841 122.1 31.841 110.8 31.341C99.9 30.841 89.3 32.741 78.9 36.441Z" fill="#CFF4FE"/>
</svg>
