<svg width="108" height="80" viewBox="0 0 108 80" fill="none" xmlns="http://www.w3.org/2000/svg">
<path d="M90.3909 6.9425H14.1968C12.8768 6.9425 11.8101 8.01182 11.8101 9.33486V63.2716C11.8101 64.5947 12.8768 65.664 14.1968 65.664H43.4341L41.9514 80L63.251 79.8731L62.0396 65.664H90.3909C91.7108 65.664 92.7776 64.5947 92.7776 63.2716V9.33486C92.7596 8.01182 91.6928 6.9425 90.3909 6.9425Z" fill="#FF725E"/>
<path d="M53.6285 60.1532C54.6591 61.6394 53.0499 63.2705 51.5672 62.2193C51.513 62.1831 51.4768 62.1468 51.4406 62.0925C50.41 60.6063 52.0192 58.9751 53.5019 60.0263C53.538 60.0445 53.5923 60.0988 53.6285 60.1532Z" fill="#263238"/>
<path d="M91.7794 55.9483H13.4517V9.85922C13.4517 8.88052 14.2292 8.1012 15.2055 8.1012H90.0255C91.0019 8.1012 91.7794 8.88052 91.7794 9.85922V55.9483Z" fill="white"/>
<path d="M91.7794 12.0705H13.4517V9.75065C13.4517 8.82633 14.193 8.08325 15.1151 8.08325H90.4052C91.1646 8.08325 91.7613 8.69946 91.7613 9.44255V12.0705H91.7794Z" fill="#F5F5F5"/>
<path d="M16.4892 10.1675C16.4892 10.4756 16.236 10.7112 15.9467 10.7112C15.6394 10.7112 15.4043 10.4575 15.4043 10.1675C15.4043 9.85939 15.6574 9.62378 15.9467 9.62378C16.236 9.62378 16.4892 9.85939 16.4892 10.1675Z" fill="#263238"/>
<path d="M18.1352 10.1675C18.1352 10.4756 17.882 10.7112 17.5927 10.7112C17.2853 10.7112 17.0503 10.4575 17.0503 10.1675C17.0503 9.85939 17.3034 9.62378 17.5927 9.62378C17.882 9.62378 18.1352 9.85939 18.1352 10.1675Z" fill="#263238"/>
<path d="M19.6899 10.1675C19.6899 10.4756 19.4367 10.7112 19.1474 10.7112C18.84 10.7112 18.605 10.4575 18.605 10.1675C18.605 9.85939 18.8581 9.62378 19.1474 9.62378C19.4367 9.62378 19.6899 9.85939 19.6899 10.1675Z" fill="#263238"/>
<path d="M70.2089 65.826C70.2089 65.8442 63.8262 65.8804 55.9428 65.8804C48.0594 65.8804 41.6768 65.8623 41.6768 65.826C41.6768 65.7897 48.0594 65.7716 55.9428 65.7716C63.8262 65.7716 70.2089 65.7897 70.2089 65.826Z" fill="#263238"/>
<path d="M26.3255 12.0704H13.4517V55.9484H26.3255V12.0704Z" fill="#EBEBEB"/>
<path d="M19.1113 13.0129C19.1837 12.9767 19.256 12.9404 19.3283 12.9223L19.3645 12.7048H19.7261L19.7803 12.9223C19.8527 12.9404 19.925 12.9767 19.9973 13.0129L20.1781 12.8861L20.4313 13.1398L20.3228 13.321C20.3589 13.3935 20.3951 13.466 20.4132 13.5385L20.6302 13.5748V13.9373L20.4132 13.9916C20.3951 14.0641 20.3589 14.1366 20.3228 14.2091L20.4493 14.3904L20.1962 14.6441L20.0154 14.5353C19.9431 14.5716 19.8708 14.6078 19.7984 14.626L19.7623 14.8435H19.4006L19.3464 14.626C19.2741 14.6078 19.2017 14.5716 19.1294 14.5353L18.9486 14.6622L18.6955 14.4085L18.804 14.2272C18.7678 14.1547 18.7316 14.0823 18.7136 14.0098L18.4966 13.9735V13.611L18.7136 13.5567C18.7316 13.4842 18.7678 13.4117 18.804 13.3392L18.6774 13.1579L18.9305 12.9042L19.1113 13.0129ZM19.2922 13.4842C19.1475 13.6292 19.1475 13.8829 19.3102 14.0279C19.4549 14.1729 19.708 14.1729 19.8527 14.0098C19.9973 13.8648 19.9973 13.611 19.8346 13.466C19.6899 13.3392 19.4368 13.3392 19.2922 13.4842Z" fill="#263238"/>
<path d="M22.0763 23.0717H16.4712C16.1457 23.0717 15.8926 22.8179 15.8926 22.4917C15.8926 22.1655 16.1457 21.9117 16.4712 21.9117H22.0763C22.4018 21.9117 22.6549 22.1655 22.6549 22.4917C22.6549 22.8179 22.4018 23.0717 22.0763 23.0717Z" fill="#263238"/>
<path d="M22.0763 20.1356H16.4712C16.1457 20.1356 15.8926 19.8819 15.8926 19.5557C15.8926 19.2294 16.1457 18.9757 16.4712 18.9757H22.0763C22.4018 18.9757 22.6549 19.2294 22.6549 19.5557C22.6549 19.8819 22.4018 20.1356 22.0763 20.1356Z" fill="#263238"/>
<path d="M22.0763 17.4352H16.4712C16.1457 17.4352 15.8926 17.1815 15.8926 16.8552C15.8926 16.529 16.1457 16.2753 16.4712 16.2753H22.0763C22.4018 16.2753 22.6549 16.529 22.6549 16.8552C22.6549 17.1815 22.4018 17.4352 22.0763 17.4352Z" fill="#263238"/>
<path d="M37.1567 17.1089H31.8408C31.5153 17.1089 31.2622 16.8552 31.2622 16.5289C31.2622 16.2027 31.5153 15.949 31.8408 15.949H37.1567C37.4821 15.949 37.7353 16.2027 37.7353 16.5289C37.7353 16.8552 37.4821 17.1089 37.1567 17.1089Z" fill="#263238"/>
<path d="M37.1567 20.1356H31.8408C31.5153 20.1356 31.2622 19.8819 31.2622 19.5557C31.2622 19.2294 31.5153 18.9757 31.8408 18.9757H37.1567C37.4821 18.9757 37.7353 19.2294 37.7353 19.5557C37.7353 19.8819 37.4821 20.1356 37.1567 20.1356Z" fill="#E0E0E0"/>
<path d="M37.1567 23.2529H31.8408C31.5153 23.2529 31.2622 22.9992 31.2622 22.673C31.2622 22.3468 31.5153 22.093 31.8408 22.093H37.1567C37.4821 22.093 37.7353 22.3468 37.7353 22.673C37.7353 22.9992 37.4821 23.2529 37.1567 23.2529Z" fill="#FF725E"/>
<path d="M34.8965 29.3063H31.8408C31.5153 29.3063 31.2622 29.0526 31.2622 28.7263C31.2622 28.4001 31.5153 28.1464 31.8408 28.1464H34.8965C35.222 28.1464 35.4751 28.4001 35.4751 28.7263C35.457 29.0526 35.2039 29.3063 34.8965 29.3063Z" fill="#263238"/>
<path d="M34.8965 32.4417H31.8408C31.5153 32.4417 31.2622 32.1879 31.2622 31.8617C31.2622 31.5355 31.5153 31.2817 31.8408 31.2817H34.8965C35.222 31.2817 35.4751 31.5355 35.4751 31.8617C35.457 32.1879 35.2039 32.4417 34.8965 32.4417Z" fill="#263238"/>
<path d="M43.9552 32.4417H38.3681C38.0427 32.4417 37.7896 32.1879 37.7896 31.8617C37.7896 31.5355 38.0427 31.2817 38.3681 31.2817H43.9552C44.2807 31.2817 44.5338 31.5355 44.5338 31.8617C44.5158 32.1879 44.2626 32.4417 43.9552 32.4417Z" fill="#E0E0E0"/>
<path d="M40.7907 35.2328H35.2036C34.8781 35.2328 34.625 34.9791 34.625 34.6528C34.625 34.3266 34.8781 34.0729 35.2036 34.0729H40.7907C41.1161 34.0729 41.3693 34.3266 41.3693 34.6528C41.3693 34.9609 41.0981 35.2328 40.7907 35.2328Z" fill="#FF725E"/>
<path d="M41.8578 38.4046H38.3501C38.0427 38.4046 37.7896 38.1508 37.7896 37.8427V37.8065C37.7896 37.4984 38.0427 37.2446 38.3501 37.2446H41.8578C42.1652 37.2446 42.4183 37.4984 42.4183 37.8065V37.8427C42.4183 38.1508 42.1652 38.4046 41.8578 38.4046Z" fill="#FF725E"/>
<path d="M41.8397 44.6392H38.3681C38.0427 44.6392 37.7896 44.3854 37.7896 44.0592C37.7896 43.733 38.0427 43.4792 38.3681 43.4792H41.8397C42.1652 43.4792 42.4183 43.733 42.4183 44.0592C42.4183 44.3854 42.1652 44.6392 41.8397 44.6392Z" fill="#FF725E"/>
<path d="M41.8397 51.218H38.3681C38.0427 51.218 37.7896 50.9643 37.7896 50.6381C37.7896 50.3118 38.0427 50.0581 38.3681 50.0581H41.8397C42.1652 50.0581 42.4183 50.3118 42.4183 50.6381C42.4183 50.9643 42.1652 51.218 41.8397 51.218Z" fill="#FF725E"/>
<path d="M50.3736 51.218H44.2983C43.9729 51.218 43.7197 50.9643 43.7197 50.6381C43.7197 50.3118 43.9729 50.0581 44.2983 50.0581H50.3917C50.7171 50.0581 50.9703 50.3118 50.9703 50.6381C50.9522 50.9643 50.6991 51.218 50.3736 51.218Z" fill="#455A64"/>
<path d="M54.6408 51.218H53.7549C53.4294 51.218 53.1763 50.9643 53.1763 50.6381C53.1763 50.3118 53.4294 50.0581 53.7549 50.0581H54.6408C54.9663 50.0581 55.2194 50.3118 55.2194 50.6381C55.2194 50.9643 54.9663 51.218 54.6408 51.218Z" fill="#E0E0E0"/>
<path d="M50.012 44.6392H44.8589C44.5334 44.6392 44.2803 44.3854 44.2803 44.0592C44.2803 43.733 44.5334 43.4792 44.8589 43.4792H50.012C50.3375 43.4792 50.5906 43.733 50.5906 44.0592C50.5906 44.3854 50.3375 44.6392 50.012 44.6392Z" fill="#E0E0E0"/>
<path d="M61.2947 47.5208H44.8589C44.5334 47.5208 44.2803 47.267 44.2803 46.9408C44.2803 46.6146 44.5334 46.3608 44.8589 46.3608H61.2947C61.6201 46.3608 61.8733 46.6146 61.8733 46.9408C61.8733 47.267 61.6201 47.5208 61.2947 47.5208Z" fill="#E0E0E0"/>
<path d="M63.1931 44.6392H52.706C52.3806 44.6392 52.1274 44.3854 52.1274 44.0592C52.1274 43.733 52.3806 43.4792 52.706 43.4792H63.1931C63.5186 43.4792 63.7717 43.733 63.7717 44.0592C63.7717 44.3854 63.5186 44.6392 63.1931 44.6392Z" fill="#455A64"/>
<path d="M48.8727 38.4046H44.497C44.1897 38.4046 43.9365 38.1508 43.9365 37.8427V37.8065C43.9365 37.4984 44.1897 37.2446 44.497 37.2446H48.8727C49.1801 37.2446 49.4332 37.4984 49.4332 37.8065V37.8427C49.4332 38.1508 49.1801 38.4046 48.8727 38.4046Z" fill="#455A64"/>
<path d="M52.6337 38.4046H51.5307C51.2234 38.4046 50.9702 38.1508 50.9702 37.8427V37.8065C50.9702 37.4984 51.2234 37.2446 51.5307 37.2446H52.6337C52.9411 37.2446 53.1942 37.4984 53.1942 37.8065V37.8427C53.1942 38.1508 52.9411 38.4046 52.6337 38.4046Z" fill="#E0E0E0"/>
<path d="M60.9151 38.4046H55.4546C55.1472 38.4046 54.894 38.1508 54.894 37.8427V37.8065C54.894 37.4984 55.1472 37.2446 55.4546 37.2446H60.9151C61.2225 37.2446 61.4756 37.4984 61.4756 37.8065V37.8427C61.4756 38.1508 61.2225 38.4046 60.9151 38.4046Z" fill="#E0E0E0"/>
<path d="M44.5699 35.2328H43.3223C42.9968 35.2328 42.7437 34.9791 42.7437 34.6528C42.7437 34.3266 42.9968 34.0729 43.3223 34.0729H44.5699C44.8953 34.0729 45.1485 34.3266 45.1485 34.6528C45.1485 34.9609 44.8953 35.2328 44.5699 35.2328Z" fill="#263238"/>
<path d="M55.1295 35.2328H47.1919C46.8664 35.2328 46.6133 34.9791 46.6133 34.6528C46.6133 34.3266 46.8664 34.0729 47.1919 34.0729H55.1295C55.455 34.0729 55.7081 34.3266 55.7081 34.6528C55.7081 34.9609 55.4369 35.2328 55.1295 35.2328Z" fill="#E0E0E0"/>
<path d="M45.6728 17.1089H40.3569C40.0315 17.1089 39.7783 16.8552 39.7783 16.5289C39.7783 16.2027 40.0315 15.949 40.3569 15.949H45.6728C45.9983 15.949 46.2514 16.2027 46.2514 16.5289C46.2514 16.8552 45.9983 17.1089 45.6728 17.1089Z" fill="#455A64"/>
<path d="M52.5256 20.1356H40.3569C40.0315 20.1356 39.7783 19.8819 39.7783 19.5557C39.7783 19.2294 40.0315 18.9757 40.3569 18.9757H52.5256C52.851 18.9757 53.1042 19.2294 53.1042 19.5557C53.1042 19.8819 52.8329 20.1356 52.5256 20.1356Z" fill="#263238"/>
<path d="M65.6163 23.2529H40.3569C40.0315 23.2529 39.7783 22.9992 39.7783 22.673C39.7783 22.3468 40.0315 22.093 40.3569 22.093H65.6163C65.9418 22.093 66.1949 22.3468 66.1949 22.673C66.1949 22.9992 65.9418 23.2529 65.6163 23.2529Z" fill="#E0E0E0"/>
<path d="M52.2724 25.4641H40.3569C40.0315 25.4641 39.7783 25.2104 39.7783 24.8842C39.7783 24.5579 40.0315 24.3042 40.3569 24.3042H52.2724C52.5979 24.3042 52.851 24.5579 52.851 24.8842C52.851 25.2104 52.5798 25.4641 52.2724 25.4641Z" fill="#E0E0E0"/>
<path d="M49.831 29.3063H37.9155C37.5901 29.3063 37.3369 29.0526 37.3369 28.7263C37.3369 28.4001 37.5901 28.1464 37.9155 28.1464H49.831C50.1565 28.1464 50.4096 28.4001 50.4096 28.7263C50.4096 29.0526 50.1565 29.3063 49.831 29.3063Z" fill="#455A64"/>
<path d="M56.5033 29.3063H52.5073C52.1818 29.3063 51.9287 29.0526 51.9287 28.7263C51.9287 28.4001 52.1818 28.1464 52.5073 28.1464H56.5033C56.8287 28.1464 57.0819 28.4001 57.0819 28.7263C57.0819 29.0526 56.8106 29.3063 56.5033 29.3063Z" fill="#FF725E"/>
<path d="M66.7005 29.2881H59.1606C58.8352 29.2881 58.582 29.0344 58.582 28.7081C58.582 28.3819 58.8352 28.1282 59.1606 28.1282H66.7005C67.0259 28.1282 67.2791 28.3819 67.2791 28.7081C67.2791 29.0344 67.0259 29.2881 66.7005 29.2881Z" fill="#263238"/>
<path d="M76.971 29.2881H69.4311C69.1057 29.2881 68.8525 29.0344 68.8525 28.7081C68.8525 28.3819 69.1057 28.1282 69.4311 28.1282H76.971C77.2965 28.1282 77.5496 28.3819 77.5496 28.7081C77.5496 29.0344 77.2965 29.2881 76.971 29.2881Z" fill="#E0E0E0"/>
<path d="M19.6535 26.189H16.4712C16.1457 26.189 15.8926 25.9352 15.8926 25.609C15.8926 25.2828 16.1457 25.0291 16.4712 25.0291H19.6535C19.9789 25.0291 20.2321 25.2828 20.2321 25.609C20.214 25.9352 19.9608 26.189 19.6535 26.189Z" fill="#263238"/>
<path d="M18.6952 35.5409H16.4712C16.1457 35.5409 15.8926 35.2872 15.8926 34.9609C15.8926 34.6347 16.1457 34.381 16.4712 34.381H18.6952C19.0206 34.381 19.2738 34.6347 19.2738 34.9609C19.2738 35.2872 19.0206 35.5409 18.6952 35.5409Z" fill="#263238"/>
<path d="M22.6549 29.3063H16.4712C16.1457 29.3063 15.8926 29.0526 15.8926 28.7263C15.8926 28.4001 16.1457 28.1464 16.4712 28.1464H22.6549C22.9804 28.1464 23.2335 28.4001 23.2335 28.7263C23.2335 29.0526 22.9804 29.3063 22.6549 29.3063Z" fill="#263238"/>
<path d="M21.5701 32.4236H16.4712C16.1457 32.4236 15.8926 32.1699 15.8926 31.8436C15.8926 31.5174 16.1457 31.2637 16.4712 31.2637H21.5701C21.8955 31.2637 22.1487 31.5174 22.1487 31.8436C22.1487 32.1699 21.8775 32.4236 21.5701 32.4236Z" fill="#263238"/>
<path d="M29.2368 16.5289C29.2368 16.8552 28.9656 17.1089 28.6582 17.1089C28.3327 17.1089 28.0796 16.837 28.0796 16.5289C28.0796 16.2208 28.3508 15.949 28.6582 15.949C28.9656 15.949 29.2368 16.2027 29.2368 16.5289Z" fill="#455A64"/>
<path d="M29.2368 19.5375C29.2368 19.8637 28.9656 20.1174 28.6582 20.1174C28.3327 20.1174 28.0796 19.8456 28.0796 19.5375C28.0796 19.2113 28.3508 18.9575 28.6582 18.9575C28.9656 18.9575 29.2368 19.2294 29.2368 19.5375Z" fill="#455A64"/>
<path d="M29.2368 22.6911C29.2368 23.0173 28.9656 23.271 28.6582 23.271C28.3327 23.271 28.0796 22.9992 28.0796 22.6911C28.0796 22.3648 28.3508 22.1111 28.6582 22.1111C28.9656 22.093 29.2368 22.3648 29.2368 22.6911Z" fill="#455A64"/>
<path d="M29.2368 25.8265C29.2368 26.1528 28.9656 26.4065 28.6582 26.4065C28.3327 26.4065 28.0796 26.1347 28.0796 25.8265C28.0796 25.5003 28.3508 25.2466 28.6582 25.2466C28.9656 25.2285 29.2368 25.5003 29.2368 25.8265Z" fill="#455A64"/>
<path d="M29.2368 28.9619C29.2368 29.2882 28.9656 29.5419 28.6582 29.5419C28.3327 29.5419 28.0796 29.27 28.0796 28.9619C28.0796 28.6357 28.3508 28.382 28.6582 28.382C28.9656 28.3638 29.2368 28.6357 29.2368 28.9619Z" fill="#455A64"/>
<path d="M29.2368 32.0974C29.2368 32.4237 28.9656 32.6774 28.6582 32.6774C28.3327 32.6774 28.0796 32.4055 28.0796 32.0974C28.0796 31.7893 28.3508 31.5175 28.6582 31.5175C28.9656 31.4993 29.2368 31.7712 29.2368 32.0974Z" fill="#455A64"/>
<path d="M29.2368 35.2329C29.2368 35.5592 28.9656 35.8129 28.6582 35.8129C28.3327 35.8129 28.0796 35.541 28.0796 35.2329C28.0796 34.9248 28.3508 34.653 28.6582 34.653C28.9656 34.6348 29.2368 34.9067 29.2368 35.2329Z" fill="#455A64"/>
<path d="M29.2368 38.3683C29.2368 38.6945 28.9656 38.9483 28.6582 38.9483C28.3327 38.9483 28.0796 38.6764 28.0796 38.3683C28.0796 38.0421 28.3508 37.7883 28.6582 37.7883C28.9656 37.7702 29.2368 38.0421 29.2368 38.3683Z" fill="#455A64"/>
<path d="M29.2368 41.5037C29.2368 41.8299 28.9656 42.0836 28.6582 42.0836C28.3327 42.0836 28.0796 41.8118 28.0796 41.5037C28.0796 41.1956 28.3508 40.9237 28.6582 40.9237C28.9656 40.9056 29.2368 41.1774 29.2368 41.5037Z" fill="#455A64"/>
<path d="M29.2368 44.6392C29.2368 44.9654 28.9656 45.2191 28.6582 45.2191C28.3327 45.2191 28.0796 44.9473 28.0796 44.6392C28.0796 44.3129 28.3508 44.0592 28.6582 44.0592C28.9656 44.0411 29.2368 44.3129 29.2368 44.6392Z" fill="#455A64"/>
<path d="M29.2368 47.7745C29.2368 48.1008 28.9656 48.3545 28.6582 48.3545C28.3327 48.3545 28.0796 48.0827 28.0796 47.7745C28.0796 47.4483 28.3508 47.1946 28.6582 47.1946C28.9656 47.1946 29.2368 47.4483 29.2368 47.7745Z" fill="#455A64"/>
<path d="M29.2368 50.9099C29.2368 51.2361 28.9656 51.4899 28.6582 51.4899C28.3327 51.4899 28.0796 51.218 28.0796 50.9099C28.0796 50.5837 28.3508 50.33 28.6582 50.33C28.9656 50.33 29.2368 50.5837 29.2368 50.9099Z" fill="#455A64"/>
<path d="M102.845 79.8537L82.1785 79.8356C79.7014 79.8356 77.6763 77.8239 77.6763 75.359L77.6944 23.8509C77.6944 21.386 79.7194 19.3743 82.1966 19.3743L102.863 19.3924C105.34 19.3924 107.366 21.4041 107.366 23.869L107.348 75.3771C107.348 77.8601 105.34 79.8537 102.845 79.8537Z" fill="#FF725E"/>
<path d="M102.809 21.2411H98.7955C98.253 21.2411 97.8191 21.6942 97.8191 22.256V22.981C97.8191 23.5428 97.3851 23.9959 96.8427 23.9959H89.0316C88.4892 23.9959 88.0552 23.5428 88.0552 22.981V22.256C88.0552 21.6942 87.6213 21.2411 87.0789 21.2411H85.6685H82.1608C80.425 21.2411 79.0146 22.6366 79.0146 24.3765V74.6341C79.0146 76.3559 80.425 77.7696 82.1608 77.7696L102.791 77.7877C104.527 77.7877 105.938 76.3921 105.938 74.6522L105.956 24.3765C105.956 22.6366 104.545 21.2411 102.809 21.2411Z" fill="white"/>
<path d="M86.3922 77.8057H82.3059C80.4978 77.8057 79.0332 76.3377 79.0332 74.5253V28.8168H86.3922V77.8057Z" fill="#EBEBEB"/>
<path d="M94.1311 32.2422H90.6234C90.4064 32.2422 90.2437 32.0609 90.2437 31.8434C90.2437 31.6259 90.4064 31.4447 90.6234 31.4447H94.1311C94.3481 31.4447 94.5108 31.6259 94.5108 31.8434C94.5108 32.0609 94.3481 32.2422 94.1311 32.2422Z" fill="#263238"/>
<path d="M94.239 34.3447H90.7313C90.5143 34.3447 90.3516 34.1635 90.3516 33.946C90.3516 33.7285 90.5143 33.5472 90.7313 33.5472H94.239C94.456 33.5472 94.6187 33.7285 94.6187 33.946C94.6187 34.1635 94.456 34.3447 94.239 34.3447Z" fill="#E0E0E0"/>
<path d="M94.2752 36.7369H90.7674C90.5504 36.7369 90.3877 36.5557 90.3877 36.3382C90.3877 36.1207 90.5504 35.9395 90.7674 35.9395H94.2752C94.4921 35.9395 94.6549 36.1207 94.6549 36.3382C94.6549 36.5557 94.4921 36.7369 94.2752 36.7369Z" fill="#FF725E"/>
<path d="M99.7542 38.5493H96.2464C96.0294 38.5493 95.8667 38.368 95.8667 38.1506C95.8667 37.9331 96.0294 37.7518 96.2464 37.7518H99.7542C99.9711 37.7518 100.134 37.9331 100.134 38.1506C100.134 38.368 99.9711 38.5493 99.7542 38.5493Z" fill="#E0E0E0"/>
<path d="M93.3892 40.9235H91.3821C91.1652 40.9235 91.0024 40.7423 91.0024 40.5248C91.0024 40.3073 91.1652 40.1261 91.3821 40.1261H93.3892C93.6061 40.1261 93.7689 40.3073 93.7689 40.5248C93.7689 40.7423 93.5881 40.9235 93.3892 40.9235Z" fill="#263238"/>
<path d="M93.3892 43.0985H91.3821C91.1652 43.0985 91.0024 42.9172 91.0024 42.6998C91.0024 42.4823 91.1652 42.301 91.3821 42.301H93.3892C93.6061 42.301 93.7689 42.4823 93.7689 42.6998C93.7689 42.9172 93.5881 43.0985 93.3892 43.0985Z" fill="#263238"/>
<path d="M99.3564 43.0985H95.6678C95.4508 43.0985 95.2881 42.9172 95.2881 42.6998C95.2881 42.4823 95.4508 42.301 95.6678 42.301H99.3564C99.5733 42.301 99.7361 42.4823 99.7361 42.6998C99.7361 42.9172 99.5552 43.0985 99.3564 43.0985Z" fill="#E0E0E0"/>
<path d="M95.0526 45.654H91.3641C91.1471 45.654 90.9844 45.4728 90.9844 45.2553C90.9844 45.0378 91.1471 44.8566 91.3641 44.8566H95.0526C95.2696 44.8566 95.4323 45.0378 95.4323 45.2553C95.4323 45.4728 95.2696 45.654 95.0526 45.654Z" fill="#FF725E"/>
<path d="M95.3059 47.4663H93.0277C92.8107 47.4663 92.6299 47.2851 92.6299 47.0676V47.0495C92.6299 46.832 92.8107 46.6508 93.0277 46.6508H95.3059C95.5229 46.6508 95.7037 46.832 95.7037 47.0495V47.0676C95.6856 47.2851 95.5229 47.4663 95.3059 47.4663Z" fill="#FF725E"/>
<path d="M93.9499 50.9642H91.6536C91.4367 50.9642 91.2739 50.783 91.2739 50.5655C91.2739 50.348 91.4367 50.1667 91.6536 50.1667H93.9499C94.1669 50.1667 94.3297 50.348 94.3297 50.5655C94.3297 50.8011 94.1488 50.9642 93.9499 50.9642Z" fill="#FF725E"/>
<path d="M93.9499 55.5315H91.6536C91.4367 55.5315 91.2739 55.3502 91.2739 55.1327C91.2739 54.9153 91.4367 54.734 91.6536 54.734H93.9499C94.1669 54.734 94.3297 54.9153 94.3297 55.1327C94.3297 55.3502 94.1488 55.5315 93.9499 55.5315Z" fill="#FF725E"/>
<path d="M99.5734 55.5315H95.5594C95.3424 55.5315 95.1797 55.3502 95.1797 55.1327C95.1797 54.9153 95.3424 54.734 95.5594 54.734H99.5734C99.7904 54.734 99.9531 54.9153 99.9531 55.1327C99.9531 55.3502 99.7904 55.5315 99.5734 55.5315Z" fill="#455A64"/>
<path d="M104.653 51.0548H100.639C100.422 51.0548 100.26 50.8735 100.26 50.656C100.26 50.4386 100.422 50.2573 100.639 50.2573H104.653C104.87 50.2573 105.033 50.4386 105.033 50.656C105.033 50.8735 104.87 51.0548 104.653 51.0548Z" fill="#455A64"/>
<path d="M99.8444 52.7585H95.8304C95.6134 52.7585 95.4507 52.5773 95.4507 52.3598C95.4507 52.1423 95.6134 51.9611 95.8304 51.9611H99.8444C100.061 51.9611 100.224 52.1423 100.224 52.3598C100.224 52.5773 100.043 52.7585 99.8444 52.7585Z" fill="#455A64"/>
<path d="M102.375 55.5315H101.797C101.58 55.5315 101.417 55.3502 101.417 55.1327C101.417 54.9153 101.58 54.734 101.797 54.734H102.375C102.592 54.734 102.755 54.9153 102.755 55.1327C102.755 55.3502 102.592 55.5315 102.375 55.5315Z" fill="#E0E0E0"/>
<path d="M99.3385 50.9642H95.9393C95.7223 50.9642 95.5596 50.783 95.5596 50.5655C95.5596 50.348 95.7223 50.1667 95.9393 50.1667H99.3385C99.5555 50.1667 99.7182 50.348 99.7182 50.5655C99.7182 50.8011 99.5374 50.9642 99.3385 50.9642Z" fill="#E0E0E0"/>
<path d="M99.9162 47.4663H97.0775C96.8605 47.4663 96.6797 47.2851 96.6797 47.0676V47.0495C96.6797 46.832 96.8605 46.6508 97.0775 46.6508H99.9162C100.133 46.6508 100.314 46.832 100.314 47.0495V47.0676C100.314 47.2851 100.133 47.4663 99.9162 47.4663Z" fill="#455A64"/>
<path d="M102.394 47.4663H101.707C101.49 47.4663 101.309 47.2851 101.309 47.0676V47.0495C101.309 46.832 101.49 46.6508 101.707 46.6508H102.394C102.611 46.6508 102.792 46.832 102.792 47.0495V47.0676C102.792 47.2851 102.611 47.4663 102.394 47.4663Z" fill="#E0E0E0"/>
<path d="M97.5483 45.654H96.7347C96.5177 45.654 96.355 45.4728 96.355 45.2553C96.355 45.0378 96.5177 44.8566 96.7347 44.8566H97.5483C97.7653 44.8566 97.928 45.0378 97.928 45.2553C97.928 45.4728 97.7653 45.654 97.5483 45.654Z" fill="#263238"/>
<path d="M104.509 45.654H99.284C99.067 45.654 98.9043 45.4728 98.9043 45.2553C98.9043 45.0378 99.067 44.8566 99.284 44.8566H104.509C104.726 44.8566 104.889 45.0378 104.889 45.2553C104.889 45.4728 104.708 45.654 104.509 45.654Z" fill="#E0E0E0"/>
<path d="M99.4104 32.2422H95.9027C95.6857 32.2422 95.5229 32.0609 95.5229 31.8434C95.5229 31.6259 95.6857 31.4447 95.9027 31.4447H99.4104C99.6274 31.4447 99.7901 31.6259 99.7901 31.8434C99.7901 32.0609 99.6093 32.2422 99.4104 32.2422Z" fill="#455A64"/>
<path d="M103.786 34.3447H95.7757C95.5587 34.3447 95.396 34.1635 95.396 33.946C95.396 33.7285 95.5587 33.5472 95.7757 33.5472H103.786C104.003 33.5472 104.165 33.7285 104.165 33.946C104.165 34.1635 104.003 34.3447 103.786 34.3447Z" fill="#263238"/>
<path d="M103.949 36.7188H96.1019C95.8849 36.7188 95.7222 36.5376 95.7222 36.3201C95.7222 36.1026 95.8849 35.9214 96.1019 35.9214H103.949C104.166 35.9214 104.329 36.1026 104.329 36.3201C104.329 36.5376 104.148 36.7188 103.949 36.7188Z" fill="#E0E0E0"/>
<path d="M103.225 40.9235H95.3782C95.1613 40.9235 94.9985 40.7423 94.9985 40.5248C94.9985 40.3073 95.1613 40.1261 95.3782 40.1261H103.225C103.442 40.1261 103.605 40.3073 103.605 40.5248C103.605 40.7423 103.442 40.9235 103.225 40.9235Z" fill="#455A64"/>
<path d="M93.3892 71.3899H91.3821C91.1652 71.3899 91.0024 71.2086 91.0024 70.9911C91.0024 70.7736 91.1652 70.5924 91.3821 70.5924H93.3892C93.6061 70.5924 93.7689 70.7736 93.7689 70.9911C93.7689 71.2086 93.5881 71.3899 93.3892 71.3899Z" fill="#263238"/>
<path d="M93.3892 73.5648H91.3821C91.1652 73.5648 91.0024 73.3835 91.0024 73.1661C91.0024 72.9486 91.1652 72.7673 91.3821 72.7673H93.3892C93.6061 72.7673 93.7689 72.9486 93.7689 73.1661C93.7689 73.3835 93.5881 73.5648 93.3892 73.5648Z" fill="#263238"/>
<path d="M103.225 71.3899H95.3782C95.1613 71.3899 94.9985 71.2086 94.9985 70.9911C94.9985 70.7736 95.1613 70.5924 95.3782 70.5924H103.225C103.442 70.5924 103.605 70.7736 103.605 70.9911C103.605 71.2086 103.442 71.3899 103.225 71.3899Z" fill="#455A64"/>
<path d="M83.3365 39.3106H81.2391C81.0221 39.3106 80.8594 39.1294 80.8594 38.9119C80.8594 38.6944 81.0221 38.5132 81.2391 38.5132H83.3365C83.5535 38.5132 83.7162 38.6944 83.7162 38.9119C83.7162 39.1294 83.5535 39.3106 83.3365 39.3106Z" fill="#455A64"/>
<path d="M83.3365 41.5398H81.2391C81.0221 41.5398 80.8594 41.3585 80.8594 41.141C80.8594 40.9235 81.0221 40.7423 81.2391 40.7423H83.3365C83.5535 40.7423 83.7162 40.9235 83.7162 41.141C83.7162 41.3585 83.5535 41.5398 83.3365 41.5398Z" fill="#455A64"/>
<path d="M83.3365 43.7689H81.2391C81.0221 43.7689 80.8594 43.5876 80.8594 43.3702C80.8594 43.1527 81.0221 42.9714 81.2391 42.9714H83.3365C83.5535 42.9714 83.7162 43.1527 83.7162 43.3702C83.7162 43.5876 83.5535 43.7689 83.3365 43.7689Z" fill="#455A64"/>
<path d="M83.3365 37.0632H81.2391C81.0221 37.0632 80.8594 36.882 80.8594 36.6645C80.8594 36.447 81.0221 36.2657 81.2391 36.2657H83.3365C83.5535 36.2657 83.7162 36.447 83.7162 36.6645C83.7162 36.9001 83.5535 37.0632 83.3365 37.0632Z" fill="#455A64"/>
<path d="M83.3365 34.834H81.2391C81.0221 34.834 80.8594 34.6527 80.8594 34.4352C80.8594 34.2177 81.0221 34.0365 81.2391 34.0365H83.3365C83.5535 34.0365 83.7162 34.2177 83.7162 34.4352C83.7162 34.6527 83.5535 34.834 83.3365 34.834Z" fill="#455A64"/>
<path d="M83.3365 32.6048H81.2391C81.0221 32.6048 80.8594 32.4236 80.8594 32.2061C80.8594 31.9886 81.0221 31.8074 81.2391 31.8074H83.3365C83.5535 31.8074 83.7162 31.9886 83.7162 32.2061C83.7162 32.4236 83.5535 32.6048 83.3365 32.6048Z" fill="#455A64"/>
<path d="M82.7037 45.9983H81.2391C81.0221 45.9983 80.8594 45.817 80.8594 45.5995C80.8594 45.382 81.0221 45.2008 81.2391 45.2008H82.7037C82.9206 45.2008 83.0834 45.382 83.0834 45.5995C83.0834 45.817 82.9206 45.9983 82.7037 45.9983Z" fill="#455A64"/>
<path d="M88.5256 31.8434C88.5256 32.0609 88.3447 32.2422 88.1278 32.2422C87.9108 32.2422 87.73 32.0609 87.73 31.8434C87.73 31.6259 87.9108 31.4447 88.1278 31.4447C88.3628 31.4447 88.5256 31.6259 88.5256 31.8434Z" fill="#455A64"/>
<path d="M88.5256 33.9278C88.5256 34.1453 88.3447 34.3265 88.1278 34.3265C87.9108 34.3265 87.73 34.1453 87.73 33.9278C87.73 33.7103 87.9108 33.5291 88.1278 33.5291C88.3628 33.5291 88.5256 33.7103 88.5256 33.9278Z" fill="#455A64"/>
<path d="M88.5256 36.1027C88.5256 36.3202 88.3447 36.5014 88.1278 36.5014C87.9108 36.5014 87.73 36.3202 87.73 36.1027C87.73 35.8852 87.9108 35.704 88.1278 35.704C88.3628 35.704 88.5256 35.8852 88.5256 36.1027Z" fill="#455A64"/>
<path d="M88.5256 38.2775C88.5256 38.495 88.3447 38.6762 88.1278 38.6762C87.9108 38.6762 87.73 38.495 87.73 38.2775C87.73 38.06 87.9108 37.8788 88.1278 37.8788C88.3628 37.8788 88.5256 38.06 88.5256 38.2775Z" fill="#455A64"/>
<path d="M88.5256 40.4522C88.5256 40.6697 88.3447 40.8509 88.1278 40.8509C87.9108 40.8509 87.73 40.6697 87.73 40.4522C87.73 40.2347 87.9108 40.0535 88.1278 40.0535C88.3628 40.0535 88.5256 40.2347 88.5256 40.4522Z" fill="#455A64"/>
<path d="M88.5256 42.6272C88.5256 42.8447 88.3447 43.026 88.1278 43.026C87.9108 43.026 87.73 42.8447 87.73 42.6272C87.73 42.4098 87.9108 42.2285 88.1278 42.2285C88.3628 42.2285 88.5256 42.4098 88.5256 42.6272Z" fill="#455A64"/>
<path d="M88.5256 44.802C88.5256 45.0195 88.3447 45.2008 88.1278 45.2008C87.9108 45.2008 87.73 45.0195 87.73 44.802C87.73 44.5846 87.9108 44.4033 88.1278 44.4033C88.3628 44.4033 88.5256 44.5846 88.5256 44.802Z" fill="#455A64"/>
<path d="M88.5256 46.977C88.5256 47.1945 88.3447 47.3757 88.1278 47.3757C87.9108 47.3757 87.73 47.1945 87.73 46.977C87.73 46.7595 87.9108 46.5782 88.1278 46.5782C88.3628 46.5782 88.5256 46.7595 88.5256 46.977Z" fill="#455A64"/>
<path d="M88.5256 49.1519C88.5256 49.3694 88.3447 49.5506 88.1278 49.5506C87.9108 49.5506 87.73 49.3694 87.73 49.1519C87.73 48.9344 87.9108 48.7532 88.1278 48.7532C88.3628 48.7532 88.5256 48.9344 88.5256 49.1519Z" fill="#455A64"/>
<path d="M88.5256 51.3267C88.5256 51.5442 88.3447 51.7254 88.1278 51.7254C87.9108 51.7254 87.73 51.5442 87.73 51.3267C87.73 51.1092 87.9108 50.928 88.1278 50.928C88.3628 50.928 88.5256 51.1092 88.5256 51.3267Z" fill="#455A64"/>
<path d="M88.5256 53.5016C88.5256 53.7191 88.3447 53.9004 88.1278 53.9004C87.9108 53.9004 87.73 53.7191 87.73 53.5016C87.73 53.2841 87.9108 53.1029 88.1278 53.1029C88.3628 53.1029 88.5256 53.2841 88.5256 53.5016Z" fill="#455A64"/>
<path d="M88.5256 55.6764C88.5256 55.8939 88.3447 56.0752 88.1278 56.0752C87.9108 56.0752 87.73 55.8939 87.73 55.6764C87.73 55.459 87.9108 55.2777 88.1278 55.2777C88.3628 55.2777 88.5256 55.459 88.5256 55.6764Z" fill="#455A64"/>
<path d="M95.0526 58.6306H91.3641C91.1471 58.6306 90.9844 58.4493 90.9844 58.2319C90.9844 58.0144 91.1471 57.8331 91.3641 57.8331H95.0526C95.2696 57.8331 95.4323 58.0144 95.4323 58.2319C95.4323 58.4493 95.2696 58.6306 95.0526 58.6306Z" fill="#FF725E"/>
<path d="M95.3059 60.4431H93.0277C92.8107 60.4431 92.6299 60.2619 92.6299 60.0444V60.0263C92.6299 59.8088 92.8107 59.6276 93.0277 59.6276H95.3059C95.5229 59.6276 95.7037 59.8088 95.7037 60.0263V60.0444C95.6856 60.2619 95.5229 60.4431 95.3059 60.4431Z" fill="#FF725E"/>
<path d="M93.9499 63.9591H91.6536C91.4367 63.9591 91.2739 63.7778 91.2739 63.5603C91.2739 63.3429 91.4367 63.1616 91.6536 63.1616H93.9499C94.1669 63.1616 94.3297 63.3429 94.3297 63.5603C94.3297 63.7778 94.1488 63.9591 93.9499 63.9591Z" fill="#FF725E"/>
<path d="M93.9499 68.5083H91.6536C91.4367 68.5083 91.2739 68.327 91.2739 68.1095C91.2739 67.8921 91.4367 67.7108 91.6536 67.7108H93.9499C94.1669 67.7108 94.3297 67.8921 94.3297 68.1095C94.3297 68.3452 94.1488 68.5083 93.9499 68.5083Z" fill="#FF725E"/>
<path d="M99.5734 68.5083H95.5594C95.3424 68.5083 95.1797 68.327 95.1797 68.1095C95.1797 67.8921 95.3424 67.7108 95.5594 67.7108H99.5734C99.7904 67.7108 99.9531 67.8921 99.9531 68.1095C99.9531 68.3452 99.7904 68.5083 99.5734 68.5083Z" fill="#455A64"/>
<path d="M104.653 64.0496H100.639C100.422 64.0496 100.26 63.8684 100.26 63.6509C100.26 63.4334 100.422 63.2522 100.639 63.2522H104.653C104.87 63.2522 105.033 63.4334 105.033 63.6509C105.033 63.8684 104.87 64.0496 104.653 64.0496Z" fill="#455A64"/>
<path d="M99.8444 65.7533H95.8304C95.6134 65.7533 95.4507 65.572 95.4507 65.3545C95.4507 65.1371 95.6134 64.9558 95.8304 64.9558H99.8444C100.061 64.9558 100.224 65.1371 100.224 65.3545C100.224 65.572 100.043 65.7533 99.8444 65.7533Z" fill="#455A64"/>
<path d="M102.375 68.5083H101.797C101.58 68.5083 101.417 68.327 101.417 68.1095C101.417 67.8921 101.58 67.7108 101.797 67.7108H102.375C102.592 67.7108 102.755 67.8921 102.755 68.1095C102.755 68.3452 102.592 68.5083 102.375 68.5083Z" fill="#E0E0E0"/>
<path d="M99.3385 63.9591H95.9393C95.7223 63.9591 95.5596 63.7778 95.5596 63.5603C95.5596 63.3429 95.7223 63.1616 95.9393 63.1616H99.3385C99.5555 63.1616 99.7182 63.3429 99.7182 63.5603C99.7182 63.7778 99.5374 63.9591 99.3385 63.9591Z" fill="#E0E0E0"/>
<path d="M99.9162 60.4431H97.0775C96.8605 60.4431 96.6797 60.2619 96.6797 60.0444V60.0263C96.6797 59.8088 96.8605 59.6276 97.0775 59.6276H99.9162C100.133 59.6276 100.314 59.8088 100.314 60.0263V60.0444C100.314 60.2619 100.133 60.4431 99.9162 60.4431Z" fill="#455A64"/>
<path d="M102.394 60.4431H101.707C101.49 60.4431 101.309 60.2619 101.309 60.0444V60.0263C101.309 59.8088 101.49 59.6276 101.707 59.6276H102.394C102.611 59.6276 102.792 59.8088 102.792 60.0263V60.0444C102.792 60.2619 102.611 60.4431 102.394 60.4431Z" fill="#E0E0E0"/>
<path d="M97.5483 58.6306H96.7347C96.5177 58.6306 96.355 58.4493 96.355 58.2319C96.355 58.0144 96.5177 57.8331 96.7347 57.8331H97.5483C97.7653 57.8331 97.928 58.0144 97.928 58.2319C97.928 58.4493 97.7653 58.6306 97.5483 58.6306Z" fill="#263238"/>
<path d="M104.509 58.6306H99.284C99.067 58.6306 98.9043 58.4493 98.9043 58.2319C98.9043 58.0144 99.067 57.8331 99.284 57.8331H104.509C104.726 57.8331 104.889 58.0144 104.889 58.2319C104.889 58.4493 104.708 58.6306 104.509 58.6306Z" fill="#E0E0E0"/>
<path d="M88.5256 57.7969C88.5256 58.0144 88.3447 58.1957 88.1278 58.1957C87.9108 58.1957 87.73 58.0144 87.73 57.7969C87.73 57.5795 87.9108 57.3982 88.1278 57.3982C88.3628 57.3801 88.5256 57.5613 88.5256 57.7969Z" fill="#455A64"/>
<path d="M88.5256 59.9717C88.5256 60.1892 88.3447 60.3705 88.1278 60.3705C87.9108 60.3705 87.73 60.1892 87.73 59.9717C87.73 59.7543 87.9108 59.573 88.1278 59.573C88.3628 59.5549 88.5256 59.7361 88.5256 59.9717Z" fill="#455A64"/>
<path d="M88.5256 62.1468C88.5256 62.3643 88.3447 62.5455 88.1278 62.5455C87.9108 62.5455 87.73 62.3643 87.73 62.1468C87.73 61.9293 87.9108 61.7481 88.1278 61.7481C88.3628 61.73 88.5256 61.9112 88.5256 62.1468Z" fill="#455A64"/>
<path d="M88.5256 64.3216C88.5256 64.5391 88.3447 64.7203 88.1278 64.7203C87.9108 64.7203 87.73 64.5391 87.73 64.3216C87.73 64.1041 87.9108 63.9229 88.1278 63.9229C88.3628 63.9048 88.5256 64.086 88.5256 64.3216Z" fill="#455A64"/>
<path d="M88.5256 66.4963C88.5256 66.7138 88.3447 66.895 88.1278 66.895C87.9108 66.895 87.73 66.7138 87.73 66.4963C87.73 66.2788 87.9108 66.0976 88.1278 66.0976C88.3628 66.0794 88.5256 66.2607 88.5256 66.4963Z" fill="#455A64"/>
<path d="M88.5256 68.6712C88.5256 68.8887 88.3447 69.0699 88.1278 69.0699C87.9108 69.0699 87.73 68.8887 87.73 68.6712C87.73 68.4537 87.9108 68.2725 88.1278 68.2725C88.3628 68.2544 88.5256 68.4356 88.5256 68.6712Z" fill="#455A64"/>
<path d="M88.5256 70.9912C88.5256 71.2087 88.3447 71.3899 88.1278 71.3899C87.9108 71.3899 87.73 71.2087 87.73 70.9912C87.73 70.7737 87.9108 70.5924 88.1278 70.5924C88.3628 70.5743 88.5256 70.7556 88.5256 70.9912Z" fill="#455A64"/>
<path d="M88.5256 73.3109C88.5256 73.5283 88.3447 73.7096 88.1278 73.7096C87.9108 73.7096 87.73 73.5283 87.73 73.3109C87.73 73.0934 87.9108 72.9121 88.1278 72.9121C88.3628 72.894 88.5256 73.0753 88.5256 73.3109Z" fill="#455A64"/>
<path d="M102.809 21.2411H98.7955C98.253 21.2411 97.8191 21.6942 97.8191 22.256V22.981C97.8191 23.5428 97.3851 23.9959 96.8427 23.9959H89.0316C88.4892 23.9959 88.0552 23.5428 88.0552 22.981V22.256C88.0552 21.6942 87.6213 21.2411 87.0789 21.2411H85.6685H82.1608C80.425 21.2411 79.0146 22.6366 79.0146 24.3765V28.8531H105.956V24.3946C105.956 22.6366 104.545 21.2411 102.809 21.2411Z" fill="#F5F5F5"/>
<path d="M80.8227 27.5481C81.0923 27.5481 81.3109 27.3291 81.3109 27.0588C81.3109 26.7885 81.0923 26.5695 80.8227 26.5695C80.553 26.5695 80.3345 26.7885 80.3345 27.0588C80.3345 27.3291 80.553 27.5481 80.8227 27.5481Z" fill="#455A64"/>
<path d="M82.8485 27.0586C82.8485 27.3304 82.6315 27.5479 82.3603 27.5479C82.089 27.5479 81.8721 27.3304 81.8721 27.0586C81.8721 26.7867 82.089 26.5692 82.3603 26.5692C82.6315 26.5692 82.8485 26.7867 82.8485 27.0586Z" fill="#455A64"/>
<path d="M84.3851 27.0586C84.3851 27.3304 84.1681 27.5479 83.8969 27.5479C83.6257 27.5479 83.4087 27.3304 83.4087 27.0586C83.4087 26.7867 83.6257 26.5692 83.8969 26.5692C84.1681 26.5692 84.3851 26.7867 84.3851 27.0586Z" fill="#455A64"/>
<path d="M92.6663 25.3369C92.7747 25.2826 92.8651 25.2282 92.9917 25.192L93.064 24.8838L93.5884 24.8657L93.6607 25.1738C93.7692 25.2101 93.8777 25.2463 93.9862 25.3007L94.2574 25.1195L94.6371 25.4819L94.4744 25.7538C94.5286 25.8625 94.5829 25.9532 94.619 26.08L94.9264 26.1525L94.9445 26.6781L94.6371 26.7506C94.6009 26.8594 94.5648 26.9681 94.5105 27.0768L94.6913 27.3487L94.3297 27.7293L94.0585 27.5662C93.95 27.6206 93.8596 27.6749 93.733 27.7112L93.6607 28.0193L93.1364 28.0374L93.064 27.7293C92.9556 27.6931 92.8471 27.6568 92.7386 27.6024L92.4674 27.7837L92.0877 27.4212L92.2504 27.1493C92.1961 27.0406 92.1419 26.95 92.1057 26.8231L91.7984 26.7506L91.7803 26.225L92.0877 26.1525C92.1238 26.0438 92.16 25.935 92.2142 25.8263L92.0334 25.5544L92.395 25.1738L92.6663 25.3369ZM92.9375 26.0438C92.7205 26.2794 92.7205 26.6237 92.9555 26.8412C93.1906 27.0587 93.5341 27.0587 93.7511 26.8231C93.9681 26.5875 93.9681 26.2431 93.733 26.0257C93.5161 25.8082 93.1544 25.8082 92.9375 26.0438Z" fill="#455A64"/>
<path d="M15.152 35.4502H1.79004C0.795572 35.4502 0 34.6528 0 33.656V20.2624C0 19.2656 0.795572 18.4681 1.79004 18.4681H15.152C16.1465 18.4681 16.9421 19.2656 16.9421 20.2624V33.656C16.9421 34.6528 16.1284 35.4502 15.152 35.4502Z" fill="#FF725E"/>
<path d="M5.36989 24.8297C5.67727 24.6485 5.98465 24.5035 6.31012 24.4129L6.50901 23.4705L8.10015 23.4342L8.33521 24.3766C8.66067 24.4673 8.98613 24.5941 9.29351 24.7573L10.0891 24.2317L11.2282 25.3372L10.74 26.1528C10.9208 26.4609 11.0655 26.769 11.1559 27.0952L12.0961 27.2946L12.1323 28.8895L11.192 29.1251C11.1016 29.4513 10.9751 29.7776 10.8123 30.0857L11.3367 30.8831L10.2337 32.0249L9.42008 31.5356C9.1127 31.7168 8.80532 31.8618 8.47986 31.9524L8.28096 32.8949L6.68982 32.9311L6.45476 31.9887C6.1293 31.8981 5.80384 31.7712 5.49646 31.6081L4.70089 32.1337L3.56177 31.0281L4.04997 30.2125C3.86915 29.9044 3.72451 29.5963 3.6341 29.2701L2.69388 29.0707L2.65771 27.4758L3.59794 27.2402C3.68834 26.914 3.81491 26.5878 3.97764 26.2797L3.45329 25.4822L4.55624 24.3404L5.36989 24.8297ZM6.21971 26.9502C5.56879 27.6208 5.58687 28.7083 6.25587 29.3607C6.92488 30.0132 8.00975 29.9951 8.66067 29.3245C9.31159 28.6539 9.29351 27.5665 8.62451 26.914C7.9555 26.2615 6.87063 26.2797 6.21971 26.9502Z" fill="white"/>
<path d="M11.2828 21.8392C11.3732 21.7304 11.4817 21.658 11.5902 21.5855L11.5541 21.2049L12.1507 21.0055L12.3496 21.3317C12.4762 21.3317 12.6208 21.3317 12.7474 21.368L12.9825 21.078L13.543 21.368L13.4526 21.7304C13.5611 21.8211 13.6334 21.9298 13.7057 22.0386L14.0854 22.0023L14.2843 22.6004L13.9588 22.7998C13.9588 22.9266 13.9588 23.0716 13.9227 23.1985L14.212 23.4341L13.9227 23.9959L13.5611 23.9053C13.4707 24.0141 13.3622 24.0866 13.2537 24.1591L13.2898 24.5397L12.6932 24.739L12.4943 24.4128C12.3677 24.4128 12.2231 24.4128 12.0965 24.3765L11.8614 24.6665L11.3009 24.3765L11.3913 24.0141C11.2828 23.9234 11.2105 23.8147 11.1201 23.706L10.7404 23.7422L10.5415 23.1441L10.867 22.9448C10.867 22.8179 10.867 22.6729 10.9031 22.546L10.6138 22.3104L10.9031 21.7486L11.2828 21.8392ZM11.8433 22.5279C11.6806 22.8541 11.8072 23.2529 12.1326 23.416C12.4581 23.5791 12.8559 23.4522 13.0186 23.126C13.1814 22.7998 13.0548 22.401 12.7293 22.2379C12.4039 22.0748 12.0061 22.2017 11.8433 22.5279Z" fill="white"/>
<path d="M87.1333 13.049L91.6536 19.2111L96.5174 13.0309L87.1333 13.049Z" fill="#FF725E"/>
<path d="M94.1306 14.1002H89.5018V7.44872C89.5018 6.0713 89.0136 5.60008 88.8509 5.43697C88.1638 4.7845 86.8258 4.62139 85.8314 4.67576C85.7771 4.67576 85.7048 4.67576 85.5963 4.67576C85.5963 4.67576 85.5963 4.67576 85.5782 4.67576C83.9509 4.67576 82.8118 5.11074 82.2332 5.98068C81.7631 6.66939 81.745 7.44872 81.745 7.44872V7.41247L77.0981 7.44872C77.0981 7.14061 77.1343 4.45827 79.2317 2.33778C80.7505 0.797245 82.8841 0.0179168 85.5601 0.0179168C86.8077 -0.0545789 89.8635 -0.000207066 92.0151 2.02967C92.9734 2.93587 94.1306 4.62139 94.1306 7.41247V14.1002Z" fill="#FF725E"/>
</svg>
