<svg width="82" height="80" viewBox="0 0 82 80" fill="none" xmlns="http://www.w3.org/2000/svg">
<path d="M21.6896 37.3256C21.1092 37.3256 20.5933 37.2608 20.0774 37.1961C16.5953 36.6781 13.9514 33.894 13.371 30.3977C13.1131 28.9085 13.0486 27.4194 13.1131 25.9302C13.1131 25.6065 13.1776 25.3475 13.1776 25.0238C15.5635 28.0668 18.2719 29.4265 18.2719 29.4265C17.3046 28.6496 16.5308 27.7431 15.8859 26.8367C14.0159 24.1821 13.7579 20.621 15.0476 17.5779C17.0467 12.8514 20.9802 10.4558 20.9802 10.4558C15.6925 34.8652 34.1996 48.462 34.1996 48.462C27.8156 44.9009 21.8185 44.5124 18.6588 41.1456C17.627 40.0449 16.7887 38.8795 16.0149 37.6493C19.1747 38.2968 21.6896 37.3256 21.6896 37.3256Z" fill="#00FFFF"/>
<path d="M60.1218 37.3256C60.7022 37.3256 61.2181 37.2608 61.734 37.1961C65.2161 36.6781 67.86 33.894 68.4404 30.3977C68.6983 28.9085 68.7628 27.4194 68.6983 25.9302C68.6983 25.6065 68.6338 25.3475 68.6338 25.0238C66.2479 28.0668 63.5395 29.4265 63.5395 29.4265C64.5068 28.6496 65.2806 27.7431 65.9255 26.8367C67.86 24.1173 68.1179 20.621 66.8283 17.5779C64.7647 12.8514 60.8312 10.4558 60.8312 10.4558C66.1189 34.8652 47.6118 48.462 47.6118 48.462C53.9958 44.9009 59.9929 44.5124 63.1526 41.1456C64.1844 40.0449 65.0227 38.8795 65.7965 37.6493C62.5723 38.2968 60.1218 37.3256 60.1218 37.3256Z" fill="#00FFFF"/>
<path d="M26.5406 30.6977C26.1953 30.2335 25.8557 28.9172 25.9095 28.5379C26.2604 26.0101 26.6114 21.2375 28.6606 19.4853C29.0115 19.1852 30.7437 20.3685 31.2475 20.2835C32.5353 20.7704 32.9514 21.0195 34.4033 20.8808C38.6885 20.4704 39.0112 11.681 45.5436 15.2562C50.3269 17.8746 52.0846 22.2848 57.516 16.2781C62.9475 10.2713 77.9936 4.67213 79.8504 14.7268C80.9174 20.4958 72.5197 21.6819 70.6177 27.0121C68.8091 32.0763 64.5381 33.3558 58.9086 31.6772C53.279 29.9957 53.5733 33.5058 51.3091 37.7519C48.5891 42.8528 42.0227 37.4348 39.2036 34.6777C36.9309 32.4556 29.654 28.3284 26.5406 30.6977Z" fill="url(#paint0_linear_858_298)"/>
<mask id="mask0_858_298" style="mask-type:luminance" maskUnits="userSpaceOnUse" x="22" y="9" width="58" height="31">
<path d="M28.2587 18.0641C26.385 21.577 24.333 25.073 22.4253 28.6C23.8631 30.3579 25.5981 32.3904 27.9501 30.8221C31.2192 28.6397 36.9535 32.4441 39.2093 34.6776C42 37.4404 48.5919 42.8499 51.3062 37.7517C53.5677 33.5085 53.2762 29.9956 58.9057 31.677C64.5353 33.3585 68.8063 32.0761 70.6149 27.012C72.5197 21.6818 80.9117 20.4985 79.8475 14.7267C77.9937 4.66916 62.9362 10.274 57.516 16.2751C52.0959 22.2762 50.293 17.8886 45.5493 15.2504C39.0734 11.6497 38.547 20.5325 34.4685 20.8439C31.2702 21.0873 30.4777 19.6153 28.2587 18.0641Z" fill="white"/>
</mask>
<g mask="url(#mask0_858_298)">
<path d="M27.166 24.2239L27.2085 24.1079C45.0199 30.627 64.7673 25.8686 80.0342 11.3838L80.1191 11.4744C72.8847 18.3389 64.3088 23.1935 55.3224 25.5147C45.8775 27.9548 36.1411 27.5075 27.166 24.2239Z" fill="#FCFDFE"/>
<path d="M50.4203 39.9995C48.1674 35.326 42.4783 29.356 37.7432 26.6923L37.8026 26.5847C42.5576 29.2597 48.2664 35.2552 50.5307 39.9457L50.4203 39.9995Z" fill="#FCFDFE"/>
<path d="M30.6782 25.4638L30.6867 25.3421C33.5057 25.5402 36.3135 24.306 39.0363 21.6735C41.0317 19.7429 42.9365 17.1189 44.697 13.8777L44.8045 13.9371C43.0384 17.1925 41.1279 19.825 39.1212 21.7641C36.3729 24.4164 33.5312 25.6648 30.6782 25.4638Z" fill="#FCFDFE"/>
<path d="M56.5874 25.1355L56.5902 25.011C61.9198 25.1101 66.4738 28.3824 69.3523 31.1112L69.2674 31.2018C66.4031 28.4899 61.8773 25.2346 56.5874 25.1355Z" fill="#FCFDFE"/>
<path d="M67.8781 20.5016L67.7988 20.4082C72.4151 16.5641 73.8275 10.4214 74.2577 7.09814L74.3794 7.11513C73.9464 10.4554 72.5255 16.632 67.8781 20.5016Z" fill="#FCFDFE"/>
</g>
<mask id="mask1_858_298" style="mask-type:luminance" maskUnits="userSpaceOnUse" x="9" y="1" width="56" height="65">
<path d="M17.6503 65.0287C14.752 63.2001 11.8905 61.3007 9.0658 59.3305C8.99504 59.3531 10.965 52.166 15.7313 50.0514C25.0913 46.012 23.5516 37.9784 23.9506 33.8003C24.279 27.8048 28.0405 22.0075 33.1776 25.6818C38.2383 29.1296 44.0999 18.1606 47.0209 9.00604C48.0936 4.39481 54.3911 1.01493 58.9168 1.60938C63.5813 2.11325 66.4739 6.59427 63.969 15.6243C61.5123 26.2734 51.7306 29.0164 46.8992 32.7614C42.1498 36.4328 46.4859 43.0312 39.7072 45.1458C33.9135 47.1273 27.5254 47.5632 27.3018 53.1794C27.1489 58.7644 24.9724 62.4188 17.6503 65.0287Z" fill="white"/>
</mask>
<g mask="url(#mask1_858_298)">
<path d="M17.6503 65.0286C14.752 63.2 11.8905 61.3006 9.0658 59.3304C8.99504 59.353 10.965 52.1659 15.7313 50.0513C25.0913 46.0119 23.5516 37.9783 23.9506 33.8002C24.2988 27.816 27.7716 22.7123 33.0276 24.9429C38.9062 27.3037 44.2047 18.186 47.018 9.00311C48.0907 4.39188 54.3883 1.012 58.914 1.60645C63.5784 2.11032 66.4711 6.59134 63.9662 15.6213C61.5095 26.2705 51.7277 29.0134 46.8963 32.7585C42.147 36.4299 46.4831 43.0283 39.7044 45.1429C33.9107 47.1244 27.5225 47.5603 27.2989 53.1764C27.1489 58.7643 24.9724 62.4187 17.6503 65.0286Z" fill="url(#paint1_linear_858_298)"/>
</g>
<mask id="mask2_858_298" style="mask-type:luminance" maskUnits="userSpaceOnUse" x="9" y="1" width="56" height="65">
<path d="M17.6503 65.0287C14.752 63.2001 11.8905 61.3007 9.0658 59.3305C8.99504 59.3531 10.965 52.166 15.7313 50.0514C25.0913 46.012 23.5516 37.9784 23.9506 33.8003C24.279 27.8048 28.0405 22.0075 33.1776 25.6818C38.2383 29.1296 44.0999 18.1606 47.0209 9.00604C48.0936 4.39481 54.3911 1.01493 58.9168 1.60938C63.5813 2.11325 66.4739 6.59427 63.969 15.6243C61.5123 26.2734 51.7306 29.0164 46.8992 32.7614C42.1498 36.4328 46.4859 43.0312 39.7072 45.1458C33.9135 47.1273 27.5254 47.5632 27.3018 53.1794C27.1489 58.7644 24.9724 62.4188 17.6503 65.0287Z" fill="white"/>
</mask>
<g mask="url(#mask2_858_298)">
<path d="M13.1724 63.5197C13.1978 63.4603 22.4418 50.5947 33.667 39.0595C35.3623 37.1403 37.1257 35.2267 38.8324 33.3755C48.3367 23.0716 57.3146 13.3396 58.7609 -1.26685L58.9647 -1.24703C57.5099 13.4274 48.5122 23.1849 38.9852 33.5142C37.2785 35.3626 35.5152 37.2762 33.8198 39.1982C22.5323 50.7985 13.4073 63.5254 13.3592 63.6075L13.1724 63.5197Z" fill="#BEB8F2"/>
<path d="M47.5728 23.7963L47.4907 23.6095C52.6448 21.3025 59.231 17.6961 62.769 15.7571C65.6333 14.1889 65.639 14.1917 65.7295 14.2512L65.6758 14.3361L65.6842 14.4351C65.5512 14.4663 64.3681 15.1145 62.8709 15.9354C59.3244 17.8773 52.7354 21.4865 47.5728 23.7963Z" fill="#BEB8F2"/>
<path d="M50.9045 18.9558C52.1328 14.2624 51.612 10.5825 50.9582 8.32076C50.2478 5.85804 49.1921 4.40305 49.0308 4.29265L49.076 4.22754L49.0534 4.10016C49.1128 4.08884 49.161 4.12564 49.2261 4.19924C50.1714 5.22679 53.2621 10.7552 51.0998 19.0067L50.9045 18.9558Z" fill="#BEB8F2"/>
<path d="M26.8093 46.8298L26.6338 46.7251C31.5586 38.4283 29.2321 27.6234 28.0037 23.3604C27.9386 23.1311 27.9159 23.0575 27.9131 23.0207L28.1169 22.998C28.1197 23.0235 28.1565 23.1537 28.2018 23.3038C29.0877 26.3779 29.6255 29.4323 29.801 32.3875C30.1321 38.0659 29.1273 42.9235 26.8093 46.8298Z" fill="#BEB8F2"/>
<path d="M30.1038 43.15L29.9878 42.9801C36.3533 38.6293 44.3575 41.661 44.4792 41.7318L44.5103 41.8507L44.4056 41.9129L44.4141 41.811L44.366 41.8988C44.2981 41.8676 36.407 38.8444 30.1038 43.15Z" fill="#BEB8F2"/>
<path d="M14.7153 61.4334C15.5673 59.684 16.2749 56.3721 14.8002 50.521C14.7153 50.1898 14.7153 50.1898 14.7436 50.1445L14.9163 50.2521L14.8285 50.1983H14.9304C14.9333 50.221 14.9616 50.337 14.9955 50.4729C16.4871 56.3863 15.7654 59.7463 14.8965 61.524L14.7153 61.4334Z" fill="#BEB8F2"/>
<path d="M17.1693 58.5206L17.0137 58.3904C19.3374 55.6276 24.7887 55.2709 27.8313 55.3021C27.9275 55.3021 27.9898 55.3049 28.0124 55.3021L28.0238 55.5059C27.9983 55.5087 27.9332 55.5059 27.8285 55.5059C24.8226 55.4719 19.4393 55.8229 17.1693 58.5206Z" fill="#BEB8F2"/>
</g>
<path d="M5.28211 69.9202C3.71975 70.0107 2.44043 68.9181 2.44043 67.4829V15.7657C2.44043 14.3306 3.71692 13.2096 5.28211 13.2662L79.0638 15.9441C80.2582 15.9865 81.229 17.0367 81.229 18.2851V63.2227C81.229 64.4682 80.261 65.541 79.0638 65.609L5.28211 69.9202Z" fill="url(#paint2_linear_858_298)"/>
<path d="M53.3838 75.644C52.2035 75.2335 51.3233 74.1833 51.0742 72.8925L49.359 63.9814L34.6751 64.5278L32.8694 73.8153C32.6175 75.1146 33.6307 76.4196 34.7968 76.9008L40.9387 79.423C42.0822 79.8929 43.3105 80.0797 44.5304 79.9693L57.5133 78.8031C57.8925 78.7691 58.1982 78.4549 58.2407 78.0558C58.2859 77.6538 58.552 77.2037 58.1897 77.0763L53.3838 75.644Z" fill="url(#paint3_linear_858_298)"/>
<path d="M53.5307 75.1034C52.3533 74.6986 51.473 73.6597 51.2239 72.3859L49.5088 63.5852L35.1843 64.1259L33.3786 73.2946C33.1267 74.5797 33.7946 75.8677 34.9607 76.3404L41.0969 78.8314C42.2376 79.2957 43.4659 79.4797 44.6858 79.3721L57.6517 78.22C58.0309 78.186 58.3338 77.8775 58.3791 77.4812C58.4244 77.0849 58.1951 76.7112 57.8328 76.5867L53.5307 75.1034Z" fill="url(#paint4_linear_858_298)"/>
<path d="M5.86756 69.9202C4.3052 70.0107 3.02588 68.9181 3.02588 67.4829V15.7657C3.02588 14.3306 4.30237 13.2096 5.86756 13.2662L79.6464 15.9441C80.8408 15.9865 81.8117 17.0367 81.8117 18.2851V63.2227C81.8117 64.4682 80.8437 65.541 79.6464 65.609L5.86756 69.9202Z" fill="url(#paint5_linear_858_298)"/>
<path d="M79.6461 17.0028L5.86727 14.4722C5.03231 14.4439 4.35303 15.0411 4.35303 15.8083V56.0469V67.4122C4.35303 68.1793 5.03231 68.7624 5.86727 68.7143L79.649 64.5532C80.2886 64.5164 80.8066 63.9446 80.8066 63.2765V53.0067V18.2512C80.8066 17.5831 80.2858 17.0226 79.6461 17.0028Z" fill="url(#paint6_linear_858_298)"/>
<path d="M5.86742 64.3182C5.54193 64.3352 5.27588 64.1031 5.27588 63.8058V15.8394C5.27588 15.5421 5.54193 15.3072 5.86742 15.3185L79.6491 17.7444C79.8982 17.7529 80.102 17.9709 80.102 18.2313V60.2052C80.102 60.4656 79.8982 60.6892 79.6491 60.7005L5.86742 64.3182Z" fill="white"/>
<path d="M77.1334 58.1106L9.10303 61.0999V22.4861L77.1334 23.9128V58.1106Z" fill="url(#paint7_linear_858_298)"/>
<path d="M77.1334 22.7465L9.10303 21.1669V17.8691L77.1334 19.8252V22.7465Z" fill="url(#paint8_linear_858_298)"/>
<path d="M71.9678 21.1497C71.9678 21.3591 71.8037 21.5233 71.5999 21.5177C71.3961 21.512 71.2319 21.3393 71.2319 21.1299C71.2319 20.9204 71.3961 20.7562 71.5999 20.7619C71.8037 20.7675 71.9678 20.943 71.9678 21.1497Z" fill="white"/>
<path d="M73.4734 21.1893C73.4734 21.396 73.3092 21.563 73.1083 21.5573C72.9073 21.5516 72.7432 21.379 72.7432 21.1723C72.7432 20.9657 72.9073 20.7987 73.1083 20.8043C73.3092 20.81 73.4734 20.9827 73.4734 21.1893Z" fill="white"/>
<path d="M74.9707 21.2291C74.9707 21.4358 74.8093 21.5999 74.6084 21.5943C74.4074 21.5886 74.2461 21.4159 74.2461 21.2093C74.2461 21.0027 74.4074 20.8385 74.6084 20.8441C74.8065 20.8498 74.9707 21.0225 74.9707 21.2291Z" fill="white"/>
<g opacity="0.68">
<path d="M63.3664 51.9481L10.5859 53.6068V23.488L63.3664 24.5099V51.9481Z" fill="white"/>
</g>
<path opacity="0.68" d="M76.4086 32.4868L64.2891 32.4302V24.5269L76.4086 24.7618V32.4868Z" fill="white"/>
<path d="M76.4086 33.902L64.2891 33.8765V33.2849L76.4086 33.3245V33.902Z" fill="white"/>
<path d="M71.8971 34.9013L64.2891 34.8985V34.3069L71.8971 34.3182V34.9013Z" fill="white"/>
<path opacity="0.68" d="M76.4086 43.8183L64.2891 44.0221V36.1187L76.4086 36.0933V43.8183Z" fill="white"/>
<path d="M76.4086 45.2337L64.2891 45.4687V44.877L76.4086 44.6562V45.2337Z" fill="white"/>
<path d="M71.8971 46.3292L64.2891 46.4906V45.8989L71.8971 45.7461V46.3292Z" fill="white"/>
<path opacity="0.68" d="M76.4086 55.1496L64.2891 55.6138V47.7105L76.4086 47.4246V55.1496Z" fill="white"/>
<path d="M76.4086 56.5648L64.2891 57.0601V56.4685L76.4086 55.9873V56.5648Z" fill="white"/>
<path d="M71.8971 57.7567L64.2891 58.0822V57.4906L71.8971 57.1736V57.7567Z" fill="white"/>
<path d="M47.1117 55.6449L10.5859 57.0008V55.0193L47.1117 53.7852V55.6449Z" fill="white"/>
<path d="M63.3663 55.0392L58.1528 55.2346V53.4116L63.3663 53.2361V55.0392Z" fill="white"/>
<path d="M57.3491 55.2627L52.0195 55.4608V53.6209L57.3491 53.4397V55.2627Z" fill="white"/>
<path d="M27.2964 58.7051L10.5859 59.393V58.4022L27.2964 57.7427V58.7051Z" fill="white"/>
<path d="M7.64548 74.99L7.30018 74.6277C6.75109 74.0531 6.79354 73.1472 7.39924 72.6066L31.0638 51.4243L33.2234 53.8814L9.72013 75.0495C9.12293 75.5901 8.19174 75.5647 7.64548 74.99Z" fill="url(#paint9_linear_858_298)"/>
<path d="M54.872 31.0062C48.9028 23.6576 38.3173 22.4716 31.2414 28.6114C24.0353 34.8644 23.4551 46.0854 29.9225 53.4085C36.237 60.5588 46.7744 61.108 53.4823 54.8861C60.0771 48.7689 60.7054 38.1877 54.872 31.0062ZM31.983 51.56C26.5968 45.4202 27.0893 36.042 33.0953 30.7995C39.0107 25.6363 47.8981 26.5903 52.9333 32.7471C57.8722 38.7878 57.3458 47.7159 51.7728 52.8621C46.1149 58.082 37.2616 57.5781 31.983 51.56Z" fill="url(#paint10_linear_858_298)"/>
<path opacity="0.3" d="M31.0638 51.4243L28.0467 54.1248C28.3269 55.359 28.1542 56.2167 27.8655 56.8282C26.773 59.1239 23.6596 58.6172 21.1519 61.8781C19.8952 63.5143 20.4641 63.9191 19.1905 65.2439C17.0819 67.4348 15.2648 66.5969 13.4109 68.5643C11.5344 70.5515 12.2306 72.6434 10.8919 73.1784C10.3202 73.4076 9.41161 73.3341 7.89454 72.165L7.39922 72.6094C6.79636 73.1501 6.75107 74.0559 7.30016 74.6305L7.64547 74.9929C8.19172 75.5675 9.12291 75.593 9.72295 75.0523L33.2262 53.8842L31.0638 51.4243Z" fill="url(#paint11_linear_858_298)"/>
<path d="M55.7387 31.4703C49.7695 24.1246 39.184 22.9357 32.1081 29.0784C24.902 35.3314 24.3218 46.5524 30.7892 53.8754C37.1037 61.0258 47.6411 61.575 54.349 55.3531C60.9438 49.2359 61.5721 38.6519 55.7387 31.4703ZM32.8468 52.027C27.4607 45.8872 27.9532 36.509 33.9592 31.2665C39.8746 26.1033 48.7619 27.0572 53.7971 33.2141C58.7361 39.2548 58.2097 48.1829 52.6367 53.3291C46.9788 58.549 38.1283 58.0451 32.8468 52.027Z" fill="url(#paint12_linear_858_298)"/>
<path d="M55.0537 32.0875C49.4128 25.1607 39.4301 24.0596 32.7646 29.854C25.9859 35.7504 25.434 46.3175 31.5193 53.2216C37.4658 59.9729 47.4089 60.5079 53.746 54.6398C59.9813 48.8651 60.5729 38.8642 55.0537 32.0875ZM32.8467 52.027C27.4605 45.8872 27.953 36.5091 33.959 31.2666C39.8745 26.1033 48.7618 27.0573 53.797 33.2141C58.736 39.2548 58.2095 48.1829 52.6365 53.3292C46.9787 58.549 38.1281 58.0451 32.8467 52.027Z" fill="url(#paint13_linear_858_298)"/>
<path d="M34.1291 19.5306C35.0716 20.0089 36.2547 19.5702 36.7727 18.5483C37.2906 17.5292 36.9453 16.3149 36.0056 15.8365C35.9575 15.811 35.9066 15.7912 35.8584 15.7714C36.0339 15.2081 36.1641 14.6391 36.2547 14.0701C36.3085 14.0701 36.3623 14.0701 36.4189 14.0644C37.4944 13.9682 38.3463 12.9803 38.3237 11.8593C38.301 10.7384 37.4123 9.90612 36.3368 9.99954C36.2802 10.0052 36.2264 10.0137 36.1698 10.0222C36.0566 9.46736 35.9037 8.92387 35.7084 8.39735C35.7566 8.36905 35.8075 8.33791 35.8556 8.30394C36.7755 7.65854 37.067 6.38755 36.5123 5.46473C35.9547 4.54192 34.7574 4.31263 33.8404 4.95803C33.7923 4.992 33.7498 5.02597 33.7045 5.06277C33.3423 4.66081 32.9432 4.28999 32.513 3.9503C32.5441 3.89935 32.5724 3.85122 32.6007 3.79744C33.1187 2.77838 33.7951 1.66308 32.8441 1.19884C30.6478 0.126002 29.7053 1.04598 29.1873 2.06504C29.1618 2.11883 29.1364 2.17261 29.1165 2.22639C28.5873 2.0792 28.0523 1.97729 27.5146 1.92068C27.5174 1.86406 27.5202 1.80745 27.5202 1.75083C27.4976 0.62987 27.8316 0.021266 26.7532 0.00145102C24.4012 -0.0438404 23.6087 0.978048 23.6313 2.09901C23.6313 2.15846 23.637 2.21507 23.6426 2.27168C23.1049 2.42454 22.5756 2.62269 22.0605 2.86047C22.035 2.80952 22.0095 2.7614 21.9812 2.71328C21.4236 1.79046 20.2264 1.56401 19.3094 2.20658C18.3895 2.85198 18.098 4.12297 18.6527 5.04579C18.681 5.09391 18.7122 5.13637 18.7433 5.18166C18.3357 5.58928 17.9565 6.03088 17.6027 6.50644C17.5574 6.47813 17.5121 6.44982 17.4611 6.42435C16.5186 5.94595 15.3355 6.38471 14.8176 7.4066C14.2996 8.42566 14.6449 9.64004 15.5846 10.1184C15.6327 10.1439 15.6837 10.1637 15.7318 10.1835C15.5563 10.7468 15.4261 11.3158 15.3355 11.8848C15.2818 11.8848 15.228 11.8848 15.1714 11.8905C14.0958 11.9867 13.2439 12.9746 13.2666 14.0956C13.2892 15.2165 14.1779 16.0488 15.2535 15.9525C15.3101 15.9469 15.3638 15.9384 15.4205 15.9299C15.5337 16.4847 15.6865 17.0282 15.8818 17.5547C15.8337 17.583 15.7827 17.6142 15.7346 17.6481C14.8148 18.2935 14.5232 19.5645 15.078 20.4873C15.6356 21.4102 17.4781 21.8404 18.398 21.195C18.4461 21.161 17.8432 20.9233 17.8857 20.8893C18.248 21.2913 18.6471 21.6621 19.0773 22.0018C19.0461 22.0527 19.0178 22.1008 18.9895 22.1546C18.4716 23.1737 18.8169 24.3881 19.7566 24.8665C20.6991 25.3448 21.8822 24.9061 22.4001 23.8842C22.4256 23.8304 22.4511 23.7766 22.4709 23.7228C23.0001 23.87 23.5351 23.972 24.0729 24.0286C24.07 24.0852 24.0672 24.1418 24.0672 24.1984C24.0898 25.3194 24.9786 26.1516 26.0541 26.0554C27.1296 25.9591 27.9816 24.9712 27.9589 23.8502C27.9589 23.7908 27.9533 23.7342 27.9476 23.6776C28.4854 23.5247 29.0147 23.3265 29.5298 23.0888C29.5552 23.1397 29.5807 23.1878 29.609 23.236C30.1666 24.1588 31.3638 24.3881 32.2809 23.7427C33.2007 23.0973 33.4951 21.8263 32.9375 20.9035C32.9092 20.8553 32.8781 20.8129 32.847 20.7676C33.2545 20.36 33.6338 19.9184 33.9876 19.4428C34.0329 19.4796 34.081 19.5079 34.1291 19.5306ZM22.3888 19.6834C18.9697 17.9482 17.7215 13.5379 19.6009 9.83536C21.4802 6.13278 25.7767 4.53626 29.1958 6.27149C32.6149 8.00671 33.863 12.417 31.9865 16.1195C30.1043 19.825 25.8079 21.4186 22.3888 19.6834Z" fill="#26264F"/>
<path d="M36.4129 14.0646C37.4885 13.9683 38.3404 12.9804 38.3178 11.8594C38.2951 10.7385 37.4064 9.90624 36.3308 10.0025C36.2742 10.0081 36.2205 10.0166 36.1639 10.0251C36.0506 9.47031 35.8978 8.92681 35.7025 8.4003C35.7506 8.37199 35.8016 8.34086 35.8497 8.30689C36.7696 7.66148 37.9045 6.10742 37.2564 5.24405C36.0252 3.6079 34.7515 4.31558 33.8316 4.96098C33.7835 4.99495 33.7411 5.02892 33.6958 5.06572C33.3335 4.66376 32.9344 4.29293 32.5042 3.95325C32.5353 3.90229 32.5636 3.85417 32.5919 3.80039C32.875 3.24557 32.8976 2.63413 32.7108 2.11328C31.8221 3.67584 30.9475 5.24688 30.0871 6.82359C32.8155 8.82208 33.6845 12.7624 31.9806 16.1197C30.5371 18.9674 27.6643 20.5639 24.8594 20.3657C24.7349 20.6913 24.6103 21.0168 24.4773 21.3367C24.115 22.2085 23.7018 23.0634 23.2886 23.9154C23.549 23.9636 23.8094 24.0032 24.0726 24.0315C24.0698 24.0881 24.0669 24.1447 24.0669 24.2014C24.0896 25.3223 24.7717 26.2763 26.719 26.1744C27.7973 26.1177 27.9813 24.977 27.9587 23.856C27.9587 23.7966 27.953 23.7399 27.9473 23.6833C28.4851 23.5305 29.0144 23.3323 29.5295 23.0945C29.555 23.1455 29.5805 23.1936 29.6088 23.2417C30.1663 24.1646 32.0966 24.558 33.0165 23.9126C33.9364 23.2672 33.4948 21.832 32.9373 20.9064C32.909 20.8583 32.8778 20.8158 32.8467 20.7705C33.2543 20.3629 33.6335 19.9213 33.9873 19.4458C34.0326 19.4741 34.0779 19.5024 34.1288 19.5278C35.0713 20.0062 36.2544 19.5675 36.7724 18.5456C37.2903 17.5265 36.945 16.3121 36.0054 15.8338C35.9572 15.8083 35.9063 15.7885 35.8582 15.7687C36.0337 15.2053 36.1639 14.6364 36.2544 14.0674C36.3025 14.0702 36.3563 14.0702 36.4129 14.0646Z" fill="#26264F"/>
<path d="M35.1423 19.6465C36.0848 20.1249 37.2679 19.6862 37.7858 18.6643C38.3038 17.6452 37.9585 16.4308 37.0188 15.9525C36.9707 15.927 36.9198 15.9072 36.8716 15.8874C37.0471 15.324 37.1773 14.7551 37.2679 14.1861C37.3217 14.1861 37.3754 14.1861 37.432 14.1804C38.5076 14.0842 39.3595 13.0963 39.3369 11.9753C39.3142 10.8543 38.4255 10.0221 37.35 10.1155C37.2934 10.1212 37.2396 10.1297 37.183 10.1382C37.0698 9.58335 36.9169 9.03985 36.7216 8.51334C36.7697 8.48503 36.8207 8.45389 36.8688 8.41993C37.7887 7.77452 38.0802 6.50353 37.5254 5.58072C36.9679 4.6579 35.7706 4.42862 34.8536 5.07402C34.8055 5.10799 34.763 5.14196 34.7177 5.17876C34.3554 4.77679 33.9564 4.40597 33.5262 4.06629C33.5573 4.01533 33.5856 3.96721 33.6139 3.91343C34.1318 2.89437 33.7865 1.67999 32.8469 1.2016C31.9044 0.72321 30.7213 1.16197 30.2033 2.18386C30.1778 2.23764 30.1524 2.29143 30.1326 2.34521C29.6033 2.19801 29.0683 2.09611 28.5306 2.03949C28.5334 1.98288 28.5362 1.92626 28.5362 1.86965C28.5136 0.748687 27.6249 -0.0835434 26.5493 0.0127009C25.4738 0.108945 24.6219 1.09686 24.6445 2.21783C24.6445 2.27727 24.6502 2.33389 24.6558 2.3905C24.1181 2.54336 23.5888 2.74151 23.0737 2.97929C23.0482 2.92834 23.0227 2.88022 22.9944 2.83209C22.4368 1.90928 21.2396 1.67999 20.3225 2.3254C19.4027 2.9708 19.1112 4.24179 19.6659 5.1646C19.6942 5.21272 19.7253 5.25519 19.7565 5.30048C19.3489 5.7081 18.9696 6.14969 18.6158 6.62525C18.5706 6.59694 18.5253 6.56864 18.4743 6.54316C17.5318 6.06477 16.3487 6.50353 15.8308 7.52542C15.3128 8.54448 15.6581 9.75885 16.5978 10.2372C16.6459 10.2627 16.6969 10.2825 16.745 10.3024C16.5695 10.8657 16.4393 11.4346 16.3487 12.0036C16.295 12.0036 16.2412 12.0036 16.1846 12.0093C15.109 12.1055 14.2571 13.0934 14.2797 14.2144C14.3024 15.3354 15.1911 16.1676 16.2666 16.0713C16.3233 16.0657 16.377 16.0572 16.4336 16.0487C16.5469 16.6035 16.6997 17.147 16.895 17.6735C16.8469 17.7018 16.7959 17.733 16.7478 17.7669C15.8279 18.4124 15.5364 19.6833 16.0912 20.6062C16.6487 21.529 17.846 21.7583 18.763 21.1129C18.8111 21.0789 18.8536 21.0449 18.8989 21.0081C19.2612 21.4101 19.6602 21.7809 20.0905 22.1206C20.0593 22.1715 20.031 22.2197 20.0027 22.2734C19.4848 23.2925 19.8301 24.5069 20.7697 24.9853C21.7123 25.4637 22.8953 25.0249 23.4133 24.003C23.4388 23.9492 23.4642 23.8954 23.4841 23.8417C24.0133 23.9889 24.5483 24.0908 25.086 24.1474C25.0832 24.204 25.0804 24.2606 25.0804 24.3172C25.103 25.4382 25.9917 26.2704 27.0673 26.1742C28.1428 26.0779 28.9948 25.09 28.9721 23.969C28.9721 23.9096 28.9664 23.853 28.9608 23.7964C29.4986 23.6435 30.0278 23.4454 30.543 23.2076C30.5684 23.2585 30.5939 23.3067 30.6222 23.3548C31.1798 24.2776 32.377 24.5069 33.2941 23.8615C34.2139 23.2161 34.5083 21.9451 33.9507 21.0223C33.9224 20.9741 33.8913 20.9317 33.8601 20.8864C34.2677 20.4788 34.647 20.0372 35.0008 19.5616C35.0461 19.5928 35.0942 19.6211 35.1423 19.6465ZM23.402 19.7966C19.9829 18.0613 18.7347 13.6539 20.6112 9.94851C22.4906 6.24594 26.7871 4.64941 30.2061 6.38464C33.6252 8.11987 34.8734 12.5301 32.9969 16.2327C31.1175 19.9381 26.821 21.5346 23.402 19.7966Z" fill="url(#paint14_linear_858_298)"/>
<path d="M15.3239 35.9768C16.0145 36.3278 16.8862 36.0051 17.2655 35.255C17.6448 34.5048 17.3929 33.6132 16.7023 33.2622C16.6655 33.2452 16.6287 33.2282 16.5919 33.214C16.7192 32.8007 16.8183 32.3818 16.8834 31.9629C16.923 31.9629 16.9627 31.9629 17.0023 31.9572C17.7919 31.8864 18.4175 31.1618 18.4005 30.338C18.3835 29.5143 17.7297 28.9029 16.94 28.9736C16.8976 28.9765 16.8579 28.9849 16.8183 28.9906C16.7362 28.583 16.623 28.1839 16.4815 27.796C16.5183 27.7734 16.5551 27.7536 16.589 27.7281C17.2655 27.2554 17.4806 26.3212 17.0702 25.6419C16.6598 24.9625 15.7824 24.7955 15.1059 25.271C15.072 25.2965 15.038 25.322 15.0069 25.3475C14.7408 25.0531 14.4465 24.7785 14.1323 24.5294C14.1549 24.4926 14.1776 24.4558 14.1974 24.4162C14.5767 23.666 15.0748 22.848 14.3785 22.5083C12.7652 21.7213 12.0746 22.395 11.6925 23.1452C11.6727 23.1848 11.6557 23.2244 11.6388 23.2641C11.251 23.1565 10.8576 23.0801 10.4613 23.0404C10.4642 22.998 10.467 22.9584 10.4642 22.9159C10.4472 22.0922 10.6906 21.6449 9.90092 21.6307C8.1744 21.5968 7.59135 22.3469 7.60833 23.1707C7.60833 23.2131 7.61399 23.2556 7.61682 23.298C7.22057 23.4113 6.83281 23.5556 6.45355 23.7311C6.43656 23.6943 6.41675 23.6575 6.39411 23.6236C5.98371 22.9442 5.1063 22.7772 4.42984 23.2527C3.75339 23.7255 3.53828 24.6596 3.94868 25.339C3.9685 25.373 3.99397 25.4069 4.01661 25.4381C3.71659 25.7381 3.43639 26.0608 3.17883 26.4118C3.14486 26.392 3.1109 26.3694 3.07693 26.3524C2.38633 26.0014 1.51458 26.3241 1.13531 27.0742C0.756043 27.8244 1.00794 28.716 1.69855 29.067C1.73535 29.084 1.77214 29.101 1.80893 29.1152C1.68157 29.5284 1.58251 29.9474 1.51741 30.3663C1.47778 30.3663 1.43816 30.3663 1.39853 30.372C0.608864 30.4428 -0.0166444 31.1674 0.000337762 31.9912C0.0173199 32.8149 0.671132 33.4263 1.4608 33.3556C1.50326 33.3527 1.54288 33.3442 1.58251 33.3386C1.66459 33.7462 1.7778 34.1453 1.91932 34.5331C1.88252 34.5558 1.84573 34.5756 1.81176 34.6011C1.13531 35.0738 0.920203 36.008 1.3306 36.6873C1.74101 37.3667 3.09392 37.6809 3.76754 37.2082C3.8015 37.1827 3.35997 37.01 3.3911 36.9817C3.65716 37.2761 3.95151 37.5507 4.26568 37.7998C4.24304 37.8366 4.2204 37.8734 4.20058 37.913C3.82132 38.6632 4.07322 39.5548 4.76382 39.9058C5.45443 40.2569 6.32618 39.9342 6.70545 39.184C6.72526 39.1444 6.74224 39.1048 6.75922 39.0651C7.14698 39.1727 7.5404 39.2491 7.93665 39.2887C7.93382 39.3312 7.93099 39.3708 7.93382 39.4133C7.9508 40.237 8.60462 40.8485 9.39429 40.7777C10.184 40.7069 10.8095 39.9823 10.7925 39.1585C10.7925 39.1161 10.7868 39.0736 10.784 39.0312C11.1802 38.9179 11.568 38.7736 11.9473 38.5981C11.9642 38.6349 11.9841 38.6717 12.0067 38.7056C12.4171 39.385 13.2945 39.552 13.971 39.0764C14.6474 38.6037 14.8625 37.6696 14.4521 36.9902C14.4323 36.9562 14.4068 36.9223 14.3842 36.8911C14.6842 36.5911 14.9644 36.2684 15.222 35.9174C15.2531 35.9372 15.2871 35.957 15.3239 35.9768ZM6.69979 36.0872C4.18643 34.8134 3.2694 31.5722 4.65061 28.8519C6.03182 26.1316 9.18767 24.9597 11.6982 26.2335C14.2115 27.5073 15.1286 30.7485 13.7474 33.4688C12.3662 36.1891 9.21314 37.361 6.69979 36.0872Z" fill="#26264F"/>
<path d="M17.0025 31.96C17.7922 31.8892 18.4177 31.1645 18.4007 30.3408C18.3837 29.5171 17.7299 28.9056 16.9402 28.9764C16.8978 28.9792 16.8581 28.9877 16.8185 28.9934C16.7364 28.5858 16.6232 28.1866 16.4817 27.7988C16.5185 27.779 16.5553 27.7564 16.5893 27.7309C17.2657 27.2582 18.1007 26.1146 17.6223 25.4805C16.7166 24.2774 15.7826 24.7983 15.1062 25.271C15.0722 25.2965 15.0382 25.322 15.0071 25.3474C14.741 25.053 14.4467 24.7785 14.1325 24.5294C14.1552 24.4926 14.1778 24.4558 14.1976 24.4161C14.4042 24.0085 14.424 23.5584 14.2854 23.1763C13.6344 24.3255 12.989 25.4776 12.3579 26.6382C14.3618 28.1074 15.0014 31.0004 13.7476 33.4688C12.6862 35.5606 10.5776 36.7354 8.51709 36.5882C8.42652 36.826 8.33595 37.0666 8.23688 37.3015C7.97083 37.9413 7.66798 38.5697 7.3623 39.1953C7.55477 39.2321 7.7444 39.2604 7.93687 39.2802C7.93404 39.3227 7.93121 39.3623 7.93404 39.4048C7.95102 40.2285 8.45199 40.9305 9.88132 40.8541C10.6738 40.8116 10.8097 39.9737 10.7927 39.15C10.7927 39.1075 10.787 39.0651 10.7842 39.0226C11.1805 38.9094 11.5682 38.765 11.9475 38.5895C11.9645 38.6263 11.9843 38.6631 12.0069 38.6971C12.4173 39.3765 13.8353 39.6652 14.509 39.1896C15.1854 38.7169 14.8599 37.661 14.4523 36.9817C14.4325 36.9477 14.4071 36.9137 14.3844 36.8826C14.6844 36.5825 14.9646 36.2598 15.2222 35.9088C15.2562 35.9286 15.2901 35.9513 15.3241 35.9683C16.0147 36.3193 16.8864 35.9966 17.2657 35.2464C17.645 34.4963 17.3931 33.6046 16.7025 33.2536C16.6657 33.2366 16.6289 33.2196 16.5921 33.2055C16.7195 32.7922 16.8185 32.3733 16.8836 31.9543C16.9204 31.9628 16.9629 31.9628 17.0025 31.96Z" fill="#26264F"/>
<path d="M16.0684 36.0591C16.759 36.4101 17.6308 36.0874 18.01 35.3372C18.3893 34.5871 18.1374 33.6954 17.4468 33.3444C17.41 33.3274 17.3732 33.3104 17.3364 33.2963C17.4638 32.883 17.5628 32.4641 17.6279 32.0451C17.6676 32.0451 17.7072 32.0451 17.7468 32.0395C18.5365 31.9687 19.162 31.244 19.145 30.4203C19.128 29.5965 18.4742 28.9851 17.6845 29.0559C17.6421 29.0587 17.6025 29.0672 17.5628 29.0729C17.4808 28.6652 17.3675 28.2661 17.226 27.8783C17.2628 27.8557 17.2996 27.8358 17.3336 27.8104C18.01 27.3376 18.2251 26.4035 17.8147 25.7241C17.4043 25.0448 16.5269 24.8777 15.8505 25.3533C15.8165 25.3788 15.7825 25.4043 15.7514 25.4297C15.4854 25.1353 15.191 24.8608 14.8768 24.6117C14.8995 24.5749 14.9221 24.5381 14.9419 24.4984C15.3212 23.7483 15.0693 22.8566 14.3787 22.5056C13.6881 22.1546 12.8163 22.4773 12.4371 23.2274C12.4173 23.2671 12.4003 23.3067 12.3833 23.3463C11.9955 23.2388 11.6021 23.1623 11.2059 23.1227C11.2087 23.0802 11.2115 23.0406 11.2087 22.9982C11.1917 22.1744 10.5379 21.563 9.74823 21.6337C8.95856 21.7045 8.33305 22.4292 8.35003 23.2529C8.35003 23.2954 8.35569 23.3378 8.35852 23.3803C7.96227 23.4935 7.57451 23.6379 7.19525 23.8134C7.17826 23.7766 7.15845 23.7398 7.13581 23.7058C6.72541 23.0265 5.848 22.8594 5.17154 23.335C4.49509 23.8077 4.27998 24.7419 4.69038 25.4212C4.71019 25.4552 4.73567 25.4892 4.75831 25.5203C4.45829 25.8204 4.17809 26.1431 3.92053 26.4941C3.88656 26.4743 3.8526 26.4516 3.81863 26.4346C3.12803 26.0836 2.25628 26.4063 1.87701 27.1565C1.49774 27.9066 1.74964 28.7983 2.44025 29.1493C2.47704 29.1663 2.51384 29.1833 2.55063 29.1974C2.42327 29.6107 2.32421 30.0296 2.25911 30.4486C2.21948 30.4486 2.17986 30.4486 2.14023 30.4543C1.35056 30.525 0.725055 31.2497 0.742037 32.0734C0.759019 32.8972 1.41283 33.5086 2.2025 33.4378C2.24496 33.435 2.28458 33.4265 2.32421 33.4208C2.40629 33.8285 2.5195 34.2276 2.66102 34.6154C2.62422 34.6381 2.58743 34.6579 2.55346 34.6833C1.87701 35.1561 1.6619 36.0902 2.0723 36.7696C2.48271 37.449 3.36012 37.616 4.03657 37.1404C4.07053 37.1149 4.1045 37.0895 4.13563 37.064C4.40169 37.3584 4.69604 37.6329 5.01021 37.8821C4.98757 37.9189 4.96493 37.9557 4.94511 37.9953C4.56585 38.7454 4.81775 39.6371 5.50835 39.9881C6.19896 40.3391 7.07071 40.0164 7.44998 39.2663C7.46979 39.2266 7.48677 39.187 7.50376 39.1474C7.89151 39.2549 8.28493 39.3314 8.68118 39.371C8.67835 39.4135 8.67552 39.4531 8.67835 39.4956C8.69533 40.3193 9.34915 40.9307 10.1388 40.86C10.9285 40.7892 11.554 40.0645 11.537 39.2408C11.537 39.1983 11.5314 39.1559 11.5285 39.1134C11.9248 39.0002 12.3125 38.8558 12.6918 38.6803C12.7088 38.7171 12.7286 38.7539 12.7512 38.7879C13.1616 39.4673 14.039 39.6343 14.7155 39.1587C15.392 38.686 15.6071 37.7518 15.1967 37.0725C15.1768 37.0385 15.1514 37.0045 15.1287 36.9734C15.4287 36.6733 15.709 36.3506 15.9665 35.9996C15.9976 36.0223 16.0316 36.0421 16.0684 36.0591ZM7.44432 36.1723C4.93096 34.8985 4.01393 31.6573 5.39514 28.937C6.77635 26.2167 9.9322 25.0448 12.4427 26.3186C14.9561 27.5924 15.8731 30.8336 14.4919 33.5539C13.1107 36.2742 9.95484 37.4461 7.44432 36.1723Z" fill="url(#paint15_linear_858_298)"/>
<path d="M76.1992 49.3239L78.5909 76.1704C78.6277 76.578 78.3446 76.9375 77.9625 76.9743L65.0193 78.3076C64.2438 78.3501 63.8362 77.9283 63.7994 77.5065L61.504 49.6353C61.4701 49.2248 61.855 48.837 62.6192 48.8087L75.4435 48.6191C75.8256 48.6106 76.1624 48.9276 76.1992 49.3239Z" fill="url(#paint16_linear_858_298)"/>
<path d="M76.7878 49.2586L79.2021 76.2636C79.2389 76.6712 78.9558 77.0364 78.5709 77.0704L65.1409 78.3102C64.7305 78.347 64.3625 78.0328 64.3285 77.6082L62.0133 49.5671C61.9794 49.1538 62.285 48.8085 62.6954 48.8L76.0321 48.5452C76.4113 48.5396 76.751 48.8595 76.7878 49.2586Z" fill="url(#paint17_linear_858_298)"/>
<path d="M76.4877 50.7478L78.7208 75.7798C78.7548 76.162 78.4887 76.5017 78.1321 76.5328L65.5059 77.6792C65.1238 77.7132 64.7813 77.4188 64.7502 77.0225L62.6019 51.0903C62.5708 50.7054 62.8567 50.3798 63.2359 50.3713L75.7801 50.0826C76.1367 50.0769 76.4537 50.3742 76.4877 50.7478Z" fill="white"/>
<path d="M76.4877 50.7478C76.4537 50.3741 76.1367 50.0769 75.7801 50.0854L63.2359 50.3741C62.8567 50.3826 62.5708 50.7053 62.6019 51.0931L62.9104 54.8042L76.8216 54.4673L76.4877 50.7478Z" fill="url(#paint18_linear_858_298)"/>
<path d="M69.7911 49.4853C69.8024 49.6268 69.7034 49.7429 69.5647 49.7457C69.4288 49.7485 69.3071 49.6381 69.2958 49.4966C69.2845 49.355 69.3835 49.239 69.5222 49.2361C69.6581 49.2333 69.777 49.3465 69.7911 49.4853Z" fill="url(#paint19_linear_858_298)"/>
<path d="M71.5261 64.7457L65.2484 65.0543L64.3823 56.1828L70.694 56.0215L71.5261 64.7457Z" fill="url(#paint20_linear_858_298)"/>
<path d="M76.1819 64.5165L72.4939 64.6976L71.6675 55.996L75.3752 55.9026L76.1819 64.5165Z" fill="url(#paint21_linear_858_298)"/>
<path d="M76.8299 71.4574L65.9472 72.2047L65.3613 66.2093L76.2865 65.6375L76.8299 71.4574Z" fill="url(#paint22_linear_858_298)"/>
<path d="M77.1703 75.0807L66.3102 75.9384L66.0498 73.2521L76.9269 72.4736L77.1703 75.0807Z" fill="url(#paint23_linear_858_298)"/>
<g opacity="0.48">
<path d="M73.5611 67.7971C72.2591 63.2482 68.4636 63.7039 67.3286 59.5937C66.3974 56.2167 68.5457 54.439 67.2409 51.6111C66.6267 50.2806 65.554 49.3833 64.4388 48.769L62.6925 48.803C62.2849 48.8115 61.9764 49.1569 62.0104 49.5701L64.3256 77.6112C64.3596 78.0358 64.7275 78.3529 65.1379 78.3132L76.148 77.297C75.4432 76.4025 74.7753 75.3098 74.3111 73.9964C73.3346 71.2166 74.28 70.3136 73.5611 67.7971Z" fill="white"/>
</g>
<defs>
<linearGradient id="paint0_linear_858_298" x1="78.1583" y1="24.9544" x2="-24.1786" y2="22.4891" gradientUnits="userSpaceOnUse">
<stop stop-color="#FFC444"/>
<stop offset="0.9964" stop-color="#F36F56"/>
</linearGradient>
<linearGradient id="paint1_linear_858_298" x1="58.3135" y1="2.99499" x2="16.9144" y2="63.5298" gradientUnits="userSpaceOnUse">
<stop stop-color="#AA80F9"/>
<stop offset="0.9964" stop-color="#6165D7"/>
</linearGradient>
<linearGradient id="paint2_linear_858_298" x1="10.6739" y1="42.7154" x2="23.7579" y2="41.3486" gradientUnits="userSpaceOnUse">
<stop offset="0.003597" stop-color="#26264F"/>
<stop offset="1" stop-color="#444B8C"/>
</linearGradient>
<linearGradient id="paint3_linear_858_298" x1="38.5647" y1="82.6928" x2="41.3373" y2="78.7218" gradientUnits="userSpaceOnUse">
<stop stop-color="#444B8C"/>
<stop offset="0.9964" stop-color="#26264F"/>
</linearGradient>
<linearGradient id="paint4_linear_858_298" x1="46.9561" y1="81.6748" x2="42.7124" y2="58.6406" gradientUnits="userSpaceOnUse">
<stop stop-color="#444B8C"/>
<stop offset="0.9964" stop-color="#26264F"/>
</linearGradient>
<linearGradient id="paint5_linear_858_298" x1="57.4221" y1="18.0867" x2="78.6572" y2="-12.2168" gradientUnits="userSpaceOnUse">
<stop stop-color="#444B8C"/>
<stop offset="0.9964" stop-color="#26264F"/>
</linearGradient>
<linearGradient id="paint6_linear_858_298" x1="48.2003" y1="21.6851" x2="21.6364" y2="106.045" gradientUnits="userSpaceOnUse">
<stop stop-color="#444B8C"/>
<stop offset="0.9964" stop-color="#26264F"/>
</linearGradient>
<linearGradient id="paint7_linear_858_298" x1="49.6406" y1="26.8494" x2="24.738" y2="78.1915" gradientUnits="userSpaceOnUse">
<stop offset="0.00359712" stop-color="#E38DDD"/>
<stop offset="1" stop-color="#9571F6"/>
</linearGradient>
<linearGradient id="paint8_linear_858_298" x1="43.0659" y1="20.745" x2="41.5964" y2="32.9077" gradientUnits="userSpaceOnUse">
<stop stop-color="#FF9085"/>
<stop offset="1" stop-color="#FB6FBB"/>
</linearGradient>
<linearGradient id="paint9_linear_858_298" x1="6.91545" y1="63.4322" x2="33.2245" y2="63.4322" gradientUnits="userSpaceOnUse">
<stop stop-color="#FFC444"/>
<stop offset="0.9964" stop-color="#F36F56"/>
</linearGradient>
<linearGradient id="paint10_linear_858_298" x1="25.4322" y1="41.9254" x2="58.8695" y2="41.9254" gradientUnits="userSpaceOnUse">
<stop stop-color="#FFC444"/>
<stop offset="0.9964" stop-color="#F36F56"/>
</linearGradient>
<linearGradient id="paint11_linear_858_298" x1="6.91544" y1="63.4322" x2="33.2244" y2="63.4322" gradientUnits="userSpaceOnUse">
<stop stop-color="#FFC444"/>
<stop offset="0.9964" stop-color="#F36F56"/>
</linearGradient>
<linearGradient id="paint12_linear_858_298" x1="54.1299" y1="57.039" x2="38.8967" y2="36.9499" gradientUnits="userSpaceOnUse">
<stop stop-color="#FFC444"/>
<stop offset="0.9964" stop-color="#F36F56"/>
</linearGradient>
<linearGradient id="paint13_linear_858_298" x1="27.2954" y1="42.4028" x2="58.8362" y2="42.4028" gradientUnits="userSpaceOnUse">
<stop stop-color="#FFC444"/>
<stop offset="0.9964" stop-color="#F36F56"/>
</linearGradient>
<linearGradient id="paint14_linear_858_298" x1="14.2782" y1="13.0926" x2="39.3305" y2="13.0926" gradientUnits="userSpaceOnUse">
<stop stop-color="#AA80F9"/>
<stop offset="0.9964" stop-color="#6165D7"/>
</linearGradient>
<linearGradient id="paint15_linear_858_298" x1="0.741771" y1="31.2457" x2="19.1452" y2="31.2457" gradientUnits="userSpaceOnUse">
<stop stop-color="#AA80F9"/>
<stop offset="0.9964" stop-color="#6165D7"/>
</linearGradient>
<linearGradient id="paint16_linear_858_298" x1="61.0002" y1="63.1212" x2="79.058" y2="63.7934" gradientUnits="userSpaceOnUse">
<stop stop-color="#444B8C"/>
<stop offset="0.9964" stop-color="#26264F"/>
</linearGradient>
<linearGradient id="paint17_linear_858_298" x1="68.6658" y1="67.7411" x2="71.4188" y2="60.9085" gradientUnits="userSpaceOnUse">
<stop stop-color="#444B8C"/>
<stop offset="0.9964" stop-color="#26264F"/>
</linearGradient>
<linearGradient id="paint18_linear_858_298" x1="66.0449" y1="57.9613" x2="75.4448" y2="44.3252" gradientUnits="userSpaceOnUse">
<stop stop-color="#FF9085"/>
<stop offset="1" stop-color="#FB6FBB"/>
</linearGradient>
<linearGradient id="paint19_linear_858_298" x1="69.9619" y1="48.4733" x2="53.0815" y2="89.4258" gradientUnits="userSpaceOnUse">
<stop stop-color="#FFC444"/>
<stop offset="0.9964" stop-color="#F36F56"/>
</linearGradient>
<linearGradient id="paint20_linear_858_298" x1="66.4779" y1="57.8787" x2="74.1467" y2="73.8337" gradientUnits="userSpaceOnUse">
<stop offset="0.00359712" stop-color="#E38DDD"/>
<stop offset="1" stop-color="#9571F6"/>
</linearGradient>
<linearGradient id="paint21_linear_858_298" x1="69.617" y1="52.6093" x2="78.4443" y2="70.9747" gradientUnits="userSpaceOnUse">
<stop offset="0.00359712" stop-color="#E38DDD"/>
<stop offset="1" stop-color="#9571F6"/>
</linearGradient>
<linearGradient id="paint22_linear_858_298" x1="67.3072" y1="62.1354" x2="73.417" y2="74.8469" gradientUnits="userSpaceOnUse">
<stop offset="0.00359712" stop-color="#E38DDD"/>
<stop offset="1" stop-color="#9571F6"/>
</linearGradient>
<linearGradient id="paint23_linear_858_298" x1="69.0886" y1="69.6974" x2="73.1627" y2="78.1736" gradientUnits="userSpaceOnUse">
<stop offset="0.00359712" stop-color="#E38DDD"/>
<stop offset="1" stop-color="#9571F6"/>
</linearGradient>
</defs>
</svg>
