<svg width="97" height="80" viewBox="0 0 97 80" fill="none" xmlns="http://www.w3.org/2000/svg">
<g clip-path="url(#clip0_1061_4778)">
<path d="M96.5836 33.8396C96.26 33.9637 95.9156 34.0248 95.569 34.0196H93.7583V29.048H95.569C95.9325 29.0416 96.2935 29.1086 96.6303 29.2449" fill="white"/>
<path d="M96.6643 30.3501C96.536 30.2048 96.3763 30.0905 96.1973 30.0156C95.9959 29.9313 95.7789 29.8902 95.5605 29.8949H94.7114V33.1726H95.5605C95.7795 33.1769 95.9969 33.1336 96.1973 33.0455C96.376 32.9663 96.5342 32.8475 96.6601 32.6983" fill="white"/>
<path d="M76.9338 41.678C74.3038 43.8419 71.6759 45.3643 70.1411 44.6931C70.0513 44.6538 69.9653 44.6063 69.8843 44.5512C68.9906 43.9584 68.5661 42.4339 68.8993 39.586C69.7845 32.0038 74.3866 30.4306 78.5938 27.8262C82.7501 25.2558 80.7165 20.6802 80.6571 20.5637C87.522 30.6656 81.3916 38.0065 76.9338 41.678Z" fill="url(#paint0_linear_1061_4778)"/>
<path d="M70.1431 44.6931C70.0533 44.6539 69.9673 44.6064 69.8862 44.5513C70.3108 43.0564 71.3106 40.1493 72.858 38.4935C73.6445 37.6883 74.4788 36.931 75.3565 36.2258C77.0759 34.7797 78.8547 33.2827 79.9692 31.1992L80.2196 31.3305C79.0797 33.4627 77.2797 34.9766 75.5369 36.4397C74.6672 37.1403 73.84 37.8919 73.0597 38.6904C71.5568 40.3017 70.5655 43.2343 70.1431 44.6931Z" fill="url(#paint1_linear_1061_4778)"/>
<path d="M20.4013 31.0784C17.6418 34.6589 20.3631 45.6056 20.7813 47.2063C20.8174 47.3334 20.8344 47.4032 20.8344 47.4032C20.8344 47.4032 20.6221 47.2804 20.2591 47.0539C17.8732 45.5442 8.94499 39.3552 10.9319 32.2684C13.2202 24.106 8.50771 25.7046 5.17291 18.0313C1.83811 10.358 9.41835 5.63843 9.41835 5.63843C18.2234 12.3123 23.3816 27.2122 20.4013 31.0784Z" fill="#609A3E"/>
<path d="M20.8345 47.4033C20.8345 47.4033 20.6222 47.2805 20.2592 47.054L19.979 46.6135C18.1471 43.7318 15.9182 39.8041 15.7017 37.456C15.5701 36.0416 15.638 34.4176 15.7017 32.8486C15.8397 29.5561 15.984 26.1514 14.3602 24.2649C11.8745 21.3874 11.7917 16.5259 11.7896 16.3206H12.1547C12.1547 16.3714 12.2374 21.2561 14.634 24.0341C16.3555 26.0265 16.2069 29.5053 16.0647 32.8677C15.9968 34.4261 15.931 36.0437 16.0647 37.4263C16.277 39.7343 18.612 43.8673 20.7814 47.2106C20.8175 47.3334 20.8345 47.4033 20.8345 47.4033Z" fill="url(#paint2_linear_1061_4778)"/>
<path d="M21.0319 40.0392C20.0385 43.9373 22.1463 46.296 22.8298 46.9397C22.8975 47.0026 22.9683 47.0619 23.0421 47.1176C22.8362 47.124 22.6301 47.1113 22.4265 47.0794C19.4653 46.656 11.8129 43.1899 10.9235 38.2077C9.94703 32.8297 5.53389 35.8109 1.89342 31.3306C-3.06101 25.2453 3.29654 20.3013 3.29654 20.3013C1.93588 22.8717 6.07943 29.173 11.3098 30.4307C16.5402 31.6884 22.21 35.4192 21.0319 40.0392Z" fill="#609A3E"/>
<path d="M15.8524 39.7109C16.4617 41.5996 17.0348 43.3824 18.612 44.1573C19.9854 44.8391 21.4989 45.8936 22.8341 46.9353C22.9017 46.9982 22.9726 47.0575 23.0464 47.1131C22.8404 47.1196 22.6343 47.1069 22.4308 47.075C21.189 46.0885 19.8563 45.2214 18.4507 44.4855C16.7525 43.6386 16.1454 41.7838 15.5149 39.8273C14.7975 37.602 14.0566 35.2983 11.6091 34.2693C6.93914 32.3065 4.53621 29.6111 4.51074 29.5857L4.78457 29.3464C4.80792 29.3718 7.15353 32.008 11.7492 33.9369C14.3474 35.0231 15.1137 37.4051 15.8524 39.7109Z" fill="url(#paint3_linear_1061_4778)"/>
<path d="M41.0067 77.7407H48.1157V56.2009H41.0067V77.7407Z" fill="#AEBECC"/>
<path d="M16.986 66.5759L72.1343 66.5759C73.8588 66.5759 75.2568 65.1815 75.2568 63.4613V26.4902C75.2568 24.77 73.8588 23.3755 72.1343 23.3755L16.986 23.3755C15.2615 23.3755 13.8635 24.77 13.8635 26.4902L13.8635 63.4613C13.8635 65.1815 15.2615 66.5759 16.986 66.5759Z" fill="#DEDEDE"/>
<path d="M16.2706 59.8069L72.856 59.8069V18.7789L16.2706 18.7789L16.2706 59.8069Z" fill="url(#paint4_linear_1061_4778)"/>
<path d="M16.2706 23.7334L72.856 23.7334V18.7788L16.2706 18.7788V23.7334Z" fill="url(#paint5_linear_1061_4778)"/>
<path d="M42.582 62.9044C42.5833 63.295 42.7006 63.6764 42.9191 64.0005C43.1375 64.3245 43.4474 64.5767 43.8095 64.7252C44.1717 64.8737 44.5698 64.9118 44.9536 64.8347C45.3374 64.7576 45.6897 64.5687 45.966 64.292C46.2422 64.0152 46.43 63.663 46.5057 63.2799C46.5814 62.8967 46.5415 62.4997 46.3911 62.1392C46.2406 61.7786 45.9865 61.4706 45.6606 61.2541C45.3348 61.0375 44.9519 60.9222 44.5604 60.9226C44.3 60.9229 44.0421 60.9744 43.8017 61.0742C43.5612 61.174 43.3429 61.3201 43.1591 61.5042C42.9753 61.6883 42.8298 61.9067 42.7308 62.147C42.6317 62.3873 42.5812 62.6447 42.582 62.9044Z" fill="#949494"/>
<path d="M60.555 76.9255H28.5698V78.5517H60.555V76.9255Z" fill="#E3E3E3"/>
<path d="M26.0289 20.3181H19.3083C18.9355 20.3181 18.6333 20.6196 18.6333 20.9914V21.5165C18.6333 21.8884 18.9355 22.1899 19.3083 22.1899H26.0289C26.4017 22.1899 26.7039 21.8884 26.7039 21.5165V20.9914C26.7039 20.6196 26.4017 20.3181 26.0289 20.3181Z" fill="#F5F7FF"/>
<path d="M11.2334 42.7747C7.9283 42.7747 6.93487 41.7012 6.93487 41.7012C6.93487 41.7012 5.93931 42.7747 2.63636 42.7747C2.63636 42.7747 1.90402 47.6891 6.93487 50.2511C11.9594 47.6891 11.2334 42.7747 11.2334 42.7747ZM6.93062 49.7175C2.53022 47.4752 3.16704 43.1748 3.16704 43.1748C6.05819 43.1748 6.9285 42.2369 6.9285 42.2369C6.9285 42.2369 7.79882 43.1748 10.6878 43.1748C10.69 43.1748 11.3289 47.4752 6.93062 49.7175Z" fill="url(#paint6_linear_1061_4778)"/>
<path d="M6.67385 43.137V48.7988C3.34329 47.1049 3.82728 43.8484 3.82728 43.8484C6.0158 43.8569 6.67385 43.137 6.67385 43.137Z" fill="url(#paint7_linear_1061_4778)"/>
<path d="M88.488 44.3268H83.1685V43.1982C83.1685 42.4946 83.4487 41.8198 83.9475 41.3222C84.4463 40.8247 85.1228 40.5452 85.8282 40.5452C86.5336 40.5452 87.2102 40.8247 87.709 41.3222C88.2078 41.8198 88.488 42.4946 88.488 43.1982V44.3268ZM83.6609 43.8355H87.9955V43.2003C87.9955 42.627 87.7672 42.0771 87.3607 41.6717C86.9543 41.2663 86.403 41.0385 85.8282 41.0385C85.2534 41.0385 84.7022 41.2663 84.2957 41.6717C83.8893 42.0771 83.6609 42.627 83.6609 43.2003V43.8355Z" fill="#FFCA55"/>
<path d="M88.2074 43.8059H83.4482C83.3293 43.8059 83.2115 43.8293 83.1017 43.8748C82.9918 43.9202 82.892 43.9869 82.8081 44.0708C82.7241 44.1548 82.6575 44.2545 82.6122 44.3642C82.5669 44.4739 82.5437 44.5914 82.5439 44.71V49.4571C82.5439 49.6964 82.6392 49.9258 82.8088 50.0949C82.9784 50.2641 83.2084 50.3591 83.4482 50.3591H88.2074C88.4472 50.3591 88.6772 50.2641 88.8468 50.0949C89.0164 49.9258 89.1116 49.6964 89.1116 49.4571V44.71C89.1116 44.4706 89.0164 44.241 88.8469 44.0715C88.6774 43.902 88.4474 43.8065 88.2074 43.8059ZM86.0846 47.2276V48.8029H85.5752V47.2276C85.3536 47.1661 85.1619 47.0267 85.0355 46.8351C84.9091 46.6435 84.8566 46.4127 84.8877 46.1854C84.9187 45.9582 85.0313 45.7498 85.2046 45.599C85.3778 45.4482 85.6 45.3651 85.8299 45.3651C86.0599 45.3651 86.282 45.4482 86.4553 45.599C86.6285 45.7498 86.7411 45.9582 86.7722 46.1854C86.8033 46.4127 86.7507 46.6435 86.6243 46.8351C86.4979 47.0267 86.3062 47.1661 86.0846 47.2276Z" fill="url(#paint8_linear_1061_4778)"/>
<path d="M51.3739 4.76835C51.3739 4.90386 51.3739 5.03726 51.359 5.16853C51.3361 5.44689 51.2878 5.72259 51.2147 5.99218C50.9444 7.00878 50.3446 7.90766 49.5088 8.54876C48.6729 9.18987 47.6479 9.5372 46.5935 9.53663C46.3089 9.53682 46.0247 9.51202 45.7444 9.46253C44.7194 9.2769 43.783 8.76309 43.0771 7.99895C42.3711 7.2348 41.9341 6.26196 41.8323 5.22782C41.8195 5.0796 41.811 4.92927 41.811 4.77682C41.8109 3.83176 42.0924 2.90799 42.6196 2.12279C43.1469 1.33759 43.8962 0.726379 44.7724 0.366764C45.6486 0.00714954 46.6121 -0.0846493 47.5407 0.103022C48.4693 0.290693 49.321 0.749371 49.9878 1.42082C50.8744 2.31061 51.3726 3.51382 51.3739 4.76835Z" fill="url(#paint9_linear_1061_4778)"/>
<path d="M45.7721 9.32055C44.606 9.11092 43.5646 8.46389 42.8618 7.51233C42.8566 7.46243 42.867 7.41215 42.8915 7.36835C43.2864 6.66751 43.0295 6.78608 42.951 6.33085C42.8724 5.87562 42.6495 6.08312 42.5752 5.79939C42.501 5.51567 42.7238 5.54319 42.2484 5.37592C42.1517 5.33442 42.0611 5.2803 41.9788 5.215C41.9642 5.07007 41.9571 4.92449 41.9575 4.77883C41.957 4.06973 42.1203 3.37005 42.4346 2.73406C42.749 2.09807 43.2061 1.54288 43.7703 1.11157C43.7282 1.36704 43.6358 1.61168 43.4986 1.83147C43.2609 2.24224 43.142 2.01145 43.142 2.62125C43.142 3.23104 43.5538 3.45125 43.764 3.83449C43.9741 4.21773 44.3859 4.49722 43.764 4.69414C43.142 4.89105 42.8661 5.1896 42.8661 5.39498C42.8661 5.60036 42.7472 5.60671 42.8661 5.87774C42.9849 6.14876 43.0635 5.96878 43.1548 6.23345C43.246 6.49812 43.1548 6.496 43.2736 6.58917C43.3624 6.68079 43.4695 6.75267 43.588 6.80011C43.7065 6.84754 43.8338 6.86946 43.9614 6.86442C44.3307 6.83901 45.7699 6.62304 45.8485 7.38317C45.9143 7.95909 45.7551 8.8505 45.7721 9.32055Z" fill="white"/>
<path d="M44.4033 1.63671C44.3248 1.74046 44.0212 2.19146 44.0212 2.46671C44.0212 2.74197 43.9151 3.27131 44.2441 3.56562C44.5731 3.85993 45.1293 3.71383 45.0762 3.37929C45.0231 3.04475 45.4328 2.84572 45.6048 2.78008C45.7767 2.71444 45.7894 2.04748 45.6451 1.84209C45.5007 1.63671 44.9319 1.5139 44.7068 1.53508C44.5973 1.53507 44.4907 1.57076 44.4033 1.63671Z" fill="white"/>
<path d="M48.4361 2.06027C48.2981 1.88241 47.9606 1.6368 47.882 1.92264C47.8035 2.20848 48.0391 2.11955 47.882 2.37787C47.7249 2.63619 47.5848 2.65313 47.5657 2.87122C47.5466 3.0893 47.4851 3.22693 47.6825 3.40479C47.8799 3.58265 48.2981 3.4429 48.4361 3.4429C48.574 3.4429 48.7927 3.50219 48.8924 3.32433C48.9448 3.15752 48.9448 2.97874 48.8924 2.81193L48.4955 2.23813L48.4361 2.06027Z" fill="white"/>
<path d="M51.0768 5.95605C50.9048 6.59929 50.5961 7.19808 50.1716 7.71176C49.7471 8.22544 49.2167 8.64196 48.6165 8.93305C48.5895 8.86202 48.5375 8.80328 48.4701 8.7679C48.2705 8.67474 48.3045 8.47147 48.2451 8.20045C48.1856 7.92943 48.0795 8.03741 47.9606 7.8532C47.9015 7.77332 47.8653 7.67887 47.8559 7.58001C47.8466 7.48115 47.8644 7.38161 47.9075 7.2921C48.0009 7.10789 47.9203 7.14812 48.3045 6.95756C48.4661 6.87355 48.6392 6.81362 48.8182 6.77971C49.0946 6.70471 49.3831 6.68456 49.6673 6.72042C49.9645 6.76065 50.5503 6.18049 51.0768 5.95605Z" fill="white"/>
<path d="M51.2318 4.76837C51.2318 4.89965 51.2318 5.02881 51.2149 5.15585C51.1156 5.13035 51.0248 5.07923 50.9516 5.00763C50.9102 4.90128 50.8963 4.78621 50.9113 4.67309C50.9113 4.55452 50.5165 4.09929 50.5165 4.09929L50.0919 4.39572C50.0808 4.53171 50.0808 4.66838 50.0919 4.80437C50.111 4.92294 50.4401 5.1008 50.4613 5.24478C50.4624 5.28177 50.4717 5.31806 50.4886 5.35101C50.5055 5.38397 50.5295 5.41277 50.5589 5.43534C50.5589 5.43534 50.3806 6.10442 50.336 5.58779C50.3233 5.43746 50.1959 5.5285 50.1959 5.4311C50.1959 5.33371 49.9009 5.16643 49.9009 5.16643C49.8242 5.03379 49.72 4.91901 49.5952 4.82978C49.3384 4.61804 48.7652 5.33159 48.7652 5.33159C48.8233 5.74173 48.8233 6.15798 48.7652 6.56812C48.4558 6.77704 48.1093 6.92509 47.7442 7.0043C47.5213 7.0043 47.1689 5.83764 47.1689 5.71906C47.1689 5.60049 47.4067 5.50733 47.5404 5.33159C47.6742 5.15585 47.585 4.77049 47.6253 4.43595C47.6657 4.1014 47.723 4.23903 47.723 4.17975C47.723 4.12046 48.001 3.90237 48.2388 3.71605C48.4765 3.52972 48.3959 3.68429 48.6931 3.71605C48.9902 3.74781 49.2683 3.2714 49.4466 3.15918C49.6249 3.04696 49.7035 3.19306 49.8415 3.15918C49.9794 3.1253 49.9603 3.09566 50.1195 3.01944C50.2787 2.94321 50.1599 2.71877 50.1195 2.48163C50.0647 2.15488 49.9874 1.83228 49.8882 1.51611C50.749 2.38067 51.2321 3.54983 51.2318 4.76837Z" fill="white"/>
<path d="M20.0406 47.2107H18.0537V58.0177H20.0406V47.2107Z" fill="#E0E0E0"/>
<path d="M24.4302 44.0684H22.4434V58.0175H24.4302V44.0684Z" fill="#E0E0E0"/>
<path d="M28.8179 49.417H26.8311V58.0198H28.8179V49.417Z" fill="#E0E0E0"/>
<path d="M33.2056 45.2478H31.2188V58.0176H33.2056V45.2478Z" fill="#E0E0E0"/>
<path d="M37.5933 42.3174H35.6064V58.0176H37.5933V42.3174Z" fill="#E0E0E0"/>
<path d="M41.981 47.8755H39.9941V58.0176H41.981V47.8755Z" fill="#E0E0E0"/>
<path d="M20.0406 50.1941H18.0537V58.0177H20.0406V50.1941Z" fill="#4AAFFF"/>
<path d="M24.4302 47.9199H22.4434V58.0176H24.4302V47.9199Z" fill="#4AAFFF"/>
<path d="M28.8179 51.7905H26.8311V58.0177H28.8179V51.7905Z" fill="#4AAFFF"/>
<path d="M33.2056 48.7732H31.2188V58.0176H33.2056V48.7732Z" fill="#4AAFFF"/>
<path d="M37.5933 46.6516H35.6064V58.0176H37.5933V46.6516Z" fill="#4AAFFF"/>
<path d="M41.981 50.6746H39.9941V58.0175H41.981V50.6746Z" fill="#4AAFFF"/>
<path d="M9.5353 63.9821C9.60007 64.0871 9.64403 64.2036 9.66479 64.3251C9.70022 64.4655 9.75374 64.6007 9.82399 64.7274C9.90816 64.9457 9.9728 65.1711 10.0172 65.4007C9.97584 65.5487 9.94534 65.6994 9.92588 65.8517C9.94074 65.9491 9.99593 66.1418 9.9089 66.1545C9.82187 66.1672 9.7221 66.0105 9.7221 66.0105C9.72431 66.0352 9.71926 66.0599 9.70757 66.0817C9.69588 66.1036 9.67806 66.1215 9.6563 66.1333C9.62403 66.1519 9.58742 66.1617 9.55016 66.1617C9.5129 66.1617 9.47629 66.1519 9.44403 66.1333C9.44403 66.1333 9.39096 66.2329 9.32303 66.2456C9.2875 66.2554 9.25032 66.2578 9.21381 66.2527C9.1773 66.2476 9.14223 66.2351 9.11076 66.2159C9.06236 66.2518 9.00332 66.2704 8.94306 66.2689C8.90481 66.2682 8.86745 66.2572 8.83494 66.2371C8.80243 66.2169 8.77598 66.1884 8.75839 66.1545C8.75839 66.1545 8.59281 66.1884 8.54611 66.1101C8.51327 66.0378 8.49317 65.9605 8.48668 65.8814C8.47219 65.4873 8.54465 65.0948 8.69895 64.7317C8.75875 64.5885 8.78506 64.4336 8.77586 64.2788C8.76667 64.124 8.72221 63.9733 8.64588 63.8381L9.5353 63.9821Z" fill="#EEA886"/>
<path d="M9.73485 65.9514C9.73485 65.9514 9.7497 65.3882 9.60111 65.2675C9.45252 65.1468 9.43554 65.3501 9.43554 65.3501C9.43554 65.3501 9.45465 65.1383 9.29332 65.1235C9.13199 65.1087 9.1235 65.3352 9.1235 65.3352C9.11955 65.3137 9.11118 65.2932 9.0989 65.275C9.08663 65.2569 9.07072 65.2414 9.05218 65.2297C9.03364 65.218 9.01287 65.2102 8.99117 65.2069C8.96947 65.2035 8.94731 65.2047 8.92609 65.2103C8.75415 65.2421 8.7966 65.4411 8.7966 65.4411C8.7966 65.4411 8.63315 65.2463 8.52702 65.4411C8.478 65.5488 8.45264 65.6658 8.45264 65.7841C8.45264 65.9024 8.478 66.0194 8.52702 66.1271C8.52702 66.1271 8.57796 66.2139 8.73929 66.1716C8.75524 66.2022 8.77806 66.2288 8.80598 66.2492C8.8339 66.2696 8.86616 66.2833 8.90025 66.2892C8.93434 66.2952 8.96935 66.2932 9.00255 66.2834C9.03575 66.2737 9.06624 66.2564 9.09166 66.233C9.09166 66.233 9.34002 66.3685 9.4313 66.1504C9.46426 66.1661 9.50073 66.1731 9.53717 66.1706C9.57362 66.1681 9.6088 66.1563 9.63932 66.1363C9.66985 66.1162 9.69468 66.0887 9.71141 66.0563C9.72814 66.0239 9.73622 65.9878 9.73485 65.9514Z" fill="#DB9C7C"/>
<path d="M11.4457 55.8621C11.4457 55.8621 10.4778 59.0784 10.1509 60.2641C10.049 60.6367 9.80063 64.1897 9.75605 64.3336C9.71148 64.4776 8.48242 64.6724 8.48242 64.6724C8.48242 64.6724 8.63101 60.226 8.64587 59.9846C8.66073 59.7432 10.0002 54.7823 10.3844 54.6023C10.6773 54.4689 10.8302 54.579 11.1995 54.85C11.7196 55.2333 11.4457 55.8621 11.4457 55.8621Z" fill="#323657"/>
<path d="M16.6103 56.7238L16.8608 56.6307C16.8608 56.6307 16.5488 55.9023 16.4129 55.9192C16.2943 55.9373 16.1767 55.9614 16.0605 55.9912L16.6103 56.7238Z" fill="#EAD8CF"/>
<path d="M16.6677 56.8488C16.6359 56.8255 16.137 55.8706 16.137 55.8706L15.0757 56.0146L15.6531 57.1474L16.6677 56.8488Z" fill="#DA9B5B"/>
<path d="M10.658 77.8234C10.658 77.8234 10.5689 78.4332 10.5583 78.5243C10.5476 78.6153 9.57756 78.4713 9.57756 78.4713L9.49902 77.7451C9.49902 77.7451 10.537 77.7366 10.658 77.8234Z" fill="#424773"/>
<path d="M10.5692 78.4479C10.7428 78.6534 10.9468 78.8312 11.1742 78.9752C11.4713 79.1361 11.9383 79.1996 12.1145 79.3648C12.2398 79.4854 12.5751 80 11.3418 80C10.1085 80 9.51206 80.072 9.37833 79.875C9.2446 79.6781 9.57149 78.4141 9.57149 78.4141C9.8987 78.4898 10.2376 78.5013 10.5692 78.4479Z" fill="#292C47"/>
<path d="M17.6014 77.8234C17.6014 77.8234 17.5122 78.4332 17.5016 78.5243C17.491 78.6153 16.5209 78.4713 16.5209 78.4713L16.4424 77.7451C16.4424 77.7451 17.4868 77.7366 17.6014 77.8234Z" fill="#424773"/>
<path d="M17.5186 78.4479C17.6922 78.6533 17.8962 78.8311 18.1236 78.9751C18.4208 79.136 19.514 79.2673 19.6902 79.4345C19.8175 79.5531 20.0277 80.0359 18.2913 79.9914C17.058 79.9597 16.4615 80.0634 16.3299 79.8665C16.1983 79.6696 16.5209 78.4055 16.5209 78.4055C16.5209 78.4055 16.7969 78.5177 17.5186 78.4479Z" fill="#292C47"/>
<path d="M11.4607 62.1338C11.4607 62.1338 10.5501 63.5778 10.6116 64.8863C10.6732 66.1949 10.2805 67.6177 10.1446 68.9813C9.99181 70.5016 9.3656 74.1011 9.34438 74.9099C9.32315 75.7187 9.4399 78.321 9.4399 78.321L10.6923 78.3506C10.6923 78.3506 11.7409 72.0557 12.0126 71.4141C12.2843 70.7726 13.6344 66.1949 13.679 65.6804C13.7235 65.1658 11.4607 62.1338 11.4607 62.1338Z" fill="#292C47"/>
<path d="M16.2578 62.3286C16.2578 62.3286 16.9456 65.907 17.0369 66.7073C17.1281 67.5077 17.1876 70.5736 17.2321 71.0733C17.2767 71.573 17.6567 77.5948 17.7777 78.3528H16.1793C16.1793 78.3528 14.9502 73.9635 14.9502 71.8864C14.9502 69.8092 14.0035 67.3743 13.3921 66.0044C12.7808 64.6344 11.3777 64.6006 11.002 62.0597C11.002 62.0597 15.7505 61.524 16.2578 62.3286Z" fill="#292C47"/>
<path d="M12.9825 49.9887C12.9825 49.9887 14.2052 49.5334 14.7699 50.4629C15.3345 51.3925 15.2793 53.2515 14.6616 53.4802C14.0439 53.7089 13.1184 53.5882 12.8042 53.008C12.4901 52.4279 12.2035 51.5851 12.2162 51.024C12.229 50.4629 12.6599 50.1517 12.9825 49.9887Z" fill="#EEA886"/>
<path d="M14.5302 53.5225C14.502 53.6864 14.5129 53.8547 14.562 54.0137C14.647 54.1767 12.9785 54.181 12.9785 54.181C12.8893 53.629 12.7581 53.0847 12.5858 52.5527C12.3289 51.8053 14.5302 53.5225 14.5302 53.5225Z" fill="#EEA886"/>
<path d="M12.5858 52.5527C12.5858 52.5527 12.7004 52.7411 13.1717 52.667C13.6429 52.5929 14.2161 51.9704 14.4114 51.9027C14.6066 51.8349 14.6088 51.7184 14.6088 51.7184L14.7319 51.8984L14.9442 51.9111C14.9442 51.9111 14.7531 51.3521 15.0397 51.1235C15.3262 50.8948 14.7425 49.3174 13.2332 49.8425C13.2332 49.8425 12.0764 50.1622 12.1188 50.8186C12.1613 51.475 12.3268 52.2245 12.5858 52.5527Z" fill="#323657"/>
<path d="M14.6615 53.9946C14.6615 53.9946 14.6615 53.6834 14.515 53.6537C14.3685 53.6241 12.9612 53.4886 12.7871 53.5563V53.9184C12.7871 53.9184 13.1204 54.1238 14.6615 53.9946Z" fill="#E2D2CA"/>
<path d="M14.5787 51.4793C14.5511 51.3692 14.2709 51.0558 14.1542 51.3903C14.0375 51.7249 14.3176 52.1822 14.4684 52.1441C14.6191 52.106 14.6445 51.7588 14.5787 51.4793Z" fill="#EEA886"/>
<path d="M12.6344 50.0986C12.6344 50.0986 11.0742 50.2214 12.5856 52.5526L12.6344 50.0986Z" fill="#323657"/>
<path d="M23.263 50.5731C23.2454 50.5256 23.2171 50.4827 23.1803 50.4478C23.1435 50.4129 23.0992 50.387 23.0507 50.3719C22.984 50.2959 22.8972 50.2401 22.8002 50.211C22.798 50.2034 22.7944 50.1962 22.7896 50.1898C22.9 50.0713 23.2142 49.8489 23.2396 49.8066C23.2651 49.7642 23.2566 49.7515 23.1951 49.7177C23.1335 49.6838 22.6177 50.0289 22.4436 50.1411L22.3587 50.2004C22.2769 50.2444 22.2001 50.2969 22.1294 50.3571L22.104 50.3867C21.9813 50.7121 21.8834 51.0461 21.811 51.3861L22.1761 51.5492L22.5285 51.8477C22.5285 51.8477 22.9403 51.5068 23.0443 51.401C23.1207 51.3169 23.1831 51.2211 23.229 51.1172C23.2388 51.0993 23.2502 51.0823 23.263 51.0664C23.3097 51.0008 23.384 50.9161 23.384 50.9161C23.4108 50.8605 23.4294 50.8013 23.4392 50.7403C23.4285 50.6387 23.263 50.5731 23.263 50.5731Z" fill="#EFAA88"/>
<path d="M17.0007 54.4648C16.0306 54.3356 14.6657 53.9947 14.6657 53.9947L12.7914 53.9185C12.7914 53.9185 11.072 54.2954 10.3927 54.6024C10.329 54.6299 10.329 56.1333 10.1528 56.5271L10.7132 57.7086C10.7132 57.7086 11.038 60.0504 11.1059 61.0963C11.1378 61.5727 10.4373 65.5788 10.4373 65.5788C11.103 65.7529 11.7816 65.874 12.4666 65.9408C13.7402 66.0806 16.9434 65.89 16.9625 65.7291C16.9816 65.5682 16.3427 60.1181 16.3257 59.8344C16.2832 59.4003 16.4764 57.0924 16.4764 57.0924C16.7715 56.8659 19.3654 55.6632 20.0723 55.0386C20.2612 54.8713 21.0615 54.0942 21.2886 53.8253C22.0931 52.8768 22.7533 52.0637 22.8318 51.888C22.9231 51.7884 21.9594 51.2655 21.8703 51.2358C21.7811 51.2062 20.707 52.6163 20.2888 53.0673C19.9817 53.3393 19.6599 53.5944 19.3251 53.8317C19.3251 53.8317 17.6015 54.4987 17.0007 54.4648Z" fill="#323657"/>
<path d="M33.4647 39.6284H18.2596C18.1459 39.6284 18.0537 39.7204 18.0537 39.8338V40.5706C18.0537 40.6841 18.1459 40.776 18.2596 40.776H33.4647C33.5784 40.776 33.6706 40.6841 33.6706 40.5706V39.8338C33.6706 39.7204 33.5784 39.6284 33.4647 39.6284Z" fill="#E0E0E0"/>
<path d="M27.8012 37.187H18.2596C18.1459 37.187 18.0537 37.279 18.0537 37.3924V38.1292C18.0537 38.2427 18.1459 38.3346 18.2596 38.3346H27.8012C27.915 38.3346 28.0072 38.2427 28.0072 38.1292V37.3924C28.0072 37.279 27.915 37.187 27.8012 37.187Z" fill="#E0E0E0"/>
<path d="M30.2848 34.8982H18.2596C18.1459 34.8982 18.0537 34.9901 18.0537 35.1036V35.8404C18.0537 35.9538 18.1459 36.0458 18.2596 36.0458H30.2848C30.3986 36.0458 30.4907 35.9538 30.4907 35.8404V35.1036C30.4907 34.9901 30.3986 34.8982 30.2848 34.8982Z" fill="#E0E0E0"/>
<path d="M36.1287 32.5564H18.2596C18.1459 32.5564 18.0537 32.6484 18.0537 32.7618V33.4986C18.0537 33.6121 18.1459 33.704 18.2596 33.704H36.1287C36.2424 33.704 36.3346 33.6121 36.3346 33.4986V32.7618C36.3346 32.6484 36.2424 32.5564 36.1287 32.5564Z" fill="#E0E0E0"/>
<path d="M24.5004 30.3354H18.2596C18.1459 30.3354 18.0537 30.4274 18.0537 30.5408V31.2777C18.0537 31.3911 18.1459 31.4831 18.2596 31.4831H24.5004C24.6141 31.4831 24.7063 31.3911 24.7063 31.2777V30.5408C24.7063 30.4274 24.6141 30.3354 24.5004 30.3354Z" fill="#E0E0E0"/>
<path d="M65.5051 39.0631C67.158 38.4334 68.4978 37.1828 69.2373 35.5794C69.9767 33.976 70.057 32.1475 69.4609 30.4858C68.8648 28.824 67.6397 27.4614 66.0483 26.69C64.4569 25.9185 62.6258 25.7997 60.9476 26.359C60.8054 26.4098 60.6632 26.4648 60.5231 26.5262C58.9117 27.2236 57.6355 28.5187 56.9642 30.1377C56.293 31.7568 56.2793 33.5727 56.9261 35.2016C57.5729 36.8305 58.8295 38.1446 60.4301 38.8661C62.0308 39.5875 63.8499 39.6597 65.503 39.0673L65.5051 39.0631ZM58.4492 34.4049C58.102 33.4372 58.0582 32.387 58.3236 31.3939C58.589 30.4008 59.151 29.5117 59.9351 28.8447C60.3144 28.522 60.7401 28.2579 61.1981 28.0613C61.3 28.0169 61.4104 27.9745 61.5144 27.9364C62.1414 27.7127 62.8065 27.6144 63.4717 27.6471C64.1369 27.6798 64.7891 27.8428 65.391 28.1269C65.993 28.411 66.533 28.8106 66.9802 29.3029C67.4273 29.7952 67.7729 30.3705 67.9972 30.996C68.4246 32.2532 68.3397 33.6276 67.7606 34.823C67.1816 36.0183 66.1548 36.9388 64.9017 37.386C63.6485 37.8332 62.2694 37.7714 61.0616 37.2137C59.8538 36.656 58.914 35.6473 58.4449 34.4049H58.4492Z" fill="#4AAFFF"/>
<path d="M64.7388 27.8791L65.2419 26.2678C66.5849 26.6874 67.7636 27.5136 68.6145 28.6318C69.4655 29.7499 69.9463 31.1046 69.9904 32.5077L68.2922 32.5585C68.2575 31.5069 67.8965 30.4919 67.2588 29.6538C66.6212 28.8156 65.7384 28.1955 64.7324 27.8791H64.7388Z" fill="#1A598C"/>
<path d="M61.2021 28.0699L60.5249 26.5221C60.6629 26.4607 60.8051 26.4056 60.9494 26.3548C62.3329 25.8586 63.8412 25.8281 65.2437 26.268L64.7406 27.8793C63.6889 27.5499 62.5579 27.5729 61.5205 27.945C61.4101 27.9831 61.3039 28.0254 61.2021 28.0699Z" fill="#2273B5"/>
<path d="M58.8418 27.5679C59.348 27.1382 59.9153 26.7858 60.5251 26.522L61.2023 28.0698C60.7443 28.2664 60.3186 28.5304 59.9392 28.8532L58.8418 27.5679Z" fill="#5CAEF2"/>
<path d="M53.1613 30.4243H49.3255C49.1274 30.4243 48.9668 30.5845 48.9668 30.7821V31.0362C48.9668 31.2339 49.1274 31.3941 49.3255 31.3941H53.1613C53.3594 31.3941 53.52 31.2339 53.52 31.0362V30.7821C53.52 30.5845 53.3594 30.4243 53.1613 30.4243Z" fill="#78C2FF"/>
<path d="M48.6994 34.9829H44.8636C44.6655 34.9829 44.5049 35.1431 44.5049 35.3407V35.5948C44.5049 35.7925 44.6655 35.9527 44.8636 35.9527H48.6994C48.8975 35.9527 49.0581 35.7925 49.0581 35.5948V35.3407C49.0581 35.1431 48.8975 34.9829 48.6994 34.9829Z" fill="#4AAFFF"/>
<path d="M53.6178 39.7173H49.7821C49.584 39.7173 49.4233 39.8775 49.4233 40.0751V40.3292C49.4233 40.5268 49.584 40.687 49.7821 40.687H53.6178C53.816 40.687 53.9766 40.5268 53.9766 40.3292V40.0751C53.9766 39.8775 53.816 39.7173 53.6178 39.7173Z" fill="#2273B5"/>
<path d="M61.3678 42.9187H57.5321C57.334 42.9187 57.1733 43.0789 57.1733 43.2765V43.5306C57.1733 43.7282 57.334 43.8884 57.5321 43.8884H61.3678C61.566 43.8884 61.7266 43.7282 61.7266 43.5306V43.2765C61.7266 43.0789 61.566 42.9187 61.3678 42.9187Z" fill="#1A598C"/>
<path d="M46.3091 57.0203L46.1138 56.8107L51.2041 52.0213L56.3559 53.1329L61.2764 47.5367L65.5685 47.7781L68.9118 43.1792L69.1432 43.3465L65.7086 48.0724L61.3995 47.8289L56.4599 53.4505L51.2911 52.3325L46.3091 57.0203Z" fill="#4AAFFF"/>
<path d="M57.1543 53.1307C57.1861 53.278 57.1734 53.4315 57.1179 53.5717C57.0623 53.7118 56.9663 53.8324 56.842 53.9182C56.7177 54.0039 56.5707 54.051 56.4196 54.0534C56.2685 54.0559 56.1201 54.0136 55.9931 53.9319C55.8661 53.8502 55.7662 53.7328 55.7061 53.5945C55.646 53.4562 55.6284 53.3032 55.6554 53.1549C55.6824 53.0066 55.753 52.8696 55.858 52.7613C55.9631 52.653 56.098 52.5781 56.2457 52.5463C56.3439 52.5251 56.4452 52.5234 56.544 52.5414C56.6428 52.5593 56.737 52.5964 56.8214 52.6507C56.9058 52.705 56.9786 52.7753 57.0357 52.8576C57.0928 52.94 57.1331 53.0328 57.1543 53.1307Z" fill="white"/>
<path d="M56.6002 54.1768C56.4245 54.2151 56.2414 54.2006 56.074 54.135C55.9066 54.0694 55.7625 53.9558 55.6599 53.8085C55.5573 53.6611 55.5009 53.4868 55.4977 53.3074C55.4945 53.1281 55.5448 52.9518 55.6421 52.801C55.7395 52.6501 55.8795 52.5315 56.0445 52.4601C56.2095 52.3887 56.392 52.3678 56.5689 52.3999C56.7458 52.4321 56.9092 52.5159 57.0383 52.6407C57.1675 52.7655 57.2566 52.9258 57.2943 53.1012C57.3448 53.3356 57.3001 53.5804 57.17 53.782C57.0399 53.9836 56.835 54.1255 56.6002 54.1768ZM56.2754 52.6946C56.1551 52.7205 56.0452 52.7814 55.9596 52.8696C55.874 52.9578 55.8166 53.0693 55.7945 53.1901C55.7725 53.3109 55.7869 53.4355 55.8359 53.5481C55.8849 53.6607 55.9663 53.7563 56.0698 53.8228C56.1733 53.8892 56.2943 53.9235 56.4173 53.9214C56.5404 53.9192 56.66 53.8807 56.7611 53.8107C56.8622 53.7407 56.9402 53.6424 56.9853 53.5281C57.0303 53.4139 57.0404 53.2889 57.0141 53.1689C56.9977 53.0887 56.9655 53.0125 56.9195 52.9447C56.8734 52.8769 56.8143 52.8189 56.7456 52.7741C56.6769 52.7292 56.6 52.6983 56.5193 52.6832C56.4386 52.6681 56.3557 52.6691 56.2754 52.6862V52.6946Z" fill="#4AAFFF"/>
<path d="M62.0854 47.5706C62.1176 47.7184 62.1052 47.8724 62.0497 48.0131C61.9942 48.1539 61.8981 48.275 61.7736 48.3613C61.6491 48.4475 61.5017 48.495 61.3501 48.4976C61.1985 48.5003 61.0495 48.458 60.922 48.3762C60.7945 48.2944 60.6942 48.1767 60.6338 48.0379C60.5734 47.8992 60.5556 47.7458 60.5826 47.597C60.6097 47.4482 60.6804 47.3107 60.7858 47.202C60.8912 47.0933 61.0265 47.0182 61.1747 46.9863C61.3731 46.9435 61.5805 46.981 61.7512 47.0905C61.922 47.2001 62.0421 47.3728 62.0854 47.5706Z" fill="white"/>
<path d="M61.5294 48.6165C61.3538 48.6543 61.1709 48.6394 61.0038 48.5735C60.8367 48.5076 60.6929 48.3938 60.5907 48.2465C60.4884 48.0991 60.4323 47.9248 60.4293 47.7457C60.4264 47.5665 60.4767 47.3904 60.574 47.2398C60.6713 47.0892 60.8112 46.9707 60.9761 46.8994C61.1409 46.828 61.3232 46.807 61.5 46.839C61.6767 46.871 61.84 46.9546 61.9692 47.0791C62.0984 47.2037 62.1876 47.3637 62.2256 47.5388C62.2509 47.6552 62.253 47.7754 62.2316 47.8925C62.2103 48.0097 62.1661 48.1215 62.1014 48.2216C62.0368 48.3217 61.953 48.4081 61.8548 48.4758C61.7566 48.5436 61.6461 48.5914 61.5294 48.6165ZM61.2046 47.1344C61.0845 47.1606 60.9749 47.2218 60.8896 47.3102C60.8043 47.3985 60.7472 47.5101 60.7255 47.6309C60.7038 47.7516 60.7184 47.876 60.7676 47.9885C60.8168 48.1009 60.8982 48.1962 61.0017 48.2625C61.1052 48.3288 61.2261 48.3629 61.349 48.3607C61.472 48.3584 61.5915 48.3199 61.6925 48.2499C61.7935 48.18 61.8714 48.0817 61.9164 47.9676C61.9615 47.8534 61.9716 47.7285 61.9454 47.6087C61.929 47.5282 61.8968 47.4518 61.8506 47.3839C61.8043 47.3159 61.745 47.2578 61.6761 47.2129C61.6072 47.168 61.5301 47.1372 61.4491 47.1223C61.3682 47.1073 61.2851 47.1086 61.2046 47.1259V47.1344Z" fill="#4AAFFF"/>
<path d="M66.3456 47.7401C66.3779 47.8878 66.3655 48.0418 66.31 48.1826C66.2545 48.3233 66.1584 48.4445 66.0339 48.5307C65.9093 48.6169 65.7619 48.6644 65.6103 48.667C65.4587 48.6697 65.3098 48.6274 65.1823 48.5456C65.0548 48.4638 64.9544 48.3461 64.894 48.2074C64.8336 48.0687 64.8158 47.9152 64.8429 47.7664C64.8699 47.6176 64.9406 47.4801 65.046 47.3714C65.1514 47.2627 65.2868 47.1876 65.435 47.1557C65.6334 47.1129 65.8407 47.1504 66.0115 47.26C66.1822 47.3695 66.3024 47.5422 66.3456 47.7401Z" fill="white"/>
<path d="M65.7872 48.7859C65.6115 48.8238 65.4284 48.8089 65.2612 48.743C65.094 48.6771 64.9502 48.5632 64.8479 48.4158C64.7456 48.2683 64.6895 48.0939 64.6866 47.9146C64.6838 47.7353 64.7343 47.5592 64.8318 47.4086C64.9293 47.2579 65.0694 47.1395 65.2344 47.0683C65.3994 46.9972 65.5819 46.9764 65.7587 47.0087C65.9355 47.041 66.0988 47.1249 66.2278 47.2498C66.3568 47.3747 66.4457 47.5349 66.4834 47.7102C66.5332 47.9449 66.488 48.1897 66.3576 48.3912C66.2271 48.5927 66.0221 48.7346 65.7872 48.7859ZM65.4645 47.3037C65.3442 47.3296 65.2343 47.3905 65.1487 47.4787C65.0631 47.5669 65.0056 47.6784 64.9836 47.7992C64.9616 47.92 64.976 48.0446 65.025 48.1572C65.074 48.2698 65.1554 48.3654 65.2589 48.4318C65.3624 48.4983 65.4833 48.5326 65.6064 48.5305C65.7294 48.5283 65.8491 48.4898 65.9502 48.4198C66.0513 48.3498 66.1293 48.2515 66.1743 48.1372C66.2194 48.023 66.2294 47.898 66.2032 47.778C66.187 47.6979 66.1551 47.6217 66.1092 47.5539C66.0633 47.4862 66.0044 47.4282 65.9359 47.3833C65.8674 47.3384 65.7907 47.3075 65.7101 47.2924C65.6296 47.2773 65.5468 47.2782 65.4666 47.2952L65.4645 47.3037Z" fill="#4AAFFF"/>
<path d="M51.9897 52.0848C52.0216 52.2321 52.0089 52.3856 51.9533 52.5258C51.8977 52.6659 51.8017 52.7865 51.6775 52.8723C51.5532 52.958 51.4062 53.0051 51.2551 53.0075C51.104 53.01 50.9556 52.9677 50.8285 52.886C50.7015 52.8043 50.6017 52.6869 50.5416 52.5486C50.4815 52.4103 50.4638 52.2573 50.4908 52.109C50.5179 51.9607 50.5884 51.8237 50.6935 51.7154C50.7986 51.6071 50.9335 51.5322 51.0812 51.5004C51.1793 51.4792 51.2807 51.4775 51.3794 51.4955C51.4782 51.5134 51.5725 51.5505 51.6568 51.6048C51.7412 51.6591 51.814 51.7294 51.8712 51.8117C51.9283 51.8941 51.9686 51.9869 51.9897 52.0848Z" fill="white"/>
<path d="M51.4357 53.1329C51.2601 53.1711 51.0771 53.1566 50.9098 53.091C50.7425 53.0255 50.5985 52.9119 50.496 52.7647C50.3934 52.6175 50.3369 52.4432 50.3336 52.264C50.3304 52.0847 50.3805 51.9085 50.4776 51.7577C50.5748 51.6069 50.7146 51.4882 50.8794 51.4166C51.0442 51.3451 51.2265 51.3239 51.4034 51.3557C51.5803 51.3876 51.7437 51.471 51.873 51.5955C52.0023 51.72 52.0917 51.88 52.1298 52.0552C52.181 52.2899 52.1366 52.5353 52.0064 52.7374C51.8762 52.9394 51.671 53.0817 51.4357 53.1329ZM51.1109 51.6508C50.9906 51.6766 50.8807 51.7375 50.7951 51.8257C50.7095 51.9139 50.6521 52.0255 50.63 52.1463C50.608 52.2671 50.6224 52.3917 50.6714 52.5043C50.7204 52.6169 50.8018 52.7125 50.9053 52.7789C51.0088 52.8453 51.1298 52.8797 51.2528 52.8775C51.3759 52.8754 51.4955 52.8369 51.5966 52.7669C51.6977 52.6969 51.7757 52.5985 51.8208 52.4843C51.8658 52.37 51.8759 52.245 51.8496 52.1251C51.8332 52.0448 51.801 51.9686 51.755 51.9009C51.7089 51.8331 51.6498 51.7751 51.5811 51.7302C51.5124 51.6853 51.4355 51.6545 51.3548 51.6394C51.2741 51.6243 51.1912 51.6253 51.1109 51.6423V51.6508Z" fill="#4AAFFF"/>
<path d="M53.6095 55.083H50.4785V55.6843H53.6095V55.083Z" fill="#E0E0E0"/>
<path d="M55.7873 48.9109H52.6562V49.5122H55.7873V48.9109Z" fill="#E0E0E0"/>
<path d="M62.2804 53.2112H59.1494V53.8125H62.2804V53.2112Z" fill="#E0E0E0"/>
<path d="M65.089 44.7651H61.958V45.3665H65.089V44.7651Z" fill="#E0E0E0"/>
<path d="M69.6378 49.7981H66.5068V50.3994H69.6378V49.7981Z" fill="#E0E0E0"/>
<path d="M78.063 57.6915C78.063 57.6915 76.904 55.0723 78.2498 55.2883C78.6152 55.622 78.928 56.0089 79.1775 56.4359C79.532 57.0182 80.2728 58.5532 80.2388 59.0826C80.2049 59.6119 79.8398 59.9931 79.4386 60.8315C79.4386 60.8315 78.6043 62.3857 78.5683 62.5741L77.6852 62.1168C77.6852 62.1168 78.4324 60.6346 78.9588 59.3219L78.063 57.6915Z" fill="#275070"/>
<path d="M85.3765 62.5308L67.606 59.5137L67.0916 62.5278L84.8622 65.5449L85.3765 62.5308Z" fill="url(#paint10_linear_1061_4778)"/>
<path d="M67.5355 59.8868L66.5854 59.7253L66.1947 62.013L67.1447 62.1745L67.5355 59.8868Z" fill="#2D3038"/>
<path d="M71.3489 79.8962H71.1366C71.1366 79.8962 71.2109 79.0705 71.0071 79.0641C70.8033 79.0577 70.3024 79.7332 70.0031 79.8391C69.7038 79.9449 68.1627 80.0339 68.1563 79.7501C68.1499 79.4664 68.7464 79.3542 68.9332 79.2737C69.12 79.1933 70.0264 78.3124 70.1899 78.215C70.3533 78.1176 70.6271 77.3787 70.6271 77.3787L71.4869 77.3406C71.4869 77.3406 71.5357 78.0245 71.5887 78.3865C71.6061 78.4988 71.6175 78.6119 71.6227 78.7253C71.5696 79.1235 71.4779 79.5157 71.3489 79.8962Z" fill="#EEA886"/>
<path d="M76.8872 79.7331H76.7047V78.9645C76.5518 78.9772 76.0424 79.46 75.8832 79.5997C75.724 79.7394 75.5096 79.7331 74.843 79.7754C74.1765 79.8178 74.1149 79.4197 74.2211 79.2842C74.3272 79.1487 74.6669 79.0894 74.843 79.0047C75.0192 78.92 75.7197 78.1345 75.9044 77.9461C76.0514 77.7292 76.1532 77.4851 76.2037 77.2283L76.9806 77.296C76.9805 77.5966 77.0089 77.8965 77.0655 78.1917C77.0655 78.2255 77.0804 78.2594 77.091 78.2933C77.2078 78.7252 76.8872 79.7331 76.8872 79.7331Z" fill="#EEA886"/>
<path d="M74.0108 62.3392C73.8865 62.6226 73.7794 62.9132 73.6903 63.2095C73.6648 63.3831 72.975 65.0431 72.7775 66.1611C72.6587 66.8323 72.3296 68.9284 72.3021 69.1952C72.2575 69.6505 72.041 70.6583 72.007 71.1241C71.99 71.3846 70.7036 75.3821 70.3916 77.4762C70.8223 77.5359 71.26 77.523 71.6865 77.4381C72.4899 75.7797 73.0804 74.0268 73.4441 72.2209C73.6721 70.9988 74.008 69.7992 74.4481 68.6362C74.7389 67.8782 76.3968 65.727 76.5708 65.4856C76.7449 65.2442 77.8275 63.9103 76.8022 62.4642C75.7769 61.018 74.0108 62.3392 74.0108 62.3392Z" fill="#1D3B54"/>
<path d="M77.7128 68.4816C77.6194 69.1041 77.7128 69.9214 77.9144 72.1976C78.1161 74.4737 77.5706 77.2263 77.5706 77.2263C77.0941 77.3574 76.5909 77.3574 76.1144 77.2263C76.1313 77.0654 76.1144 71.6788 76.1144 71.1982C76.1144 70.7175 75.9764 70.1734 75.9403 69.6229C75.857 69.0209 75.7243 68.4267 75.5434 67.8464C75.4839 67.6347 75.4245 67.4229 75.365 67.2112C75.3311 67.0969 75.2992 66.9825 75.2674 66.8724C74.9893 65.9133 74.6157 62.2142 74.6157 62.2142C74.6157 62.2142 76.6854 60.5521 77.6915 62.1169C78.6977 63.6816 78.1819 64.8186 78.1458 65.0155C78.1097 65.2124 77.8083 67.8591 77.7128 68.4816Z" fill="#1D3B54"/>
<path d="M76.8554 65.1382C76.8405 65.1742 75.8089 67.4567 75.5435 67.8505C75.4841 67.6388 75.4247 67.427 75.3652 67.2153C75.3652 67.2153 76.8257 65.189 76.8554 65.1382Z" fill="#122536"/>
<path d="M76.8872 79.7333H76.7047V78.9647C76.5518 78.9774 76.0424 79.4601 75.8832 79.5999C75.724 79.7396 75.5096 79.7333 74.843 79.7756C74.1765 79.818 74.1149 79.4199 74.2211 79.2844C74.3272 79.1489 74.6669 79.0896 74.843 79.0049C75.5542 79.043 76.4245 78.0457 76.8405 78.0479C77.0634 78.0479 77.0528 78.1707 77.0677 78.194C77.0677 78.2278 77.0825 78.2617 77.0931 78.2956C77.2078 78.7254 76.8872 79.7333 76.8872 79.7333Z" fill="#172F42"/>
<path d="M71.3489 79.8963H71.1366C71.1366 79.8963 71.2109 79.0705 71.0071 79.0641C70.8033 79.0578 70.3024 79.7332 70.0031 79.8391C69.7038 79.945 68.1627 80.0339 68.1563 79.7502C68.1499 79.4664 68.7464 79.3542 68.9332 79.2738C69.57 79.2738 70.6017 78.575 70.9201 78.4268C71.1325 78.3426 71.3653 78.3234 71.5887 78.3718C71.6061 78.484 71.6175 78.5971 71.6227 78.7105C71.5706 79.1138 71.4788 79.5109 71.3489 79.8963Z" fill="#172F42"/>
<path d="M75.8364 53.6369C75.8364 53.6369 76.1676 54.5072 75.9107 55.1805C75.9107 55.1805 77.1207 55.1021 77.1653 54.9687C77.2098 54.8353 77.1186 53.5226 77.2841 53.1372C77.4497 52.7519 75.8364 53.6369 75.8364 53.6369Z" fill="#EEA886"/>
<path d="M75.7197 54.8862C75.7197 54.8862 75.0043 55.1402 74.6817 55.2101C74.359 55.28 73.6819 55.5997 73.7371 56.8024C73.7967 57.7252 73.9065 58.644 74.0661 59.5549C74.1301 60.3801 74.0995 61.2098 73.9748 62.028C75.2053 62.2859 76.4761 62.2859 77.7066 62.028C77.7066 62.028 77.3499 60.9376 77.3584 60.6559C77.3669 60.3743 78.5514 58.0516 78.6066 57.6917C78.6618 57.3317 78.8995 55.7098 78.3582 55.352C77.8169 54.9941 77.3775 55.0407 77.1483 54.8819C76.919 54.7231 76.0551 54.7824 75.7197 54.8862Z" fill="#285173"/>
<path d="M78.4793 63.9273C76.7572 64.3938 74.9414 64.3938 73.2192 63.9273C73.4206 63.5129 73.5819 63.0805 73.7011 62.6357C73.7778 62.3507 73.8381 62.0615 73.8815 61.7697C74.0269 60.8357 74.0025 59.8832 73.8094 58.9578C74.1469 56.182 78.3583 55.3583 78.6916 56.2349C79.0249 57.1115 78.0378 60.8931 77.9869 61.2192C77.9359 61.5452 78.4793 63.9273 78.4793 63.9273Z" fill="#285173"/>
<path d="M76.8915 50.1411C76.4054 49.9739 75.0894 49.7981 74.7518 51.8117C74.4143 53.8253 75.1488 53.8592 75.9045 53.802C76.6602 53.7449 77.8362 52.3855 77.9274 51.9726C78.0187 51.5598 78.2798 50.6154 76.8915 50.1411Z" fill="#EEA886"/>
<path d="M75.0234 50.9139C75.0234 50.9139 75.4246 51.7608 75.9532 52.0699C75.9532 52.0699 76.2822 52.9825 76.9976 53.3509C76.9976 53.3509 78.8953 52.0953 77.7936 50.5984C76.6919 49.1014 75.1487 50.3041 75.0234 50.9139Z" fill="#FCCCA2"/>
<path d="M75.9066 51.7736C75.9265 51.7294 75.9592 51.6921 76.0003 51.6664C76.0415 51.6406 76.0894 51.6276 76.1379 51.629C76.1865 51.6304 76.2336 51.646 76.2732 51.674C76.3129 51.702 76.3434 51.741 76.3608 51.7863C76.4882 52.0721 76.0297 52.5803 75.9044 52.5527C75.7792 52.5252 75.7431 52.1716 75.9066 51.7736Z" fill="#EEA886"/>
<path d="M77.7296 50.8377C77.772 50.7721 79.0266 50.1919 79.2898 51.4052C79.553 52.6184 78.2772 54.0265 78.0544 54.632C77.8315 55.2376 78.1541 56.6583 78.1541 56.6583C78.1541 56.6583 77.3878 55.9363 77.1564 55.1762C76.9017 54.3589 76.8253 52.2563 77.7296 50.8377Z" fill="#FCCCA2"/>
<path d="M77.7933 50.7953C77.5578 50.9951 77.4031 51.2736 77.3582 51.5787C77.3184 51.374 77.3475 51.1618 77.441 50.9753C77.4747 50.9133 77.5263 50.863 77.5892 50.8309C77.6521 50.7988 77.7233 50.7864 77.7933 50.7953Z" fill="#E54242"/>
<path d="M73.7007 62.6378C73.7774 62.3528 73.8377 62.0636 73.8811 61.7718C73.8811 61.7718 74.0743 61.361 74.1401 61.1662C74.2059 60.9714 74.6899 58.564 74.6899 58.564C74.6899 58.564 75.2036 60.8232 73.7007 62.6378Z" fill="#1D3B54"/>
<path d="M71.5442 62.7773C71.3937 62.9337 71.2256 63.0722 71.0432 63.1902C70.9222 63.2283 70.6866 63.0208 69.8184 62.9552C69.742 62.9552 69.6062 63.0187 69.6401 63.1182C69.7894 63.3075 69.9865 63.4537 70.2111 63.5417C70.3725 63.5819 71.1345 63.8847 71.506 63.7365C71.7708 63.5956 71.9879 63.3798 72.1301 63.1161L71.5442 62.7773Z" fill="#EEA886"/>
<path d="M74.4779 55.2756C74.4779 55.2756 73.476 55.6737 73.4165 57.0627C73.3571 58.4517 73.3019 59.18 73.2488 59.3918C73.1958 59.6035 73.0896 60.4695 72.837 60.9883C72.5844 61.507 70.9839 63.0844 70.9839 63.0844L71.7629 63.8149C71.7629 63.8149 74.0045 61.5727 74.1404 61.1619C74.2762 60.7511 74.8366 57.8969 74.8812 57.4163C74.9152 57.033 75.4289 55.3053 74.4779 55.2756Z" fill="#285173"/>
<path opacity="0.1" d="M56.6817 68.2745C62.1055 67.7393 66.0673 62.9197 65.5307 57.5096C64.9941 52.0996 60.1623 48.1478 54.7386 48.683C49.3148 49.2182 45.353 54.0378 45.8895 59.4479C46.4261 64.8579 51.2579 68.8097 56.6817 68.2745Z" fill="#B8B8B8"/>
<path opacity="0.3" d="M61.9899 51.6062C61.9899 51.6062 49.8904 50.1092 47.4811 62.8451C46.4516 60.9108 46.1395 58.6762 46.5998 56.5349C47.0601 54.3936 48.2632 52.483 49.9973 51.1397C51.7313 49.7965 53.885 49.1068 56.0788 49.1921C58.2727 49.2775 60.366 50.1323 61.9899 51.6062Z" fill="#869AC2"/>
<path d="M55.7151 47.3484C53.5087 47.348 51.3517 48.0002 49.517 49.2227C47.6823 50.4451 46.2522 52.1829 45.4076 54.2161C44.5631 56.2493 44.342 58.4867 44.7723 60.6453C45.2027 62.8038 46.2651 64.7866 47.8253 66.3428C49.3855 67.8991 51.3733 68.9588 53.5373 69.3881C55.7014 69.8173 57.9444 69.5968 59.9828 68.7544C62.0212 67.912 63.7633 66.4855 64.9889 64.6554C66.2144 62.8253 66.8683 60.6738 66.8679 58.473C66.8679 57.0121 66.5794 55.5655 66.019 54.2158C65.4585 52.8661 64.637 51.6397 63.6013 50.6067C62.5657 49.5737 61.3362 48.7543 59.9831 48.1952C58.63 47.6361 57.1797 47.3484 55.7151 47.3484ZM55.7151 67.7872C53.8679 67.7872 52.0621 67.2408 50.5261 66.2171C48.9902 65.1934 47.793 63.7384 47.0861 62.0361C46.3792 60.3337 46.1942 58.4605 46.5546 56.6533C46.915 54.8461 47.8046 53.1861 49.1108 51.8832C50.417 50.5803 52.0812 49.693 53.893 49.3335C55.7048 48.974 57.5827 49.1585 59.2894 49.8637C60.996 50.5688 62.4548 51.7629 63.481 53.295C64.5073 54.827 65.0551 56.6282 65.0551 58.4708C65.0551 59.6943 64.8135 60.9057 64.3442 62.0361C63.8748 63.1664 63.1868 64.1934 62.3195 65.0585C61.4522 65.9236 60.4226 66.6098 59.2894 67.078C58.1562 67.5462 56.9417 67.7872 55.7151 67.7872Z" fill="#3F444F"/>
<path d="M24.7637 25.4485H18.2979V26.1091H24.7637V25.4485Z" fill="#E0E0E0"/>
<path d="M30.6139 25.4485H26.0225V26.1091H30.6139V25.4485Z" fill="#E0E0E0"/>
<path d="M30.3082 27.9343H26.0225V28.5949H30.3082V27.9343Z" fill="#E0E0E0"/>
<path d="M53.6095 25.4485H49.0181V26.1091H53.6095V25.4485Z" fill="#78C2FF"/>
<path d="M37.6972 25.4485H31.8491V26.1091H37.6972V25.4485Z" fill="#1487E3"/>
<path d="M47.8715 25.4485H42.0234V26.1091H47.8715V25.4485Z" fill="#FFC055"/>
<path d="M40.9216 25.4485H38.7798V26.1091H40.9216V25.4485Z" fill="#E0E0E0"/>
<path d="M21.6475 27.9343H18.2979V28.5949H21.6475V27.9343Z" fill="#78C2FF"/>
<path d="M23.5497 27.9343H22.4692V28.5949H23.5497V27.9343Z" fill="#1487E3"/>
<path d="M53.6092 27.9343H44.6704V28.5949H53.6092V27.9343Z" fill="#E0E0E0"/>
<path d="M25.4495 27.9343H24.3457V28.5949H25.4495V27.9343Z" fill="#FFC455"/>
<path d="M43.845 27.9343H40.9199V28.5949H43.845V27.9343Z" fill="#1487E3"/>
<path d="M40.145 27.9343H33.9233V28.5949H40.145V27.9343Z" fill="#78C2FF"/>
<path d="M33.0422 27.9343H30.9004V28.5949H33.0422V27.9343Z" fill="#E0E0E0"/>
<path d="M56.3605 3.78582C56.3605 3.78582 55.3459 4.28128 55.5963 5.6258C55.8468 6.97032 55.9593 7.15241 55.6791 7.67752C55.3989 8.20262 55.0678 10.4449 55.3204 10.8705C55.573 11.2961 58.4408 9.00298 58.8399 7.0783C59.2389 5.15363 58.5873 4.30034 58.358 3.98273C58.1287 3.66513 57.2542 3.33059 56.3605 3.78582Z" fill="#16202E"/>
<path d="M56.5854 25.9291L56.7447 26.1197L57.3857 25.5268L57.2435 25.3257L56.5854 25.9291Z" fill="#EEA987"/>
<path d="M56.7444 26.1197C56.7444 26.1197 56.5767 27.1339 56.4451 27.2652C56.3135 27.3965 55.6427 28.0994 55.7934 28.2879C55.9441 28.4763 57.4109 27.4409 57.6211 27.0789C57.8312 26.7168 58.2579 26.6554 58.3258 26.2743C58.3937 25.8932 57.3855 25.5269 57.3855 25.5269L56.7444 26.1197Z" fill="#3F444F"/>
<path d="M56.1631 16.4074C56.1631 16.4074 52.0747 20.532 52.0514 21.0656C52.028 21.5992 56.4963 25.9186 56.5409 26.0752L57.3242 25.3342C57.3242 25.3342 55.3352 22.5202 54.7302 21.9168C54.4324 21.613 54.1185 21.3253 53.7899 21.055C53.7899 21.055 58.653 19.2383 59.0118 18.745C59.3705 18.2516 59.7526 17.3877 59.3493 16.598C58.946 15.8082 56.1631 16.4074 56.1631 16.4074Z" fill="#DBDFF0"/>
<path d="M55.9123 19.0669H50.5439C50.6973 19.5676 50.8116 20.0794 50.8857 20.5977C50.9897 21.379 51.289 25.5523 51.289 25.5523L50.2277 25.8551C50.3614 25.385 48.7736 19.0266 48.7035 18.7365C48.5019 17.9044 49.5866 17.7689 50.735 17.1761C51.9216 16.5663 54.8467 15.8421 54.8467 15.8421C59.0582 15.8231 55.9123 19.0669 55.9123 19.0669Z" fill="#DBDFF0"/>
<path d="M50.3765 25.8106L50.3871 26.0668L51.2277 25.8254L51.1916 25.5798L50.3765 25.8106Z" fill="#EEA987"/>
<path d="M50.3872 26.0668C50.3872 26.0668 49.7822 26.8968 49.6039 26.9561C49.4256 27.0154 48.5107 27.3415 48.5616 27.5765C48.6126 27.8115 50.3872 27.5511 50.7395 27.3161C51.0919 27.081 51.5058 27.2165 51.733 26.9138C51.9601 26.611 51.2278 25.8254 51.2278 25.8254L50.3872 26.0668Z" fill="#3F444F"/>
<path d="M56.5027 8.49051C56.2225 8.59644 55.9712 8.76662 55.7691 8.98731C55.5671 9.208 55.4199 9.47301 55.3394 9.76092C55.1951 10.2394 54.5413 12.5452 54.3545 12.7252C54.1677 12.9052 51.8242 14.3111 51.8242 14.3111L52.1023 14.8045C52.1023 14.8045 55.0104 13.4642 55.1123 13.3223C55.2142 13.1805 56.2713 10.7476 56.3605 10.3877C56.4496 10.0277 57.2732 8.03952 56.5027 8.49051Z" fill="#EEA987"/>
<path d="M56.5069 3.9341C56.5069 3.9341 55.0358 4.38933 55.834 6.93015C56.6321 9.47098 58.6423 6.63584 58.4322 5.09229C58.2221 3.54874 56.5069 3.9341 56.5069 3.9341Z" fill="#EEA987"/>
<path d="M58.0884 8.21118C58.0884 8.21118 59.6359 8.84639 60.0222 9.64675C60.4085 10.4471 59.6274 11.8594 59.4597 12.3548C59.292 12.8503 58.98 13.9725 59.0479 14.5357C59.1158 15.0989 59.3153 16.2296 59.3493 16.5896C59.3493 16.5896 56.1122 16.8585 54.8428 15.8442C54.8428 15.8442 55.6919 15.209 55.7513 14.4426C55.79 13.8492 55.7275 13.2535 55.5666 12.6809C55.5157 12.5814 54.8088 11.961 54.985 11.366C55.1612 10.7711 55.4308 9.31009 55.8511 8.90567C56.1251 8.65492 56.4413 8.45424 56.7851 8.31281L58.0884 8.21118Z" fill="#1A598C"/>
<path d="M59.0224 9.20203C58.8759 9.34389 58.4578 9.73772 58.9545 10.8366C59.4512 11.9355 60.3831 13.3774 60.4085 13.5892C60.434 13.8009 61.8095 17.8917 61.8435 17.9742C61.8775 18.0568 62.4421 17.9954 62.4421 17.9954C62.4421 17.9954 61.6206 13.9174 61.5421 13.4516C61.5421 13.4516 60.1411 8.11159 59.0224 9.20203Z" fill="#EEA987"/>
<path d="M62.4164 17.9721C62.6159 18.1315 62.829 18.2732 63.0532 18.3956C63.1594 18.4125 64.157 18.6369 64.2526 18.6073C64.3481 18.5776 64.4648 18.819 64.1507 18.8042C63.8365 18.7894 62.6648 18.8042 62.357 18.7703C62.0492 18.7364 61.6968 19.2848 61.5779 19.2785C61.4591 19.2721 61.4782 19.1176 61.6459 18.8211C61.8136 18.5247 61.9749 18.3617 61.8412 17.9869C61.7074 17.6121 62.4164 17.9721 62.4164 17.9721Z" fill="#EEA987"/>
<path d="M51.8243 14.3175C51.6481 14.3511 51.4658 14.3274 51.3042 14.2497C51.0923 14.1237 50.8692 14.0174 50.6377 13.9321L51.3531 15.2025C51.3531 15.2025 52.026 14.9506 52.1024 14.8151C52.1788 14.6796 51.8243 14.3175 51.8243 14.3175Z" fill="#EEA987"/>
<path d="M50.2146 13.1684L50.04 13.269L51.2475 15.3535L51.4221 15.2529L50.2146 13.1684Z" fill="#434343"/>
<path d="M50.5928 14.2266C50.5928 14.2266 50.4357 15.0735 51.168 15.2217L50.5928 14.2266Z" fill="#EEA987"/>
<path d="M58.0884 8.21112C58.0884 8.77858 57.4219 9.71868 56.8678 9.50694C56.3138 9.29521 56.7851 8.31276 56.7851 8.31276L56.957 8.24924C56.9506 8.20871 56.9399 8.16896 56.9252 8.13066C56.8978 8.06364 56.8659 7.99856 56.8296 7.93587C56.8296 7.93587 58.2455 6.05989 58.0714 6.73533C57.9755 7.22321 57.9813 7.72557 58.0884 8.21112Z" fill="#EEA987"/>
<path d="M55.683 5.41406C56.23 5.88661 56.9161 6.16899 57.638 6.21866C57.638 6.21866 58.052 6.71835 58.0881 6.93009C58.0881 6.93009 59.2365 5.13669 57.8949 4.02296C56.5533 2.90923 55.1905 4.9546 55.683 5.41406Z" fill="#16202E"/>
<path d="M57.6404 6.15725C57.6404 5.97304 57.7635 5.55381 58.0373 5.67026C58.3112 5.78672 58.0204 6.64213 57.8399 6.58919C57.8399 6.58919 57.617 6.59343 57.6404 6.15725Z" fill="#EEA987"/>
<path d="M57.736 7.27954C57.736 7.27954 57.5237 7.98674 56.9251 8.12648C56.8977 8.05946 56.8658 7.99438 56.8296 7.93169C56.8296 7.93169 57.2223 7.93592 57.736 7.27954Z" fill="#A1725B"/>
<path d="M55.4669 17.1189L53.6244 19.0669H52.9473L55.4669 17.1189Z" fill="#B5B9C7"/>
</g>
<defs>
<linearGradient id="paint0_linear_1061_4778" x1="68.789" y1="32.7089" x2="83.7372" y2="32.7089" gradientUnits="userSpaceOnUse">
<stop stop-color="#40D5E6"/>
<stop offset="1" stop-color="#5577FF"/>
</linearGradient>
<linearGradient id="paint1_linear_1061_4778" x1="68.69" y1="46.6808" x2="77.1915" y2="33.867" gradientUnits="userSpaceOnUse">
<stop stop-color="#40D5E6"/>
<stop offset="1" stop-color="#5577FF"/>
</linearGradient>
<linearGradient id="paint2_linear_1061_4778" x1="19.0998" y1="47.5091" x2="15.1493" y2="26.0356" gradientUnits="userSpaceOnUse">
<stop offset="0.01" stop-color="#3C6127"/>
<stop offset="1" stop-color="#639C38"/>
</linearGradient>
<linearGradient id="paint3_linear_1061_4778" x1="23.466" y1="47.2555" x2="11.192" y2="35.0702" gradientUnits="userSpaceOnUse">
<stop offset="0.01" stop-color="#3C6127"/>
<stop offset="1" stop-color="#639C38"/>
</linearGradient>
<linearGradient id="paint4_linear_1061_4778" x1="16.2706" y1="39.2918" x2="72.856" y2="39.2918" gradientUnits="userSpaceOnUse">
<stop stop-color="white"/>
<stop offset="1" stop-color="#F2F5FF"/>
</linearGradient>
<linearGradient id="paint5_linear_1061_4778" x1="82.0473" y1="21.254" x2="11.5199" y2="21.254" gradientUnits="userSpaceOnUse">
<stop stop-color="#FF9F55"/>
<stop offset="1" stop-color="#FFD255"/>
</linearGradient>
<linearGradient id="paint6_linear_1061_4778" x1="2.5939" y1="45.9761" x2="11.2652" y2="45.9761" gradientUnits="userSpaceOnUse">
<stop stop-color="#FF9F55"/>
<stop offset="1" stop-color="#FFD255"/>
</linearGradient>
<linearGradient id="paint7_linear_1061_4778" x1="8.17249" y1="45.9763" x2="3.06946" y2="45.9763" gradientUnits="userSpaceOnUse">
<stop stop-color="#FF9F55"/>
<stop offset="1" stop-color="#FFD255"/>
</linearGradient>
<linearGradient id="paint8_linear_1061_4778" x1="92.5377" y1="47.0836" x2="80.8649" y2="47.0836" gradientUnits="userSpaceOnUse">
<stop stop-color="#FF9F55"/>
<stop offset="1" stop-color="#FFD255"/>
</linearGradient>
<linearGradient id="paint9_linear_1061_4778" x1="51.3739" y1="4.76835" x2="41.8132" y2="4.76835" gradientUnits="userSpaceOnUse">
<stop stop-color="#FF9F55"/>
<stop offset="1" stop-color="#FFD255"/>
</linearGradient>
<linearGradient id="paint10_linear_1061_4778" x1="96.4674" y1="59.4165" x2="78.1002" y2="59.4434" gradientUnits="userSpaceOnUse">
<stop stop-color="#FF9F55"/>
<stop offset="1" stop-color="#FFD255"/>
</linearGradient>
<clipPath id="clip0_1061_4778">
<rect width="96.6666" height="80" fill="white"/>
</clipPath>
</defs>
</svg>
