<svg width="60" height="60" viewBox="0 0 60 60" fill="none" xmlns="http://www.w3.org/2000/svg">
<path d="M40 10C45.4376 10.0303 48.3823 10.2714 50.3033 12.1924C52.5 14.3891 52.5 17.9246 52.5 24.9957V39.9957C52.5 47.0667 52.5 50.6023 50.3033 52.799C48.1066 54.9957 44.5711 54.9957 37.5 54.9957H22.5C15.4289 54.9957 11.8934 54.9957 9.6967 52.799C7.5 50.6023 7.5 47.0667 7.5 39.9957V24.9957C7.5 17.9246 7.5 14.3891 9.6967 12.1924C11.6177 10.2714 14.5624 10.0303 20 10" stroke="#0066FF" stroke-width="3"/>
<path d="M20 8.75C20 6.67893 21.6789 5 23.75 5H36.25C38.3211 5 40 6.67893 40 8.75V11.25C40 13.3211 38.3211 15 36.25 15H23.75C21.6789 15 20 13.3211 20 11.25V8.75Z" stroke="#0066FF" stroke-width="3"/>
<path d="M37.5 32.5001L30 32.5001M30 32.5001L22.5 32.5001M30 32.5001L30 25M30 32.5001L30 40" stroke="#0066FF" stroke-width="3" stroke-linecap="round"/>
</svg>
